<?xml version="1.0" encoding="UTF-8"?>
<svg id="Camada_2" xmlns="http://www.w3.org/2000/svg" viewBox="0 0 1275 272">
  <defs>
    <style>
      .cls-1 {
        fill: #ce973e;
      }

      .cls-2 {
        fill: #ec7329;
      }

      .cls-3 {
        opacity: .47;
      }

      .cls-4 {
        fill: #f4bb49;
      }

      .cls-5 {
        fill: #173f73;
      }
    </style>
  </defs>
  <g id="Camada_1-2" data-name="Camada_1">
    <rect class="cls-4" width="1275" height="272"/>
    <g>
      <g class="cls-3">
        <path class="cls-1" d="M219.6,126.02c-7.16,7.13-13.61,13.59-20.1,20.01-1.12,1.11-1.14,2.43-1.14,3.83,0,5.95-.08,11.91.04,17.86.05,2.46-.83,3.47-3.3,3.43-5.31-.09-10.63-.04-15.95-.02-1.91,0-3.41-.4-3.35-2.77.17-7.43-.56-14.89.43-22.29.86-6.4,3.53-12,8.12-16.6,11.11-11.14,22.26-22.24,33.35-33.4,1.45-1.46,2.98-2.21,5.05-2.18,5.1.08,10.21.14,15.31-.02,2.94-.09,3.81,1.03,3.79,3.92-.1,22.86-.01,45.71-.11,68.57-.01,2.77.78,4.76,2.76,6.71,10.53,10.36,20.89,20.91,31.4,31.29,6.57,6.49,9.72,14.29,9.72,23.46,0,12.33-.09,24.66.06,36.99.04,3.23-1.03,4.3-4.24,4.15-4.99-.23-9.99-.17-14.99-.02-2.68.08-3.48-.97-3.46-3.55.09-12.97,0-25.94.08-38.91.02-2.32-.71-3.97-2.35-5.59-12.91-12.8-25.71-25.71-38.62-38.5-1.8-1.78-2.58-3.61-2.56-6.16.1-15.31.05-30.62.05-45.92,0-1.14,0-2.28,0-4.29Z"/>
        <path class="cls-1" d="M230.81,7c18.08.03,32.94,14.88,32.9,32.86-.05,18.29-14.82,33.15-32.98,33.17-18.1.02-33.23-15.11-33.1-33.08.14-18.28,14.93-32.97,33.18-32.94Z"/>
        <path class="cls-1" d="M212.72,195.39c.49.38,1.14.76,1.65,1.27,4.11,4.15,8.16,8.36,12.31,12.47,1.34,1.32,1.05,2.25-.14,3.44-18.27,18.23-36.53,36.47-54.76,54.74-1.36,1.36-2.36,1.34-3.7-.03-3.85-3.96-7.7-7.92-11.73-11.7-1.91-1.8-1.94-2.95-.03-4.83,11.65-11.48,23.18-23.08,34.75-34.65,6.31-6.31,12.61-12.62,18.93-18.92.74-.73,1.38-1.65,2.71-1.79Z"/>
        <path class="cls-1" d="M258.38,111.04c.51.42,1.03.78,1.46,1.21,15.26,15.25,30.49,30.51,45.78,45.73,1.4,1.39,1.31,2.35-.05,3.67-4.04,3.92-8.03,7.9-11.95,11.94-1.55,1.6-2.68,1.5-4.21-.04-10.03-10.11-20.11-20.16-30.2-30.2-1.21-1.2-1.81-2.52-1.81-4.23.03-8.5,0-17,.02-25.5,0-.88-.25-1.92.95-2.58Z"/>
      </g>
      <g>
        <rect class="cls-2" x="628.6" y="147.46" width="201.65" height="6.57"/>
        <g>
          <path class="cls-5" d="M698.22,109.01v-4.72c0-.45.27-.71.71-.71h4.72v-16.11l-4.23,1.65c-.49.18-.84,0-.84-.53v-4.76c0-.4.18-.71.53-.85l5.96-2.45c.27-.13.53-.18.85-.18h3.78c.45,0,.71.27.71.71v22.51h3.92c.45,0,.71.27.71.71v4.72c0,.44-.27.71-.71.71h-15.4c-.44,0-.71-.27-.71-.71Z"/>
          <path class="cls-5" d="M717.8,109.01v-4.72c0-.45.27-.71.71-.71h4.72v-16.11l-4.23,1.65c-.49.18-.84,0-.84-.53v-4.76c0-.4.18-.71.53-.85l5.96-2.45c.27-.13.53-.18.85-.18h3.78c.45,0,.71.27.71.71v22.51h3.92c.44,0,.71.27.71.71v4.72c0,.44-.27.71-.71.71h-15.4c-.44,0-.71-.27-.71-.71Z"/>
          <path class="cls-5" d="M747.62,93.3v-3.78c0-.71.22-.89.67-.98,1.11-.27,4.67-.71,7.43-.71,6.41,0,9.43,2.36,9.43,8.59v12.59c0,.44-.27.71-.71.71h-4.54c-.45,0-.71-.27-.71-.71v-.89c-1.74,1.6-3.78,2.14-6.14,2.14-4.8,0-7.56-2.27-7.56-7.03v-.09c0-4.58,2.45-6.58,9.79-6.58h.18c1.07,0,2.09.04,3.03.13-.04-2.58-.71-3.16-4.14-3.16-2.09,0-3.78.22-5.92.49-.49.04-.8-.18-.8-.71ZM754.65,105.36c1.25,0,2.58-.36,3.83-1.02v-3.6c-.98-.09-1.82-.13-2.58-.13h-.18c-2.85,0-3.83.53-3.83,2.27v.09c0,1.65.93,2.4,2.76,2.4Z"/>
          <path class="cls-5" d="M777.87,109.01v-4.72c0-.45.27-.71.71-.71h4.72v-16.11l-4.23,1.65c-.49.18-.84,0-.84-.53v-4.76c0-.4.18-.71.53-.85l5.96-2.45c.27-.13.53-.18.85-.18h3.78c.45,0,.71.27.71.71v22.51h3.92c.44,0,.71.27.71.71v4.72c0,.44-.27.71-.71.71h-15.4c-.44,0-.71-.27-.71-.71Z"/>
          <path class="cls-5" d="M809.11,109.01v-5.07h-11.66c-.44,0-.71-.27-.71-.71v-3.69c0-.31.09-.62.27-.89l10.01-17.84c.18-.31.49-.45.85-.45h6.85c.44,0,.71.27.71.71v17.4h2.31c.44,0,.71.27.71.71v4.05c0,.44-.27.71-.71.71h-2.31v5.07c0,.44-.27.71-.71.71h-4.89c-.45,0-.71-.27-.71-.71ZM809.11,98.46v-10.06l-5.47,10.06h5.47Z"/>
        </g>
        <g>
          <path class="cls-5" d="M654.83,127.43c-2.18-.27-3.69-.45-5.92-.45-4.05,0-4.76.58-4.76,2.54,0,1.51.44,2.27,4.94,3.65l1.87.58c5.34,1.65,6.99,4.18,6.99,8.77,0,6.05-2.85,8.77-11.21,8.77-2.36,0-5.25-.22-8.5-.93-.45-.09-.62-.4-.62-.89v-4.54c0-.62.36-.8.8-.71,3.16.49,5.7.85,8.14.85,3.47,0,4.36-.71,4.36-2.62,0-1.74-.71-2.27-5.61-3.78l-1.16-.36c-4.94-1.51-6.94-4.4-6.94-9.03,0-5.7,2.98-8.41,10.77-8.41,2.45,0,4.81.27,7.03.71.4.09.62.36.62.8v4.45c0,.53-.31.67-.8.62Z"/>
          <path class="cls-5" d="M670.36,128.85c6.99,0,9.7,3.56,9.7,12.68v.09c0,.67-.27.93-.98.93h-12.06c.36,2.4,1.91,2.89,5.03,2.89,2.14,0,3.65-.22,5.7-.53.49-.09.8.09.8.62v4.27c0,.4-.22.71-.58.8-1.96.4-3.96.67-6.32.67-8.14,0-11.44-3.25-11.44-11.12s3.16-11.3,10.15-11.3ZM673.66,138.33c-.18-2.85-1.11-3.74-3.25-3.74s-3.29.85-3.43,3.74h6.67Z"/>
          <path class="cls-5" d="M684.87,143.71v-8.9h-2.58c-.45,0-.71-.27-.71-.71v-4c0-.44.27-.71.71-.71h2.58v-5.96c0-.44.27-.71.71-.71h5.25c.44,0,.71.27.71.71v5.96h3.87c.44,0,.71.27.71.71v4c0,.45-.27.71-.71.71h-3.87v7.61c0,2.62.49,3.07,2.45,3.07.62,0,1.25-.04,1.87-.13.49-.04.76.09.76.58v4.27c0,.4-.22.76-.67.8-.89.13-2.09.27-3.51.27-5.25,0-7.56-1.82-7.56-7.56Z"/>
          <path class="cls-5" d="M708.81,128.85c6.99,0,9.7,3.56,9.7,12.68v.09c0,.67-.27.93-.98.93h-12.06c.36,2.4,1.91,2.89,5.03,2.89,2.14,0,3.65-.22,5.7-.53.49-.09.8.09.8.62v4.27c0,.4-.22.71-.58.8-1.96.4-3.96.67-6.32.67-8.14,0-11.44-3.25-11.44-11.12s3.16-11.3,10.15-11.3ZM712.1,138.33c-.18-2.85-1.11-3.74-3.25-3.74s-3.29.85-3.43,3.74h6.67Z"/>
          <path class="cls-5" d="M734.58,150.03v-11.48c0-2.98-.58-3.83-2.45-3.83-1.2,0-2.4.36-3.51.93v14.42c0,.4-.27.67-.67.67h-5.34c-.4,0-.67-.27-.67-.67v-19.98c0-.44.27-.71.71-.71h4.54c.45,0,.71.27.71.71v.98c1.87-1.51,4.05-2.22,6.58-2.22,2.8,0,4.63.89,5.65,2.58,1.96-1.74,4.27-2.58,6.99-2.58,4.85,0,6.76,2.62,6.76,7.65v13.53c0,.44-.27.71-.71.71h-5.25c-.44,0-.71-.27-.71-.71v-11.48c0-2.98-.58-3.83-2.45-3.83-1.2,0-2.4.36-3.51.98v14.33c0,.44-.27.71-.71.71h-5.25c-.44,0-.71-.27-.71-.71Z"/>
          <path class="cls-5" d="M758.39,121.15c0-.4.27-.67.67-.67h5.34c.4,0,.67.27.67.67v8.81c1.33-.8,2.85-1.11,4.81-1.11,6.05,0,8.72,3.25,8.72,10.68,0,8.05-3.16,11.75-11.92,11.75-2.71,0-5.16-.36-7.7-1.16-.4-.13-.58-.4-.58-.89v-28.08ZM766.97,145.54c3.56,0,4.85-1.16,4.85-5.87,0-3.92-.89-5.12-3.65-5.12-1.07,0-2.14.18-3.11.53v10.32c.62.09,1.25.13,1.91.13Z"/>
          <path class="cls-5" d="M782.15,150.07v-19.98c0-.44.27-.71.71-.71h4.63c.45,0,.71.27.71.71v1.29c1.96-2,4.41-2.54,5.92-2.54.89,0,1.07.18,1.07.71v4.23c0,.62-.18.89-.71.89h-.04c-2.14,0-4,.44-5.61,1.65v13.75c0,.4-.27.67-.67.67h-5.34c-.4,0-.67-.27-.67-.67Z"/>
          <path class="cls-5" d="M796.48,140.06c0-7.65,2.89-11.21,10.46-11.21s10.46,3.56,10.46,11.21-2.89,11.21-10.46,11.21-10.46-3.56-10.46-11.21ZM806.93,145.4c2.67,0,3.69-1.16,3.69-5.34s-1.02-5.34-3.69-5.34-3.69,1.16-3.69,5.34,1.02,5.34,3.69,5.34Z"/>
        </g>
      </g>
      <g>
        <g>
          <path class="cls-5" d="M934.23,128.42v-26.15c0-.42.25-.67.67-.67h5.5c.42,0,.67.25.67.67v26.15c0,.42-.25.67-.67.67h-5.5c-.42,0-.67-.25-.67-.67Z"/>
          <path class="cls-5" d="M947.05,101.6h9.79c6.66,0,9.37,2.42,9.37,9.2s-2.79,9.37-9.37,9.37h-3.71v8.25c0,.42-.25.67-.67.67h-5.41c-.42,0-.67-.25-.67-.67v-26.15c0-.42.25-.67.67-.67ZM955.92,114.34c2.58,0,3.46-.71,3.46-3.54,0-2.67-.79-3.37-3.46-3.37h-2.79v6.91h2.79Z"/>
          <path class="cls-5" d="M969.96,128.42v-26.15c0-.42.25-.67.67-.67h5.41c.42,0,.67.25.67.67v20.9h8.66c.42,0,.67.25.67.67v4.58c0,.42-.25.67-.67.67h-14.74c-.42,0-.67-.25-.67-.67Z"/>
          <path class="cls-5" d="M987.41,128.33l8.91-26.19c.12-.33.37-.54.75-.54h5.66c.38,0,.62.21.75.54l8.91,26.19c.17.5-.08.75-.54.75h-5.62c-.38,0-.62-.21-.75-.54l-1.38-4.46h-8.41l-1.37,4.46c-.12.33-.38.54-.75.54h-5.62c-.46,0-.71-.25-.54-.75ZM1002.31,118.26c-.79-2.79-1.62-6.04-2.42-8.95-.79,2.92-1.62,6.16-2.42,8.95h4.83Z"/>
          <path class="cls-5" d="M1015.35,128.42v-26.15c0-.42.25-.67.67-.67h5.5c.33,0,.58.12.79.46l3.83,6.33c1.92,3.21,3.87,6.75,5.83,10.16-.21-3.46-.29-7.04-.29-10.24v-6.04c0-.42.25-.67.67-.67h5.33c.42,0,.67.25.67.67v26.15c0,.42-.25.67-.67.67h-5.37c-.33,0-.58-.12-.79-.46l-3.96-6.5c-1.96-3.21-3.92-6.83-5.91-10.29.21,3.5.33,7.2.33,10.45v6.12c0,.42-.25.67-.67.67h-5.29c-.42,0-.67-.25-.67-.67Z"/>
        </g>
        <g>
          <path class="cls-5" d="M932.84,134.45h3.38c2.39,0,3.4.88,3.4,3.29,0,1.63-.46,2.57-1.49,3l1.6,3.47c.08.18-.01.29-.2.29h-1.68c-.14,0-.21-.05-.27-.18l-1.39-3.27h-1.48v3.21c0,.15-.09.24-.24.24h-1.63c-.15,0-.24-.09-.24-.24v-9.56c0-.15.09-.24.24-.24ZM935.96,139.24c1.14,0,1.49-.3,1.49-1.51s-.33-1.45-1.49-1.45h-1.25v2.95h1.25Z"/>
          <path class="cls-5" d="M943.04,137.43v4.13c0,1.07.3,1.39,1.05,1.39.49,0,.96-.14,1.39-.41v-5.12c0-.14.09-.23.23-.23h1.52c.14,0,.23.09.23.23v6.84c0,.15-.09.24-.24.24h-1.29c-.15,0-.24-.09-.24-.24v-.37c-.59.55-1.31.79-2.18.79-1.63,0-2.44-.87-2.44-2.68v-4.57c0-.15.09-.24.24-.24h1.49c.15,0,.24.09.24.24Z"/>
          <path class="cls-5" d="M949.53,138.63v-1.08c0-.23.08-.29.23-.32.49-.09,1.58-.23,2.44-.23,2.16,0,3.14.78,3.14,2.89v4.36c0,.15-.09.24-.24.24h-1.31c-.15,0-.24-.09-.24-.24v-.33c-.62.56-1.36.76-2.19.76-1.63,0-2.56-.78-2.56-2.38v-.03c0-1.54.85-2.24,3.29-2.24h.06c.43,0,.84.03,1.22.06v-.09c0-1.07-.27-1.31-1.54-1.31-.73,0-1.34.08-2.01.17-.17.03-.27-.06-.27-.23ZM951.78,143.2c.53,0,1.08-.17,1.57-.46v-1.39c-.43-.05-.81-.06-1.13-.06h-.06c-1.08,0-1.46.23-1.46.91v.03c0,.65.37.96,1.08.96Z"/>
          <path class="cls-5" d="M963.87,134.26c.5,0,1.08.03,1.75.14.18.03.23.14.23.3v1.26c0,.2-.11.27-.26.26-.52-.05-1.02-.09-1.52-.09-1.93,0-2.51.69-2.51,3.33s.55,3.33,2.51,3.33c.5,0,1-.05,1.52-.09.15-.02.26.06.26.26v1.26c0,.17-.05.27-.23.3-.67.11-1.25.14-1.75.14-3.24,0-4.52-1.46-4.52-5.21s1.29-5.21,4.52-5.21Z"/>
          <path class="cls-5" d="M969.98,137c2.31,0,3.24,1.22,3.24,4.23v.03c0,.21-.09.3-.32.3h-4.31c.11,1.13.7,1.39,1.93,1.39.7,0,1.19-.08,1.89-.18.17-.03.27.03.27.21v1.19c0,.14-.08.24-.2.27-.66.14-1.33.23-2.1.23-2.68,0-3.81-1.11-3.81-3.82s1.07-3.85,3.4-3.85ZM971.3,140.26c-.06-1.17-.44-1.55-1.31-1.55s-1.32.38-1.4,1.55h2.71Z"/>
          <path class="cls-5" d="M974.54,144.27v-9.88c0-.15.09-.24.24-.24h1.49c.15,0,.24.09.24.24v9.88c0,.14-.09.23-.23.23h-1.52c-.14,0-.23-.09-.23-.23Z"/>
          <path class="cls-5" d="M982.66,138.79c-.47-.06-.99-.12-1.55-.12-1.02,0-1.28.21-1.28.62,0,.58.56.67,1.36.85l.18.05c.99.23,2.06.61,2.06,2.21,0,1.46-.87,2.28-3.09,2.28-.61,0-1.34-.06-2.19-.23-.14-.03-.2-.14-.2-.26v-1.14c0-.2.09-.26.27-.23.59.11,1.23.17,1.86.17,1.05,0,1.35-.21,1.35-.61,0-.56-.64-.62-1.45-.82l-.18-.05c-.96-.23-1.96-.7-1.96-2.28s.9-2.22,3.12-2.22c.56,0,1.14.05,1.8.17.17.03.2.14.2.27v1.07c0,.17-.03.3-.29.27Z"/>
          <path class="cls-5" d="M984.22,140.84c0-2.62,1-3.84,3.5-3.84s3.5,1.22,3.5,3.84-1,3.84-3.5,3.84-3.5-1.22-3.5-3.84ZM987.73,142.94c1.08,0,1.49-.47,1.49-2.1s-.41-2.1-1.49-2.1-1.48.47-1.48,2.1.41,2.1,1.48,2.1Z"/>
          <path class="cls-5" d="M995.72,134.45h3.37c2.42,0,3.43.88,3.43,3.32s-1.02,3.35-3.43,3.35h-1.49v3.14c0,.15-.09.24-.24.24h-1.63c-.15,0-.24-.09-.24-.24v-9.56c0-.15.09-.24.24-.24ZM998.83,139.27c1.17,0,1.52-.29,1.52-1.51s-.33-1.48-1.52-1.48h-1.23v2.98h1.23Z"/>
          <path class="cls-5" d="M1003.8,134.38c0-.15.11-.26.26-.26h1.49c.15,0,.26.11.26.26v1.51c0,.15-.11.26-.26.26h-1.49c-.15,0-.26-.11-.26-.26v-1.51ZM1003.82,144.27v-6.84c0-.15.09-.24.24-.24h1.49c.15,0,.24.09.24.24v6.84c0,.14-.09.23-.23.23h-1.52c-.14,0-.23-.09-.23-.23Z"/>
          <path class="cls-5" d="M1007.88,138.63v-1.08c0-.23.08-.29.23-.32.49-.09,1.58-.23,2.44-.23,2.16,0,3.14.78,3.14,2.89v4.36c0,.15-.09.24-.24.24h-1.31c-.15,0-.24-.09-.24-.24v-.33c-.62.56-1.36.76-2.19.76-1.63,0-2.56-.78-2.56-2.38v-.03c0-1.54.85-2.24,3.29-2.24h.06c.43,0,.84.03,1.22.06v-.09c0-1.07-.27-1.31-1.54-1.31-.73,0-1.34.08-2.01.17-.17.03-.27-.06-.27-.23ZM1010.14,143.2c.53,0,1.08-.17,1.57-.46v-1.39c-.43-.05-.81-.06-1.13-.06h-.06c-1.08,0-1.46.23-1.46.91v.03c0,.65.37.96,1.08.96Z"/>
          <path class="cls-5" d="M1015.8,142.12v-3.32h-.91c-.15,0-.24-.09-.24-.24v-1.13c0-.15.09-.24.24-.24h.91v-2.04c0-.15.09-.24.24-.24h1.49c.15,0,.24.09.24.24v2.04h1.49c.15,0,.24.09.24.24v1.13c0,.15-.09.24-.24.24h-1.49v2.94c0,1.02.2,1.23.94,1.23.23,0,.47-.03.69-.06.17-.02.26.05.26.21v1.19c0,.14-.08.26-.23.27-.3.05-.72.09-1.16.09-1.72,0-2.48-.62-2.48-2.56Z"/>
          <path class="cls-5" d="M1021.4,142.12v-3.32h-.91c-.15,0-.24-.09-.24-.24v-1.13c0-.15.09-.24.24-.24h.91v-2.04c0-.15.09-.24.24-.24h1.49c.15,0,.24.09.24.24v2.04h1.49c.15,0,.24.09.24.24v1.13c0,.15-.09.24-.24.24h-1.49v2.94c0,1.02.2,1.23.94,1.23.23,0,.47-.03.69-.06.17-.02.26.05.26.21v1.19c0,.14-.08.26-.23.27-.3.05-.72.09-1.16.09-1.72,0-2.48-.62-2.48-2.56Z"/>
          <path class="cls-5" d="M1026.5,134.38c0-.15.11-.26.26-.26h1.49c.15,0,.26.11.26.26v1.51c0,.15-.11.26-.26.26h-1.49c-.15,0-.26-.11-.26-.26v-1.51ZM1026.52,144.27v-6.84c0-.15.09-.24.24-.24h1.49c.15,0,.24.09.24.24v6.84c0,.14-.09.23-.23.23h-1.52c-.14,0-.23-.09-.23-.23Z"/>
          <path class="cls-5" d="M1030.36,146.48l.44-1.98h-.47c-.21,0-.3-.11-.3-.29v-1.4c0-.17.12-.27.29-.27h1.43c.17,0,.29.11.29.27v1.54c0,.11-.02.2-.05.3l-.53,1.9c-.03.12-.14.2-.27.2h-.61c-.17,0-.24-.11-.21-.27Z"/>
          <path class="cls-5" d="M1036.41,144.44c-.14-.03-.21-.12-.21-.26v-1.29c0-.17.09-.26.26-.23.72.12,1.31.21,2.06.21,1.43,0,1.95-.35,1.95-1.23v-.05c0-.78-.38-1.19-1.72-1.19h-1.19c-.15,0-.24-.09-.24-.24v-1.29c0-.15.09-.24.24-.24h.87c1.16,0,1.8-.43,1.8-1.4v-.05c0-.81-.44-1.11-1.83-1.11-.67,0-1.08.08-1.74.2-.17.03-.24-.05-.24-.21v-1.23c0-.14.08-.23.21-.26.75-.18,1.45-.29,2.25-.29,2.39,0,3.3.93,3.3,2.63v.05c0,1.2-.47,1.98-1.42,2.38,1.14.27,1.74,1.22,1.74,2.47v.05c0,1.9-1.14,2.85-3.78,2.85-.82,0-1.57-.09-2.31-.24Z"/>
          <path class="cls-5" d="M1043.65,144.25v-.87c0-2.38.58-3.38,2.54-4.39l.72-.37c.88-.44,1.11-.84,1.11-1.49v-.05c0-.79-.41-1.05-1.78-1.05h-.03c-.64,0-1.28.06-2.04.2-.18.03-.3-.03-.3-.24v-1.22c0-.14.06-.24.21-.27.94-.17,1.77-.24,2.48-.24,2.53,0,3.49.82,3.49,2.63v.05c0,1.32-.43,2.27-1.93,3.05l-.78.4c-1.17.59-1.64,1.23-1.69,2.3h4.1c.15,0,.24.09.24.24v1.32c0,.15-.09.24-.24.24h-5.85c-.15,0-.24-.09-.24-.24Z"/>
          <path class="cls-5" d="M1051.29,134.45h5.57c.15,0,.24.09.24.24v.99c0,.14-.02.23-.06.37l-3.04,8.25c-.05.12-.15.2-.29.2h-1.55c-.18,0-.26-.09-.2-.27l2.97-7.95h-3.64c-.15,0-.24-.09-.24-.24v-1.34c0-.15.09-.24.24-.24Z"/>
          <path class="cls-5" d="M1061.11,139.65h3.11c.15,0,.24.09.24.24v1.22c0,.15-.09.24-.24.24h-3.11c-.15,0-.24-.09-.24-.24v-1.22c0-.15.09-.24.24-.24Z"/>
          <path class="cls-5" d="M1067.85,142.74c.49.05.84.08,1.22.08,1.26,0,1.61-.35,1.61-1.77v-6.3c0-.21.11-.3.35-.3h1.52c.15,0,.24.09.24.24v6.47c0,2.65-.91,3.52-3.34,3.52-.47,0-1.02-.03-1.66-.12-.14-.02-.21-.14-.21-.29v-1.28c0-.21.11-.26.26-.24Z"/>
          <path class="cls-5" d="M1074.89,138.63v-1.08c0-.23.08-.29.23-.32.49-.09,1.58-.23,2.44-.23,2.16,0,3.14.78,3.14,2.89v4.36c0,.15-.09.24-.24.24h-1.31c-.15,0-.24-.09-.24-.24v-.33c-.62.56-1.36.76-2.19.76-1.63,0-2.56-.78-2.56-2.38v-.03c0-1.54.85-2.24,3.29-2.24h.06c.43,0,.84.03,1.22.06v-.09c0-1.07-.27-1.31-1.54-1.31-.73,0-1.34.08-2.01.17-.17.03-.27-.06-.27-.23ZM1077.14,143.2c.53,0,1.08-.17,1.57-.46v-1.39c-.43-.05-.81-.06-1.13-.06h-.06c-1.08,0-1.46.23-1.46.91v.03c0,.65.37.96,1.08.96Z"/>
          <path class="cls-5" d="M1082.38,144.27v-6.84c0-.15.09-.24.24-.24h1.32c.15,0,.24.09.24.24v.49c.67-.72,1.54-.91,2.04-.91.3,0,.35.08.35.24v1.2c0,.2-.06.29-.24.29h-.02c-.75,0-1.4.18-1.96.65v4.87c0,.14-.09.23-.23.23h-1.52c-.14,0-.23-.09-.23-.23Z"/>
          <path class="cls-5" d="M1087.9,138.63v-1.08c0-.23.08-.29.23-.32.49-.09,1.58-.23,2.44-.23,2.16,0,3.14.78,3.14,2.89v4.36c0,.15-.09.24-.24.24h-1.31c-.15,0-.24-.09-.24-.24v-.33c-.62.56-1.36.76-2.19.76-1.63,0-2.56-.78-2.56-2.38v-.03c0-1.54.85-2.24,3.29-2.24h.06c.43,0,.84.03,1.22.06v-.09c0-1.07-.27-1.31-1.54-1.31-.73,0-1.34.08-2.01.17-.17.03-.27-.06-.27-.23ZM1090.16,143.2c.53,0,1.08-.17,1.57-.46v-1.39c-.43-.05-.81-.06-1.13-.06h-.06c-1.08,0-1.46.23-1.46.91v.03c0,.65.37.96,1.08.96Z"/>
          <path class="cls-5" d="M1098.12,147.57c-.5,0-1.25-.03-2.01-.15-.12-.02-.23-.08-.23-.26v-1.22c0-.17.11-.23.27-.21.58.08,1.17.14,1.75.14,1.46,0,1.92-.4,1.92-1.52v-.3c-.5.44-1.14.64-1.87.64-1.83,0-2.89-1.25-2.89-3.75s1.19-3.93,3.76-3.93c1.07,0,2.28.23,2.79.41.12.05.2.12.2.3v6.52c0,2.41-1.02,3.33-3.68,3.33ZM1098.5,142.97c.43,0,.88-.11,1.33-.37v-3.81c-.32-.06-.66-.09-.96-.09-1.36,0-1.78.55-1.78,2.13s.43,2.13,1.42,2.13Z"/>
          <path class="cls-5" d="M1105.47,137.43v4.13c0,1.07.3,1.39,1.05,1.39.49,0,.96-.14,1.39-.41v-5.12c0-.14.09-.23.23-.23h1.52c.14,0,.23.09.23.23v6.84c0,.15-.09.24-.24.24h-1.29c-.15,0-.24-.09-.24-.24v-.37c-.59.55-1.31.79-2.18.79-1.63,0-2.44-.87-2.44-2.68v-4.57c0-.15.09-.24.24-.24h1.49c.15,0,.24.09.24.24Z"/>
          <path class="cls-5" d="M1111.96,138.63v-1.08c0-.23.08-.29.23-.32.49-.09,1.58-.23,2.44-.23,2.16,0,3.14.78,3.14,2.89v4.36c0,.15-.09.24-.24.24h-1.31c-.15,0-.24-.09-.24-.24v-.33c-.62.56-1.36.76-2.19.76-1.63,0-2.56-.78-2.56-2.38v-.03c0-1.54.85-2.24,3.29-2.24h.06c.43,0,.84.03,1.22.06v-.09c0-1.07-.27-1.31-1.54-1.31-.73,0-1.34.08-2.01.17-.17.03-.27-.06-.27-.23ZM1112.95,135.08c0-.09.03-.17.12-.18l3.24-.94c.12-.03.18.02.18.12v1.13c0,.09-.03.15-.12.17l-3.24.75c-.12.03-.18,0-.18-.12v-.91ZM1114.21,143.2c.53,0,1.08-.17,1.57-.46v-1.39c-.43-.05-.81-.06-1.13-.06h-.06c-1.08,0-1.46.23-1.46.91v.03c0,.65.37.96,1.08.96Z"/>
        </g>
        <g>
          <path class="cls-5" d="M933.79,83.86h3.15c2.89,0,4.28,1.39,4.28,5.03s-1.39,5.03-4.28,5.03h-3.15c-.15,0-.24-.09-.24-.24v-9.56c0-.15.09-.24.24-.24ZM937.03,91.74c1.17,0,1.63-.58,1.63-2.86s-.46-2.86-1.63-2.86h-1.02v5.73h1.02Z"/>
          <path class="cls-5" d="M942.65,83.63c0-.15.11-.26.26-.26h1.77c.15,0,.26.11.26.26v1.77c0,.15-.11.26-.26.26h-1.77c-.15,0-.26-.11-.26-.26v-1.77ZM942.65,93.68v-6.84c0-.15.09-.24.24-.24h1.8c.15,0,.24.09.24.24v6.84c0,.14-.09.23-.23.23h-1.83c-.14,0-.23-.09-.23-.23Z"/>
          <path class="cls-5" d="M946.88,88.29v-1.29c0-.24.08-.3.23-.33.38-.09,1.6-.24,2.54-.24,2.19,0,3.23.81,3.23,2.94v4.31c0,.15-.09.24-.24.24h-1.55c-.15,0-.24-.09-.24-.24v-.3c-.59.55-1.29.73-2.1.73-1.65,0-2.59-.78-2.59-2.41v-.03c0-1.57.84-2.25,3.35-2.25h.06c.37,0,.72.02,1.04.05-.02-.88-.24-1.08-1.42-1.08-.72,0-1.29.08-2.03.17-.17.02-.27-.06-.27-.24ZM949.29,92.42c.43,0,.88-.12,1.31-.35v-1.23c-.33-.03-.62-.05-.88-.05h-.06c-.97,0-1.31.18-1.31.78v.03c0,.56.32.82.94.82Z"/>
          <path class="cls-5" d="M959.03,88.44c-.52-.06-1.04-.12-1.58-.12-.91,0-1.11.17-1.11.46,0,.5.59.53,1.34.7l.2.05c.91.21,1.92.61,1.92,2.22,0,1.51-.87,2.35-3.17,2.35-.64,0-1.42-.06-2.28-.23-.15-.03-.2-.14-.2-.26v-1.35c0-.21.09-.27.27-.24.61.11,1.28.15,1.89.15.96,0,1.19-.17,1.19-.44,0-.46-.64-.49-1.4-.67l-.18-.05c-.93-.23-1.87-.73-1.87-2.31s.87-2.27,3.23-2.27c.58,0,1.19.05,1.86.17.17.03.2.14.2.27v1.29c0,.18-.04.32-.29.29Z"/>
          <path class="cls-5" d="M963.63,93.66v-1.61c0-.15.09-.24.24-.24h1.61v-5.51l-1.45.56c-.17.06-.29,0-.29-.18v-1.63c0-.14.06-.24.18-.29l2.04-.84c.09-.05.18-.06.29-.06h1.29c.15,0,.24.09.24.24v7.71h1.34c.15,0,.24.09.24.24v1.61c0,.15-.09.24-.24.24h-5.27c-.15,0-.24-.09-.24-.24Z"/>
          <path class="cls-5" d="M970.32,93.66v-1.61c0-.15.09-.24.24-.24h1.61v-5.51l-1.45.56c-.17.06-.29,0-.29-.18v-1.63c0-.14.06-.24.18-.29l2.04-.84c.09-.05.18-.06.29-.06h1.29c.15,0,.24.09.24.24v7.71h1.34c.15,0,.24.09.24.24v1.61c0,.15-.09.24-.24.24h-5.27c-.15,0-.24-.09-.24-.24Z"/>
          <path class="cls-5" d="M977.51,95.84l.43-1.93h-.53c-.23,0-.32-.11-.32-.3v-1.6c0-.17.12-.27.29-.27h1.64c.17,0,.29.11.29.27v1.75c0,.11-.01.2-.04.3l-.53,1.86c-.03.12-.14.2-.27.2h-.73c-.17,0-.24-.11-.21-.27Z"/>
          <path class="cls-5" d="M983.51,93.66v-1.61c0-.15.09-.24.24-.24h1.61v-5.51l-1.45.56c-.17.06-.29,0-.29-.18v-1.63c0-.14.06-.24.18-.29l2.04-.84c.09-.05.18-.06.29-.06h1.29c.15,0,.24.09.24.24v7.71h1.34c.15,0,.24.09.24.24v1.61c0,.15-.09.24-.24.24h-5.27c-.15,0-.24-.09-.24-.24Z"/>
          <path class="cls-5" d="M990.15,93.66v-1.07c0-2.28.58-3.29,2.54-4.29l.72-.37c.75-.38.97-.73.97-1.29v-.05c0-.64-.37-.87-1.64-.87h-.03c-.67,0-1.33.08-2.04.2-.2.03-.32-.02-.32-.24v-1.48c0-.14.06-.24.21-.27.97-.18,1.84-.26,2.62-.26,2.62,0,3.55.81,3.55,2.68v.05c0,1.35-.41,2.3-1.93,3.08l-.78.4c-1,.52-1.48,1.08-1.57,1.93h3.96c.15,0,.24.09.24.24v1.61c0,.15-.09.24-.24.24h-6.01c-.15,0-.24-.09-.24-.24Z"/>
          <path class="cls-5" d="M1003.9,86.42c2.39,0,3.32,1.22,3.32,4.34v.03c0,.23-.09.32-.33.32h-4.13c.12.82.66.99,1.72.99.73,0,1.25-.08,1.95-.18.17-.03.27.03.27.21v1.46c0,.14-.08.24-.2.27-.67.14-1.36.23-2.16.23-2.79,0-3.91-1.11-3.91-3.81s1.08-3.87,3.47-3.87ZM1005.02,89.66c-.06-.97-.38-1.28-1.11-1.28s-1.13.29-1.17,1.28h2.29Z"/>
          <path class="cls-5" d="M1011.2,93.66v-1.61c0-.15.09-.24.24-.24h1.61v-5.51l-1.45.56c-.17.06-.29,0-.29-.18v-1.63c0-.14.06-.24.18-.29l2.04-.84c.09-.05.18-.06.29-.06h1.29c.15,0,.24.09.24.24v7.71h1.34c.15,0,.24.09.24.24v1.61c0,.15-.09.24-.24.24h-5.27c-.15,0-.24-.09-.24-.24Z"/>
          <path class="cls-5" d="M1018.02,93.85c-.14-.03-.21-.12-.21-.26v-1.58c0-.17.09-.26.26-.23.72.12,1.31.21,2.07.21,1.26,0,1.69-.26,1.69-1.04v-.05c0-.59-.29-.94-1.48-.94h-1.19c-.15,0-.24-.09-.24-.24v-1.58c0-.15.09-.24.24-.24h.87c.97,0,1.57-.33,1.57-1.16v-.05c0-.69-.38-.93-1.68-.93-.65,0-1.04.06-1.67.17-.17.03-.23-.05-.23-.21v-1.49c0-.14.08-.23.21-.26.75-.18,1.45-.29,2.28-.29,2.45,0,3.37.93,3.37,2.63v.05c0,1.2-.49,1.98-1.42,2.38,1.14.26,1.74,1.2,1.74,2.47v.05c0,1.9-1.14,2.85-3.85,2.85-.84,0-1.58-.09-2.33-.24Z"/>
        </g>
        <path class="cls-5" d="M922.22,113.02c-1.41-8.51-9.02-14.91-17.76-14.82-.68-.03-1.51.02-2.33.15-4.29.67-7.93,2.56-10.85,5.78-2.97,3.27-4.53,7.15-4.68,11.55-.13,3.84.93,7.39,3.16,10.52,3.96,5.57,7.97,11.09,11.96,16.64.33.45.73.82,1.22,1.07,1.52.77,3.17.31,4.28-1.2,3.91-5.32,7.84-10.62,11.71-15.96,2.98-4.11,4.1-8.7,3.27-13.73ZM904.54,121.23c-3.3,0-5.97-2.67-5.97-5.97s2.67-5.97,5.97-5.97,5.97,2.67,5.97,5.97-2.67,5.97-5.97,5.97Z"/>
      </g>
      <g>
        <path class="cls-5" d="M926.57,195.68c-1.37-8.26-8.75-14.47-17.24-14.38-.66-.03-1.46.02-2.26.14-4.16.65-7.69,2.49-10.53,5.61-2.89,3.18-4.4,6.94-4.54,11.21-.12,3.73.9,7.17,3.07,10.22,3.84,5.4,7.74,10.77,11.61,16.15.32.44.7.79,1.19,1.04,1.47.74,3.08.3,4.16-1.16,3.8-5.16,7.61-10.31,11.37-15.49,2.89-3.99,3.98-8.44,3.17-13.32ZM909.41,203.65c-3.2,0-5.8-2.6-5.8-5.8s2.6-5.8,5.8-5.8,5.8,2.6,5.8,5.8-2.6,5.8-5.8,5.8Z"/>
        <g>
          <path class="cls-5" d="M937.06,201.74v-16.49c0-.4.24-.65.65-.65h5.25c.4,0,.65.24.65.65v16.13c0,3.35,1.01,4.65,3.88,4.65s3.84-1.29,3.84-4.65v-16.13c0-.4.24-.65.65-.65h5.25c.4,0,.65.24.65.65v16.49c0,6.99-2.95,10.02-10.39,10.02s-10.43-3.03-10.43-10.02Z"/>
          <path class="cls-5" d="M963.38,184.6h15.36c.4,0,.65.24.65.65v4.45c0,.4-.24.65-.65.65h-9.46v5.01h8.17c.4,0,.65.24.65.65v4.45c0,.4-.24.65-.65.65h-8.17v9.54c0,.4-.24.65-.65.65h-5.25c-.4,0-.65-.24-.65-.65v-25.38c0-.4.24-.65.65-.65Z"/>
          <path class="cls-5" d="M978.05,210.55l8.65-25.42c.12-.32.36-.53.73-.53h5.5c.36,0,.61.2.73.53l8.65,25.42c.16.48-.08.73-.53.73h-5.46c-.36,0-.61-.2-.73-.53l-1.33-4.33h-8.17l-1.33,4.33c-.12.32-.36.53-.73.53h-5.46c-.44,0-.69-.24-.53-.73ZM992.52,200.77c-.77-2.71-1.58-5.86-2.34-8.69-.77,2.83-1.58,5.98-2.34,8.69h4.69Z"/>
          <path class="cls-5" d="M1005.18,210.63v-25.38c0-.4.24-.65.65-.65h5.25c.4,0,.65.24.65.65v20.29h8.41c.4,0,.65.24.65.65v4.45c0,.4-.24.65-.65.65h-14.31c-.4,0-.65-.24-.65-.65Z"/>
        </g>
        <g>
          <path class="cls-5" d="M937.65,225.15l3.26-9.58c.05-.12.14-.2.27-.2h1.72c.14,0,.23.08.27.2l3.24,9.58c.06.18-.03.27-.2.27h-1.67c-.14,0-.23-.08-.27-.2l-.58-1.83h-3.3l-.58,1.83c-.05.12-.14.2-.27.2h-1.69c-.17,0-.26-.09-.2-.27ZM943.12,221.58l-.12-.37c-.32-1-.64-2.27-.96-3.4-.3,1.13-.62,2.39-.94,3.4l-.12.37h2.15Z"/>
          <path class="cls-5" d="M949.36,218.36v4.13c0,1.07.3,1.39,1.05,1.39.49,0,.96-.14,1.39-.41v-5.12c0-.14.09-.23.23-.23h1.52c.14,0,.23.09.23.23v6.84c0,.15-.09.24-.24.24h-1.29c-.15,0-.24-.09-.24-.24v-.37c-.59.55-1.31.79-2.18.79-1.63,0-2.44-.87-2.44-2.68v-4.57c0-.15.09-.24.24-.24h1.49c.15,0,.24.09.24.24Z"/>
          <path class="cls-5" d="M955.14,221.82c0-2.54,1.13-3.88,3.24-3.88.5,0,1.04.08,1.52.37v-3c0-.14.09-.23.23-.23h1.52c.14,0,.23.09.23.23v9.88c0,.15-.09.24-.24.24h-1.31c-.15,0-.24-.09-.24-.24v-.33c-.49.58-1.22.76-1.93.76-1.83,0-3.02-1.17-3.02-3.79ZM958.62,223.91c.47,0,.91-.14,1.29-.4v-3.65c-.33-.14-.72-.21-1.14-.21-1.14,0-1.6.58-1.6,2.1,0,1.64.53,2.16,1.45,2.16Z"/>
          <path class="cls-5" d="M963.59,215.32c0-.15.11-.26.26-.26h1.49c.15,0,.26.11.26.26v1.51c0,.15-.11.26-.26.26h-1.49c-.15,0-.26-.11-.26-.26v-1.51ZM963.61,225.2v-6.84c0-.15.09-.24.24-.24h1.49c.15,0,.24.09.24.24v6.84c0,.14-.09.23-.23.23h-1.52c-.14,0-.23-.09-.23-.23Z"/>
          <path class="cls-5" d="M967.81,223.05v-3.32h-.91c-.15,0-.24-.09-.24-.24v-1.13c0-.15.09-.24.24-.24h.91v-2.04c0-.15.09-.24.24-.24h1.49c.15,0,.24.09.24.24v2.04h1.49c.15,0,.24.09.24.24v1.13c0,.15-.09.24-.24.24h-1.49v2.94c0,1.02.2,1.23.94,1.23.23,0,.47-.03.69-.06.17-.02.26.05.26.21v1.19c0,.14-.08.26-.23.27-.3.05-.72.09-1.16.09-1.72,0-2.48-.62-2.48-2.56Z"/>
          <path class="cls-5" d="M972.49,221.77c0-2.62,1-3.84,3.5-3.84s3.5,1.22,3.5,3.84-1,3.84-3.5,3.84-3.5-1.22-3.5-3.84ZM974.22,216.02c0-.09.03-.17.12-.18l3.24-.94c.12-.03.18.02.18.12v1.13c0,.09-.03.15-.12.17l-3.24.75c-.12.03-.18,0-.18-.12v-.91ZM975.99,223.88c1.08,0,1.49-.47,1.49-2.1s-.41-2.1-1.49-2.1-1.48.47-1.48,2.1.41,2.1,1.48,2.1Z"/>
          <path class="cls-5" d="M980.87,225.2v-6.84c0-.15.09-.24.24-.24h1.32c.15,0,.24.09.24.24v.49c.67-.72,1.54-.91,2.04-.91.3,0,.35.08.35.24v1.2c0,.2-.06.29-.24.29h-.02c-.75,0-1.4.18-1.96.65v4.87c0,.14-.09.23-.23.23h-1.52c-.14,0-.23-.09-.23-.23Z"/>
          <path class="cls-5" d="M986.22,215.32c0-.15.11-.26.26-.26h1.49c.15,0,.26.11.26.26v1.51c0,.15-.11.26-.26.26h-1.49c-.15,0-.26-.11-.26-.26v-1.51ZM986.23,225.2v-6.84c0-.15.09-.24.24-.24h1.49c.15,0,.24.09.24.24v6.84c0,.14-.09.23-.23.23h-1.52c-.14,0-.23-.09-.23-.23Z"/>
          <path class="cls-5" d="M989.6,221.77c0-2.62,1-3.84,3.5-3.84s3.5,1.22,3.5,3.84-1,3.84-3.5,3.84-3.5-1.22-3.5-3.84ZM993.1,223.88c1.08,0,1.49-.47,1.49-2.1s-.41-2.1-1.49-2.1-1.48.47-1.48,2.1.41,2.1,1.48,2.1Z"/>
          <path class="cls-5" d="M999.98,221.82c0-2.54,1.13-3.88,3.24-3.88.5,0,1.04.08,1.52.37v-3c0-.14.09-.23.23-.23h1.52c.14,0,.23.09.23.23v9.88c0,.15-.09.24-.24.24h-1.31c-.15,0-.24-.09-.24-.24v-.33c-.49.58-1.22.76-1.93.76-1.83,0-3.02-1.17-3.02-3.79ZM1003.45,223.91c.47,0,.91-.14,1.29-.4v-3.65c-.33-.14-.72-.21-1.14-.21-1.14,0-1.6.58-1.6,2.1,0,1.64.53,2.16,1.45,2.16Z"/>
          <path class="cls-5" d="M1008.1,221.77c0-2.62,1-3.84,3.5-3.84s3.5,1.22,3.5,3.84-1,3.84-3.5,3.84-3.5-1.22-3.5-3.84ZM1011.6,223.88c1.08,0,1.49-.47,1.49-2.1s-.41-2.1-1.49-2.1-1.48.47-1.48,2.1.41,2.1,1.48,2.1Z"/>
          <path class="cls-5" d="M1019.35,225.19v-9.56c0-.15.09-.24.24-.24h1.66c.15,0,.24.09.24.24v9.56c0,.15-.09.24-.24.24h-1.66c-.15,0-.24-.09-.24-.24Z"/>
          <path class="cls-5" d="M1027.74,215.2c.5,0,1.08.03,1.75.14.18.03.23.14.23.3v1.26c0,.2-.11.27-.26.26-.52-.05-1.02-.09-1.52-.09-1.93,0-2.51.69-2.51,3.33s.55,3.33,2.51,3.33c.5,0,1-.05,1.52-.09.15-.02.26.06.26.26v1.26c0,.17-.05.27-.23.3-.67.11-1.25.14-1.75.14-3.24,0-4.52-1.46-4.52-5.21s1.29-5.21,4.52-5.21Z"/>
          <path class="cls-5" d="M1031.57,215.38h5.65c.15,0,.24.09.24.24v1.39c0,.15-.09.24-.24.24h-3.78v2.3h3.27c.15,0,.24.09.24.24v1.37c0,.15-.09.24-.24.24h-3.27v3.78c0,.15-.09.24-.24.24h-1.63c-.15,0-.24-.09-.24-.24v-9.56c0-.15.09-.24.24-.24Z"/>
          <path class="cls-5" d="M1036.9,227.41l.44-1.98h-.47c-.21,0-.3-.11-.3-.29v-1.4c0-.17.12-.27.29-.27h1.43c.17,0,.29.11.29.27v1.54c0,.11-.02.2-.05.3l-.53,1.9c-.03.12-.14.2-.27.2h-.61c-.17,0-.24-.11-.21-.27Z"/>
          <path class="cls-5" d="M1043.26,219.57v-1.08c0-.23.08-.29.23-.32.49-.09,1.58-.23,2.44-.23,2.16,0,3.14.78,3.14,2.89v4.36c0,.15-.09.24-.24.24h-1.31c-.15,0-.24-.09-.24-.24v-.33c-.62.56-1.36.76-2.19.76-1.63,0-2.56-.78-2.56-2.38v-.03c0-1.54.85-2.24,3.29-2.24h.06c.43,0,.84.03,1.22.06v-.09c0-1.07-.27-1.31-1.54-1.31-.73,0-1.34.08-2.01.17-.17.03-.27-.06-.27-.23ZM1045.52,224.13c.53,0,1.08-.17,1.57-.46v-1.39c-.43-.05-.81-.06-1.13-.06h-.06c-1.08,0-1.46.23-1.46.91v.03c0,.65.37.96,1.08.96Z"/>
          <path class="cls-5" d="M1055.2,225.19v-4.08c0-1.11-.23-1.43-.96-1.43-.52,0-1.04.17-1.51.46v5.07c0,.14-.09.23-.23.23h-1.52c-.14,0-.23-.09-.23-.23v-6.84c0-.15.09-.24.24-.24h1.31c.15,0,.24.09.24.24v.4c.69-.56,1.45-.82,2.33-.82,1.64,0,2.3.88,2.3,2.62v4.63c0,.15-.09.24-.24.24h-1.49c-.15,0-.24-.09-.24-.24Z"/>
          <path class="cls-5" d="M1059.3,223.05v-3.32h-.91c-.15,0-.24-.09-.24-.24v-1.13c0-.15.09-.24.24-.24h.91v-2.04c0-.15.09-.24.24-.24h1.49c.15,0,.24.09.24.24v2.04h1.49c.15,0,.24.09.24.24v1.13c0,.15-.09.24-.24.24h-1.49v2.94c0,1.02.2,1.23.94,1.23.23,0,.47-.03.69-.06.17-.02.26.05.26.21v1.19c0,.14-.08.26-.23.27-.3.05-.72.09-1.16.09-1.72,0-2.48-.62-2.48-2.56Z"/>
          <path class="cls-5" d="M1064.4,215.32c0-.15.11-.26.26-.26h1.49c.15,0,.26.11.26.26v1.51c0,.15-.11.26-.26.26h-1.49c-.15,0-.26-.11-.26-.26v-1.51ZM1064.41,225.2v-6.84c0-.15.09-.24.24-.24h1.49c.15,0,.24.09.24.24v6.84c0,.14-.09.23-.23.23h-1.52c-.14,0-.23-.09-.23-.23Z"/>
          <path class="cls-5" d="M1071.28,217.94c.58,0,1.14.06,1.61.17.14.03.21.14.21.27l-.02,1.14c0,.2-.11.24-.27.23-.52-.06-.87-.08-1.22-.08-1.37,0-1.8.35-1.8,2.1s.41,2.1,1.81,2.1c.37,0,.69-.02,1.2-.08.17-.02.29.03.29.23v1.14c0,.14-.08.24-.21.27-.47.11-1.02.17-1.61.17-2.51,0-3.5-1.11-3.5-3.84s.99-3.84,3.5-3.84Z"/>
          <path class="cls-5" d="M1073.97,221.77c0-2.62,1-3.84,3.5-3.84s3.5,1.22,3.5,3.84-1,3.84-3.5,3.84-3.5-1.22-3.5-3.84ZM1077.47,223.88c1.08,0,1.49-.47,1.49-2.1s-.41-2.1-1.49-2.1-1.48.47-1.48,2.1.41,2.1,1.48,2.1Z"/>
          <path class="cls-5" d="M1088.86,215.2c.5,0,1.08.03,1.75.14.18.03.23.14.23.3v1.26c0,.2-.11.27-.26.26-.52-.05-1.02-.09-1.52-.09-1.93,0-2.51.69-2.51,3.33s.55,3.33,2.51,3.33c.5,0,1-.05,1.52-.09.15-.02.26.06.26.26v1.26c0,.17-.05.27-.23.3-.67.11-1.25.14-1.75.14-3.24,0-4.52-1.46-4.52-5.21s1.29-5.21,4.52-5.21Z"/>
          <path class="cls-5" d="M1097.51,217.19c-.76-.11-1.25-.18-2.01-.18-1.45,0-1.78.26-1.78,1.07,0,.66.23.97,1.67,1.42l.7.21c1.87.58,2.47,1.39,2.47,2.94,0,2.06-1,2.97-3.75,2.97-.75,0-1.72-.08-2.82-.32-.14-.03-.21-.14-.21-.29v-1.29c0-.21.12-.26.27-.23,1.05.17,1.86.29,2.7.29,1.31,0,1.72-.3,1.72-1.14,0-.67-.26-.91-1.84-1.4l-.52-.15c-1.78-.55-2.45-1.49-2.45-3.03,0-1.93,1-2.85,3.59-2.85.79,0,1.57.09,2.31.24.14.03.21.12.21.26v1.28c0,.17-.11.23-.27.21Z"/>
          <path class="cls-5" d="M1100.14,219.57v-1.08c0-.23.08-.29.23-.32.49-.09,1.58-.23,2.44-.23,2.16,0,3.14.78,3.14,2.89v4.36c0,.15-.09.24-.24.24h-1.31c-.15,0-.24-.09-.24-.24v-.33c-.62.56-1.36.76-2.19.76-1.63,0-2.56-.78-2.56-2.38v-.03c0-1.54.85-2.24,3.29-2.24h.06c.43,0,.84.03,1.22.06v-.09c0-1.07-.27-1.31-1.54-1.31-.73,0-1.34.08-2.01.17-.17.03-.27-.06-.27-.23ZM1102.4,224.13c.53,0,1.08-.17,1.57-.46v-1.39c-.43-.05-.81-.06-1.13-.06h-.06c-1.08,0-1.46.23-1.46.91v.03c0,.65.37.96,1.08.96Z"/>
          <path class="cls-5" d="M1109.48,218.36v4.13c0,1.07.3,1.39,1.05,1.39.49,0,.96-.14,1.39-.41v-5.12c0-.14.09-.23.23-.23h1.52c.14,0,.23.09.23.23v6.84c0,.15-.09.24-.24.24h-1.29c-.15,0-.24-.09-.24-.24v-.37c-.59.55-1.31.79-2.18.79-1.63,0-2.44-.87-2.44-2.68v-4.57c0-.15.09-.24.24-.24h1.49c.15,0,.24.09.24.24Z"/>
        </g>
        <g>
          <path class="cls-5" d="M938.11,167.48h3.15c2.89,0,4.28,1.39,4.28,5.03s-1.39,5.03-4.28,5.03h-3.15c-.15,0-.24-.09-.24-.24v-9.56c0-.15.09-.24.24-.24ZM941.36,175.36c1.17,0,1.63-.58,1.63-2.86s-.46-2.86-1.63-2.86h-1.02v5.73h1.02Z"/>
          <path class="cls-5" d="M946.97,167.25c0-.15.11-.26.26-.26h1.77c.15,0,.26.11.26.26v1.77c0,.15-.11.26-.26.26h-1.77c-.15,0-.26-.11-.26-.26v-1.77ZM946.97,177.3v-6.84c0-.15.09-.24.24-.24h1.8c.15,0,.24.09.24.24v6.84c0,.14-.09.23-.23.23h-1.83c-.14,0-.23-.09-.23-.23Z"/>
          <path class="cls-5" d="M951.21,171.91v-1.29c0-.24.08-.3.23-.33.38-.09,1.6-.24,2.54-.24,2.19,0,3.23.81,3.23,2.94v4.31c0,.15-.09.24-.24.24h-1.55c-.15,0-.24-.09-.24-.24v-.3c-.59.55-1.29.73-2.1.73-1.65,0-2.59-.78-2.59-2.41v-.03c0-1.57.84-2.25,3.35-2.25h.06c.37,0,.72.02,1.04.05-.02-.88-.24-1.08-1.42-1.08-.72,0-1.29.08-2.03.17-.17.02-.27-.06-.27-.24ZM953.61,176.03c.43,0,.88-.12,1.31-.35v-1.23c-.33-.03-.62-.05-.88-.05h-.06c-.97,0-1.31.18-1.31.78v.03c0,.56.32.82.94.82Z"/>
          <path class="cls-5" d="M961.56,177.28v-1.61c0-.15.09-.24.24-.24h1.61v-5.51l-1.45.56c-.17.06-.29,0-.29-.18v-1.63c0-.14.06-.24.18-.29l2.04-.84c.09-.05.18-.06.29-.06h1.29c.15,0,.24.09.24.24v7.71h1.34c.15,0,.24.09.24.24v1.61c0,.15-.09.24-.24.24h-5.27c-.15,0-.24-.09-.24-.24Z"/>
          <path class="cls-5" d="M972.25,177.28v-1.74h-3.99c-.15,0-.24-.09-.24-.24v-1.26c0-.11.03-.21.09-.3l3.43-6.11c.06-.11.17-.15.29-.15h2.35c.15,0,.24.09.24.24v5.95h.79c.15,0,.24.09.24.24v1.39c0,.15-.09.24-.24.24h-.79v1.74c0,.15-.09.24-.24.24h-1.68c-.15,0-.24-.09-.24-.24ZM972.25,173.67v-3.44l-1.87,3.44h1.87Z"/>
          <path class="cls-5" d="M979.4,172.55h3.11c.15,0,.24.09.24.24v1.49c0,.15-.09.24-.24.24h-3.11c-.15,0-.24-.09-.24-.24v-1.49c0-.15.09-.24.24-.24Z"/>
          <path class="cls-5" d="M987.32,167.48h3.58c2.44,0,3.43.88,3.43,3.37s-1.02,3.43-3.43,3.43h-1.36v3.02c0,.15-.09.24-.24.24h-1.98c-.15,0-.24-.09-.24-.24v-9.56c0-.15.09-.24.24-.24ZM990.56,172.14c.94,0,1.26-.26,1.26-1.29,0-.97-.29-1.23-1.26-1.23h-1.02v2.53h1.02Z"/>
          <path class="cls-5" d="M995.51,177.3v-9.88c0-.15.09-.24.24-.24h1.8c.15,0,.24.09.24.24v9.88c0,.14-.09.23-.23.23h-1.83c-.14,0-.23-.09-.23-.23Z"/>
          <path class="cls-5" d="M1002.5,170.03c2.39,0,3.32,1.22,3.32,4.34v.03c0,.23-.09.32-.33.32h-4.13c.12.82.66.99,1.72.99.73,0,1.25-.08,1.95-.18.17-.03.27.03.27.21v1.46c0,.14-.08.24-.2.27-.67.14-1.36.23-2.16.23-2.79,0-3.91-1.11-3.91-3.81s1.08-3.87,3.47-3.87ZM1003.62,173.28c-.06-.97-.38-1.28-1.11-1.28s-1.13.29-1.17,1.28h2.29Z"/>
          <path class="cls-5" d="M1011.31,177.28v-3.93c0-1.02-.2-1.31-.84-1.31-.41,0-.82.12-1.2.32v4.93c0,.14-.09.23-.23.23h-1.83c-.14,0-.23-.09-.23-.23v-6.84c0-.15.09-.24.24-.24h1.55c.15,0,.24.09.24.24v.33c.64-.52,1.39-.76,2.25-.76,1.66,0,2.31.9,2.31,2.62v4.63c0,.15-.09.24-.24.24h-1.8c-.15,0-.24-.09-.24-.24Z"/>
          <path class="cls-5" d="M1015.42,171.91v-1.29c0-.24.08-.3.23-.33.38-.09,1.6-.24,2.54-.24,2.19,0,3.23.81,3.23,2.94v4.31c0,.15-.09.24-.24.24h-1.55c-.15,0-.24-.09-.24-.24v-.3c-.59.55-1.29.73-2.1.73-1.65,0-2.59-.78-2.59-2.41v-.03c0-1.57.84-2.25,3.35-2.25h.06c.37,0,.72.02,1.04.05-.02-.88-.24-1.08-1.42-1.08-.72,0-1.29.08-2.03.17-.17.02-.27-.06-.27-.24ZM1016.41,168.05c0-.09.03-.17.12-.18l3.43-.96c.12-.03.18.02.18.12v1.29c0,.09-.03.15-.12.17l-3.43.7c-.12.03-.18,0-.18-.12v-1.02ZM1017.83,176.03c.43,0,.88-.12,1.31-.35v-1.23c-.33-.03-.62-.05-.88-.05h-.06c-.97,0-1.31.18-1.31.78v.03c0,.56.32.82.94.82Z"/>
          <path class="cls-5" d="M1022.96,177.3v-6.84c0-.15.09-.24.24-.24h1.58c.15,0,.24.09.24.24v.44c.67-.69,1.51-.87,2.03-.87.3,0,.37.06.37.24v1.45c0,.21-.06.3-.24.3h-.02c-.73,0-1.37.15-1.92.56v4.71c0,.14-.09.23-.23.23h-1.83c-.14,0-.23-.09-.23-.23Z"/>
          <path class="cls-5" d="M1028.45,167.25c0-.15.11-.26.26-.26h1.77c.15,0,.26.11.26.26v1.77c0,.15-.11.26-.26.26h-1.77c-.15,0-.26-.11-.26-.26v-1.77ZM1028.45,177.3v-6.84c0-.15.09-.24.24-.24h1.8c.15,0,.24.09.24.24v6.84c0,.14-.09.23-.23.23h-1.83c-.14,0-.23-.09-.23-.23Z"/>
          <path class="cls-5" d="M1032.69,171.91v-1.29c0-.24.08-.3.23-.33.38-.09,1.6-.24,2.54-.24,2.19,0,3.23.81,3.23,2.94v4.31c0,.15-.09.24-.24.24h-1.55c-.15,0-.24-.09-.24-.24v-.3c-.59.55-1.29.73-2.1.73-1.65,0-2.59-.78-2.59-2.41v-.03c0-1.57.84-2.25,3.35-2.25h.06c.37,0,.72.02,1.04.05-.02-.88-.24-1.08-1.42-1.08-.72,0-1.29.08-2.03.17-.17.02-.27-.06-.27-.24ZM1035.09,176.03c.43,0,.88-.12,1.31-.35v-1.23c-.33-.03-.62-.05-.88-.05h-.06c-.97,0-1.31.18-1.31.78v.03c0,.56.32.82.94.82Z"/>
          <path class="cls-5" d="M1047.55,167.29c.81,0,1.58.08,2.34.21.17.03.21.17.21.27v1.51c0,.21-.09.32-.35.29-.67-.08-1.22-.12-2.01-.12-2.04,0-2.54.32-2.54,2.98s.49,3.21,2.18,3.21c.27,0,.53-.02.78-.05v-2.12h-1.22c-.15,0-.24-.09-.24-.24v-1.55c0-.15.09-.24.24-.24h3.26c.15,0,.24.09.24.24v5.28c0,.18-.09.26-.2.29-.84.24-1.95.44-3.14.44-3.12,0-4.43-1.46-4.43-5.18s1.19-5.24,4.87-5.24Z"/>
          <path class="cls-5" d="M1055.02,170.03c2.39,0,3.32,1.22,3.32,4.34v.03c0,.23-.09.32-.33.32h-4.13c.12.82.66.99,1.72.99.73,0,1.25-.08,1.95-.18.17-.03.27.03.27.21v1.46c0,.14-.08.24-.2.27-.67.14-1.36.23-2.16.23-2.79,0-3.91-1.11-3.91-3.81s1.08-3.87,3.47-3.87ZM1056.15,173.28c-.06-.97-.38-1.28-1.11-1.28s-1.13.29-1.17,1.28h2.29Z"/>
          <path class="cls-5" d="M1059.51,177.3v-6.84c0-.15.09-.24.24-.24h1.58c.15,0,.24.09.24.24v.44c.67-.69,1.51-.87,2.03-.87.3,0,.37.06.37.24v1.45c0,.21-.06.3-.24.3h-.02c-.73,0-1.37.15-1.92.56v4.71c0,.14-.09.23-.23.23h-1.83c-.14,0-.23-.09-.23-.23Z"/>
          <path class="cls-5" d="M1065.17,171.91v-1.29c0-.24.08-.3.23-.33.38-.09,1.6-.24,2.54-.24,2.19,0,3.23.81,3.23,2.94v4.31c0,.15-.09.24-.24.24h-1.55c-.15,0-.24-.09-.24-.24v-.3c-.59.55-1.29.73-2.1.73-1.65,0-2.59-.78-2.59-2.41v-.03c0-1.57.84-2.25,3.35-2.25h.06c.37,0,.72.02,1.04.05-.02-.88-.24-1.08-1.42-1.08-.72,0-1.29.08-2.03.17-.17.02-.27-.06-.27-.24ZM1067.58,176.03c.43,0,.88-.12,1.31-.35v-1.23c-.33-.03-.62-.05-.88-.05h-.06c-.97,0-1.31.18-1.31.78v.03c0,.56.32.82.94.82Z"/>
          <path class="cls-5" d="M1072.73,177.3v-9.88c0-.15.09-.24.24-.24h1.8c.15,0,.24.09.24.24v9.88c0,.14-.09.23-.23.23h-1.83c-.14,0-.23-.09-.23-.23Z"/>
        </g>
      </g>
      <rect class="cls-5" x="610.6" y="173" width="221" height="58.35" rx="10.61" ry="10.61"/>
      <g>
        <path class="cls-4" d="M654.49,210.63v-15.18c0-.24.15-.39.39-.39h3.19c.24,0,.39.15.39.39v15.18c0,.24-.14.39-.39.39h-3.19c-.24,0-.39-.15-.39-.39Z"/>
        <path class="cls-4" d="M661.54,210.63v-15.18c0-.24.14-.39.39-.39h3.19c.19,0,.34.07.46.27l2.22,3.67c1.11,1.86,2.25,3.92,3.38,5.9-.12-2.01-.17-4.08-.17-5.95v-3.5c0-.24.14-.39.39-.39h3.09c.24,0,.39.15.39.39v15.18c0,.24-.14.39-.39.39h-3.12c-.19,0-.34-.07-.46-.27l-2.3-3.77c-1.14-1.86-2.27-3.96-3.43-5.97.12,2.03.19,4.18.19,6.07v3.55c0,.24-.14.39-.39.39h-3.07c-.24,0-.39-.15-.39-.39Z"/>
        <path class="cls-4" d="M686.68,198.36c-1.18-.15-2.01-.24-3.21-.24-2.2,0-2.59.31-2.59,1.38,0,.82.24,1.23,2.68,1.98l1.02.31c2.9.89,3.79,2.27,3.79,4.76,0,3.29-1.55,4.76-6.09,4.76-1.28,0-2.85-.12-4.62-.51-.24-.05-.34-.22-.34-.48v-2.46c0-.34.19-.44.43-.39,1.72.27,3.09.46,4.42.46,1.89,0,2.37-.39,2.37-1.43,0-.94-.39-1.23-3.04-2.05l-.63-.19c-2.68-.82-3.77-2.39-3.77-4.91,0-3.09,1.62-4.57,5.85-4.57,1.33,0,2.61.15,3.82.39.22.05.34.19.34.44v2.42c0,.29-.17.36-.44.34Z"/>
        <path class="cls-4" d="M697.02,194.78c.75,0,1.76.05,2.83.22.29.05.36.22.36.51v2.39c0,.31-.17.48-.41.46-.75-.07-1.6-.15-2.34-.15-2.83,0-3.63.99-3.63,4.83s.73,4.83,3.6,4.83c.77,0,1.62-.07,2.37-.15.24-.02.41.15.41.46v2.39c0,.29-.07.46-.36.51-1.06.17-2.08.22-2.83.22-5.22,0-7.25-2.32-7.25-8.27s2.05-8.27,7.25-8.27Z"/>
        <path class="cls-4" d="M703.01,195.07h5.68c3.84,0,5.44,1.4,5.44,5.34,0,2.56-.68,4.06-2.2,4.79l2.46,5.37c.12.29-.02.46-.31.46h-3.24c-.22,0-.34-.07-.43-.29l-2.01-4.98h-1.86v4.88c0,.24-.15.39-.39.39h-3.14c-.24,0-.39-.15-.39-.39v-15.18c0-.24.14-.39.39-.39ZM708.16,202.46c1.5,0,2.01-.41,2.01-2.05,0-1.55-.46-1.96-2.01-1.96h-1.62v4.01h1.62Z"/>
        <path class="cls-4" d="M717.24,195.07h9.26c.24,0,.39.15.39.39v2.66c0,.24-.14.39-.39.39h-5.73v2.85h5.24c.24,0,.39.15.39.39v2.61c0,.24-.14.39-.39.39h-5.24v2.85h5.97c.24,0,.39.15.39.39v2.66c0,.24-.15.39-.39.39h-9.5c-.24,0-.39-.15-.39-.39v-15.18c0-.24.14-.39.39-.39Z"/>
        <path class="cls-4" d="M733.12,210.71l-4.86-15.2c-.1-.29.05-.44.31-.44h3.09c.19,0,.36.12.44.31l.97,3.12c.63,2.08,1.28,4.86,1.93,7.35.65-2.49,1.3-5.27,1.93-7.35l.97-3.12c.07-.19.19-.31.44-.31h3.09c.27,0,.41.15.31.44l-4.86,15.2c-.07.19-.22.31-.43.31h-2.9c-.22,0-.39-.12-.43-.31Z"/>
        <path class="cls-4" d="M740.25,210.59l5.17-15.2c.07-.19.22-.31.43-.31h3.29c.22,0,.36.12.44.31l5.17,15.2c.1.29-.05.44-.31.44h-3.26c-.22,0-.36-.12-.43-.31l-.8-2.59h-4.88l-.8,2.59c-.07.19-.22.31-.44.31h-3.26c-.27,0-.41-.15-.31-.44ZM748.9,204.74c-.46-1.62-.94-3.5-1.4-5.2-.46,1.69-.94,3.58-1.4,5.2h2.8Z"/>
        <path class="cls-4" d="M755.06,203.12h4.93c.24,0,.39.14.39.39v2.37c0,.24-.15.39-.39.39h-4.93c-.24,0-.39-.14-.39-.39v-2.37c0-.24.14-.39.39-.39Z"/>
        <path class="cls-4" d="M770.38,198.36c-1.18-.15-2.01-.24-3.21-.24-2.2,0-2.59.31-2.59,1.38,0,.82.24,1.23,2.68,1.98l1.02.31c2.9.89,3.79,2.27,3.79,4.76,0,3.29-1.55,4.76-6.09,4.76-1.28,0-2.85-.12-4.62-.51-.24-.05-.34-.22-.34-.48v-2.46c0-.34.19-.44.43-.39,1.72.27,3.09.46,4.42.46,1.89,0,2.37-.39,2.37-1.43,0-.94-.39-1.23-3.04-2.05l-.63-.19c-2.68-.82-3.77-2.39-3.77-4.91,0-3.09,1.62-4.57,5.85-4.57,1.33,0,2.61.15,3.82.39.22.05.34.19.34.44v2.42c0,.29-.17.36-.44.34Z"/>
        <path class="cls-4" d="M774.54,195.07h9.26c.24,0,.39.15.39.39v2.66c0,.24-.14.39-.39.39h-5.73v2.85h5.24c.24,0,.39.15.39.39v2.61c0,.24-.14.39-.39.39h-5.24v2.85h5.97c.24,0,.39.15.39.39v2.66c0,.24-.15.39-.39.39h-9.5c-.24,0-.39-.15-.39-.39v-15.18c0-.24.14-.39.39-.39Z"/>
      </g>
      <g>
        <g>
          <g>
            <path class="cls-5" d="M224.93,135.15l16.2-47.6c.23-.61.68-.98,1.36-.98h10.29c.68,0,1.14.38,1.36.98l16.2,47.6c.3.91-.15,1.36-.98,1.36h-10.22c-.68,0-1.13-.38-1.36-.98l-2.5-8.1h-15.29l-2.5,8.1c-.23.61-.68.98-1.36.98h-10.22c-.83,0-1.29-.45-.98-1.36ZM252.02,116.84c-1.44-5.07-2.95-10.97-4.39-16.27-1.44,5.3-2.95,11.2-4.39,16.27h8.78Z"/>
            <path class="cls-5" d="M290.01,99.28c3.03,0,5.83.3,8.17.83.68.15,1.06.68,1.06,1.36v6.96c0,1.06-.61,1.21-1.36,1.14-2.72-.23-4.54-.3-6.05-.3-6.13,0-8.02,1.21-8.02,9.08s1.74,9.08,8.1,9.08c1.59,0,3.25-.08,5.98-.3.76-.08,1.36.08,1.36,1.14v6.96c0,.68-.38,1.21-1.06,1.36-2.27.53-4.84.83-7.72.83l-.3,2.57c4.39.23,6.51,1.74,6.51,5.68s-2.27,6.05-7.87,6.05c-1.51,0-3.63-.15-4.54-.38s-1.06-.83-1.06-1.44v-2.27c0-.91.61-.76,1.51-.68s1.89.15,2.8.15c1.82,0,2.35-.3,2.35-1.44,0-1.21-.61-1.67-4.01-1.67-.98,0-1.36-.15-1.74-.76l-.15-.15c-.38-.53-.83-.98-.76-1.67l.83-4.54c-8.4-1.67-11.73-7.42-11.73-18.54,0-13.55,4.92-19.07,17.71-19.07Z"/>
            <path class="cls-5" d="M302.96,118.35c0-13.02,4.92-19.07,17.79-19.07s17.79,6.05,17.79,19.07-4.92,19.07-17.79,19.07-17.79-6.05-17.79-19.07ZM315.97,85.05c4.09,0,5.98,3.56,8.63,3.56,1.21,0,2.27-.76,2.72-2.04.3-.98.61-1.51,1.36-1.51h3.56c.76,0,1.29.45,1.14,1.29-.45,4.77-3.86,8.4-8.02,8.4-3.86,0-6.21-3.33-8.55-3.33-1.36,0-2.19,1.14-2.5,2.27-.23.68-.61,1.06-1.36,1.06h-3.63c-.83,0-1.29-.45-1.21-1.29.53-4.47,3.63-8.4,7.87-8.4ZM320.74,127.43c4.54,0,6.28-1.97,6.28-9.08s-1.74-9.08-6.28-9.08-6.28,1.97-6.28,9.08,1.74,9.08,6.28,9.08Z"/>
            <path class="cls-5" d="M360.17,99.28c11.88,0,16.5,6.05,16.5,21.57v.15c0,1.14-.45,1.59-1.67,1.59h-20.51c.61,4.09,3.25,4.92,8.55,4.92,3.63,0,6.21-.38,9.69-.91.83-.15,1.36.15,1.36,1.06v7.27c0,.68-.38,1.21-.98,1.36-3.33.68-6.74,1.14-10.75,1.14-13.85,0-19.45-5.52-19.45-18.92s5.37-19.22,17.26-19.22ZM365.77,115.4c-.3-4.84-1.89-6.36-5.52-6.36s-5.6,1.44-5.83,6.36h11.35Z"/>
            <path class="cls-5" d="M405.35,109.35c-2.57-.3-5.15-.61-7.87-.61-4.54,0-5.52.83-5.52,2.27,0,2.5,2.95,2.65,6.66,3.48l.98.23c4.54,1.06,9.54,3.03,9.54,11.05,0,7.49-4.31,11.66-15.74,11.66-3.18,0-7.04-.3-11.35-1.14-.76-.15-.98-.68-.98-1.29v-6.74c0-1.06.45-1.36,1.36-1.21,3.03.53,6.36.76,9.38.76,4.77,0,5.9-.83,5.9-2.19,0-2.27-3.18-2.42-6.96-3.33l-.91-.23c-4.62-1.14-9.31-3.63-9.31-11.5s4.31-11.28,16.04-11.28c2.88,0,5.9.23,9.23.83.83.15.98.68.98,1.36v6.43c0,.91-.23,1.59-1.44,1.44Z"/>
          </g>
          <g>
            <path class="cls-5" d="M254.7,151.76h15.67c14.38,0,21.27,6.89,21.27,24.98s-6.89,24.98-21.27,24.98h-15.67c-.76,0-1.21-.45-1.21-1.21v-47.53c0-.76.45-1.21,1.21-1.21ZM270.82,190.96c5.83,0,8.1-2.88,8.1-14.23s-2.27-14.23-8.1-14.23h-5.07v28.46h5.07Z"/>
            <path class="cls-5" d="M298.74,150.62c0-.76.53-1.29,1.29-1.29h8.78c.76,0,1.29.53,1.29,1.29v8.78c0,.76-.53,1.29-1.29,1.29h-8.78c-.76,0-1.29-.53-1.29-1.29v-8.78ZM298.74,200.57v-33.98c0-.76.45-1.21,1.21-1.21h8.93c.76,0,1.21.45,1.21,1.21v33.98c0,.68-.45,1.14-1.14,1.14h-9.08c-.68,0-1.13-.45-1.13-1.14Z"/>
            <path class="cls-5" d="M317.89,200.57v-33.98c0-.76.45-1.21,1.21-1.21h7.87c.76,0,1.21.45,1.21,1.21v2.19c3.33-3.41,7.49-4.31,10.07-4.31,1.51,0,1.82.3,1.82,1.21v7.19c0,1.06-.3,1.51-1.21,1.51h-.08c-3.63,0-6.81.76-9.54,2.8v23.39c0,.68-.45,1.14-1.13,1.14h-9.08c-.68,0-1.14-.45-1.14-1.14Z"/>
            <path class="cls-5" d="M359.52,164.47c11.88,0,16.5,6.05,16.5,21.57v.15c0,1.14-.45,1.59-1.67,1.59h-20.51c.61,4.09,3.25,4.92,8.55,4.92,3.63,0,6.21-.38,9.69-.91.83-.15,1.36.15,1.36,1.06v7.27c0,.68-.38,1.21-.98,1.36-3.33.68-6.74,1.14-10.75,1.14-13.85,0-19.45-5.52-19.45-18.92s5.37-19.22,17.26-19.22ZM365.12,180.59c-.3-4.84-1.89-6.36-5.52-6.36s-5.6,1.44-5.83,6.36h11.35Z"/>
            <path class="cls-5" d="M384.19,189.75v-15.14h-4.39c-.76,0-1.21-.45-1.21-1.21v-6.81c0-.76.45-1.21,1.21-1.21h4.39v-10.14c0-.76.45-1.21,1.21-1.21h8.93c.76,0,1.21.45,1.21,1.21v10.14h6.58c.76,0,1.21.45,1.21,1.21v6.81c0,.76-.45,1.21-1.21,1.21h-6.58v12.94c0,4.47.83,5.22,4.16,5.22,1.06,0,2.12-.08,3.18-.23.83-.08,1.29.15,1.29.98v7.27c0,.68-.38,1.29-1.13,1.36-1.51.23-3.56.45-5.98.45-8.93,0-12.87-3.1-12.87-12.87Z"/>
            <path class="cls-5" d="M409.69,200.57v-33.98c0-.76.45-1.21,1.21-1.21h7.87c.76,0,1.21.45,1.21,1.21v2.19c3.33-3.41,7.49-4.31,10.07-4.31,1.51,0,1.82.3,1.82,1.21v7.19c0,1.06-.3,1.51-1.21,1.51h-.08c-3.63,0-6.81.76-9.54,2.8v23.39c0,.68-.45,1.14-1.13,1.14h-9.08c-.68,0-1.13-.45-1.13-1.14Z"/>
            <path class="cls-5" d="M437.01,150.62c0-.76.53-1.29,1.29-1.29h8.78c.76,0,1.29.53,1.29,1.29v8.78c0,.76-.53,1.29-1.29,1.29h-8.78c-.76,0-1.29-.53-1.29-1.29v-8.78ZM437.01,200.57v-33.98c0-.76.45-1.21,1.21-1.21h8.93c.76,0,1.21.45,1.21,1.21v33.98c0,.68-.45,1.14-1.13,1.14h-9.08c-.68,0-1.14-.45-1.14-1.14Z"/>
            <path class="cls-5" d="M453.81,200.5v-5.9c0-.53.15-1.06.45-1.51l12.64-18.47h-11.58c-.76,0-1.21-.45-1.21-1.21v-6.81c0-.76.45-1.21,1.21-1.21h23.46c.76,0,1.21.45,1.21,1.21v6.13c0,.53-.15,1.06-.45,1.51l-12.49,18.24h12.49c.76,0,1.21.45,1.21,1.21v6.81c0,.76-.45,1.21-1.21,1.21h-24.52c-.76,0-1.21-.45-1.21-1.21Z"/>
            <path class="cls-5" d="M501.42,164.47c11.88,0,16.5,6.05,16.5,21.57v.15c0,1.14-.46,1.59-1.67,1.59h-20.51c.61,4.09,3.25,4.92,8.55,4.92,3.63,0,6.21-.38,9.69-.91.83-.15,1.36.15,1.36,1.06v7.27c0,.68-.38,1.21-.98,1.36-3.33.68-6.74,1.14-10.75,1.14-13.85,0-19.45-5.52-19.45-18.92s5.37-19.22,17.26-19.22ZM507.02,180.59c-.3-4.84-1.89-6.36-5.53-6.36s-5.6,1.44-5.83,6.36h11.35Z"/>
            <path class="cls-5" d="M546.6,174.54c-2.57-.3-5.15-.61-7.87-.61-4.54,0-5.52.83-5.52,2.27,0,2.5,2.95,2.65,6.66,3.48l.98.23c4.54,1.06,9.54,3.03,9.54,11.05,0,7.49-4.31,11.66-15.74,11.66-3.18,0-7.04-.3-11.35-1.14-.76-.15-.98-.68-.98-1.29v-6.74c0-1.06.45-1.36,1.36-1.21,3.03.53,6.36.76,9.38.76,4.77,0,5.9-.83,5.9-2.19,0-2.27-3.18-2.42-6.96-3.33l-.91-.23c-4.62-1.14-9.31-3.63-9.31-11.5s4.31-11.28,16.04-11.28c2.88,0,5.9.23,9.23.83.83.15.98.68.98,1.36v6.43c0,.91-.23,1.59-1.44,1.44Z"/>
          </g>
          <path class="cls-5" d="M228.38,160.93c-1.41-1.77-2.21-3.54-2.21-5.96v-.08c0-4.47,2.66-6.68,9.62-6.68,2.29,0,4.39.24,6.4.72.32.08.52.36.52.68v3.94c0,.4-.24.6-.68.52-1.89-.32-3.3-.52-5.39-.52-3.22,0-4.43.48-4.43,2.05v.08c0,1.33.76,2.17,7.28,8.61l1.57,1.57c.2-.97.28-2.21.28-4.22v-.89c0-.36.24-.6.72-.6h4.06c.4,0,.64.24.64.6v.89c0,3.5-.52,6.44-1.65,8.69l3.98,4.19c.44.48.12.72-.32.72h-5.39c-.36,0-.52-.08-.76-.28l-.93-.84c-1.77,1.05-4.02,1.61-6.88,1.61-6.08,0-10.42-2.58-10.42-8.33,0-3.42,1.53-5.47,3.98-6.48ZM231.56,164.27c-.6.56-.97,1.37-.97,2.66,0,2.58,1.49,3.5,4.23,3.5,1.09,0,1.93-.16,2.62-.44l-5.39-5.23-.48-.48Z"/>
        </g>
        <g>
          <path class="cls-5" d="M226.37,223.93c0-4.49,1.48-6.31,5.24-6.31s5.22,1.83,5.22,6.31-1.46,6.31-5.22,6.31-5.24-1.83-5.24-6.31ZM231.62,227.62c1.59,0,2.12-.78,2.12-3.69s-.54-3.69-2.12-3.69-2.14.78-2.14,3.69.55,3.69,2.14,3.69Z"/>
          <path class="cls-5" d="M240.47,217.84h7.02c.18,0,.3.11.3.3v2.03c0,.18-.11.3-.3.3h-4.32v2.29h3.73c.18,0,.3.11.3.3v2.03c0,.18-.11.3-.3.3h-3.73v4.36c0,.18-.11.3-.29.3h-2.4c-.18,0-.3-.11-.3-.3v-11.59c0-.18.11-.3.3-.3Z"/>
          <path class="cls-5" d="M250.94,229.73v-11.59c0-.18.11-.3.29-.3h2.44c.18,0,.29.11.29.3v11.59c0,.18-.11.3-.29.3h-2.44c-.18,0-.29-.11-.29-.3Z"/>
          <path class="cls-5" d="M262.84,217.62c.57,0,1.35.04,2.16.17.22.04.28.17.28.39v1.83c0,.24-.13.37-.31.35-.57-.06-1.22-.11-1.79-.11-2.16,0-2.77.76-2.77,3.69s.55,3.69,2.75,3.69c.59,0,1.24-.06,1.81-.11.18-.02.31.11.31.35v1.83c0,.22-.05.35-.28.39-.81.13-1.59.17-2.16.17-3.99,0-5.54-1.77-5.54-6.31s1.57-6.31,5.54-6.31Z"/>
          <path class="cls-5" d="M268.51,229.73v-11.59c0-.18.11-.3.3-.3h2.44c.18,0,.3.11.3.3v11.59c0,.18-.11.3-.3.3h-2.44c-.18,0-.3-.11-.3-.3Z"/>
          <path class="cls-5" d="M275.28,229.73v-11.59c0-.18.11-.3.3-.3h2.44c.15,0,.26.06.35.2l1.7,2.81c.85,1.42,1.72,2.99,2.58,4.5-.09-1.53-.13-3.12-.13-4.54v-2.68c0-.18.11-.3.29-.3h2.36c.18,0,.3.11.3.3v11.59c0,.18-.11.3-.3.3h-2.38c-.15,0-.26-.06-.35-.2l-1.75-2.88c-.87-1.42-1.74-3.03-2.62-4.56.09,1.55.15,3.19.15,4.63v2.71c0,.18-.11.3-.29.3h-2.34c-.18,0-.3-.11-.3-.3Z"/>
          <path class="cls-5" d="M288.16,229.69l3.95-11.61c.05-.15.17-.24.33-.24h2.51c.17,0,.28.09.33.24l3.95,11.61c.07.22-.04.33-.24.33h-2.49c-.17,0-.28-.09-.33-.24l-.61-1.98h-3.73l-.61,1.98c-.06.15-.17.24-.33.24h-2.49c-.2,0-.31-.11-.24-.33ZM294.77,225.23c-.35-1.24-.72-2.68-1.07-3.97-.35,1.29-.72,2.73-1.07,3.97h2.14Z"/>
          <path class="cls-5" d="M306.75,217.84h3.82c3.51,0,5.19,1.68,5.19,6.09s-1.68,6.09-5.19,6.09h-3.82c-.18,0-.29-.11-.29-.3v-11.59c0-.18.11-.3.29-.3ZM310.68,227.4c1.42,0,1.98-.7,1.98-3.47s-.55-3.47-1.98-3.47h-1.24v6.94h1.24Z"/>
          <path class="cls-5" d="M319.39,217.84h7.07c.18,0,.3.11.3.3v2.03c0,.18-.11.3-.3.3h-4.38v2.18h4.01c.18,0,.3.11.3.3v1.99c0,.18-.11.3-.3.3h-4.01v2.18h4.56c.18,0,.3.11.3.3v2.03c0,.18-.11.3-.3.3h-7.26c-.18,0-.29-.11-.29-.3v-11.59c0-.18.11-.3.29-.3Z"/>
          <path class="cls-5" d="M335.58,217.84h4.34c2.95,0,4.15,1.07,4.15,4.08s-1.24,4.15-4.15,4.15h-1.64v3.66c0,.18-.11.3-.3.3h-2.4c-.18,0-.29-.11-.29-.3v-11.59c0-.18.11-.3.29-.3ZM339.51,223.49c1.14,0,1.53-.31,1.53-1.57,0-1.18-.35-1.5-1.53-1.5h-1.24v3.06h1.24Z"/>
          <path class="cls-5" d="M344.88,229.69l3.95-11.61c.06-.15.17-.24.33-.24h2.51c.17,0,.28.09.33.24l3.95,11.61c.07.22-.04.33-.24.33h-2.49c-.17,0-.28-.09-.33-.24l-.61-1.98h-3.73l-.61,1.98c-.06.15-.17.24-.33.24h-2.49c-.2,0-.31-.11-.24-.33ZM351.49,225.23c-.35-1.24-.72-2.68-1.07-3.97-.35,1.29-.72,2.73-1.07,3.97h2.14Z"/>
          <path class="cls-5" d="M358.95,217.84h4.34c2.94,0,4.15,1.07,4.15,4.08,0,1.96-.52,3.1-1.68,3.66l1.88,4.1c.09.22-.02.35-.24.35h-2.47c-.17,0-.26-.06-.33-.22l-1.53-3.8h-1.42v3.73c0,.18-.11.3-.3.3h-2.4c-.18,0-.29-.11-.29-.3v-11.59c0-.18.11-.3.29-.3ZM362.88,223.49c1.14,0,1.53-.31,1.53-1.57,0-1.18-.35-1.5-1.53-1.5h-1.24v3.06h1.24Z"/>
          <path class="cls-5" d="M375.37,230.03h-2.4c-.18,0-.29-.11-.29-.3v-9.23h-2.58c-.18,0-.29-.11-.29-.3v-2.07c0-.18.11-.3.29-.3h8.16c.18,0,.29.11.29.3v2.07c0,.18-.11.3-.29.3h-2.58v9.23c0,.18-.11.3-.3.3Z"/>
          <path class="cls-5" d="M381.44,229.73v-11.59c0-.18.11-.3.3-.3h2.44c.18,0,.3.11.3.3v11.59c0,.18-.11.3-.3.3h-2.44c-.19,0-.3-.11-.3-.3Z"/>
          <path class="cls-5" d="M393.35,217.62c.57,0,1.35.04,2.16.17.22.04.28.17.28.39v1.83c0,.24-.13.37-.31.35-.57-.06-1.22-.11-1.79-.11-2.16,0-2.77.76-2.77,3.69s.55,3.69,2.75,3.69c.59,0,1.24-.06,1.81-.11.18-.02.31.11.31.35v1.83c0,.22-.06.35-.28.39-.81.13-1.59.17-2.16.17-3.99,0-5.54-1.77-5.54-6.31s1.57-6.31,5.54-6.31Z"/>
          <path class="cls-5" d="M399.01,229.73v-11.59c0-.18.11-.3.3-.3h2.44c.18,0,.3.11.3.3v11.59c0,.18-.11.3-.3.3h-2.44c-.19,0-.3-.11-.3-.3Z"/>
          <path class="cls-5" d="M406.08,217.84h4.34c2.95,0,4.15,1.07,4.15,4.08s-1.24,4.15-4.15,4.15h-1.64v3.66c0,.18-.11.3-.3.3h-2.4c-.19,0-.3-.11-.3-.3v-11.59c0-.18.11-.3.3-.3ZM410.02,223.49c1.14,0,1.53-.31,1.53-1.57,0-1.18-.35-1.5-1.53-1.5h-1.24v3.06h1.24Z"/>
          <path class="cls-5" d="M415.38,229.69l3.95-11.61c.06-.15.17-.24.33-.24h2.51c.17,0,.28.09.33.24l3.95,11.61c.07.22-.04.33-.24.33h-2.49c-.17,0-.28-.09-.33-.24l-.61-1.98h-3.73l-.61,1.98c-.06.15-.17.24-.33.24h-2.49c-.2,0-.31-.11-.24-.33ZM422,225.23c-.35-1.24-.72-2.68-1.07-3.97-.35,1.29-.72,2.73-1.07,3.97h2.14Z"/>
          <path class="cls-5" d="M433.73,217.62c.57,0,1.35.04,2.16.17.22.04.28.17.28.39v1.83c0,.24-.13.37-.31.35-.57-.06-1.22-.11-1.79-.11-2.16,0-2.77.76-2.77,3.69s.55,3.69,2.75,3.69c.59,0,1.24-.06,1.81-.11.18-.02.31.11.31.35v1.83c0,.22-.06.35-.28.39-.81.13-1.59.17-2.16.17h-.26l-.09.65c1.07.06,1.59.42,1.59,1.38s-.55,1.48-1.92,1.48c-.37,0-.89-.04-1.11-.09s-.26-.2-.26-.35v-.55c0-.22.15-.18.37-.17.22.02.46.04.68.04.44,0,.57-.07.57-.35,0-.3-.15-.41-.98-.41-.24,0-.33-.04-.42-.18l-.04-.04c-.09-.13-.2-.24-.18-.41l.2-1.16c-2.62-.52-3.69-2.38-3.69-6.15,0-4.54,1.57-6.31,5.54-6.31Z"/>
          <path class="cls-5" d="M438.35,229.69l3.95-11.61c.06-.15.17-.24.33-.24h2.51c.17,0,.28.09.33.24l3.95,11.61c.07.22-.04.33-.24.33h-2.49c-.17,0-.28-.09-.33-.24l-.61-1.98h-3.73l-.61,1.98c-.06.15-.17.24-.33.24h-2.49c-.2,0-.31-.11-.24-.33ZM442.7,214.61c1,0,1.46.87,2.11.87.29,0,.55-.18.66-.5.07-.24.15-.37.33-.37h.87c.18,0,.31.11.28.31-.11,1.16-.94,2.05-1.96,2.05-.94,0-1.51-.81-2.09-.81-.33,0-.54.28-.61.55-.05.17-.15.26-.33.26h-.89c-.2,0-.31-.11-.29-.31.13-1.09.89-2.05,1.92-2.05ZM444.96,225.23c-.35-1.24-.72-2.68-1.07-3.97-.35,1.29-.72,2.73-1.07,3.97h2.14Z"/>
          <path class="cls-5" d="M451.16,223.93c0-4.49,1.48-6.31,5.24-6.31s5.23,1.83,5.23,6.31-1.46,6.31-5.23,6.31-5.24-1.83-5.24-6.31ZM456.4,227.62c1.59,0,2.12-.78,2.12-3.69s-.54-3.69-2.12-3.69-2.14.78-2.14,3.69.55,3.69,2.14,3.69Z"/>
          <path class="cls-5" d="M469.78,217.84h4.34c2.95,0,4.15,1.07,4.15,4.08s-1.24,4.15-4.15,4.15h-1.64v3.66c0,.18-.11.3-.3.3h-2.4c-.18,0-.29-.11-.29-.3v-11.59c0-.18.11-.3.29-.3ZM473.71,223.49c1.14,0,1.53-.31,1.53-1.57,0-1.18-.35-1.5-1.53-1.5h-1.24v3.06h1.24Z"/>
          <path class="cls-5" d="M480.72,223.93c0-4.49,1.48-6.31,5.24-6.31s5.23,1.83,5.23,6.31-1.46,6.31-5.23,6.31-5.24-1.83-5.24-6.31ZM485.97,227.62c1.59,0,2.12-.78,2.12-3.69s-.54-3.69-2.12-3.69-2.14.78-2.14,3.69.55,3.69,2.14,3.69Z"/>
          <path class="cls-5" d="M494.82,217.84h4.34c2.95,0,4.15,1.07,4.15,4.08s-1.24,4.15-4.15,4.15h-1.64v3.66c0,.18-.11.3-.3.3h-2.4c-.19,0-.3-.11-.3-.3v-11.59c0-.18.11-.3.3-.3ZM498.76,223.49c1.14,0,1.53-.31,1.53-1.57,0-1.18-.35-1.5-1.53-1.5h-1.24v3.06h1.24Z"/>
          <path class="cls-5" d="M506.1,225.67v-7.53c0-.18.11-.3.29-.3h2.4c.18,0,.3.11.3.3v7.37c0,1.53.46,2.12,1.77,2.12s1.75-.59,1.75-2.12v-7.37c0-.18.11-.3.29-.3h2.4c.18,0,.29.11.29.3v7.53c0,3.19-1.35,4.58-4.74,4.58s-4.76-1.38-4.76-4.58Z"/>
          <path class="cls-5" d="M519.21,229.73v-11.59c0-.18.11-.3.29-.3h2.4c.18,0,.3.11.3.3v9.27h3.84c.18,0,.3.11.3.3v2.03c0,.18-.11.3-.3.3h-6.54c-.18,0-.29-.11-.29-.3Z"/>
          <path class="cls-5" d="M528.32,229.69l3.95-11.61c.06-.15.17-.24.33-.24h2.51c.17,0,.28.09.33.24l3.95,11.61c.07.22-.04.33-.24.33h-2.49c-.17,0-.28-.09-.33-.24l-.61-1.98h-3.73l-.61,1.98c-.06.15-.17.24-.33.24h-2.49c-.2,0-.31-.11-.24-.33ZM534.93,225.23c-.35-1.24-.72-2.68-1.07-3.97-.35,1.29-.72,2.73-1.07,3.97h2.14Z"/>
          <path class="cls-5" d="M542.39,217.84h4.34c2.94,0,4.15,1.07,4.15,4.08,0,1.96-.52,3.1-1.68,3.66l1.88,4.1c.09.22-.02.35-.24.35h-2.47c-.17,0-.26-.06-.33-.22l-1.53-3.8h-1.42v3.73c0,.18-.11.3-.3.3h-2.4c-.19,0-.3-.11-.3-.3v-11.59c0-.18.11-.3.3-.3ZM546.32,223.49c1.14,0,1.53-.31,1.53-1.57,0-1.18-.35-1.5-1.53-1.5h-1.24v3.06h1.24Z"/>
        </g>
      </g>
    </g>
  </g>
</svg>