<?xml version="1.0" encoding="UTF-8"?>
<svg id="Camada_1" data-name="Camada 1" xmlns="http://www.w3.org/2000/svg" viewBox="0 0 978 522">
  <defs>
    <style>
      .cls-1 {
        opacity: .31;
      }

      .cls-2 {
        fill: #ec7329;
      }

      .cls-2, .cls-3, .cls-4, .cls-5 {
        stroke-width: 0px;
      }

      .cls-3 {
        fill: #f4bb49;
      }

      .cls-4 {
        fill: #173f73;
      }

      .cls-5 {
        fill: #ce973e;
      }
    </style>
  </defs>
  <rect class="cls-3" y=".29" width="978" height="521.71"/>
  <g>
    <rect class="cls-2" x="636.33" y="173.29" width="178.3" height="5.57"/>
    <g>
      <path class="cls-4" d="M642.89,136.69v-4c0-.38.24-.6.63-.6h4.17v-13.66l-3.74,1.4c-.43.15-.75,0-.75-.45v-4.04c0-.34.16-.6.47-.72l5.27-2.08c.24-.11.47-.15.75-.15h3.34c.39,0,.63.23.63.6v19.09h3.46c.39,0,.63.23.63.6v4c0,.38-.24.6-.63.6h-13.62c-.39,0-.63-.23-.63-.6Z"/>
      <path class="cls-4" d="M660.21,136.69v-4c0-.38.24-.6.63-.6h4.17v-13.66l-3.74,1.4c-.43.15-.75,0-.75-.45v-4.04c0-.34.16-.6.47-.72l5.27-2.08c.24-.11.47-.15.75-.15h3.34c.39,0,.63.23.63.6v19.09h3.46c.39,0,.63.23.63.6v4c0,.38-.24.6-.63.6h-13.62c-.39,0-.63-.23-.63-.6Z"/>
      <path class="cls-4" d="M686.57,123.37v-3.21c0-.6.2-.75.59-.83.98-.23,4.13-.6,6.57-.6,5.67,0,8.34,2,8.34,7.28v10.68c0,.38-.24.6-.63.6h-4.01c-.39,0-.63-.23-.63-.6v-.75c-1.54,1.36-3.34,1.81-5.43,1.81-4.25,0-6.69-1.92-6.69-5.96v-.08c0-3.89,2.17-5.58,8.66-5.58h.16c.94,0,1.85.04,2.68.11-.04-2.19-.63-2.68-3.66-2.68-1.85,0-3.34.19-5.23.42-.43.04-.71-.15-.71-.6ZM692.79,133.6c1.1,0,2.28-.3,3.38-.87v-3.06c-.87-.08-1.61-.11-2.28-.11h-.16c-2.52,0-3.38.45-3.38,1.92v.08c0,1.4.83,2.04,2.44,2.04Z"/>
      <path class="cls-4" d="M713.32,136.69v-4c0-.38.24-.6.63-.6h4.17v-13.66l-3.74,1.4c-.43.15-.75,0-.75-.45v-4.04c0-.34.16-.6.47-.72l5.27-2.08c.24-.11.47-.15.75-.15h3.34c.39,0,.63.23.63.6v19.09h3.46c.39,0,.63.23.63.6v4c0,.38-.24.6-.63.6h-13.62c-.39,0-.63-.23-.63-.6Z"/>
      <path class="cls-4" d="M740.95,136.69v-4.3h-10.31c-.39,0-.63-.23-.63-.6v-3.13c0-.26.08-.53.24-.75l8.85-15.13c.16-.26.43-.38.75-.38h6.06c.39,0,.63.23.63.6v14.75h2.05c.39,0,.63.23.63.6v3.43c0,.38-.24.6-.63.6h-2.05v4.3c0,.38-.24.6-.63.6h-4.33c-.39,0-.63-.23-.63-.6ZM740.95,127.75v-8.53l-4.84,8.53h4.84Z"/>
    </g>
    <g>
      <path class="cls-4" d="M659.53,156.3c-1.93-.23-3.27-.38-5.23-.38-3.58,0-4.21.49-4.21,2.15,0,1.28.39,1.92,4.37,3.09l1.65.49c4.72,1.4,6.18,3.55,6.18,7.43,0,5.13-2.52,7.43-9.92,7.43-2.09,0-4.64-.19-7.52-.79-.39-.08-.55-.34-.55-.75v-3.85c0-.53.31-.68.71-.6,2.79.42,5.04.72,7.2.72,3.07,0,3.86-.6,3.86-2.23,0-1.47-.63-1.92-4.96-3.21l-1.02-.3c-4.37-1.28-6.14-3.74-6.14-7.66,0-4.83,2.64-7.13,9.52-7.13,2.16,0,4.25.23,6.22.6.35.08.55.3.55.68v3.77c0,.45-.28.57-.71.53Z"/>
      <path class="cls-4" d="M673.26,157.51c6.18,0,8.58,3.02,8.58,10.75v.08c0,.57-.24.79-.87.79h-10.66c.31,2.04,1.69,2.45,4.45,2.45,1.89,0,3.23-.19,5.04-.45.43-.08.71.08.71.53v3.62c0,.34-.2.6-.51.68-1.73.34-3.5.57-5.59.57-7.2,0-10.11-2.75-10.11-9.43s2.79-9.58,8.97-9.58ZM676.18,165.55c-.16-2.42-.98-3.17-2.87-3.17s-2.91.72-3.03,3.17h5.9Z"/>
      <path class="cls-4" d="M686.09,170.11v-7.55h-2.28c-.39,0-.63-.23-.63-.6v-3.4c0-.38.24-.6.63-.6h2.28v-5.06c0-.38.24-.6.63-.6h4.64c.39,0,.63.23.63.6v5.06h3.42c.39,0,.63.23.63.6v3.4c0,.38-.24.6-.63.6h-3.42v6.45c0,2.23.43,2.6,2.16,2.6.55,0,1.1-.04,1.65-.11.43-.04.67.08.67.49v3.62c0,.34-.2.64-.59.68-.79.11-1.85.23-3.11.23-4.64,0-6.69-1.55-6.69-6.41Z"/>
      <path class="cls-4" d="M707.26,157.51c6.18,0,8.58,3.02,8.58,10.75v.08c0,.57-.24.79-.87.79h-10.66c.31,2.04,1.69,2.45,4.45,2.45,1.89,0,3.23-.19,5.04-.45.43-.08.71.08.71.53v3.62c0,.34-.2.6-.51.68-1.73.34-3.5.57-5.59.57-7.2,0-10.11-2.75-10.11-9.43s2.79-9.58,8.97-9.58ZM710.17,165.55c-.16-2.42-.98-3.17-2.87-3.17s-2.91.72-3.03,3.17h5.9Z"/>
      <path class="cls-4" d="M730.04,175.47v-9.74c0-2.53-.51-3.25-2.16-3.25-1.06,0-2.12.3-3.11.79v12.23c0,.34-.24.57-.59.57h-4.72c-.35,0-.59-.23-.59-.57v-16.94c0-.38.24-.6.63-.6h4.01c.39,0,.63.23.63.6v.83c1.65-1.28,3.58-1.89,5.82-1.89,2.48,0,4.09.75,5,2.19,1.73-1.47,3.78-2.19,6.18-2.19,4.29,0,5.98,2.23,5.98,6.49v11.47c0,.38-.24.6-.63.6h-4.64c-.39,0-.63-.23-.63-.6v-9.74c0-2.53-.51-3.25-2.17-3.25-1.06,0-2.12.3-3.11.83v12.15c0,.38-.24.6-.63.6h-4.64c-.39,0-.63-.23-.63-.6Z"/>
      <path class="cls-4" d="M751.09,150.98c0-.34.24-.57.59-.57h4.72c.35,0,.59.23.59.57v7.47c1.18-.68,2.52-.94,4.25-.94,5.35,0,7.71,2.75,7.71,9.06,0,6.83-2.79,9.96-10.55,9.96-2.4,0-4.56-.3-6.81-.98-.35-.11-.51-.34-.51-.75v-23.81ZM758.69,171.66c3.15,0,4.29-.98,4.29-4.98,0-3.32-.79-4.34-3.23-4.34-.94,0-1.89.15-2.75.45v8.75c.55.08,1.1.11,1.69.11Z"/>
      <path class="cls-4" d="M772.1,175.51v-16.94c0-.38.24-.6.63-.6h4.09c.39,0,.63.23.63.6v1.09c1.73-1.7,3.9-2.15,5.23-2.15.79,0,.94.15.94.6v3.58c0,.53-.16.75-.63.75h-.04c-1.89,0-3.54.38-4.96,1.4v11.66c0,.34-.24.57-.59.57h-4.72c-.35,0-.59-.23-.59-.57Z"/>
      <path class="cls-4" d="M784.77,167.02c0-6.49,2.56-9.51,9.25-9.51s9.25,3.02,9.25,9.51-2.56,9.51-9.25,9.51-9.25-3.02-9.25-9.51ZM794.02,171.55c2.36,0,3.27-.98,3.27-4.53s-.91-4.53-3.27-4.53-3.27.98-3.27,4.53.91,4.53,3.27,4.53Z"/>
    </g>
    <g>
      <g>
        <path class="cls-4" d="M687.42,270.62v-34.03c0-.54.33-.87.87-.87h7.15c.54,0,.87.32.87.87v34.03c0,.54-.32.87-.87.87h-7.15c-.54,0-.87-.33-.87-.87Z"/>
        <path class="cls-4" d="M704.11,235.72h12.73c8.67,0,12.19,3.14,12.19,11.97s-3.63,12.19-12.19,12.19h-4.82v10.73c0,.54-.32.87-.87.87h-7.04c-.54,0-.87-.33-.87-.87v-34.03c0-.54.33-.87.87-.87ZM715.65,252.3c3.36,0,4.5-.92,4.5-4.61,0-3.47-1.03-4.39-4.5-4.39h-3.63v9h3.63Z"/>
        <path class="cls-4" d="M733.92,270.62v-34.03c0-.54.33-.87.87-.87h7.04c.54,0,.87.32.87.87v27.2h11.27c.54,0,.87.33.87.87v5.96c0,.54-.33.87-.87.87h-19.18c-.54,0-.87-.33-.87-.87Z"/>
        <path class="cls-4" d="M756.62,270.51l11.6-34.08c.16-.43.49-.7.98-.7h7.37c.49,0,.81.27.97.7l11.6,34.08c.22.65-.11.98-.7.98h-7.32c-.49,0-.81-.27-.97-.7l-1.79-5.8h-10.95l-1.79,5.8c-.16.43-.49.7-.98.7h-7.31c-.6,0-.92-.33-.71-.98ZM776.02,257.4c-1.03-3.63-2.11-7.86-3.14-11.65-1.03,3.79-2.11,8.02-3.14,11.65h6.29Z"/>
        <path class="cls-4" d="M792.98,270.62v-34.03c0-.54.33-.87.87-.87h7.15c.43,0,.76.16,1.03.6l4.98,8.24c2.49,4.17,5.04,8.78,7.59,13.22-.27-4.5-.38-9.16-.38-13.33v-7.86c0-.54.33-.87.87-.87h6.94c.54,0,.87.32.87.87v34.03c0,.54-.33.87-.87.87h-6.99c-.43,0-.76-.16-1.03-.6l-5.15-8.45c-2.55-4.17-5.09-8.89-7.69-13.38.27,4.55.43,9.37.43,13.6v7.96c0,.54-.33.87-.87.87h-6.88c-.54,0-.87-.33-.87-.87Z"/>
      </g>
      <g>
        <path class="cls-4" d="M685.62,278.47h4.4c3.11,0,4.42,1.15,4.42,4.28,0,2.12-.59,3.35-1.94,3.9l2.08,4.52c.1.24-.02.38-.26.38h-2.18c-.18,0-.28-.06-.36-.24l-1.8-4.26h-1.92v4.18c0,.2-.12.32-.32.32h-2.12c-.2,0-.32-.12-.32-.32v-12.44c0-.2.12-.32.32-.32ZM689.68,284.71c1.49,0,1.94-.4,1.94-1.96s-.44-1.88-1.94-1.88h-1.62v3.84h1.62Z"/>
        <path class="cls-4" d="M698.89,282.35v5.37c0,1.39.4,1.8,1.37,1.8.63,0,1.25-.18,1.8-.53v-6.66c0-.18.12-.3.3-.3h1.98c.18,0,.3.12.3.3v8.89c0,.2-.12.32-.32.32h-1.68c-.2,0-.32-.12-.32-.32v-.47c-.77.71-1.7,1.03-2.83,1.03-2.12,0-3.17-1.13-3.17-3.49v-5.94c0-.2.12-.32.32-.32h1.94c.2,0,.32.12.32.32Z"/>
        <path class="cls-4" d="M707.33,283.92v-1.41c0-.3.1-.38.3-.42.63-.12,2.06-.3,3.17-.3,2.81,0,4.08,1.01,4.08,3.76v5.66c0,.2-.12.32-.32.32h-1.7c-.2,0-.32-.12-.32-.32v-.44c-.81.73-1.76.99-2.85.99-2.12,0-3.33-1.01-3.33-3.09v-.04c0-2,1.11-2.91,4.28-2.91h.08c.55,0,1.09.04,1.58.08v-.12c0-1.39-.36-1.7-2-1.7-.95,0-1.74.1-2.61.22-.22.04-.36-.08-.36-.3ZM710.26,289.86c.69,0,1.41-.22,2.04-.59v-1.8c-.55-.06-1.05-.08-1.47-.08h-.08c-1.41,0-1.9.3-1.9,1.19v.04c0,.85.48,1.25,1.41,1.25Z"/>
        <path class="cls-4" d="M725.99,278.23c.65,0,1.41.04,2.28.18.24.04.3.18.3.4v1.64c0,.26-.14.36-.34.34-.67-.06-1.33-.12-1.98-.12-2.52,0-3.27.89-3.27,4.34s.71,4.34,3.27,4.34c.65,0,1.31-.06,1.98-.12.2-.02.34.08.34.34v1.64c0,.22-.06.36-.3.4-.87.14-1.62.18-2.28.18-4.22,0-5.88-1.9-5.88-6.77s1.68-6.77,5.88-6.77Z"/>
        <path class="cls-4" d="M733.94,281.8c3.01,0,4.22,1.58,4.22,5.51v.04c0,.28-.12.4-.42.4h-5.6c.14,1.47.91,1.8,2.51,1.8.91,0,1.54-.1,2.46-.24.22-.04.36.04.36.28v1.54c0,.18-.1.32-.26.36-.85.18-1.72.3-2.73.3-3.49,0-4.95-1.45-4.95-4.97s1.39-5.01,4.42-5.01ZM735.66,286.04c-.08-1.53-.57-2.02-1.7-2.02s-1.72.5-1.82,2.02h3.53Z"/>
        <path class="cls-4" d="M739.88,291.25v-12.85c0-.2.12-.32.32-.32h1.94c.2,0,.32.12.32.32v12.85c0,.18-.12.3-.3.3h-1.98c-.18,0-.3-.12-.3-.3Z"/>
        <path class="cls-4" d="M750.44,284.12c-.61-.08-1.29-.16-2.02-.16-1.33,0-1.66.28-1.66.81,0,.75.73.87,1.76,1.11l.24.06c1.29.3,2.67.79,2.67,2.87,0,1.9-1.13,2.97-4.02,2.97-.79,0-1.74-.08-2.85-.3-.18-.04-.26-.18-.26-.34v-1.49c0-.26.12-.34.36-.3.77.14,1.6.22,2.42.22,1.37,0,1.76-.28,1.76-.79,0-.73-.83-.81-1.88-1.07l-.24-.06c-1.25-.3-2.55-.91-2.55-2.97s1.17-2.89,4.06-2.89c.73,0,1.49.06,2.34.22.22.04.26.18.26.36v1.39c0,.22-.04.4-.38.36Z"/>
        <path class="cls-4" d="M752.48,286.79c0-3.41,1.31-4.99,4.55-4.99s4.56,1.58,4.56,4.99-1.31,4.99-4.56,4.99-4.55-1.58-4.55-4.99ZM757.04,289.52c1.41,0,1.94-.61,1.94-2.73s-.54-2.73-1.94-2.73-1.92.61-1.92,2.73.54,2.73,1.92,2.73Z"/>
        <path class="cls-4" d="M767.44,278.47h4.38c3.15,0,4.46,1.15,4.46,4.32s-1.33,4.36-4.46,4.36h-1.94v4.08c0,.2-.12.32-.32.32h-2.12c-.2,0-.32-.12-.32-.32v-12.44c0-.2.12-.32.32-.32ZM771.48,284.75c1.53,0,1.98-.38,1.98-1.96s-.44-1.92-1.98-1.92h-1.6v3.88h1.6Z"/>
        <path class="cls-4" d="M777.96,278.39c0-.2.14-.34.34-.34h1.94c.2,0,.34.14.34.34v1.96c0,.2-.14.34-.34.34h-1.94c-.2,0-.34-.14-.34-.34v-1.96ZM777.98,291.25v-8.89c0-.2.12-.32.32-.32h1.94c.2,0,.32.12.32.32v8.89c0,.18-.12.3-.3.3h-1.98c-.18,0-.3-.12-.3-.3Z"/>
        <path class="cls-4" d="M783.26,283.92v-1.41c0-.3.1-.38.3-.42.63-.12,2.06-.3,3.17-.3,2.81,0,4.08,1.01,4.08,3.76v5.66c0,.2-.12.32-.32.32h-1.7c-.2,0-.32-.12-.32-.32v-.44c-.81.73-1.76.99-2.85.99-2.12,0-3.33-1.01-3.33-3.09v-.04c0-2,1.11-2.91,4.28-2.91h.08c.55,0,1.09.04,1.58.08v-.12c0-1.39-.36-1.7-2-1.7-.95,0-1.74.1-2.61.22-.22.04-.36-.08-.36-.3ZM786.2,289.86c.69,0,1.41-.22,2.04-.59v-1.8c-.55-.06-1.05-.08-1.47-.08h-.08c-1.41,0-1.9.3-1.9,1.19v.04c0,.85.48,1.25,1.41,1.25Z"/>
        <path class="cls-4" d="M793.57,288.45v-4.32h-1.19c-.2,0-.32-.12-.32-.32v-1.47c0-.2.12-.32.32-.32h1.19v-2.65c0-.2.12-.32.32-.32h1.94c.2,0,.32.12.32.32v2.65h1.94c.2,0,.32.12.32.32v1.47c0,.2-.12.32-.32.32h-1.94v3.82c0,1.33.26,1.6,1.23,1.6.3,0,.61-.04.89-.08.22-.02.34.06.34.28v1.54c0,.18-.1.34-.3.36-.4.06-.93.12-1.5.12-2.24,0-3.23-.81-3.23-3.33Z"/>
        <path class="cls-4" d="M800.86,288.45v-4.32h-1.19c-.2,0-.32-.12-.32-.32v-1.47c0-.2.12-.32.32-.32h1.19v-2.65c0-.2.12-.32.32-.32h1.94c.2,0,.32.12.32.32v2.65h1.94c.2,0,.32.12.32.32v1.47c0,.2-.12.32-.32.32h-1.94v3.82c0,1.33.26,1.6,1.23,1.6.3,0,.61-.04.89-.08.22-.02.34.06.34.28v1.54c0,.18-.1.34-.3.36-.4.06-.93.12-1.5.12-2.24,0-3.23-.81-3.23-3.33Z"/>
        <path class="cls-4" d="M807.49,278.39c0-.2.14-.34.34-.34h1.94c.2,0,.34.14.34.34v1.96c0,.2-.14.34-.34.34h-1.94c-.2,0-.34-.14-.34-.34v-1.96ZM807.51,291.25v-8.89c0-.2.12-.32.32-.32h1.94c.2,0,.32.12.32.32v8.89c0,.18-.12.3-.3.3h-1.98c-.18,0-.3-.12-.3-.3Z"/>
        <path class="cls-4" d="M812.51,294.12l.57-2.58h-.61c-.28,0-.4-.14-.4-.38v-1.82c0-.22.16-.36.38-.36h1.86c.22,0,.38.14.38.36v2c0,.14-.02.26-.06.4l-.69,2.48c-.04.16-.18.26-.36.26h-.79c-.22,0-.32-.14-.28-.36Z"/>
        <path class="cls-4" d="M820.39,291.46c-.18-.04-.28-.16-.28-.34v-1.68c0-.22.12-.34.34-.3.93.16,1.7.28,2.67.28,1.86,0,2.54-.46,2.54-1.6v-.06c0-1.01-.5-1.54-2.24-1.54h-1.54c-.2,0-.32-.12-.32-.32v-1.68c0-.2.12-.32.32-.32h1.13c1.51,0,2.34-.55,2.34-1.82v-.06c0-1.05-.58-1.45-2.38-1.45-.87,0-1.41.1-2.26.26-.22.04-.32-.06-.32-.28v-1.6c0-.18.1-.3.28-.34.97-.24,1.88-.38,2.93-.38,3.11,0,4.3,1.21,4.3,3.43v.06c0,1.56-.61,2.57-1.84,3.09,1.49.36,2.26,1.58,2.26,3.21v.06c0,2.48-1.49,3.7-4.91,3.7-1.07,0-2.04-.12-3.01-.32Z"/>
        <path class="cls-4" d="M829.8,291.22v-1.13c0-3.09.75-4.4,3.31-5.7l.93-.47c1.15-.57,1.45-1.09,1.45-1.94v-.06c0-1.03-.53-1.37-2.32-1.37h-.04c-.83,0-1.66.08-2.65.26-.24.04-.4-.04-.4-.32v-1.58c0-.18.08-.32.28-.36,1.23-.22,2.3-.32,3.23-.32,3.29,0,4.54,1.07,4.54,3.43v.06c0,1.72-.55,2.95-2.52,3.96l-1.01.51c-1.52.77-2.14,1.6-2.2,2.99h5.33c.2,0,.32.12.32.32v1.72c0,.2-.12.32-.32.32h-7.61c-.2,0-.32-.12-.32-.32Z"/>
        <path class="cls-4" d="M839.75,278.47h7.25c.2,0,.32.12.32.32v1.29c0,.18-.02.3-.08.48l-3.96,10.73c-.06.16-.2.26-.38.26h-2.02c-.24,0-.34-.12-.26-.36l3.86-10.34h-4.73c-.2,0-.32-.12-.32-.32v-1.74c0-.2.12-.32.32-.32Z"/>
        <path class="cls-4" d="M852.52,285.24h4.04c.2,0,.32.12.32.32v1.58c0,.2-.12.32-.32.32h-4.04c-.2,0-.32-.12-.32-.32v-1.58c0-.2.12-.32.32-.32Z"/>
        <path class="cls-4" d="M861.3,289.26c.63.06,1.09.1,1.58.1,1.64,0,2.1-.46,2.1-2.3v-8.2c0-.28.14-.4.46-.4h1.98c.2,0,.32.12.32.32v8.42c0,3.45-1.19,4.58-4.34,4.58-.61,0-1.33-.04-2.16-.16-.18-.02-.28-.18-.28-.38v-1.66c0-.28.14-.34.34-.32Z"/>
        <path class="cls-4" d="M870.45,283.92v-1.41c0-.3.1-.38.3-.42.63-.12,2.06-.3,3.17-.3,2.81,0,4.08,1.01,4.08,3.76v5.66c0,.2-.12.32-.32.32h-1.7c-.2,0-.32-.12-.32-.32v-.44c-.81.73-1.76.99-2.85.99-2.12,0-3.33-1.01-3.33-3.09v-.04c0-2,1.11-2.91,4.28-2.91h.08c.55,0,1.09.04,1.58.08v-.12c0-1.39-.36-1.7-2-1.7-.95,0-1.74.1-2.61.22-.22.04-.36-.08-.36-.3ZM873.38,289.86c.69,0,1.41-.22,2.04-.59v-1.8c-.55-.06-1.05-.08-1.47-.08h-.08c-1.41,0-1.9.3-1.9,1.19v.04c0,.85.48,1.25,1.41,1.25Z"/>
        <path class="cls-4" d="M880.2,291.25v-8.89c0-.2.12-.32.32-.32h1.72c.2,0,.32.12.32.32v.63c.87-.93,2-1.19,2.65-1.19.4,0,.46.1.46.32v1.56c0,.26-.08.38-.32.38h-.02c-.97,0-1.82.24-2.56.85v6.34c0,.18-.12.3-.3.3h-1.98c-.18,0-.3-.12-.3-.3Z"/>
        <path class="cls-4" d="M887.39,283.92v-1.41c0-.3.1-.38.3-.42.63-.12,2.06-.3,3.17-.3,2.81,0,4.08,1.01,4.08,3.76v5.66c0,.2-.12.32-.32.32h-1.7c-.2,0-.32-.12-.32-.32v-.44c-.81.73-1.76.99-2.85.99-2.12,0-3.33-1.01-3.33-3.09v-.04c0-2,1.11-2.91,4.28-2.91h.08c.55,0,1.09.04,1.58.08v-.12c0-1.39-.36-1.7-2-1.7-.95,0-1.74.1-2.61.22-.22.04-.36-.08-.36-.3ZM890.32,289.86c.69,0,1.41-.22,2.04-.59v-1.8c-.55-.06-1.05-.08-1.47-.08h-.08c-1.41,0-1.9.3-1.9,1.19v.04c0,.85.48,1.25,1.41,1.25Z"/>
        <path class="cls-4" d="M900.68,295.54c-.65,0-1.62-.04-2.61-.2-.16-.02-.3-.1-.3-.34v-1.58c0-.22.14-.3.36-.28.75.1,1.52.18,2.28.18,1.9,0,2.5-.51,2.5-1.98v-.4c-.65.57-1.49.83-2.44.83-2.38,0-3.76-1.62-3.76-4.87s1.54-5.11,4.89-5.11c1.39,0,2.97.3,3.62.53.16.06.26.16.26.4v8.48c0,3.13-1.33,4.34-4.79,4.34ZM901.18,289.56c.55,0,1.15-.14,1.72-.48v-4.95c-.42-.08-.85-.12-1.25-.12-1.76,0-2.32.71-2.32,2.77s.55,2.77,1.84,2.77Z"/>
        <path class="cls-4" d="M910.25,282.35v5.37c0,1.39.4,1.8,1.37,1.8.63,0,1.25-.18,1.8-.53v-6.66c0-.18.12-.3.3-.3h1.98c.18,0,.3.12.3.3v8.89c0,.2-.12.32-.32.32h-1.68c-.2,0-.32-.12-.32-.32v-.47c-.77.71-1.7,1.03-2.83,1.03-2.12,0-3.17-1.13-3.17-3.49v-5.94c0-.2.12-.32.32-.32h1.94c.2,0,.32.12.32.32Z"/>
        <path class="cls-4" d="M918.69,283.92v-1.41c0-.3.1-.38.3-.42.63-.12,2.06-.3,3.17-.3,2.81,0,4.08,1.01,4.08,3.76v5.66c0,.2-.12.32-.32.32h-1.7c-.2,0-.32-.12-.32-.32v-.44c-.81.73-1.76.99-2.85.99-2.12,0-3.33-1.01-3.33-3.09v-.04c0-2,1.11-2.91,4.28-2.91h.08c.55,0,1.09.04,1.58.08v-.12c0-1.39-.36-1.7-2-1.7-.95,0-1.74.1-2.61.22-.22.04-.36-.08-.36-.3ZM919.98,279.3c0-.12.04-.22.16-.24l4.22-1.23c.16-.04.24.02.24.16v1.46c0,.12-.04.2-.16.22l-4.22.97c-.16.04-.24,0-.24-.16v-1.19ZM921.62,289.86c.69,0,1.41-.22,2.04-.59v-1.8c-.55-.06-1.05-.08-1.47-.08h-.08c-1.41,0-1.9.3-1.9,1.19v.04c0,.85.48,1.25,1.41,1.25Z"/>
      </g>
      <g>
        <path class="cls-4" d="M686.85,212.64h4.1c3.76,0,5.57,1.8,5.57,6.54s-1.8,6.54-5.57,6.54h-4.1c-.2,0-.32-.12-.32-.32v-12.44c0-.2.12-.32.32-.32ZM691.07,222.9c1.53,0,2.12-.75,2.12-3.72s-.59-3.72-2.12-3.72h-1.33v7.45h1.33Z"/>
        <path class="cls-4" d="M698.38,212.34c0-.2.14-.34.34-.34h2.3c.2,0,.34.14.34.34v2.3c0,.2-.14.34-.34.34h-2.3c-.2,0-.34-.14-.34-.34v-2.3ZM698.38,225.42v-8.89c0-.2.12-.32.32-.32h2.34c.2,0,.32.12.32.32v8.89c0,.18-.12.3-.3.3h-2.38c-.18,0-.3-.12-.3-.3Z"/>
        <path class="cls-4" d="M703.88,218.41v-1.68c0-.32.1-.4.3-.44.5-.12,2.08-.32,3.31-.32,2.85,0,4.2,1.05,4.2,3.82v5.6c0,.2-.12.32-.32.32h-2.02c-.2,0-.32-.12-.32-.32v-.4c-.77.71-1.68.95-2.73.95-2.14,0-3.37-1.01-3.37-3.13v-.04c0-2.04,1.09-2.93,4.36-2.93h.08c.48,0,.93.02,1.35.06-.02-1.15-.32-1.41-1.84-1.41-.93,0-1.68.1-2.63.22-.22.02-.36-.08-.36-.32ZM707.01,223.77c.55,0,1.15-.16,1.7-.46v-1.6c-.44-.04-.81-.06-1.15-.06h-.08c-1.27,0-1.7.24-1.7,1.01v.04c0,.73.42,1.07,1.23,1.07Z"/>
        <path class="cls-4" d="M719.69,218.6c-.67-.08-1.35-.16-2.06-.16-1.19,0-1.45.22-1.45.59,0,.65.77.69,1.74.91l.26.06c1.19.28,2.5.79,2.5,2.89,0,1.96-1.13,3.05-4.12,3.05-.83,0-1.84-.08-2.97-.3-.2-.04-.26-.18-.26-.34v-1.76c0-.28.12-.36.36-.32.79.14,1.66.2,2.46.2,1.25,0,1.54-.22,1.54-.57,0-.59-.83-.63-1.82-.87l-.24-.06c-1.21-.3-2.44-.95-2.44-3.01s1.13-2.95,4.2-2.95c.75,0,1.54.06,2.42.22.22.04.26.18.26.36v1.68c0,.24-.06.42-.38.38Z"/>
        <path class="cls-4" d="M725.68,225.4v-2.1c0-.2.12-.32.32-.32h2.1v-7.17l-1.88.73c-.22.08-.38,0-.38-.24v-2.12c0-.18.08-.32.24-.38l2.65-1.09c.12-.06.24-.08.38-.08h1.68c.2,0,.32.12.32.32v10.02h1.74c.2,0,.32.12.32.32v2.1c0,.2-.12.32-.32.32h-6.85c-.2,0-.32-.12-.32-.32Z"/>
        <path class="cls-4" d="M734.39,225.4v-2.1c0-.2.12-.32.32-.32h2.1v-7.17l-1.88.73c-.22.08-.38,0-.38-.24v-2.12c0-.18.08-.32.24-.38l2.65-1.09c.12-.06.24-.08.38-.08h1.68c.2,0,.32.12.32.32v10.02h1.74c.2,0,.32.12.32.32v2.1c0,.2-.12.32-.32.32h-6.85c-.2,0-.32-.12-.32-.32Z"/>
        <path class="cls-4" d="M743.74,228.23l.55-2.51h-.69c-.3,0-.42-.14-.42-.4v-2.08c0-.22.16-.36.38-.36h2.14c.22,0,.38.14.38.36v2.28c0,.14-.02.26-.06.4l-.69,2.42c-.04.16-.18.26-.36.26h-.95c-.22,0-.32-.14-.28-.36Z"/>
        <path class="cls-4" d="M751.55,225.4v-2.1c0-.2.12-.32.32-.32h2.1v-7.17l-1.88.73c-.22.08-.38,0-.38-.24v-2.12c0-.18.08-.32.24-.38l2.65-1.09c.12-.06.24-.08.38-.08h1.68c.2,0,.32.12.32.32v10.02h1.74c.2,0,.32.12.32.32v2.1c0,.2-.12.32-.32.32h-6.85c-.2,0-.32-.12-.32-.32Z"/>
        <path class="cls-4" d="M760.19,225.4v-1.39c0-2.97.75-4.28,3.31-5.58l.93-.48c.97-.5,1.27-.95,1.27-1.68v-.06c0-.83-.48-1.13-2.14-1.13h-.04c-.87,0-1.72.1-2.65.26-.26.04-.42-.02-.42-.32v-1.92c0-.18.08-.32.28-.36,1.27-.24,2.4-.34,3.41-.34,3.41,0,4.61,1.05,4.61,3.49v.06c0,1.76-.53,2.99-2.51,4l-1.01.51c-1.31.67-1.92,1.41-2.04,2.52h5.15c.2,0,.32.12.32.32v2.1c0,.2-.12.32-.32.32h-7.82c-.2,0-.32-.12-.32-.32Z"/>
        <path class="cls-4" d="M778.07,215.97c3.11,0,4.32,1.58,4.32,5.65v.04c0,.3-.12.42-.44.42h-5.37c.16,1.07.85,1.29,2.24,1.29.95,0,1.62-.1,2.54-.24.22-.04.36.04.36.28v1.9c0,.18-.1.32-.26.36-.87.18-1.76.3-2.81.3-3.62,0-5.09-1.45-5.09-4.95s1.41-5.03,4.52-5.03ZM779.54,220.19c-.08-1.27-.5-1.66-1.45-1.66s-1.47.38-1.53,1.66h2.97Z"/>
        <path class="cls-4" d="M787.58,225.4v-2.1c0-.2.12-.32.32-.32h2.1v-7.17l-1.88.73c-.22.08-.38,0-.38-.24v-2.12c0-.18.08-.32.24-.38l2.65-1.09c.12-.06.24-.08.38-.08h1.68c.2,0,.32.12.32.32v10.02h1.74c.2,0,.32.12.32.32v2.1c0,.2-.12.32-.32.32h-6.85c-.2,0-.32-.12-.32-.32Z"/>
        <path class="cls-4" d="M796.46,225.63c-.18-.04-.28-.16-.28-.34v-2.06c0-.22.12-.34.34-.3.93.16,1.7.28,2.69.28,1.64,0,2.2-.34,2.2-1.35v-.06c0-.77-.38-1.23-1.92-1.23h-1.54c-.2,0-.32-.12-.32-.32v-2.06c0-.2.12-.32.32-.32h1.13c1.27,0,2.04-.44,2.04-1.51v-.06c0-.89-.5-1.21-2.18-1.21-.85,0-1.35.08-2.18.22-.22.04-.3-.06-.3-.28v-1.94c0-.18.1-.3.28-.34.97-.24,1.88-.38,2.97-.38,3.19,0,4.38,1.21,4.38,3.43v.06c0,1.56-.63,2.57-1.84,3.09,1.49.34,2.26,1.56,2.26,3.21v.06c0,2.48-1.49,3.7-5.01,3.7-1.09,0-2.06-.12-3.03-.32Z"/>
      </g>
      <path class="cls-4" d="M671.8,250.58c-1.84-11.07-11.73-19.4-23.11-19.28-.88-.03-1.96.02-3.03.19-5.58.87-10.32,3.34-14.12,7.52-3.87,4.26-5.9,9.3-6.09,15.02-.17,5,1.21,9.61,4.11,13.7,5.15,7.24,10.38,14.44,15.57,21.65.42.59.94,1.06,1.59,1.39,1.97,1,4.13.41,5.57-1.56,5.09-6.92,10.2-13.82,15.24-20.77,3.88-5.35,5.34-11.32,4.26-17.86ZM648.79,261.26c-4.29,0-7.77-3.48-7.77-7.77s3.48-7.77,7.77-7.77,7.77,3.48,7.77,7.77-3.48,7.77-7.77,7.77Z"/>
    </g>
    <g>
      <path class="cls-4" d="M677.46,358.15c-1.78-10.74-11.39-18.83-22.43-18.72-.86-.03-1.91.02-2.94.18-5.42.84-10.01,3.24-13.7,7.3-3.75,4.13-5.72,9.03-5.91,14.58-.16,4.85,1.17,9.33,3.99,13.29,5,7.03,10.07,14.01,15.11,21.02.41.57.92,1.03,1.55,1.35,1.92.97,4.01.4,5.41-1.51,4.94-6.71,9.9-13.41,14.8-20.16,3.77-5.19,5.18-10.98,4.13-17.34ZM655.13,368.52c-4.17,0-7.54-3.38-7.54-7.54s3.38-7.54,7.54-7.54,7.54,3.38,7.54,7.54-3.38,7.54-7.54,7.54Z"/>
      <g>
        <path class="cls-4" d="M691.11,366.03v-21.46c0-.53.32-.84.84-.84h6.84c.53,0,.84.32.84.84v20.99c0,4.37,1.32,6.05,5.05,6.05s5-1.68,5-6.05v-20.99c0-.53.32-.84.84-.84h6.84c.53,0,.84.32.84.84v21.46c0,9.1-3.84,13.04-13.52,13.04s-13.57-3.94-13.57-13.04Z"/>
        <path class="cls-4" d="M725.36,343.72h19.99c.53,0,.84.32.84.84v5.79c0,.53-.32.84-.84.84h-12.31v6.52h10.62c.53,0,.84.32.84.84v5.79c0,.53-.32.84-.84.84h-10.62v12.41c0,.53-.32.84-.84.84h-6.84c-.53,0-.84-.32-.84-.84v-33.03c0-.53.32-.84.84-.84Z"/>
        <path class="cls-4" d="M744.45,377.49l11.26-33.08c.16-.42.47-.68.95-.68h7.15c.47,0,.79.26.95.68l11.26,33.08c.21.63-.11.95-.68.95h-7.1c-.47,0-.79-.26-.95-.68l-1.74-5.63h-10.62l-1.74,5.63c-.16.42-.47.68-.95.68h-7.1c-.58,0-.89-.32-.68-.95ZM763.28,364.76c-1-3.52-2.05-7.63-3.05-11.31-1,3.68-2.05,7.78-3.05,11.31h6.1Z"/>
        <path class="cls-4" d="M779.74,377.6v-33.03c0-.53.32-.84.84-.84h6.84c.53,0,.84.32.84.84v26.4h10.94c.53,0,.84.32.84.84v5.79c0,.53-.32.84-.84.84h-18.62c-.53,0-.84-.32-.84-.84Z"/>
      </g>
      <g>
        <path class="cls-4" d="M691.58,396.5l4.24-12.46c.06-.16.18-.26.36-.26h2.24c.18,0,.3.1.36.26l4.22,12.46c.08.24-.04.36-.26.36h-2.18c-.18,0-.3-.1-.36-.26l-.75-2.38h-4.3l-.75,2.38c-.06.16-.18.26-.36.26h-2.2c-.22,0-.34-.12-.26-.36ZM698.69,391.84l-.16-.48c-.42-1.31-.83-2.95-1.25-4.42-.4,1.47-.81,3.11-1.23,4.42l-.16.48h2.79Z"/>
        <path class="cls-4" d="M706.82,387.67v5.37c0,1.39.4,1.8,1.37,1.8.63,0,1.25-.18,1.8-.53v-6.66c0-.18.12-.3.3-.3h1.98c.18,0,.3.12.3.3v8.89c0,.2-.12.32-.32.32h-1.68c-.2,0-.32-.12-.32-.32v-.48c-.77.71-1.7,1.03-2.83,1.03-2.12,0-3.17-1.13-3.17-3.49v-5.94c0-.2.12-.32.32-.32h1.94c.2,0,.32.12.32.32Z"/>
        <path class="cls-4" d="M714.35,392.16c0-3.31,1.46-5.05,4.22-5.05.65,0,1.35.1,1.98.47v-3.9c0-.18.12-.3.3-.3h1.98c.18,0,.3.12.3.3v12.85c0,.2-.12.32-.32.32h-1.7c-.2,0-.32-.12-.32-.32v-.44c-.63.75-1.58.99-2.52.99-2.38,0-3.92-1.52-3.92-4.93ZM718.86,394.88c.61,0,1.19-.18,1.68-.51v-4.75c-.44-.18-.93-.28-1.49-.28-1.49,0-2.08.75-2.08,2.73,0,2.14.69,2.81,1.88,2.81Z"/>
        <path class="cls-4" d="M725.34,383.7c0-.2.14-.34.34-.34h1.94c.2,0,.34.14.34.34v1.96c0,.2-.14.34-.34.34h-1.94c-.2,0-.34-.14-.34-.34v-1.96ZM725.36,396.56v-8.89c0-.2.12-.32.32-.32h1.94c.2,0,.32.12.32.32v8.89c0,.18-.12.3-.3.3h-1.98c-.18,0-.3-.12-.3-.3Z"/>
        <path class="cls-4" d="M730.83,393.77v-4.32h-1.19c-.2,0-.32-.12-.32-.32v-1.46c0-.2.12-.32.32-.32h1.19v-2.65c0-.2.12-.32.32-.32h1.94c.2,0,.32.12.32.32v2.65h1.94c.2,0,.32.12.32.32v1.46c0,.2-.12.32-.32.32h-1.94v3.82c0,1.33.26,1.6,1.23,1.6.3,0,.61-.04.89-.08.22-.02.34.06.34.28v1.54c0,.18-.1.34-.3.36-.4.06-.93.12-1.5.12-2.24,0-3.23-.81-3.23-3.33Z"/>
        <path class="cls-4" d="M736.91,392.1c0-3.41,1.31-4.99,4.55-4.99s4.56,1.58,4.56,4.99-1.31,4.99-4.56,4.99-4.55-1.58-4.55-4.99ZM739.17,384.62c0-.12.04-.22.16-.24l4.22-1.23c.16-.04.24.02.24.16v1.46c0,.12-.04.2-.16.22l-4.22.97c-.16.04-.24,0-.24-.16v-1.19ZM741.47,394.83c1.41,0,1.94-.61,1.94-2.73s-.54-2.73-1.94-2.73-1.92.61-1.92,2.73.54,2.73,1.92,2.73Z"/>
        <path class="cls-4" d="M747.83,396.56v-8.89c0-.2.12-.32.32-.32h1.72c.2,0,.32.12.32.32v.63c.87-.93,2-1.19,2.65-1.19.4,0,.46.1.46.32v1.56c0,.26-.08.38-.32.38h-.02c-.97,0-1.82.24-2.56.85v6.34c0,.18-.12.3-.3.3h-1.98c-.18,0-.3-.12-.3-.3Z"/>
        <path class="cls-4" d="M754.78,383.7c0-.2.14-.34.34-.34h1.94c.2,0,.34.14.34.34v1.96c0,.2-.14.34-.34.34h-1.94c-.2,0-.34-.14-.34-.34v-1.96ZM754.8,396.56v-8.89c0-.2.12-.32.32-.32h1.94c.2,0,.32.12.32.32v8.89c0,.18-.12.3-.3.3h-1.98c-.18,0-.3-.12-.3-.3Z"/>
        <path class="cls-4" d="M759.18,392.1c0-3.41,1.31-4.99,4.55-4.99s4.56,1.58,4.56,4.99-1.31,4.99-4.56,4.99-4.55-1.58-4.55-4.99ZM763.73,394.83c1.41,0,1.94-.61,1.94-2.73s-.54-2.73-1.94-2.73-1.92.61-1.92,2.73.54,2.73,1.92,2.73Z"/>
        <path class="cls-4" d="M772.69,392.16c0-3.31,1.46-5.05,4.22-5.05.65,0,1.35.1,1.98.47v-3.9c0-.18.12-.3.3-.3h1.98c.18,0,.3.12.3.3v12.85c0,.2-.12.32-.32.32h-1.7c-.2,0-.32-.12-.32-.32v-.44c-.63.75-1.58.99-2.52.99-2.38,0-3.92-1.52-3.92-4.93ZM777.2,394.88c.61,0,1.19-.18,1.68-.51v-4.75c-.44-.18-.93-.28-1.49-.28-1.49,0-2.08.75-2.08,2.73,0,2.14.69,2.81,1.88,2.81Z"/>
        <path class="cls-4" d="M783.25,392.1c0-3.41,1.31-4.99,4.55-4.99s4.56,1.58,4.56,4.99-1.31,4.99-4.56,4.99-4.55-1.58-4.55-4.99ZM787.8,394.83c1.41,0,1.94-.61,1.94-2.73s-.54-2.73-1.94-2.73-1.92.61-1.92,2.73.54,2.73,1.92,2.73Z"/>
        <path class="cls-4" d="M797.89,396.54v-12.44c0-.2.12-.32.32-.32h2.16c.2,0,.32.12.32.32v12.44c0,.2-.12.32-.32.32h-2.16c-.2,0-.32-.12-.32-.32Z"/>
        <path class="cls-4" d="M808.8,383.55c.65,0,1.41.04,2.28.18.24.04.3.18.3.4v1.64c0,.26-.14.36-.34.34-.67-.06-1.33-.12-1.98-.12-2.52,0-3.27.89-3.27,4.34s.71,4.34,3.27,4.34c.65,0,1.31-.06,1.98-.12.2-.02.34.08.34.34v1.64c0,.22-.06.36-.3.4-.87.14-1.62.18-2.28.18-4.22,0-5.88-1.9-5.88-6.77s1.68-6.77,5.88-6.77Z"/>
        <path class="cls-4" d="M813.79,383.78h7.35c.2,0,.32.12.32.32v1.8c0,.2-.12.32-.32.32h-4.91v2.99h4.26c.2,0,.32.12.32.32v1.78c0,.2-.12.32-.32.32h-4.26v4.91c0,.2-.12.32-.32.32h-2.12c-.2,0-.32-.12-.32-.32v-12.44c0-.2.12-.32.32-.32Z"/>
        <path class="cls-4" d="M820.73,399.43l.57-2.58h-.61c-.28,0-.4-.14-.4-.38v-1.82c0-.22.16-.36.38-.36h1.86c.22,0,.38.14.38.36v2c0,.14-.02.26-.06.4l-.69,2.48c-.04.16-.18.26-.36.26h-.79c-.22,0-.32-.14-.28-.36Z"/>
        <path class="cls-4" d="M829.01,389.23v-1.41c0-.3.1-.38.3-.42.63-.12,2.06-.3,3.17-.3,2.81,0,4.08,1.01,4.08,3.76v5.67c0,.2-.12.32-.32.32h-1.7c-.2,0-.32-.12-.32-.32v-.44c-.81.73-1.76.99-2.85.99-2.12,0-3.33-1.01-3.33-3.09v-.04c0-2,1.11-2.91,4.28-2.91h.08c.55,0,1.09.04,1.58.08v-.12c0-1.39-.36-1.7-2-1.7-.95,0-1.74.1-2.61.22-.22.04-.36-.08-.36-.3ZM831.94,395.17c.69,0,1.41-.22,2.04-.59v-1.8c-.55-.06-1.05-.08-1.47-.08h-.08c-1.41,0-1.9.3-1.9,1.19v.04c0,.85.48,1.25,1.41,1.25Z"/>
        <path class="cls-4" d="M844.54,396.54v-5.31c0-1.45-.3-1.86-1.25-1.86-.67,0-1.35.22-1.96.59v6.6c0,.18-.12.3-.3.3h-1.98c-.18,0-.3-.12-.3-.3v-8.89c0-.2.12-.32.32-.32h1.7c.2,0,.32.12.32.32v.51c.89-.73,1.88-1.07,3.03-1.07,2.14,0,2.99,1.15,2.99,3.41v6.02c0,.2-.12.32-.32.32h-1.94c-.2,0-.32-.12-.32-.32Z"/>
        <path class="cls-4" d="M849.87,393.77v-4.32h-1.19c-.2,0-.32-.12-.32-.32v-1.46c0-.2.12-.32.32-.32h1.19v-2.65c0-.2.12-.32.32-.32h1.94c.2,0,.32.12.32.32v2.65h1.94c.2,0,.32.12.32.32v1.46c0,.2-.12.32-.32.32h-1.94v3.82c0,1.33.26,1.6,1.23,1.6.3,0,.61-.04.89-.08.22-.02.34.06.34.28v1.54c0,.18-.1.34-.3.36-.4.06-.93.12-1.5.12-2.24,0-3.23-.81-3.23-3.33Z"/>
        <path class="cls-4" d="M856.51,383.7c0-.2.14-.34.34-.34h1.94c.2,0,.34.14.34.34v1.96c0,.2-.14.34-.34.34h-1.94c-.2,0-.34-.14-.34-.34v-1.96ZM856.53,396.56v-8.89c0-.2.12-.32.32-.32h1.94c.2,0,.32.12.32.32v8.89c0,.18-.12.3-.3.3h-1.98c-.18,0-.3-.12-.3-.3Z"/>
        <path class="cls-4" d="M864.89,400.86c-.65,0-1.62-.04-2.61-.2-.16-.02-.3-.1-.3-.34v-1.58c0-.22.14-.3.36-.28.75.1,1.52.18,2.28.18,1.9,0,2.5-.51,2.5-1.98v-.4c-.65.57-1.49.83-2.44.83-2.38,0-3.76-1.62-3.76-4.87s1.54-5.11,4.89-5.11c1.39,0,2.97.3,3.62.53.16.06.26.16.26.4v8.48c0,3.13-1.33,4.34-4.79,4.34ZM865.38,394.88c.55,0,1.15-.14,1.72-.48v-4.95c-.42-.08-.85-.12-1.25-.12-1.76,0-2.32.71-2.32,2.77s.55,2.77,1.84,2.77Z"/>
        <path class="cls-4" d="M871.46,392.1c0-3.41,1.31-4.99,4.55-4.99s4.56,1.58,4.56,4.99-1.31,4.99-4.56,4.99-4.55-1.58-4.55-4.99ZM876.02,394.83c1.41,0,1.94-.61,1.94-2.73s-.54-2.73-1.94-2.73-1.92.61-1.92,2.73.54,2.73,1.92,2.73Z"/>
        <path class="cls-4" d="M890.84,383.55c.65,0,1.41.04,2.28.18.24.04.3.18.3.4v1.64c0,.26-.14.36-.34.34-.67-.06-1.33-.12-1.98-.12-2.52,0-3.27.89-3.27,4.34s.71,4.34,3.27,4.34c.65,0,1.31-.06,1.98-.12.2-.02.34.08.34.34v1.64c0,.22-.06.36-.3.4-.87.14-1.62.18-2.28.18-4.22,0-5.88-1.9-5.88-6.77s1.68-6.77,5.88-6.77Z"/>
        <path class="cls-4" d="M902.09,386.14c-.99-.14-1.62-.24-2.61-.24-1.88,0-2.32.34-2.32,1.39,0,.85.3,1.27,2.18,1.84l.91.28c2.44.75,3.21,1.8,3.21,3.82,0,2.67-1.31,3.86-4.87,3.86-.97,0-2.24-.1-3.66-.42-.18-.04-.28-.18-.28-.38v-1.68c0-.28.16-.34.36-.3,1.37.22,2.42.38,3.51.38,1.7,0,2.24-.4,2.24-1.49,0-.87-.34-1.19-2.4-1.82l-.67-.2c-2.32-.71-3.19-1.94-3.19-3.94,0-2.52,1.31-3.7,4.67-3.7,1.03,0,2.04.12,3.01.32.18.04.28.16.28.34v1.66c0,.22-.14.3-.36.28Z"/>
        <path class="cls-4" d="M905.52,389.23v-1.41c0-.3.1-.38.3-.42.63-.12,2.06-.3,3.17-.3,2.81,0,4.08,1.01,4.08,3.76v5.67c0,.2-.12.32-.32.32h-1.7c-.2,0-.32-.12-.32-.32v-.44c-.81.73-1.76.99-2.85.99-2.12,0-3.33-1.01-3.33-3.09v-.04c0-2,1.11-2.91,4.28-2.91h.08c.55,0,1.09.04,1.58.08v-.12c0-1.39-.36-1.7-2-1.7-.95,0-1.74.1-2.61.22-.22.04-.36-.08-.36-.3ZM908.45,395.17c.69,0,1.41-.22,2.04-.59v-1.8c-.55-.06-1.05-.08-1.47-.08h-.08c-1.41,0-1.9.3-1.9,1.19v.04c0,.85.48,1.25,1.41,1.25Z"/>
        <path class="cls-4" d="M917.66,387.67v5.37c0,1.39.4,1.8,1.37,1.8.63,0,1.25-.18,1.8-.53v-6.66c0-.18.12-.3.3-.3h1.98c.18,0,.3.12.3.3v8.89c0,.2-.12.32-.32.32h-1.68c-.2,0-.32-.12-.32-.32v-.48c-.77.71-1.7,1.03-2.83,1.03-2.12,0-3.17-1.13-3.17-3.49v-5.94c0-.2.12-.32.32-.32h1.94c.2,0,.32.12.32.32Z"/>
      </g>
      <g>
        <path class="cls-4" d="M692.48,321.45h4.1c3.76,0,5.57,1.8,5.57,6.54s-1.8,6.54-5.57,6.54h-4.1c-.2,0-.32-.12-.32-.32v-12.44c0-.2.12-.32.32-.32ZM696.69,331.71c1.53,0,2.12-.75,2.12-3.72s-.59-3.72-2.12-3.72h-1.33v7.45h1.33Z"/>
        <path class="cls-4" d="M704.01,321.15c0-.2.14-.34.34-.34h2.3c.2,0,.34.14.34.34v2.3c0,.2-.14.34-.34.34h-2.3c-.2,0-.34-.14-.34-.34v-2.3ZM704.01,334.23v-8.89c0-.2.12-.32.32-.32h2.34c.2,0,.32.12.32.32v8.89c0,.18-.12.3-.3.3h-2.38c-.18,0-.3-.12-.3-.3Z"/>
        <path class="cls-4" d="M709.51,327.21v-1.68c0-.32.1-.4.3-.44.5-.12,2.08-.32,3.31-.32,2.85,0,4.2,1.05,4.2,3.82v5.6c0,.2-.12.32-.32.32h-2.02c-.2,0-.32-.12-.32-.32v-.4c-.77.71-1.68.95-2.73.95-2.14,0-3.37-1.01-3.37-3.13v-.04c0-2.04,1.09-2.93,4.36-2.93h.08c.48,0,.93.02,1.35.06-.02-1.15-.32-1.41-1.84-1.41-.93,0-1.68.1-2.63.22-.22.02-.36-.08-.36-.32ZM712.64,332.58c.55,0,1.15-.16,1.7-.46v-1.6c-.44-.04-.81-.06-1.15-.06h-.08c-1.27,0-1.7.24-1.7,1.01v.04c0,.73.42,1.07,1.23,1.07Z"/>
        <path class="cls-4" d="M722.98,334.21v-2.1c0-.2.12-.32.32-.32h2.1v-7.17l-1.88.73c-.22.08-.38,0-.38-.24v-2.12c0-.18.08-.32.24-.38l2.65-1.09c.12-.06.24-.08.38-.08h1.68c.2,0,.32.12.32.32v10.02h1.74c.2,0,.32.12.32.32v2.1c0,.2-.12.32-.32.32h-6.85c-.2,0-.32-.12-.32-.32Z"/>
        <path class="cls-4" d="M736.89,334.21v-2.26h-5.19c-.2,0-.32-.12-.32-.32v-1.64c0-.14.04-.28.12-.4l4.46-7.94c.08-.14.22-.2.38-.2h3.05c.2,0,.32.12.32.32v7.74h1.03c.2,0,.32.12.32.32v1.8c0,.2-.12.32-.32.32h-1.03v2.26c0,.2-.12.32-.32.32h-2.18c-.2,0-.32-.12-.32-.32ZM736.89,329.51v-4.48l-2.44,4.48h2.44Z"/>
        <path class="cls-4" d="M746.2,328.05h4.04c.2,0,.32.12.32.32v1.94c0,.2-.12.32-.32.32h-4.04c-.2,0-.32-.12-.32-.32v-1.94c0-.2.12-.32.32-.32Z"/>
        <path class="cls-4" d="M756.5,321.45h4.66c3.17,0,4.46,1.15,4.46,4.38s-1.33,4.46-4.46,4.46h-1.76v3.92c0,.2-.12.32-.32.32h-2.58c-.2,0-.32-.12-.32-.32v-12.44c0-.2.12-.32.32-.32ZM760.72,327.51c1.23,0,1.64-.34,1.64-1.68,0-1.27-.38-1.6-1.64-1.6h-1.33v3.29h1.33Z"/>
        <path class="cls-4" d="M767.16,334.23v-12.85c0-.2.12-.32.32-.32h2.34c.2,0,.32.12.32.32v12.85c0,.18-.12.3-.3.3h-2.38c-.18,0-.3-.12-.3-.3Z"/>
        <path class="cls-4" d="M776.25,324.78c3.11,0,4.32,1.58,4.32,5.64v.04c0,.3-.12.42-.44.42h-5.37c.16,1.07.85,1.29,2.24,1.29.95,0,1.62-.1,2.54-.24.22-.04.36.04.36.28v1.9c0,.18-.1.32-.26.36-.87.18-1.76.3-2.81.3-3.62,0-5.09-1.45-5.09-4.95s1.41-5.03,4.52-5.03ZM777.72,329c-.08-1.27-.5-1.66-1.45-1.66s-1.47.38-1.53,1.66h2.97Z"/>
        <path class="cls-4" d="M787.72,334.21v-5.11c0-1.33-.26-1.7-1.09-1.7-.54,0-1.07.16-1.56.42v6.42c0,.18-.12.3-.3.3h-2.38c-.18,0-.3-.12-.3-.3v-8.89c0-.2.12-.32.32-.32h2.02c.2,0,.32.12.32.32v.44c.83-.67,1.8-.99,2.93-.99,2.16,0,3.01,1.17,3.01,3.41v6.02c0,.2-.12.32-.32.32h-2.34c-.2,0-.32-.12-.32-.32Z"/>
        <path class="cls-4" d="M793.07,327.21v-1.68c0-.32.1-.4.3-.44.5-.12,2.08-.32,3.31-.32,2.85,0,4.2,1.05,4.2,3.82v5.6c0,.2-.12.32-.32.32h-2.02c-.2,0-.32-.12-.32-.32v-.4c-.77.71-1.68.95-2.73.95-2.14,0-3.37-1.01-3.37-3.13v-.04c0-2.04,1.09-2.93,4.36-2.93h.08c.48,0,.93.02,1.35.06-.02-1.15-.32-1.41-1.84-1.41-.93,0-1.68.1-2.63.22-.22.02-.36-.08-.36-.32ZM794.36,322.2c0-.12.04-.22.16-.24l4.46-1.25c.16-.04.24.02.24.16v1.68c0,.12-.04.2-.16.22l-4.46.91c-.16.04-.24,0-.24-.16v-1.33ZM796.2,332.58c.55,0,1.15-.16,1.7-.46v-1.6c-.44-.04-.81-.06-1.15-.06h-.08c-1.27,0-1.7.24-1.7,1.01v.04c0,.73.42,1.07,1.23,1.07Z"/>
        <path class="cls-4" d="M802.88,334.23v-8.89c0-.2.12-.32.32-.32h2.06c.2,0,.32.12.32.32v.58c.87-.89,1.96-1.13,2.63-1.13.4,0,.48.08.48.32v1.88c0,.28-.08.4-.32.4h-.02c-.95,0-1.78.2-2.5.73v6.12c0,.18-.12.3-.3.3h-2.38c-.18,0-.3-.12-.3-.3Z"/>
        <path class="cls-4" d="M810.03,321.15c0-.2.14-.34.34-.34h2.3c.2,0,.34.14.34.34v2.3c0,.2-.14.34-.34.34h-2.3c-.2,0-.34-.14-.34-.34v-2.3ZM810.03,334.23v-8.89c0-.2.12-.32.32-.32h2.34c.2,0,.32.12.32.32v8.89c0,.18-.12.3-.3.3h-2.38c-.18,0-.3-.12-.3-.3Z"/>
        <path class="cls-4" d="M815.54,327.21v-1.68c0-.32.1-.4.3-.44.5-.12,2.08-.32,3.31-.32,2.85,0,4.2,1.05,4.2,3.82v5.6c0,.2-.12.32-.32.32h-2.02c-.2,0-.32-.12-.32-.32v-.4c-.77.71-1.68.95-2.73.95-2.14,0-3.37-1.01-3.37-3.13v-.04c0-2.04,1.09-2.93,4.36-2.93h.08c.48,0,.93.02,1.35.06-.02-1.15-.32-1.41-1.84-1.41-.93,0-1.68.1-2.63.22-.22.02-.36-.08-.36-.32ZM818.67,332.58c.55,0,1.15-.16,1.7-.46v-1.6c-.44-.04-.81-.06-1.15-.06h-.08c-1.27,0-1.7.24-1.7,1.01v.04c0,.73.42,1.07,1.23,1.07Z"/>
        <path class="cls-4" d="M834.87,321.21c1.05,0,2.06.1,3.05.28.22.04.28.22.28.36v1.96c0,.28-.12.42-.46.38-.87-.1-1.58-.16-2.62-.16-2.65,0-3.31.42-3.31,3.88s.63,4.18,2.83,4.18c.36,0,.69-.02,1.01-.06v-2.75h-1.58c-.2,0-.32-.12-.32-.32v-2.02c0-.2.12-.32.32-.32h4.24c.2,0,.32.12.32.32v6.87c0,.24-.12.34-.26.38-1.09.32-2.54.57-4.08.57-4.06,0-5.76-1.9-5.76-6.73s1.54-6.81,6.34-6.81Z"/>
        <path class="cls-4" d="M844.6,324.78c3.11,0,4.32,1.58,4.32,5.64v.04c0,.3-.12.42-.44.42h-5.37c.16,1.07.85,1.29,2.24,1.29.95,0,1.62-.1,2.54-.24.22-.04.36.04.36.28v1.9c0,.18-.1.32-.26.36-.87.18-1.76.3-2.81.3-3.62,0-5.09-1.45-5.09-4.95s1.41-5.03,4.52-5.03ZM846.07,329c-.08-1.27-.5-1.66-1.45-1.66s-1.47.38-1.53,1.66h2.97Z"/>
        <path class="cls-4" d="M850.44,334.23v-8.89c0-.2.12-.32.32-.32h2.06c.2,0,.32.12.32.32v.58c.87-.89,1.96-1.13,2.63-1.13.4,0,.48.08.48.32v1.88c0,.28-.08.4-.32.4h-.02c-.95,0-1.78.2-2.5.73v6.12c0,.18-.12.3-.3.3h-2.38c-.18,0-.3-.12-.3-.3Z"/>
        <path class="cls-4" d="M857.81,327.21v-1.68c0-.32.1-.4.3-.44.5-.12,2.08-.32,3.31-.32,2.85,0,4.2,1.05,4.2,3.82v5.6c0,.2-.12.32-.32.32h-2.02c-.2,0-.32-.12-.32-.32v-.4c-.77.71-1.68.95-2.73.95-2.14,0-3.37-1.01-3.37-3.13v-.04c0-2.04,1.09-2.93,4.36-2.93h.08c.48,0,.93.02,1.35.06-.02-1.15-.32-1.41-1.84-1.41-.93,0-1.68.1-2.63.22-.22.02-.36-.08-.36-.32ZM860.94,332.58c.55,0,1.15-.16,1.7-.46v-1.6c-.44-.04-.81-.06-1.15-.06h-.08c-1.27,0-1.7.24-1.7,1.01v.04c0,.73.42,1.07,1.23,1.07Z"/>
        <path class="cls-4" d="M867.64,334.23v-12.85c0-.2.12-.32.32-.32h2.34c.2,0,.32.12.32.32v12.85c0,.18-.12.3-.3.3h-2.38c-.18,0-.3-.12-.3-.3Z"/>
      </g>
    </g>
    <g class="cls-1">
      <path class="cls-5" d="M129.21,254.89c-9.8,9.76-18.63,18.6-27.51,27.38-1.54,1.52-1.56,3.33-1.56,5.24,0,8.15-.12,16.3.05,24.44.07,3.37-1.13,4.75-4.52,4.69-7.27-.12-14.55-.05-21.82-.03-2.61,0-4.66-.54-4.59-3.79.23-10.17-.77-20.37.59-30.51,1.18-8.76,4.84-16.42,11.11-22.71,15.2-15.25,30.47-30.44,45.64-45.72,1.98-1.99,4.07-3.03,6.92-2.98,6.98.11,13.97.19,20.95-.02,4.02-.12,5.21,1.41,5.19,5.37-.13,31.28-.02,62.56-.15,93.85-.02,3.79,1.07,6.52,3.78,9.19,14.41,14.19,28.59,28.61,42.97,42.83,8.99,8.88,13.31,19.56,13.3,32.11,0,16.88-.12,33.76.08,50.63.05,4.43-1.41,5.89-5.8,5.68-6.82-.32-13.68-.23-20.51-.03-3.67.11-4.76-1.33-4.74-4.86.12-17.75-.01-35.5.11-53.25.02-3.18-.97-5.44-3.21-7.65-17.66-17.52-35.19-35.18-52.86-52.7-2.46-2.44-3.53-4.94-3.5-8.42.13-20.95.07-41.9.07-62.85,0-1.56,0-3.12,0-5.88Z"/>
      <path class="cls-5" d="M144.56,92c24.75.04,45.09,20.36,45.02,44.97-.07,25.03-20.28,45.37-45.13,45.39-24.77.03-45.48-20.68-45.3-45.28.19-25.02,20.44-45.12,45.41-45.08Z"/>
      <path class="cls-5" d="M119.8,349.85c.68.51,1.56,1.04,2.26,1.74,5.63,5.68,11.17,11.44,16.85,17.07,1.83,1.81,1.44,3.08-.19,4.71-25.01,24.94-50,49.91-74.95,74.91-1.86,1.86-3.24,1.84-5.06-.04-5.26-5.42-10.54-10.84-16.05-16.02-2.62-2.46-2.66-4.03-.04-6.61,15.94-15.71,31.72-31.59,47.56-47.42,8.64-8.63,17.26-17.27,25.91-25.89,1.01-1,1.88-2.25,3.71-2.45Z"/>
      <path class="cls-5" d="M182.29,234.4c.7.58,1.41,1.07,2,1.66,20.88,20.87,41.74,41.76,62.65,62.59,1.91,1.9,1.79,3.22-.07,5.03-5.53,5.37-10.99,10.81-16.35,16.35-2.12,2.19-3.66,2.05-5.76-.06-13.72-13.83-27.52-27.59-41.34-41.34-1.66-1.65-2.48-3.44-2.47-5.79.05-11.63,0-23.27.03-34.9,0-1.21-.34-2.63,1.29-3.54Z"/>
    </g>
    <g>
      <g>
        <g>
          <path class="cls-4" d="M206.43,175.31l16.94-49.8c.24-.63.71-1.03,1.43-1.03h10.77c.71,0,1.19.4,1.43,1.03l16.94,49.8c.32.95-.16,1.42-1.03,1.42h-10.69c-.71,0-1.19-.4-1.43-1.03l-2.61-8.47h-15.99l-2.61,8.47c-.24.63-.71,1.03-1.43,1.03h-10.69c-.87,0-1.35-.47-1.03-1.42ZM234.78,156.15c-1.5-5.31-3.09-11.48-4.59-17.02-1.5,5.54-3.09,11.72-4.59,17.02h9.19Z"/>
          <path class="cls-4" d="M274.52,137.78c3.17,0,6.1.32,8.55.87.71.16,1.11.71,1.11,1.43v7.28c0,1.11-.63,1.27-1.42,1.19-2.85-.24-4.75-.32-6.33-.32-6.41,0-8.39,1.27-8.39,9.5s1.82,9.5,8.47,9.5c1.66,0,3.4-.08,6.25-.32.79-.08,1.42.08,1.42,1.19v7.29c0,.71-.4,1.27-1.11,1.42-2.38.55-5.07.87-8.08.87l-.32,2.69c4.59.24,6.81,1.82,6.81,5.94s-2.38,6.33-8.23,6.33c-1.58,0-3.8-.16-4.75-.4-.95-.24-1.11-.87-1.11-1.5v-2.38c0-.95.63-.79,1.58-.71s1.98.16,2.93.16c1.9,0,2.45-.32,2.45-1.5,0-1.27-.63-1.74-4.2-1.74-1.03,0-1.42-.16-1.82-.79l-.16-.16c-.4-.55-.87-1.03-.79-1.74l.87-4.75c-8.79-1.74-12.27-7.76-12.27-19.4,0-14.17,5.15-19.95,18.53-19.95Z"/>
          <path class="cls-4" d="M288.06,157.73c0-13.62,5.15-19.95,18.61-19.95s18.61,6.33,18.61,19.95-5.15,19.95-18.61,19.95-18.61-6.33-18.61-19.95ZM301.68,122.89c4.28,0,6.25,3.72,9.03,3.72,1.27,0,2.38-.79,2.85-2.14.32-1.03.63-1.58,1.43-1.58h3.72c.79,0,1.35.48,1.19,1.35-.48,4.99-4.04,8.79-8.39,8.79-4.04,0-6.49-3.48-8.95-3.48-1.43,0-2.3,1.19-2.61,2.38-.24.71-.63,1.11-1.42,1.11h-3.8c-.87,0-1.35-.48-1.27-1.35.55-4.67,3.8-8.79,8.23-8.79ZM306.67,167.23c4.75,0,6.57-2.06,6.57-9.5s-1.82-9.5-6.57-9.5-6.57,2.06-6.57,9.5,1.82,9.5,6.57,9.5Z"/>
          <path class="cls-4" d="M347.92,137.78c12.43,0,17.26,6.33,17.26,22.57v.16c0,1.19-.47,1.66-1.74,1.66h-21.46c.63,4.28,3.41,5.15,8.95,5.15,3.8,0,6.49-.4,10.13-.95.87-.16,1.42.16,1.42,1.11v7.6c0,.71-.4,1.27-1.03,1.43-3.48.71-7.05,1.19-11.24,1.19-14.49,0-20.35-5.78-20.35-19.79s5.62-20.11,18.05-20.11ZM353.78,154.64c-.32-5.07-1.98-6.65-5.78-6.65s-5.86,1.5-6.1,6.65h11.88Z"/>
          <path class="cls-4" d="M395.18,148.31c-2.69-.32-5.38-.63-8.23-.63-4.75,0-5.78.87-5.78,2.38,0,2.61,3.09,2.77,6.97,3.64l1.03.24c4.75,1.11,9.98,3.17,9.98,11.56,0,7.84-4.51,12.19-16.47,12.19-3.33,0-7.36-.32-11.88-1.19-.79-.16-1.03-.71-1.03-1.35v-7.05c0-1.11.47-1.42,1.42-1.27,3.17.55,6.65.79,9.82.79,4.99,0,6.18-.87,6.18-2.3,0-2.38-3.33-2.53-7.28-3.48l-.95-.24c-4.83-1.19-9.74-3.8-9.74-12.04s4.51-11.8,16.79-11.8c3.01,0,6.18.24,9.66.87.87.16,1.03.71,1.03,1.43v6.73c0,.95-.24,1.66-1.5,1.5Z"/>
        </g>
        <g>
          <path class="cls-4" d="M237.58,192.68h16.39c15.04,0,22.25,7.21,22.25,26.13s-7.21,26.13-22.25,26.13h-16.39c-.79,0-1.27-.47-1.27-1.27v-49.72c0-.79.47-1.27,1.27-1.27ZM254.44,233.69c6.1,0,8.47-3.01,8.47-14.89s-2.38-14.88-8.47-14.88h-5.3v29.77h5.3Z"/>
          <path class="cls-4" d="M283.66,191.49c0-.79.55-1.35,1.35-1.35h9.18c.79,0,1.35.55,1.35,1.35v9.18c0,.79-.55,1.35-1.35,1.35h-9.18c-.79,0-1.35-.55-1.35-1.35v-9.18ZM283.66,243.75v-35.55c0-.79.48-1.27,1.27-1.27h9.34c.79,0,1.27.48,1.27,1.27v35.55c0,.71-.48,1.19-1.19,1.19h-9.5c-.71,0-1.19-.47-1.19-1.19Z"/>
          <path class="cls-4" d="M303.69,243.75v-35.55c0-.79.47-1.27,1.27-1.27h8.23c.79,0,1.27.48,1.27,1.27v2.3c3.48-3.56,7.84-4.51,10.53-4.51,1.58,0,1.9.32,1.9,1.27v7.52c0,1.11-.32,1.58-1.27,1.58h-.08c-3.8,0-7.13.79-9.98,2.93v24.47c0,.71-.48,1.19-1.19,1.19h-9.5c-.71,0-1.19-.47-1.19-1.19Z"/>
          <path class="cls-4" d="M347.23,205.98c12.43,0,17.26,6.33,17.26,22.57v.16c0,1.19-.47,1.66-1.74,1.66h-21.46c.63,4.28,3.41,5.15,8.95,5.15,3.8,0,6.49-.4,10.13-.95.87-.16,1.42.16,1.42,1.11v7.6c0,.71-.4,1.27-1.03,1.43-3.48.71-7.05,1.19-11.24,1.19-14.49,0-20.35-5.78-20.35-19.79s5.62-20.11,18.05-20.11ZM353.09,222.84c-.32-5.07-1.98-6.65-5.78-6.65s-5.86,1.5-6.1,6.65h11.88Z"/>
          <path class="cls-4" d="M373.04,232.42v-15.84h-4.59c-.79,0-1.27-.47-1.27-1.27v-7.13c0-.79.47-1.27,1.27-1.27h4.59v-10.61c0-.79.47-1.27,1.27-1.27h9.34c.79,0,1.27.47,1.27,1.27v10.61h6.89c.79,0,1.27.48,1.27,1.27v7.13c0,.79-.47,1.27-1.27,1.27h-6.89v13.54c0,4.67.87,5.46,4.36,5.46,1.11,0,2.22-.08,3.33-.24.87-.08,1.35.16,1.35,1.03v7.6c0,.71-.4,1.35-1.19,1.42-1.58.24-3.72.48-6.25.48-9.34,0-13.46-3.25-13.46-13.46Z"/>
          <path class="cls-4" d="M399.72,243.75v-35.55c0-.79.47-1.27,1.27-1.27h8.23c.79,0,1.27.48,1.27,1.27v2.3c3.48-3.56,7.84-4.51,10.53-4.51,1.58,0,1.9.32,1.9,1.27v7.52c0,1.11-.32,1.58-1.27,1.58h-.08c-3.8,0-7.13.79-9.98,2.93v24.47c0,.71-.48,1.19-1.19,1.19h-9.5c-.71,0-1.19-.47-1.19-1.19Z"/>
          <path class="cls-4" d="M428.3,191.49c0-.79.55-1.35,1.35-1.35h9.18c.79,0,1.35.55,1.35,1.35v9.18c0,.79-.55,1.35-1.35,1.35h-9.18c-.79,0-1.35-.55-1.35-1.35v-9.18ZM428.3,243.75v-35.55c0-.79.48-1.27,1.27-1.27h9.34c.79,0,1.27.48,1.27,1.27v35.55c0,.71-.48,1.19-1.19,1.19h-9.5c-.71,0-1.19-.47-1.19-1.19Z"/>
          <path class="cls-4" d="M445.88,243.67v-6.18c0-.55.16-1.11.47-1.58l13.22-19.32h-12.11c-.79,0-1.27-.47-1.27-1.27v-7.13c0-.79.47-1.27,1.27-1.27h24.54c.79,0,1.27.48,1.27,1.27v6.41c0,.55-.16,1.11-.48,1.58l-13.06,19.08h13.06c.79,0,1.27.48,1.27,1.27v7.13c0,.79-.47,1.27-1.27,1.27h-25.65c-.79,0-1.27-.47-1.27-1.27Z"/>
          <path class="cls-4" d="M495.68,205.98c12.43,0,17.26,6.33,17.26,22.57v.16c0,1.19-.47,1.66-1.74,1.66h-21.46c.63,4.28,3.41,5.15,8.95,5.15,3.8,0,6.49-.4,10.13-.95.87-.16,1.42.16,1.42,1.11v7.6c0,.71-.4,1.27-1.03,1.43-3.48.71-7.05,1.19-11.24,1.19-14.49,0-20.35-5.78-20.35-19.79s5.62-20.11,18.05-20.11ZM501.54,222.84c-.32-5.07-1.98-6.65-5.78-6.65s-5.86,1.5-6.1,6.65h11.88Z"/>
          <path class="cls-4" d="M542.95,216.51c-2.69-.32-5.38-.63-8.23-.63-4.75,0-5.78.87-5.78,2.38,0,2.61,3.09,2.77,6.97,3.64l1.03.24c4.75,1.11,9.98,3.17,9.98,11.56,0,7.84-4.51,12.19-16.47,12.19-3.33,0-7.36-.32-11.88-1.19-.79-.16-1.03-.71-1.03-1.35v-7.05c0-1.11.47-1.42,1.42-1.27,3.17.55,6.65.79,9.82.79,4.99,0,6.18-.87,6.18-2.3,0-2.38-3.33-2.53-7.28-3.48l-.95-.24c-4.83-1.19-9.74-3.8-9.74-12.04s4.51-11.8,16.79-11.8c3.01,0,6.18.24,9.66.87.87.16,1.03.71,1.03,1.43v6.73c0,.95-.24,1.66-1.5,1.5Z"/>
        </g>
        <path class="cls-4" d="M210.05,202.27c-1.47-1.85-2.32-3.71-2.32-6.23v-.08c0-4.67,2.78-6.99,10.06-6.99,2.4,0,4.59.25,6.69.76.34.08.55.38.55.72v4.13c0,.42-.25.63-.72.55-1.98-.34-3.45-.55-5.64-.55-3.37,0-4.63.5-4.63,2.15v.08c0,1.39.8,2.27,7.62,9.01l1.64,1.64c.21-1.01.29-2.32.29-4.42v-.93c0-.38.25-.63.76-.63h4.25c.42,0,.67.25.67.63v.93c0,3.66-.55,6.74-1.73,9.09l4.17,4.38c.46.5.13.76-.34.76h-5.64c-.38,0-.55-.08-.8-.29l-.97-.88c-1.85,1.09-4.21,1.68-7.2,1.68-6.36,0-10.9-2.69-10.9-8.71,0-3.58,1.6-5.73,4.17-6.78ZM213.37,205.76c-.63.59-1.01,1.43-1.01,2.78,0,2.69,1.56,3.66,4.42,3.66,1.14,0,2.02-.17,2.74-.46l-5.64-5.47-.51-.5Z"/>
      </g>
      <g>
        <path class="cls-4" d="M202.06,270c0-4.82,1.59-6.78,5.63-6.78s5.61,1.96,5.61,6.78-1.57,6.78-5.61,6.78-5.63-1.96-5.63-6.78ZM207.69,273.96c1.71,0,2.28-.83,2.28-3.97s-.58-3.97-2.28-3.97-2.3.83-2.3,3.97.59,3.97,2.3,3.97Z"/>
        <path class="cls-4" d="M217.21,263.45h7.54c.2,0,.32.12.32.32v2.18c0,.2-.12.32-.32.32h-4.64v2.46h4.01c.2,0,.32.12.32.32v2.18c0,.2-.12.32-.32.32h-4.01v4.68c0,.2-.12.32-.32.32h-2.58c-.2,0-.32-.12-.32-.32v-12.46c0-.2.12-.32.32-.32Z"/>
        <path class="cls-4" d="M228.46,276.22v-12.46c0-.2.12-.32.32-.32h2.62c.2,0,.32.12.32.32v12.46c0,.2-.12.32-.32.32h-2.62c-.2,0-.32-.12-.32-.32Z"/>
        <path class="cls-4" d="M241.26,263.21c.62,0,1.45.04,2.32.18.24.04.3.18.3.42v1.96c0,.26-.14.4-.34.38-.62-.06-1.31-.12-1.92-.12-2.32,0-2.97.81-2.97,3.97s.59,3.97,2.96,3.97c.63,0,1.33-.06,1.94-.12.2-.02.34.12.34.38v1.96c0,.24-.06.38-.3.42-.87.14-1.71.18-2.32.18-4.29,0-5.95-1.9-5.95-6.78s1.69-6.78,5.95-6.78Z"/>
        <path class="cls-4" d="M247.35,276.22v-12.46c0-.2.12-.32.32-.32h2.62c.2,0,.32.12.32.32v12.46c0,.2-.12.32-.32.32h-2.62c-.2,0-.32-.12-.32-.32Z"/>
        <path class="cls-4" d="M254.63,276.22v-12.46c0-.2.12-.32.32-.32h2.62c.16,0,.28.06.38.22l1.83,3.02c.91,1.53,1.84,3.21,2.78,4.84-.1-1.65-.14-3.35-.14-4.88v-2.88c0-.2.12-.32.32-.32h2.54c.2,0,.32.12.32.32v12.46c0,.2-.12.32-.32.32h-2.56c-.16,0-.28-.06-.38-.22l-1.88-3.09c-.93-1.53-1.87-3.25-2.82-4.9.1,1.67.16,3.43.16,4.98v2.92c0,.2-.12.32-.32.32h-2.52c-.2,0-.32-.12-.32-.32Z"/>
        <path class="cls-4" d="M268.48,276.18l4.25-12.48c.06-.16.18-.26.36-.26h2.7c.18,0,.3.1.36.26l4.25,12.48c.08.24-.04.36-.26.36h-2.68c-.18,0-.3-.1-.36-.26l-.65-2.12h-4.01l-.65,2.12c-.06.16-.18.26-.36.26h-2.68c-.22,0-.34-.12-.26-.36ZM275.58,271.38c-.38-1.33-.77-2.88-1.15-4.26-.38,1.39-.77,2.94-1.15,4.26h2.3Z"/>
        <path class="cls-4" d="M288.46,263.45h4.11c3.77,0,5.57,1.8,5.57,6.55s-1.81,6.55-5.57,6.55h-4.11c-.2,0-.32-.12-.32-.32v-12.46c0-.2.12-.32.32-.32ZM292.68,273.73c1.53,0,2.12-.75,2.12-3.73s-.59-3.73-2.12-3.73h-1.33v7.46h1.33Z"/>
        <path class="cls-4" d="M302.04,263.45h7.6c.2,0,.32.12.32.32v2.18c0,.2-.12.32-.32.32h-4.7v2.34h4.3c.2,0,.32.12.32.32v2.14c0,.2-.12.32-.32.32h-4.3v2.34h4.9c.2,0,.32.12.32.32v2.18c0,.2-.12.32-.32.32h-7.8c-.2,0-.32-.12-.32-.32v-12.46c0-.2.12-.32.32-.32Z"/>
        <path class="cls-4" d="M319.44,263.45h4.66c3.17,0,4.46,1.15,4.46,4.38s-1.33,4.46-4.46,4.46h-1.76v3.93c0,.2-.12.32-.32.32h-2.58c-.2,0-.32-.12-.32-.32v-12.46c0-.2.12-.32.32-.32ZM323.67,269.52c1.23,0,1.65-.34,1.65-1.69,0-1.27-.38-1.61-1.65-1.61h-1.33v3.29h1.33Z"/>
        <path class="cls-4" d="M329.44,276.18l4.25-12.48c.06-.16.18-.26.36-.26h2.7c.18,0,.3.1.36.26l4.25,12.48c.08.24-.04.36-.26.36h-2.68c-.18,0-.3-.1-.36-.26l-.66-2.12h-4.01l-.65,2.12c-.06.16-.18.26-.36.26h-2.68c-.22,0-.34-.12-.26-.36ZM336.54,271.38c-.38-1.33-.77-2.88-1.15-4.26-.38,1.39-.77,2.94-1.15,4.26h2.3Z"/>
        <path class="cls-4" d="M344.56,263.45h4.66c3.15,0,4.46,1.15,4.46,4.38,0,2.1-.56,3.33-1.81,3.93l2.02,4.4c.1.24-.02.38-.26.38h-2.66c-.18,0-.28-.06-.36-.24l-1.65-4.09h-1.53v4.01c0,.2-.12.32-.32.32h-2.58c-.2,0-.32-.12-.32-.32v-12.46c0-.2.12-.32.32-.32ZM348.78,269.52c1.23,0,1.65-.34,1.65-1.69,0-1.27-.38-1.61-1.65-1.61h-1.33v3.29h1.33Z"/>
        <path class="cls-4" d="M362.21,276.54h-2.58c-.2,0-.32-.12-.32-.32v-9.92h-2.78c-.2,0-.32-.12-.32-.32v-2.22c0-.2.12-.32.32-.32h8.77c.2,0,.32.12.32.32v2.22c0,.2-.12.32-.32.32h-2.78v9.92c0,.2-.12.32-.32.32Z"/>
        <path class="cls-4" d="M368.74,276.22v-12.46c0-.2.12-.32.32-.32h2.62c.2,0,.32.12.32.32v12.46c0,.2-.12.32-.32.32h-2.62c-.2,0-.32-.12-.32-.32Z"/>
        <path class="cls-4" d="M381.54,263.21c.62,0,1.45.04,2.32.18.24.04.3.18.3.42v1.96c0,.26-.14.4-.34.38-.62-.06-1.31-.12-1.92-.12-2.32,0-2.98.81-2.98,3.97s.59,3.97,2.96,3.97c.63,0,1.33-.06,1.94-.12.2-.02.34.12.34.38v1.96c0,.24-.06.38-.3.42-.87.14-1.71.18-2.32.18-4.29,0-5.95-1.9-5.95-6.78s1.69-6.78,5.95-6.78Z"/>
        <path class="cls-4" d="M387.63,276.22v-12.46c0-.2.12-.32.32-.32h2.62c.2,0,.32.12.32.32v12.46c0,.2-.12.32-.32.32h-2.62c-.2,0-.32-.12-.32-.32Z"/>
        <path class="cls-4" d="M395.23,263.45h4.66c3.17,0,4.46,1.15,4.46,4.38s-1.33,4.46-4.46,4.46h-1.76v3.93c0,.2-.12.32-.32.32h-2.58c-.2,0-.32-.12-.32-.32v-12.46c0-.2.12-.32.32-.32ZM399.45,269.52c1.23,0,1.65-.34,1.65-1.69,0-1.27-.38-1.61-1.65-1.61h-1.33v3.29h1.33Z"/>
        <path class="cls-4" d="M405.23,276.18l4.25-12.48c.06-.16.18-.26.36-.26h2.7c.18,0,.3.1.36.26l4.25,12.48c.08.24-.04.36-.26.36h-2.68c-.18,0-.3-.1-.36-.26l-.65-2.12h-4.01l-.65,2.12c-.06.16-.18.26-.36.26h-2.68c-.22,0-.34-.12-.26-.36ZM412.33,271.38c-.38-1.33-.77-2.88-1.15-4.26-.38,1.39-.77,2.94-1.15,4.26h2.3Z"/>
        <path class="cls-4" d="M424.95,263.21c.62,0,1.45.04,2.32.18.24.04.3.18.3.42v1.96c0,.26-.14.4-.34.38-.62-.06-1.31-.12-1.92-.12-2.32,0-2.97.81-2.97,3.97s.59,3.97,2.96,3.97c.63,0,1.33-.06,1.94-.12.2-.02.34.12.34.38v1.96c0,.24-.06.38-.3.42-.87.14-1.71.18-2.32.18h-.28l-.1.69c1.15.06,1.71.46,1.71,1.49s-.6,1.59-2.06,1.59c-.4,0-.95-.04-1.19-.1-.24-.06-.28-.22-.28-.38v-.6c0-.24.16-.2.4-.18.24.02.5.04.73.04.48,0,.62-.08.62-.38,0-.32-.16-.44-1.05-.44-.26,0-.36-.04-.46-.2l-.04-.04c-.1-.14-.22-.26-.2-.44l.22-1.25c-2.82-.56-3.97-2.56-3.97-6.61,0-4.88,1.69-6.78,5.95-6.78Z"/>
        <path class="cls-4" d="M429.91,276.18l4.25-12.48c.06-.16.18-.26.36-.26h2.7c.18,0,.3.1.36.26l4.25,12.48c.08.24-.04.36-.26.36h-2.68c-.18,0-.3-.1-.36-.26l-.65-2.12h-4.01l-.65,2.12c-.06.16-.18.26-.36.26h-2.68c-.22,0-.34-.12-.26-.36ZM434.59,259.98c1.07,0,1.57.93,2.26.93.32,0,.59-.2.71-.54.08-.26.16-.4.36-.4h.93c.2,0,.34.12.3.34-.12,1.25-1.01,2.2-2.1,2.2-1.01,0-1.63-.87-2.24-.87-.36,0-.58.3-.65.6-.06.18-.16.28-.36.28h-.95c-.22,0-.34-.12-.32-.34.14-1.17.95-2.2,2.06-2.2ZM437.01,271.38c-.38-1.33-.77-2.88-1.15-4.26-.38,1.39-.77,2.94-1.15,4.26h2.3Z"/>
        <path class="cls-4" d="M443.67,270c0-4.82,1.59-6.78,5.63-6.78s5.61,1.96,5.61,6.78-1.57,6.78-5.61,6.78-5.63-1.96-5.63-6.78ZM449.31,273.96c1.71,0,2.28-.83,2.28-3.97s-.58-3.97-2.28-3.97-2.3.83-2.3,3.97.59,3.97,2.3,3.97Z"/>
        <path class="cls-4" d="M463.69,263.45h4.66c3.17,0,4.46,1.15,4.46,4.38s-1.33,4.46-4.46,4.46h-1.76v3.93c0,.2-.12.32-.32.32h-2.58c-.2,0-.32-.12-.32-.32v-12.46c0-.2.12-.32.32-.32ZM467.92,269.52c1.23,0,1.65-.34,1.65-1.69,0-1.27-.38-1.61-1.65-1.61h-1.33v3.29h1.33Z"/>
        <path class="cls-4" d="M475.46,270c0-4.82,1.59-6.78,5.63-6.78s5.61,1.96,5.61,6.78-1.57,6.78-5.61,6.78-5.63-1.96-5.63-6.78ZM481.09,273.96c1.71,0,2.28-.83,2.28-3.97s-.58-3.97-2.28-3.97-2.3.83-2.3,3.97.59,3.97,2.3,3.97Z"/>
        <path class="cls-4" d="M490.61,263.45h4.66c3.17,0,4.46,1.15,4.46,4.38s-1.33,4.46-4.46,4.46h-1.76v3.93c0,.2-.12.32-.32.32h-2.58c-.2,0-.32-.12-.32-.32v-12.46c0-.2.12-.32.32-.32ZM494.84,269.52c1.23,0,1.65-.34,1.65-1.69,0-1.27-.38-1.61-1.65-1.61h-1.33v3.29h1.33Z"/>
        <path class="cls-4" d="M502.73,271.86v-8.09c0-.2.12-.32.32-.32h2.58c.2,0,.32.12.32.32v7.91c0,1.65.5,2.28,1.9,2.28s1.88-.63,1.88-2.28v-7.91c0-.2.12-.32.32-.32h2.58c.2,0,.32.12.32.32v8.09c0,3.43-1.45,4.92-5.1,4.92s-5.12-1.49-5.12-4.92Z"/>
        <path class="cls-4" d="M516.82,276.22v-12.46c0-.2.12-.32.32-.32h2.58c.2,0,.32.12.32.32v9.96h4.13c.2,0,.32.12.32.32v2.18c0,.2-.12.32-.32.32h-7.02c-.2,0-.32-.12-.32-.32Z"/>
        <path class="cls-4" d="M526.62,276.18l4.25-12.48c.06-.16.18-.26.36-.26h2.7c.18,0,.3.1.36.26l4.25,12.48c.08.24-.04.36-.26.36h-2.68c-.18,0-.3-.1-.36-.26l-.66-2.12h-4.01l-.65,2.12c-.06.16-.18.26-.36.26h-2.68c-.22,0-.34-.12-.26-.36ZM533.72,271.38c-.38-1.33-.77-2.88-1.15-4.26-.38,1.39-.77,2.94-1.15,4.26h2.3Z"/>
        <path class="cls-4" d="M541.74,263.45h4.66c3.15,0,4.46,1.15,4.46,4.38,0,2.1-.56,3.33-1.81,3.93l2.02,4.4c.1.24-.02.38-.26.38h-2.66c-.18,0-.28-.06-.36-.24l-1.65-4.09h-1.53v4.01c0,.2-.12.32-.32.32h-2.58c-.2,0-.32-.12-.32-.32v-12.46c0-.2.12-.32.32-.32ZM545.96,269.52c1.23,0,1.65-.34,1.65-1.69,0-1.27-.38-1.61-1.65-1.61h-1.33v3.29h1.33Z"/>
      </g>
    </g>
    <g>
      <rect class="cls-4" x="196.43" y="312" width="359.79" height="95" rx="10.61" ry="10.61"/>
      <g>
        <path class="cls-3" d="M267.89,373.27v-24.7c0-.39.24-.63.63-.63h5.19c.39,0,.63.24.63.63v24.7c0,.39-.24.63-.63.63h-5.19c-.39,0-.63-.24-.63-.63Z"/>
        <path class="cls-3" d="M279.38,373.27v-24.7c0-.39.24-.63.63-.63h5.19c.31,0,.55.12.75.43l3.62,5.98c1.81,3.03,3.66,6.37,5.51,9.6-.2-3.26-.28-6.65-.28-9.68v-5.7c0-.39.24-.63.63-.63h5.04c.39,0,.63.24.63.63v24.7c0,.39-.24.63-.63.63h-5.08c-.31,0-.55-.12-.75-.43l-3.74-6.14c-1.85-3.03-3.7-6.45-5.59-9.72.2,3.3.32,6.8.32,9.87v5.78c0,.39-.24.63-.63.63h-5c-.39,0-.63-.24-.63-.63Z"/>
        <path class="cls-3" d="M320.29,353.28c-1.93-.24-3.26-.39-5.23-.39-3.58,0-4.21.51-4.21,2.24,0,1.34.39,2.01,4.37,3.23l1.65.51c4.72,1.46,6.18,3.7,6.18,7.75,0,5.35-2.52,7.75-9.91,7.75-2.08,0-4.64-.2-7.51-.83-.39-.08-.55-.35-.55-.79v-4.01c0-.55.32-.71.71-.63,2.79.43,5.04.75,7.2.75,3.07,0,3.86-.63,3.86-2.32,0-1.53-.63-2.01-4.96-3.34l-1.02-.32c-4.37-1.34-6.14-3.89-6.14-7.99,0-5.04,2.64-7.43,9.52-7.43,2.16,0,4.25.24,6.21.63.35.08.55.31.55.71v3.93c0,.47-.28.59-.71.55Z"/>
        <path class="cls-3" d="M337.12,347.46c1.22,0,2.87.08,4.6.35.47.08.59.35.59.83v3.89c0,.51-.28.79-.67.75-1.22-.12-2.6-.24-3.82-.24-4.6,0-5.9,1.61-5.9,7.87s1.18,7.87,5.86,7.87c1.26,0,2.64-.12,3.86-.24.39-.04.67.24.67.75v3.89c0,.47-.12.75-.59.83-1.73.28-3.38.35-4.6.35-8.5,0-11.8-3.78-11.8-13.45s3.34-13.45,11.8-13.45Z"/>
        <path class="cls-3" d="M346.88,347.93h9.24c6.25,0,8.85,2.28,8.85,8.69,0,4.17-1.1,6.61-3.58,7.79l4.01,8.73c.2.47-.04.75-.51.75h-5.27c-.35,0-.55-.12-.71-.47l-3.27-8.1h-3.03v7.95c0,.39-.24.63-.63.63h-5.11c-.39,0-.63-.24-.63-.63v-24.7c0-.39.24-.63.63-.63ZM355.26,359.97c2.44,0,3.27-.67,3.27-3.34,0-2.52-.75-3.19-3.27-3.19h-2.63v6.53h2.63Z"/>
        <path class="cls-3" d="M370.05,347.93h15.07c.39,0,.63.24.63.63v4.33c0,.39-.24.63-.63.63h-9.32v4.64h8.54c.39,0,.63.24.63.63v4.25c0,.39-.24.63-.63.63h-8.54v4.64h9.72c.39,0,.63.24.63.63v4.33c0,.39-.24.63-.63.63h-15.46c-.39,0-.63-.24-.63-.63v-24.7c0-.39.24-.63.63-.63Z"/>
        <path class="cls-3" d="M395.9,373.38l-7.91-24.74c-.16-.47.08-.71.51-.71h5.04c.31,0,.59.2.71.51l1.57,5.07c1.02,3.38,2.08,7.91,3.15,11.96,1.06-4.05,2.12-8.58,3.15-11.96l1.57-5.07c.12-.31.31-.51.71-.51h5.04c.43,0,.67.24.51.71l-7.91,24.74c-.12.32-.35.51-.71.51h-4.72c-.35,0-.63-.2-.71-.51Z"/>
        <path class="cls-3" d="M407.5,373.19l8.42-24.74c.12-.31.35-.51.71-.51h5.35c.35,0,.59.2.71.51l8.42,24.74c.16.47-.08.71-.51.71h-5.31c-.35,0-.59-.2-.71-.51l-1.3-4.21h-7.95l-1.3,4.21c-.12.32-.35.51-.71.51h-5.31c-.43,0-.67-.24-.51-.71ZM421.58,363.67c-.75-2.64-1.53-5.7-2.28-8.46-.75,2.75-1.53,5.82-2.28,8.46h4.56Z"/>
        <path class="cls-3" d="M431.62,361.03h8.02c.39,0,.63.24.63.63v3.85c0,.39-.24.63-.63.63h-8.02c-.39,0-.63-.24-.63-.63v-3.85c0-.39.24-.63.63-.63Z"/>
        <path class="cls-3" d="M456.56,353.28c-1.93-.24-3.26-.39-5.23-.39-3.58,0-4.21.51-4.21,2.24,0,1.34.39,2.01,4.37,3.23l1.65.51c4.72,1.46,6.18,3.7,6.18,7.75,0,5.35-2.52,7.75-9.91,7.75-2.08,0-4.64-.2-7.51-.83-.39-.08-.55-.35-.55-.79v-4.01c0-.55.32-.71.71-.63,2.79.43,5.04.75,7.2.75,3.07,0,3.85-.63,3.85-2.32,0-1.53-.63-2.01-4.96-3.34l-1.02-.32c-4.37-1.34-6.14-3.89-6.14-7.99,0-5.04,2.64-7.43,9.52-7.43,2.16,0,4.25.24,6.21.63.35.08.55.31.55.71v3.93c0,.47-.28.59-.71.55Z"/>
        <path class="cls-3" d="M463.32,347.93h15.07c.39,0,.63.24.63.63v4.33c0,.39-.24.63-.63.63h-9.32v4.64h8.54c.39,0,.63.24.63.63v4.25c0,.39-.24.63-.63.63h-8.54v4.64h9.72c.39,0,.63.24.63.63v4.33c0,.39-.24.63-.63.63h-15.46c-.39,0-.63-.24-.63-.63v-24.7c0-.39.24-.63.63-.63Z"/>
      </g>
    </g>
  </g>
</svg>