<?xml version="1.0" encoding="UTF-8"?>
<svg id="Camada_1" data-name="Camada 1" xmlns="http://www.w3.org/2000/svg" viewBox="0 0 419.45 141.73">
  <defs>
    <style>
      .cls-1, .cls-2 {
        fill: #fff;
        stroke-width: 0px;
      }

      .cls-2 {
        fill-rule: evenodd;
      }
    </style>
  </defs>
  <path class="cls-1" d="m419.45,24.23h-12.59v5.44h9.89v4.97h-9.89v5.8h12.59v5.24h-18.91v-26.5h18.91v5.05Zm-38.24-.16v16.65h2.55c2.26,0,3.93-.85,5.03-2.54,1.09-1.69,1.64-3.68,1.64-5.95,0-1.6-.31-3.09-.94-4.46-.62-1.36-1.4-2.32-2.32-2.87-.93-.55-2.05-.83-3.34-.83h-2.61Zm-6.08-4.89h8.08c3.29,0,5.74.46,7.36,1.37,1.62.91,3.06,2.35,4.34,4.33,1.28,1.97,1.92,4.46,1.92,7.48,0,3.79-1.12,6.96-3.35,9.5-2.23,2.54-5.31,3.81-9.24,3.81h-9.11v-26.5Zm-27.8,16.13h5.6l-2.77-9.28-2.83,9.28Zm7.12-16.13l8.24,26.5h-6.67l-1.64-5.48h-8.54l-1.68,5.48h-5.44l8.48-26.5h7.23Zm-32.57,4.77v6.75h3.81c1.24,0,2.15-.09,2.71-.26.57-.17,1.07-.56,1.51-1.16.44-.6.66-1.29.66-2.07,0-.73-.22-1.4-.66-1.98-.44-.58-.92-.94-1.44-1.07-.52-.14-1.5-.21-2.92-.21h-3.68Zm0,11.28v10.45h-6.24v-26.5h11.65c2.15,0,3.87.25,5.17.75,1.3.5,2.38,1.42,3.24,2.75.85,1.34,1.28,2.83,1.28,4.46,0,3.19-1.54,5.48-4.61,6.87l4.89,11.66h-6.84l-4.08-10.45h-4.46Zm-10.82-16.05v16.5c0,2.67-.3,4.65-.91,5.95-.6,1.3-1.73,2.37-3.36,3.2-1.64.83-3.72,1.25-6.27,1.25s-4.58-.38-6.08-1.13c-1.51-.75-2.64-1.81-3.38-3.2-.75-1.38-1.13-3.4-1.13-6.07v-16.5h6.71v16.51c0,1.42.12,2.48.36,3.15.24.68.72,1.21,1.44,1.61.72.39,1.6.59,2.65.59,1.17,0,2.11-.19,2.84-.58.73-.39,1.22-.9,1.46-1.54.24-.64.36-1.71.36-3.22v-16.51h5.32Zm-23.18,0v5.24h-6.56v21.26h-6.28v-21.26h-6.6v-5.24h19.43Zm-21.72,0v26.5h-6.2v-26.5h6.2Zm-9.57,5.05h-12.59v5.44h9.89v4.97h-9.89v5.8h12.59v5.24h-18.91v-26.5h18.91v5.05Zm-21.74.2h-12.4v5.92h9.81v4.97h-9.81v10.37h-6.44v-26.5h18.83v5.24Zm-22.21-.2h-12.59v5.44h9.89v4.97h-9.89v5.8h12.59v5.24h-18.91v-26.5h18.91v5.05Zm-38.43-.28v6.75h3.81c1.24,0,2.15-.09,2.71-.26.57-.17,1.07-.56,1.51-1.16.44-.6.66-1.29.66-2.07,0-.73-.22-1.4-.66-1.98-.44-.58-.92-.94-1.44-1.07-.52-.14-1.5-.21-2.92-.21h-3.68Zm0,11.28v10.45h-6.24v-26.5h11.65c2.15,0,3.87.25,5.17.75,1.3.5,2.38,1.42,3.24,2.75.85,1.34,1.28,2.83,1.28,4.46,0,3.19-1.54,5.48-4.61,6.87l4.89,11.66h-6.84l-4.08-10.45h-4.46Zm-23.74-4.21h4.03c1.54,0,2.61-.36,3.23-1.07.62-.72.93-1.53.93-2.45,0-1.07-.34-1.93-1.03-2.56-.7-.64-1.74-.95-3.15-.95h-4.01v7.03Zm.2,4.81v9.85h-6.32v-26.5h10.44c2.32,0,4.11.25,5.34.75,1.23.5,2.34,1.38,3.3,2.67.97,1.28,1.46,2.85,1.46,4.71,0,1.3-.26,2.58-.77,3.82-.52,1.24-1.24,2.22-2.19,2.93-.94.72-1.85,1.19-2.74,1.42-.88.23-2.27.35-4.16.35h-4.36Z"/>
  <path class="cls-1" d="m396.25,72.2c-6.5,0-9.74,5.69-9.74,17.07s3.24,17.11,9.74,17.11,9.42-5.69,9.42-17.07-3.15-17.11-9.42-17.11m-.36,44.26c-7.1,0-12.6-2.68-16.49-8-3.89-5.33-5.83-11.77-5.83-19.35s1.96-14.12,5.9-19.27c3.94-5.14,9.56-7.72,16.84-7.72s12.92,2.75,16.66,8.25c3.74,5.5,5.62,11.78,5.62,18.86,0,7.64-1.94,14.09-5.79,19.35-3.86,5.25-9.5,7.88-16.92,7.88Zm-30.38-53.53v52.71h-12.32v-52.71h12.32Zm-19.73,10.04h-25.14v10.81h19.77v9.92h-19.77v11.51h25.14v10.43h-37.7v-52.71h37.7v10.04Zm-44.76,9.57l-12.93.82c-.18-7.45-3.08-11.16-8.7-11.16-6.43,0-9.65,5.73-9.65,17.19,0,6.62.87,11.1,2.62,13.46,1.75,2.36,4.19,3.53,7.34,3.53,5.09,0,8.21-3.32,9.35-9.96l11.97.74c-.78,6.3-3.12,11.1-7.05,14.38-3.93,3.28-8.73,4.93-14.42,4.93-6.97,0-12.64-2.41-17-7.22-4.38-4.82-6.55-11.47-6.55-19.97,0-7.95,2.11-14.47,6.33-19.53,4.23-5.07,9.99-7.62,17.31-7.62,12.67,0,19.8,6.81,21.39,20.43Zm-77.03,12.51h11.19l-5.59-18.49-5.6,18.49Zm14.09-32.12l16.49,52.71h-13.29l-3.2-10.85h-17.07l-3.32,10.85h-10.81l16.87-52.71h14.33Zm-70.62,52.71l-12.97-42.98v42.98h-10.36v-52.71h19.23l9.24,31.55,9.73-31.55h19.27v52.71h-12.44v-42.98l-13.23,42.98h-8.46Z"/>
  <polygon class="cls-1" points="403.32 49.32 405.74 56.01 388.24 61.91 386.66 57.43 403.32 49.32"/>
  <g>
    <path class="cls-2" d="m77.01,138.09c-.05-.13-.11-.26-.22-.35-.11-.09-.25-.12-.38-.15-2.03-.44-4.1-.71-6.14-1.13-1.06-.22-2.12-.5-3.15-.86.28-.34.52-.69.69-1.1.04-.11.02-.34.02-.46,0-.06,0-.14-.05-.18-.03-.02-.07-.03-.1-.03-.13-.01-.26,0-.39.05-.25.08-.49.17-.74.25-.17.06-.26.23-.43.23-.28.16-.56.29-.85.44-.29-.14-.57-.27-.85-.44-.18,0-.26-.17-.43-.23-.25-.08-.49-.17-.74-.25-.12-.05-.26-.06-.39-.05-.04,0-.07,0-.1.03-.05.04-.05.11-.05.18,0,.12-.02.35.02.46.17.4.41.76.69,1.1-1.03.36-2.08.63-3.15.86-2.04.43-4.1.69-6.14,1.13-.13.03-.27.06-.38.15-.11.09-.17.22-.22.35-.3.84-.11,1.85.49,2.52.19.21.41.39.64.55.39.28.84.53,1.32.5.21-.01.41-.08.61-.14,3.07-1,6.16-2.21,8.69-4.18,2.52,1.97,5.62,3.18,8.69,4.18.2.07.4.13.61.14.48.03.93-.22,1.32-.5.23-.16.45-.34.64-.55.6-.67.79-1.67.49-2.52Z"/>
    <g>
      <path class="cls-1" d="m101.08,36.32H28.72v50.16c0,10.08,4.09,19.21,10.69,25.82,6.61,6.61,15.74,10.69,25.82,10.69s19.21-4.09,25.82-10.69c6.61-6.61,10.69-15.74,10.69-25.82v-50.16h-.66Zm-53.96,21.74h1.45l.96.42h.54v-1.66h1.54s-.03-1.25,0-5.3c.04-5.75,5.9-11.11,12.25-10.61,0,0-2.58,1.83-1.74,5.57.83,3.74,5.07,6.98,9.22,8.47,4.15,1.49,10.88,1.33,10.88,1.33v.46h-11.25v2.33h2.33v-.54h2.45v.54h2.24v-.58h1.29v.58h1.37v1.74h2.7v.71h-2.74v.62h-1.08l-1.08-1.12h-29.9l-1.41-2.66v-.29Zm27.3,55.82c2.08-.02,2.35-.19,2.71-.32.36-.13.41.27.22.55-.19.28-2.1,1.98-2.33,2.15-.23.17-16.53.23-19.21.03-2.68-.2-3.53-3.25-3.59-3.6.41.39,1.15,1.16,3.07,1.14,1.92-.02,3.95-.12,3.95-.12,0,0-2.27-2.45-2.73-8.06-.45-5.62,5.16-10.11,5.16-10.11,0,0-1.18,5.89,5.35,8.89,6.53,3.01,10.85,3.31,10.85,3.31,0,0-15.37,5.47-15.88,5.68l-.51.22s10.87.26,12.95.24Zm26.55-27.55c0,2.36-.22,4.65-.67,6.89H30.15c-.43-2.23-.66-4.53-.66-6.89v-4.41c.67-.42,4.77-2.93,7.26-2.93,2.72,0,9.84,6.79,13,6.79s12.2-6.7,15.47-6.79c3.28.09,12.34,6.79,15.47,6.79s10.28-6.79,13-6.79c2.5,0,6.61,2.51,7.27,2.93v4.4Zm0-10.45c-.66-.42-4.77-2.93-7.27-2.93-2.72,0-9.84,6.79-13,6.79s-12.2-6.7-15.47-6.79c-3.28.09-12.34,6.79-15.47,6.79s-10.28-6.79-13-6.79c-2.5,0-6.59,2.51-7.26,2.93v-9.09h71.48v9.09Z"/>
      <polygon class="cls-1" points="66.81 57.52 70.05 57.52 70.05 56.73 56.84 56.73 56.84 59.01 66.65 59.01 66.81 57.52"/>
      <rect class="cls-1" x="67.31" y="58.22" width="2.74" height=".79"/>
    </g>
    <g>
      <polygon class="cls-1" points="50.36 128.87 53.27 129.77 52.61 126.68 50.36 128.87"/>
      <path class="cls-1" d="m33.3,124.54l-.13-.07c-.56-.3-1.15-.62-1.8-.83-.3-.1-.71-.23-1.05-.23-.2,0-.34.04-.43.13-.06.07-.08.22-.05.41.13.74.67,1.37,1.17,1.88.77.78,1.71,1.28,2.52,1.67.35.17.71.32,1.07.48.65.28,1.32.58,1.96.93l.13.07c.27.14.57.31.81.55.18.19.35.47.38.77.03-.03.06-.06.1-.09.42-.44.65-1.17.64-2.07-.03-.02-.07-.05-.13-.09-1.35-1.07-3.17-2.44-5.17-3.51Z"/>
      <path class="cls-1" d="m101.68,124.32c-.45,1.17-.99,1.99-1.73,2.62-.62.53-2.03,1.48-2.97,1.83-.92.33-2.82,1.26-3.23,1.62.07.1.29.12.43.12.18,0,.39-.03.63-.08.25-.05.63-.19,1.14-.36,1.72-.59,4.92-1.69,8.48-1.69.22,0,.43,0,.64.01-.35-.95-1.46-3.3-3.4-4.06Z"/>
      <rect class="cls-1" x="85.23" y="122.42" width="5.34" height="4.14" transform="translate(-52.81 65.96) rotate(-32.19)"/>
      <path class="cls-1" d="m30.35,126.81c-.74-.63-1.28-1.45-1.73-2.62-1.94.76-3.05,3.11-3.4,4.06.22,0,.43-.01.64-.01,3.57,0,6.77,1.1,8.48,1.69.5.17.89.31,1.14.36.24.05.46.08.64.08.14,0,.36-.02.43-.12-.41-.36-2.32-1.28-3.23-1.62-.94-.34-2.35-1.3-2.97-1.83Z"/>
      <path class="cls-1" d="m96.76,127.64c.82-.39,1.76-.88,2.52-1.67.5-.52,1.04-1.14,1.17-1.88.03-.19.02-.34-.05-.4-.08-.09-.23-.13-.43-.13-.35,0-.76.13-1.1.24-.61.19-1.19.51-1.76.81l-.13.07c-2.01,1.07-3.82,2.44-5.25,3.57-.01,0-.03.02-.04.03,0,.91.22,1.64.64,2.07.03.03.06.06.1.09.02-.3.2-.59.37-.77.24-.24.54-.4.81-.55l.12-.07c.63-.35,1.31-.64,1.96-.93.36-.16.72-.31,1.07-.48Z"/>
      <path class="cls-1" d="m101.36,122.76c0-.49-.14-1.1-.57-1.8-1.2-1.95-4.36-6.44-4.78-7.13-.42-.68-.85-.69-1.48-.37s-5.13,5.03-8.06,6.68c-2.93,1.65-7.73,5.54-21.18,5.94-13.45-.41-18.25-4.29-21.18-5.94s-7.44-6.36-8.06-6.68c-.62-.32-1.05-.31-1.48.37-.42.68-3.57,5.18-4.78,7.13-.43.7-.57,1.31-.57,1.81.15-.36.55-.6,1.51-.36,2.34.57,6.43,3.21,10.31,6.21,3.88,3,12.26,6.23,24.25,6.23s20.37-3.22,24.25-6.23c3.88-3,7.97-5.65,10.31-6.22.96-.23,1.36,0,1.51.37Zm-16.36-1.46l1.57-1-.19.8-1.49.92.11-.72Zm-43.04,6.66l2.55-3.79-4.56,1.47-.26-.18-.45-4.71-2.49,3.7-1.08-.73,3.71-5.51,1.08.73.5,5.08,4.88-1.46,1.08.73-3.71,5.51-1.25-.84Zm11.95,4.81l-.36-1.64-4.2-1.3-1.23,1.15-1.54-.48,5.73-5.18,1.49.46,1.86,7.53-1.74-.54Zm12.62-3.78l-.03.64-1.64.14.07-1.22-4.34-.24-.23,4.14,4.34.24.08-1.41,1.61.42-.04.78c-.03.62-.18,1.03-.44,1.23-.26.2-.72.28-1.39.24l-4.14-.23c-.67-.04-1.12-.17-1.35-.4-.23-.23-.33-.65-.29-1.26l.19-3.5c.03-.62.18-1.02.43-1.23.25-.2.71-.28,1.38-.25l4.14.23c.67.04,1.12.17,1.35.4.23.23.33.65.3,1.27Zm3.69,4.84l-1.06-6.56,7.04-1.14.19,1.16-5.42.88.23,1.43,3.16-.51.18,1.13-3.16.51.26,1.61,5.5-.89.2,1.22-7.11,1.15Zm10.36-2.24l-2.19-6.27,1.53-.53,2.19,6.27-1.53.53Zm12.27-6.62c-.09.31-.42.65-.98,1l-4.35,2.74c-.57.36-1.01.51-1.33.46-.32-.05-.64-.34-.97-.86l-1.86-2.96c-.33-.53-.46-.95-.36-1.26.09-.31.42-.64.99-1l4.35-2.74c.57-.36,1.01-.51,1.32-.46.32.05.64.34.98.87l1.86,2.96c.33.52.45.94.35,1.25Z"/>
    </g>
    <g>
      <path class="cls-2" d="m107.77,37.23c-.1-.11-.16-.18-.16-.18.06.06.11.12.16.18Z"/>
      <path class="cls-2" d="m107.76,38.4c-.22-.22-.36-.35-.36-.35.12.11.24.24.36.35Z"/>
      <path class="cls-2" d="m104.77,71.48c-.09-.03-.15-.04-.15-.04.05,0,.1.03.15.04Z"/>
      <path class="cls-2" d="m103.79,73.45s-.09-.02-.14-.02c0,0,.05,0,.14.02Z"/>
      <path class="cls-2" d="m104.08,75.65s-.08-.04-.12-.05c0,0,.05.02.12.05Z"/>
      <path class="cls-2" d="m105.84,85.24c-.11-.03-.19-.05-.18-.05.06,0,.12.03.18.05Z"/>
      <path class="cls-2" d="m119.24,28.91s-.05.09-.14.26c.05-.08.09-.17.14-.26Z"/>
      <path class="cls-2" d="m121.07,31.9s0,.01,0,.02c0,0,0-.01,0-.02h0Z"/>
      <path class="cls-2" d="m125.91,50.82s-.11.05-.3.14c.1-.04.19-.1.3-.14Z"/>
      <path class="cls-2" d="m127.04,54.79s-.15.02-.4.07c.13-.02.26-.06.4-.07Z"/>
      <path class="cls-2" d="m127.55,64.63c-.06.02-.11.06-.16.09.09-.05.16-.09.16-.09Z"/>
      <path class="cls-2" d="m130.63,80.06s-.11,0-.31.02c.11,0,.21-.02.31-.02Z"/>
      <path class="cls-2" d="m101.92,117.91c.54-.49,1.09-1.04,1.58-1.59.98-.7,2.35-1.47,4.04-2.27,1-.46,2.26-1,3.6-1.35,1.3-.31,2.92-.57,3.45.61.3.54.43,1.16.5,1.72.07.57.09,1.08.08,1.52-.01.87-.1,1.4-.1,1.4.04-.19.05-.38.08-.56-.02.16-.04.33-.07.49,0,.03-.01.07-.01.07,0,0,0-.04.01-.06,0-.01.15-.52.27-1.38.06-.44.11-.96.1-1.56-.02-.59-.07-1.27-.37-1.96-.15-.34-.39-.69-.75-.94-.36-.25-.77-.36-1.16-.42-.79-.11-1.57-.03-2.31.1-1.48.27-2.83.77-3.89,1.26-.64.3-1.21.63-1.74.97.05-.08.1-.16.15-.23.83-.55,1.82-1.15,3-1.76.92-.47,2.07-.99,3.32-1.32.31-.08.63-.15.95-.2.33-.05.63-.1.92-.08.6.05,1.21.26,1.74.55,1.07.57,1.85,1.42,2.21,2.13.28.53.34.96.36,1.14,0-.06-.01-.12-.02-.19,0,.07.03.15.03.22,0,.03,0,.06,0,.06,0,0,0-.03,0-.06,0,0,0,0,0,0,0,0,.07-.52-.23-1.3-.3-.78-1-1.77-2.11-2.51-.51-.34-1.12-.64-1.81-.77.13-.03.24-.07.37-.1.98-.21,2.02-.27,2.95-.15.93.12,1.74.43,2.29.72.55.28.86.52.86.52-.09-.07-.19-.13-.29-.2.08.06.17.11.25.18.01,0,.03.03.03.03,0,0-.02-.02-.04-.03-.02-.01-.28-.28-.79-.62-.52-.35-1.31-.78-2.28-1.01-.88-.22-1.89-.26-2.86-.15.78-.29,1.66-.58,2.58-.8.62-.14,1.27-.25,1.9-.27.32-.01.63,0,.94.03.31.04.63.07.9.15.27.07.51.18.66.36.16.17.23.42.27.67.07.5.03.99,0,1.38l-.11,1.29s0-.03,0-.06c0-.01.11-.48.27-1.27.07-.4.18-.87.16-1.44-.01-.28-.08-.61-.29-.9-.21-.28-.54-.47-.85-.58-.33-.12-.63-.18-.97-.26-.34-.07-.68-.11-1.03-.12-.7-.03-1.4.02-2.08.12-1.36.21-2.61.61-3.6,1-1.99.8-3.46,1.75-4.44,2.46-.07.05-.11.09-.18.14-.19.09-.39.18-.56.27-.02.01-.05.03-.07.04l.87-.94c1.06-.56,2.5-1.45,4.3-2.3.91-.43,2.05-.86,3.3-1.04.62-.09,1.27-.12,1.91-.08.67.04,1.32.07,1.93.11,1.23.09,2.32.26,3.05.55.19.07.33.16.49.22.15.06.28.1.39.13l.07.02s0,0,0,0l-.1.05-.08.04s.05-.02.07-.03l.07-.02h.05s.03-.02.03-.02c0,0,.01,0,.02-.01,0-.03,0-.02-.01-.03l-.14-.06c-.1-.05-.22-.11-.36-.19-.12-.08-.28-.19-.46-.28-.72-.39-1.82-.7-3.06-.92-.62-.11-1.26-.21-1.92-.31-.68-.1-1.39-.13-2.08-.08-1.39.1-2.68.52-3.66.98-.58.28-1.09.58-1.57.88l.21-.23c.86-.47,1.91-.99,3.18-1.43.92-.32,2.07-.63,3.31-.76,1.23-.14,2.54-.11,3.71.06,2.36.32,4.12,1.13,4.12,1.12-.15-.07-.31-.14-.46-.21.14.06.28.12.41.18,0,0,0,0,0,0,.02.01.05.03.05.03,0,0-.03-.02-.06-.03-.07-.03-1.67-1.04-4.01-1.61-1.19-.3-2.55-.47-3.88-.41-1.32.05-2.59.31-3.59.67-.83.29-1.53.66-2.16,1.05l.16-.35c.94-.56,2.22-1.21,3.87-1.75.91-.3,2.05-.6,3.26-.79.61-.1,1.23-.17,1.85-.22.62-.05,1.22-.08,1.8-.04,1.16.06,2.2.22,2.93.41.51.13.84.29,1.01.38-.06-.04-.12-.07-.19-.11.09.05.18.09.26.14.02.01.05.03.04.03,0,0-.03-.02-.05-.03,0,0-.37-.31-1.08-.58-.71-.28-1.74-.58-2.93-.76-1.18-.17-2.5-.18-3.76-.07.45-.12.9-.23,1.38-.33,1.33-.29,2.73-.52,4.01-.66,2.56-.3,4.61-.22,4.61-.21-.44-.04-.88-.05-1.32-.07.42.02.84.02,1.26.06,0,0,0,0,0,0,.03,0,.06,0,.06,0,0,0-.04,0-.08-.01-.13-.02-2.09-.36-4.62-.34-1.31,0-2.75.1-4.14.29-1.39.19-2.71.5-3.77.86-1.42.47-2.57,1.1-3.46,1.74l.26-.58c.88-.58,2.03-1.15,3.44-1.66.49-.18,1.05-.36,1.65-.53.58-.16,1.24-.29,1.91-.4,1.34-.23,2.75-.39,4.03-.47,1.28-.08,2.44-.07,3.27-.02.83.05,1.34.13,1.34.13-.19-.04-.38-.06-.57-.1.16.03.33.05.49.08.04,0,.08.02.08.02,0,0-.04,0-.06-.01,0,0-.5-.15-1.32-.3-.83-.16-1.99-.3-3.3-.36-1.31-.06-2.76-.04-4.16.09-.51.05-1,.12-1.49.21,1.8-.54,4.28-1.09,6.41-1.18,1.15-.06,2.19,0,2.9.2.35.09.62.21.79.33,0,0,.01.01.02.02.08.07.17.12.24.21,0,0-.02-.02-.05-.06,0,0,.01,0,.02.01.01.02.04.04.04.04,0,0-.02-.02-.03-.04h0s-.06-.1-.22-.24c-.16-.14-.43-.3-.79-.44-.71-.28-1.77-.47-2.95-.54-2.37-.14-5.25.25-7.16.87-1.38.43-2.5,1-3.35,1.57l.14-.3c.89-.58,2.1-1.2,3.62-1.74.92-.34,2.08-.68,3.31-.93,1.23-.25,2.54-.4,3.73-.42,1.19-.02,2.26.1,3.01.27.75.17,1.19.37,1.19.36-.15-.07-.32-.12-.48-.18.14.06.29.1.43.16.02,0,.05.02.05.02,0,0-.03-.01-.06-.03-.02,0-.42-.25-1.14-.51-.74-.27-1.81-.52-3.03-.63-1.22-.11-2.59-.09-3.89.08-1.3.16-2.54.47-3.53.83-1.01.37-1.87.83-2.58,1.33l.24-.54c.92-.59,2.21-1.29,3.88-1.88.92-.33,2.07-.66,3.3-.88,1.23-.23,2.53-.34,3.72-.36,2.38-.05,4.24.41,4.24.41-.21-.06-.41-.11-.62-.16.18.05.36.08.54.14.05.01.08.02.08.02,0,0-.03,0-.05-.02,0,0,0,0,0,0,0,0-1.79-.7-4.22-.92-1.21-.12-2.56-.13-3.86.01-1.3.14-2.54.43-3.52.78-1.18.42-2.13.99-2.89,1.56l.15-.32c.82-.54,1.96-1.26,3.47-1.76.79-.26,1.79-.47,2.87-.57,1.08-.1,2.23-.13,3.27-.16,1.02-.04,1.94.1,2.6.2.67.1,1.08.12,1.08.12-.07-.02-.13-.02-.2-.04-.17-.04-.47-.11-.9-.23-.64-.18-1.56-.43-2.62-.5-1.04-.09-2.19-.18-3.32-.15-1.13.02-2.24.19-3.11.49-.38.13-.72.28-1.04.45.44-.24.91-.47,1.44-.7.79-.35,1.79-.72,2.86-1.01,1.07-.3,2.21-.52,3.25-.65,2.09-.27,3.78-.17,3.78-.17-.39-.04-.77-.05-1.16-.07.37.02.74.02,1.1.06.02,0,.06,0,.06,0,0,0-.03,0-.05,0-.02,0-1.67-.33-3.81-.28-1.07.02-2.26.13-3.4.36-1.13.22-2.21.56-3.05.93-.89.39-1.63.85-2.23,1.33l.17-.55c.25-.2.54-.4.86-.6.6-.37,1.33-.72,2.15-1.1l1.37-.61c.5-.23,1-.45,1.53-.67,1.06-.43,2.2-.78,3.26-1.04,1.06-.25,2.02-.48,2.71-.62.69-.15,1.12-.21,1.12-.21-.45.06-.91.12-1.36.19,0,0,0,0,0,0,.43-.06.86-.12,1.28-.18.04,0,.07,0,.07,0,0,0-.03,0-.05,0,0,0-.44,0-1.14.07-.71.06-1.68.16-2.77.3-1.1.15-2.3.4-3.44.76-.56.18-1.12.39-1.62.59-.5.2-.98.39-1.41.59-.84.38-1.58.81-2.18,1.29l.15-.47c.78-.7,1.89-1.54,3.41-2.29.83-.43,1.88-.89,3.01-1.3,1.13-.4,2.35-.79,3.44-1.07,1.1-.28,2.11-.41,2.84-.35.73.04,1.16.24,1.16.23-.09-.04-.19-.07-.28-.1.08.03.15.05.23.08.03.01.06.02.06.02,0,0-.03-.01-.05-.02,0,0-.4-.24-1.14-.37-.74-.14-1.8-.14-2.95.03-1.15.17-2.4.44-3.6.76-1.2.33-2.33.76-3.22,1.22-1.03.53-1.84,1.16-2.47,1.79l.06-.2c.73-.67,1.75-1.47,3.06-2.34,1.48-1.01,3.75-2.3,5.8-2.98,1.02-.35,1.97-.54,2.67-.57.32-.02.57,0,.76.01-.06,0-.12-.02-.18-.02.07,0,.14.01.22.03,0,0-.02,0-.03,0,.12.02.25.02.37.05,0,0-.08-.01-.19-.03.05,0,.09,0,.14.02.02,0,.05.01.05.01,0,0-.03,0-.05-.01,0,0-.42-.15-1.12-.19-.71-.05-1.71.03-2.79.28-2.17.47-4.65,1.6-6.2,2.66-.82.55-1.49,1.13-2.04,1.69l.14-.45c.71-.77,1.8-1.91,3.21-3.3,1.28-1.28,3.21-3.07,5.09-4.14.93-.54,1.84-.89,2.52-1.04.34-.08.61-.11.81-.13-.07,0-.13,0-.2.01.15,0,.31-.03.46-.03.02,0,.05,0,.05,0,0,0-.03,0-.05,0-.01,0-.44-.07-1.14,0-.71.07-1.69.32-2.71.78-2.06.9-4.21,2.57-5.53,3.9-.85.85-1.5,1.66-2.01,2.39l.14-.46c.54-.78,1.22-1.72,2.03-2.79,1.1-1.47,2.78-3.57,4.49-4.95.85-.7,1.7-1.2,2.37-1.44.67-.25,1.12-.25,1.12-.26-.08,0-.17.01-.25.02.07,0,.13-.02.2-.02.02,0,.06,0,.05,0,0,0-.03,0-.05,0-.01,0-.45-.05-1.16.12-.71.17-1.65.59-2.6,1.21-1.91,1.24-3.83,3.24-4.97,4.77-.31.41-.58.81-.82,1.2l-.04-.36c.52-.83,1.21-1.82,2.08-2.92,1.17-1.51,3.05-3.56,4.87-4.98.9-.71,1.78-1.27,2.45-1.57.4-.19.72-.25.92-.28-.03,0-.06,0-.09,0,.06,0,.12-.02.19-.02-.03,0-.06,0-.1.01.08,0,.15-.02.23-.01,0,0-.03,0-.07,0,0,0,.01,0,.02,0,.02,0,.05,0,.05,0,0,0-.03,0-.05,0,0,0-.48-.07-1.2.16-.73.22-1.69.68-2.68,1.31-2.01,1.24-4.15,3.19-5.37,4.77-.59.74-1.04,1.47-1.4,2.16l-.03-.29c.54-.93,1.42-2.42,2.58-4.28.98-1.61,2.48-3.89,3.91-5.65,1.19-1.51,2.33-2.6,2.65-2.9-.22.18-.43.38-.64.57.23-.21.45-.43.7-.62.02-.01.04-.03.04-.04,0,0-.03.02-.04.03-.02,0-1.51,1.02-3.1,2.65-1.63,1.62-3.36,3.8-4.37,5.46-.91,1.47-1.47,2.79-1.81,3.81l-.06-.53c.31-.93.73-2,1.31-3.19.9-1.88,2.51-4.48,4.08-6.48,1.54-2.03,2.81-3.59,2.82-3.59-.55.59-1.07,1.21-1.61,1.82.52-.59,1.03-1.19,1.57-1.77.02-.02.04-.05.04-.05,0,0-.03.03-.05.05-.04.03-1.5,1.39-3.23,3.23-1.79,1.84-3.7,4.36-4.65,6.36-.22.44-.39.87-.54,1.29v-.08c.33-.99.87-2.32,1.69-3.85.43-.8,1.01-1.76,1.67-2.73.66-.97,1.42-1.93,2.11-2.8.7-.85,1.39-1.57,1.88-2.1l.78-.86-.04.04-.88.74c-.55.47-1.32,1.1-2.13,1.89-.78.8-1.64,1.7-2.4,2.64-.76.94-1.42,1.91-1.87,2.76-.48.89-.8,1.74-1.01,2.51l-.04-.34c.21-.7.46-1.44.83-2.23.44-.98,1.09-2.13,1.87-3.27.78-1.15,1.68-2.29,2.52-3.32l.61-.75c.18-.24.39-.44.59-.64.4-.39.79-.71,1.13-.97.46-.34.81-.54,1-.65-.14.07-.28.15-.42.22.17-.09.34-.2.52-.28.02,0,.06-.03.06-.03,0,0-.03.02-.06.03-.02,0-.51.17-1.25.59-.38.21-.81.49-1.27.85-.22.18-.48.37-.69.61l-.69.68c-.94.93-1.98,2-2.87,3.13-.9,1.13-1.65,2.32-2.12,3.38-.01.03-.02.05-.03.08l-.04-.4c.35-.75.8-1.6,1.35-2.52.47-.79,1.09-1.74,1.8-2.68.71-.94,1.53-1.86,2.32-2.65,1.57-1.58,3.06-2.58,3.06-2.59-.3.18-.57.39-.86.59.27-.19.54-.39.82-.56.02,0,.04-.03.04-.03,0,0-.03.02-.05.03-.05.03-1.63.81-3.37,2.22-.89.71-1.81,1.58-2.62,2.49-.04.04-.07.08-.1.12.16-.22.31-.43.48-.65.78-1.01,1.64-2.02,2.44-2.93.79-.92,1.54-1.67,2.16-2.15.38-.31.69-.47.88-.55-.05.02-.09.03-.13.05.08-.03.16-.07.24-.1-.03,0-.07.03-.11.05.07-.02.13-.06.2-.07,0,0-.03,0-.08.02,0,0,.01,0,.02,0,.03,0,.06-.02.06-.02,0,0-.03,0-.06.01,0,0,0,0,0,0,0-.01-.48.09-1.16.51-.34.2-.73.47-1.14.8-.42.32-.85.72-1.29,1.12-.9.82-1.87,1.76-2.74,2.73-.85.94-1.6,1.91-2.15,2.78.29-.54.62-1.1,1.02-1.69.51-.77,1.21-1.66,2.02-2.52.81-.87,1.72-1.71,2.57-2.47,1.23-1.17,2.34-2.08,2.83-2.44-.12.07-.24.15-.36.23.15-.1.29-.2.45-.29-.03.02-.05.03-.08.06.09-.05.17-.12.26-.17,0,0-.04,0-.1.04-.25.1-1.69.96-3.34,2.22-.93.66-1.94,1.42-2.84,2.26-.91.83-1.7,1.74-2.25,2.57-.32.48-.57.94-.79,1.4l-.05-.37c.21-.41.45-.84.73-1.28.55-.88,1.31-1.91,2.2-2.91.89-1,1.91-1.96,2.89-2.78,1.95-1.64,3.73-2.65,3.73-2.65-.36.18-.7.4-1.05.6.34-.19.66-.4,1-.57h0s.05-.03.05-.03c0,0-.03.02-.07.03-.08.03-1.93.78-4.04,2.2-1.08.72-2.22,1.6-3.23,2.57-.16.15-.31.31-.47.47.35-.48.72-.98,1.13-1.47.85-1.04,1.8-2.06,2.72-2.92.92-.87,1.81-1.58,2.48-2.04.68-.46,1.14-.68,1.13-.68-.22.1-.42.21-.63.32.19-.1.37-.21.57-.29.03-.01.06-.03.06-.03,0,0-.03.01-.05.02,0,0-.49.16-1.22.54-.74.38-1.72.99-2.75,1.77-.51.39-1.03.81-1.54,1.27.54-.75,1.09-1.48,1.65-2.13.74-.88,1.46-1.62,2.04-2.07.28-.22.53-.38.72-.46,0,0,0,0,0,0,.1-.04.21-.08.32-.09,0,0-.03,0-.07.01,0,0,0,0,.01,0,.02,0,.06,0,.06,0,0,0-.03,0-.05,0,0,0,0,0,0,0,0,0-.12,0-.32.06-.2.06-.48.19-.8.39-.65.4-1.47,1.06-2.32,1.87-1.7,1.61-3.49,3.84-4.5,5.55-.34.56-.61,1.09-.85,1.6l-.08-.53c.23-.56.49-1.14.83-1.75.51-.93,1.24-2.02,2.11-3.09.43-.54.89-1.09,1.34-1.63.23-.27.44-.54.66-.79.22-.25.45-.48.69-.69.95-.86,1.99-1.41,2.79-1.69.38-.14.69-.21.92-.26-.08.01-.17.03-.25.04.19-.03.39-.09.58-.1.03,0,.07,0,.06,0,0,0-.04,0-.06,0,0,0-.53-.02-1.37.16-.84.19-1.99.63-3.09,1.43-.55.39-1.09.91-1.57,1.4-.5.5-1.01,1-1.5,1.53-.05.05-.09.1-.13.15.44-.69.93-1.42,1.5-2.16.8-1.04,1.7-2.07,2.6-2.93,1.78-1.74,3.55-2.69,3.55-2.69-.16.08-.31.17-.47.25.13-.07.26-.15.4-.21.04-.02.07-.04.07-.04,0,0-.03.02-.05.02,0,0-1.88.71-3.89,2.29-1.01.78-2.05,1.74-2.95,2.76-.91,1.02-1.68,2.09-2.24,3.01-.41.68-.72,1.33-.99,1.95l-.02-.14c.24-.58.52-1.19.87-1.84.49-.93,1.17-2.04,1.95-3.15l.6-.84.31-.42c.1-.14.2-.25.31-.38.44-.51.92-.98,1.38-1.42.93-.88,1.83-1.6,2.52-2.06.36-.25.66-.41.86-.52-.11.05-.23.11-.34.16.19-.1.38-.21.58-.28.02,0,.06-.02.06-.02,0,0-.03.01-.06.02-.02,0-.51.14-1.24.52-.75.38-1.74,1-2.79,1.79-.52.4-1.06.83-1.57,1.33-.13.12-.27.26-.38.4l-.35.39c-.23.26-.46.53-.68.8-.33.4-.63.8-.92,1.2.05-.08.08-.15.13-.23.53-.89,1.21-1.96,1.98-3.02.78-1.07,1.65-2.12,2.51-3.03,1.46-1.58,2.87-2.64,3.24-2.91-.27.17-.53.38-.79.56.28-.2.55-.42.84-.6.02-.01.05-.03.05-.03,0,0-.03.02-.05.03-.03.01-1.8.92-3.7,2.59-.81.7-1.64,1.53-2.41,2.39.52-.75,1.06-1.49,1.6-2.15,1.43-1.8,2.78-3.05,2.78-3.05-.3.24-.57.52-.86.77.27-.25.53-.5.81-.74.02-.02.05-.04.05-.04,0,0-.03.02-.06.05-.13.09-1.56,1.11-3.13,2.7-.79.78-1.6,1.69-2.34,2.63.51-1.06,1.08-2.1,1.67-3.03.7-1.11,1.43-2.04,2.04-2.63.61-.6,1.08-.84,1.08-.85-.09.05-.18.1-.27.16.07-.04.14-.09.21-.13.02-.01.06-.03.06-.03,0,0-.03.02-.06.03-.01,0-.5.19-1.18.72-.69.52-1.55,1.38-2.38,2.44-1.42,1.76-2.75,4.08-3.61,6.04l-.03-.66s.01-.03.02-.04c.45-.98,1.06-2.16,1.79-3.35.73-1.19,1.56-2.38,2.36-3.42,1.6-2.1,3.1-3.57,3.11-3.57-.33.29-.64.61-.96.91.3-.29.6-.59.91-.87,0,0,0,0,0,0,.02-.02.05-.05.05-.05,0,0-.03.02-.07.05-.1.07-1.46,1.1-3.05,2.7.27-.37.54-.74.81-1.08,1.27-1.67,2.42-2.87,2.42-2.86-.27.24-.52.51-.77.76.25-.24.48-.5.74-.73,0,0-.01,0-.01.01.02-.02.05-.04.05-.04,0,0-.02.02-.06.05-.13.09-1.36,1.09-2.74,2.55-.37.38-.74.79-1.11,1.21.5-.83,1-1.5,1.31-1.91.01-.01.02-.02.03-.04.81-.86,1.58-1.58,2.14-2.1l.91-.84-.05.04-1,.7c-.62.45-1.48,1.07-2.39,1.85-.91.78-1.86,1.71-2.69,2.69-.79.93-1.47,1.91-1.96,2.77v-.28c.16-.28.34-.57.55-.86.55-.8,1.3-1.75,2.16-2.67.86-.92,1.82-1.83,2.7-2.64.89-.81,1.69-1.54,2.22-2.12.54-.57.73-1.03.72-1.03-.04.08-.1.14-.14.22-.12.16-.35.43-.73.73-.59.5-1.47,1.11-2.44,1.83-.97.71-2.04,1.53-2.99,2.42-.84.77-1.58,1.59-2.14,2.37l-.02-.33c.34-.5.74-1.05,1.19-1.65.49-.66,1.1-1.45,1.75-2.28.32-.42.65-.85.95-1.28l.93-1.22c1.19-1.58,2.08-2.86,2.09-2.86,0,0-.02.02-.03.04l-2.41,2.58c-.34.36-.7.72-1.06,1.13-.34.4-.7.79-1.05,1.18-.7.78-1.37,1.55-1.88,2.23-.2.26-.37.52-.53.78l-.02-.37c.2-.31.4-.62.65-.94.55-.76,1.29-1.64,2.1-2.55.81-.91,1.68-1.85,2.41-2.75.74-.89,1.33-1.76,1.69-2.41.36-.66.51-1.09.51-1.09-.02.05-.05.09-.08.14-.09.15-.28.48-.59.91-.43.6-1.11,1.36-1.93,2.15-.82.8-1.77,1.64-2.65,2.5-.3.29-.58.58-.86.87l.42-.5c.91-1.09,2.23-2.64,3.38-3.88.81-.89,1.54-1.59,1.9-1.92-.1.09-.2.18-.31.27.11-.1.22-.2.34-.3,0,0-.02.02-.03.03.08-.07.16-.14.24-.21,0,0-.02.01-.03.02,0,0-.02.01-.03.02.04-.03.06-.05.06-.04,0,0-.02.02-.06.05-.16.12-1.13.89-2.24,1.98-1.22,1.17-2.61,2.67-3.53,3.77-.54.64-.98,1.22-1.36,1.74v-.17c.21-.31.4-.61.64-.94.26-.38.58-.8.91-1.23.06-.07.11-.13.18-.2.5-.57,1.12-1.26,1.73-2,.31-.37.61-.75.9-1.15.15-.23.27-.44.4-.67,1.03-1.27,1.74-2.26,1.73-2.26-.03.04-.06.07-.09.11-.05.07-.11.13-.16.19.04-.05.07-.08.1-.12-.3.38-.61.77-.92,1.14-.11.13-.23.28-.35.42,0-.01.02-.02.02-.04.01-.02.03-.05.04-.07.37-.44.75-.88,1.11-1.34-.21.25-.56.65-1,1.15.39-.67.76-1.25,1.11-1.63.08-.09.15-.16.22-.23.03-.03.06-.05.09-.08.13-.11.24-.22.39-.31,0,0-.02.01-.04.03,0,0,0,0,0,0,.01,0,.04-.02.04-.02,0,0-.02.01-.04.02,0,0,0,0,0,0,0,0-.33.16-.74.58-.42.41-.89,1.08-1.38,1.83-.17.26-.35.52-.54.79-.08.08-.15.16-.23.25-1.04,1.14-2.24,2.48-3.17,3.67-.36.42-.67.82-.94,1.19v-.12c.06-.09.11-.18.17-.28.12-.17.22-.34.34-.51.5-.72,1.14-1.58,1.81-2.48.33-.45.67-.91.98-1.39.15-.24.3-.48.43-.73.13-.23.26-.48.38-.71.48-.94.82-1.81,1.14-2.41.31-.6.54-.95.54-.95-.08.12-.15.25-.23.37.07-.11.13-.22.2-.32.02-.03.04-.05.04-.05,0,0-.02.02-.03.04,0,0,0,0,0,0,0,0-.25.33-.6.91-.36.58-.76,1.43-1.29,2.33l-.42.69c-.14.23-.29.46-.45.68-.33.45-.68.89-1.03,1.33-.1.12-.19.24-.29.37.73-1.45,1.61-3.36,2.33-5,.75-1.71,1.29-3.08,1.35-3.23,0,0,.01-.03.01-.03,0,0,0,.02,0,.02,0,0,0,0,0,0,0,0,0,.02-.01.03-.02.03-.68,1.42-1.56,3.15l-2.74,5.34c-.29.57-.55,1.09-.79,1.58-.05.07-.12.15-.16.22-.03.04-.05.08-.08.12v-.26c.24-.51.49-1.06.76-1.68,1.29-2.97,3.64-8.6,3.64-8.6-.02.04-.03.07-.05.11.01-.02.02-.05.03-.07,0,0,0,0,0,0,0-.02.02-.04.02-.04,0,0-.01.03-.02.05-.08.16-2.75,5.47-4.02,8.41-.12.27-.22.51-.32.76v-.54c.07-.14.11-.26.17-.4.6-1.52,1.53-3.68,2.31-5.48.78-1.79,1.35-3.22,1.35-3.22-.43.96-.87,1.91-1.31,2.86,0,.01-.01.02-.02.03.44-.95.88-1.9,1.31-2.86l-1.55,3.13c-.76,1.51-1.61,3.28-2.22,4.73v-.22c.03-.08.06-.16.09-.24.26-.75.59-1.67.95-2.61l.57-1.42c.21-.47.35-.95.52-1.39.47-1.26.97-2.28,1.22-2.77-.08.14-.15.28-.22.42.09-.16.17-.33.26-.49-.01.02-.02.05-.04.07.06-.11.11-.22.17-.32,0,0-.04.07-.1.18.03-.05.05-.1.08-.14,0,0-.01.02-.01.02.02-.03.03-.06.03-.06,0,0-.01.02-.04.07-.1.16-.86,1.35-1.57,2.99-.2.44-.37.91-.59,1.36-.14.29-.27.59-.4.89.33-1.19.72-2.48,1.15-3.6.49-1.32,1.01-2.39,1.25-2.85-.08.14-.15.28-.22.43.11-.21.22-.44.34-.65,0,0,0,.01,0,.01.01-.03.03-.05.03-.05,0,0-.01.02-.04.06-.08.12-.85,1.34-1.57,3.01-.63,1.42-1.2,3.12-1.61,4.55.45-2.63,1.28-6.71,1.28-6.71v.04c-.03.07-1.32,4.7-1.73,7.26-.13.77-.21,1.44-.26,2.03,0,0,0,.01,0,.02,0-.23,0-.49.01-.75.03-.2.05-.4.08-.61l.67-5.19c.21-1.69.34-3.02.34-3.05,0,0,0,0,0,0h0s0,0,0,0c0,0,0,0,0,0,0,0,0,0,0,0h0s0,0,0,0c0,.02,0,.03,0,.05l-.53,3.01c-.19,1.05-.4,2.23-.58,3.32v-.39c-.03-.5-.09-1.02-.17-1.54-.16-1.05-.4-2.11-.58-3.08-.18-.97-.3-1.84-.32-2.47-.01-.27,0-.48,0-.65,0-.14,0-.28.03-.42,0,0-.08.38-.09,1.02-.02.64.04,1.53.17,2.51.12.98.31,2.06.43,3.09.06.52.1,1.03.11,1.5v1.36c.02.63.04,1.2.06,1.73-.04.38-.08.74-.1,1.08.02-.75.03-1.67-.01-2.74-.06-1.46-.24-3.56-.69-5.25-.22-.84-.51-1.57-.8-2.06-.28-.47-.52-.71-.53-.72-.01-.01-.03-.03-.03-.03,0,0,.02.02.03.03,0,0,0,.01.01.01-.02-.03-.04-.04-.04-.04.09.11.16.23.25.34.03.04.06.08.08.12.05.09.11.18.16.29.26.49.5,1.23.67,2.07.35,1.68.44,3.77.5,5.22.06,1.45.12,2.64.19,3.47.03.39.06.69.09.91-.02.08-.04.17-.06.25-.11-.89-.26-2.14-.5-3.65-.26-1.57-.69-3.82-1.21-5.64-.5-1.82-1.13-3.16-1.15-3.18,0-.02-.02-.04-.02-.04,0,0,.01.02.02.04,0,0,0,0,0,.01-.01-.03-.02-.05-.02-.05.07.18.13.36.2.54,0-.03-.02-.05-.03-.07.06.15.11.31.17.47-.05-.13-.09-.26-.14-.39.2.57.5,1.54.75,2.69.42,1.83.75,4.09,1,5.65.29,1.83.6,3.24.82,4.11-.02.12-.05.24-.07.35,0-.07,0-.13-.02-.21-.1-.93-.37-2.24-.83-3.8-.45-1.56-1.2-3.76-1.73-5.61-.36-1.19-.58-2.24-.7-2.83-.03-.19-.07-.37-.09-.56,0,0,.12,1.52.57,3.4.43,1.88,1.08,4.12,1.53,5.67.45,1.55.82,2.82,1.03,3.71.07.28.11.51.15.71-.01.08-.02.15-.03.22-.12-.66-.34-1.46-.66-2.36-.19-.66-.46-1.48-.84-2.42-.48-1.19-1.3-2.86-2.16-4.14-.84-1.29-1.73-2.12-1.73-2.11,0,0,0,0,0,0-.01-.01-.03-.03-.03-.03,0,0,.02.02.03.03,0,0,0,0,0,0-.02-.02-.03-.03-.03-.03.16.16.3.35.44.52,0,0,0,0-.01-.01.03.04.06.07.09.11-.03-.03-.05-.06-.08-.1.31.39.74.97,1.15,1.68.5.84.98,1.83,1.38,2.75-.34-.58-.7-1.15-1.08-1.65-.54-.72-1.1-1.3-1.56-1.65-.45-.35-.78-.46-.79-.47-.02,0-.04-.02-.04-.02,0,0,.02.01.04.02,0,0,0,0,.01,0-.03-.01-.05-.02-.05-.02.15.07.29.17.42.26.03.02.06.03.08.05.08.06.16.12.26.2.44.37.95.97,1.45,1.71.99,1.47,1.88,3.43,2.43,4.81.55,1.38.94,2.54,1.15,3.36.01.04.01.07.02.1-.02.09-.03.14-.03.14h.05s0,0,0-.02c0,.03.01.05.02.07-.02.08-.03.16-.05.24,0-.04,0-.07-.02-.12-.15-.78-.5-1.87-1.11-3.1-.61-1.24-1.66-2.93-2.75-4.16-.54-.62-1.08-1.12-1.51-1.43-.41-.3-.69-.42-.72-.44-.02,0-.04-.02-.04-.02,0,0,.02.01.03.02,0,0,0,0,0,0,0,0,.01,0,.02.01-.03-.02-.05-.03-.05-.03.11.06.21.13.31.2.03.02.07.04.1.07.08.06.18.13.28.21.4.33.91.85,1.41,1.49,1.01,1.27,1.98,2.98,2.57,4.2.6,1.22,1.03,2.25,1.27,2.99.06.17.1.33.14.47-.02.14-.04.26-.06.36-.02.08-.03.14-.04.2,0-.19,0-.43-.06-.74-.13-.7-.5-1.68-1.1-2.77-.59-1.1-1.6-2.58-2.58-3.69-.48-.56-.96-1.03-1.35-1.3-.19-.14-.37-.23-.51-.24-.02,0-.03,0-.05,0,0,0-.02,0-.03,0-.05,0-.08.01-.09.02,0,0,0,0-.01,0,0,0-.01,0-.01,0,0,0,0,0,0,0-.01,0-.03.02-.03.02.03-.03.06-.03.1-.04,0,0,.01,0,.02,0,.01,0,.02,0,.03,0,.01,0,.02,0,.04,0,.13.01.3.11.48.25.37.29.81.78,1.26,1.36.9,1.15,1.84,2.67,2.42,3.74.59,1.07,1.02,1.99,1.23,2.65.11.33.16.59.18.77,0,.07.01.14,0,.22,0,.04,0,.05,0,.06,0-.02,0-.03,0-.05-.09-.81-.49-1.91-1.18-3.12-.68-1.22-1.87-2.83-2.96-4.07-1.06-1.24-2.04-2.07-2.08-2.08-.01-.01-.03-.03-.03-.03,0,0,.02.02.03.02,0,0,0,0,0,0,0,0,0,0,.01.01-.02-.02-.04-.03-.04-.03.18.16.34.34.52.51,0,0-.01-.01-.02-.02.07.07.15.14.22.21-.07-.07-.13-.13-.2-.2.03.03.06.06.09.09.36.39.84.95,1.34,1.59,1.01,1.29,2.11,2.94,2.79,4.13.68,1.19,1.15,2.21,1.33,2.96.06.23.08.41.08.58l-.11.41s0-.02,0-.04c0-.19-.02-.49-.12-.9-.17-.72-.6-1.7-1.29-2.77-.69-1.08-1.84-2.51-2.87-3.61-1.02-1.11-1.89-1.91-1.89-1.92,0,0-.03-.03-.03-.02,0,0,.02.02.03.03.37.37.71.77,1.06,1.15-.31-.34-.61-.68-.93-1,.28.31.91,1,1.61,1.85.96,1.16,2.04,2.62,2.72,3.68.68,1.05,1.17,1.96,1.42,2.63.16.41.22.71.25.89,0,.06,0,.1.01.14l-.02.08s0-.02,0-.04c-.13-.74-.53-1.78-1.24-2.88-.7-1.12-1.93-2.56-3.04-3.64-1.1-1.1-2.05-1.87-2.05-1.87,0,0,0,0,0,0-.01,0-.03-.02-.03-.02,0,0,.02.02.03.03.36.32.69.67,1.03,1.01-.23-.23-.46-.46-.7-.69.35.35.93.93,1.57,1.64,1.04,1.14,2.19,2.62,2.88,3.71.7,1.08,1.16,2.03,1.38,2.73.04.13.07.24.09.34l-.05.2c-.04-.14-.1-.3-.17-.49-.24-.62-.67-1.48-1.35-2.43-.68-.95-1.83-2.18-2.91-3.03-.36-.3-.71-.54-1.02-.75-.48-.58-.85-1.11-1.09-1.47-.1-.16-.21-.31-.3-.48,0,0,.38.77,1.05,1.73-.35-.21-.59-.34-.66-.37,0,0,0,0,0,0,0,0,0,0,0,0-.01,0-.03-.01-.03-.01,0,0,0,0,0,0-.02,0-.03-.02-.03-.02.16.09.31.2.47.3,0,0,0,0,0,0,.03.02.06.04.08.05-.03-.02-.05-.03-.08-.05.1.07.21.14.34.23.1.15.22.3.33.45.92,1.23,2.17,2.6,2.99,3.59.12.14.23.27.34.41-.18-.16-.37-.31-.56-.47-.32-.27-.66-.57-.99-.89-.67-.63-1.34-1.31-1.99-1.88-.65-.58-1.28-1.04-1.76-1.32-.47-.28-.78-.4-.8-.41-.02,0-.04-.02-.04-.02,0,0,.02.01.03.02.03.01.05.03.08.04-.03-.02-.05-.03-.07-.04.07.04.15.08.22.12,0,0,0,0,0,0,.02.01.04.02.06.03-.02,0-.03-.02-.05-.03.13.07.3.18.51.31.46.31,1.05.8,1.66,1.41.61.6,1.25,1.31,1.9,1.97.32.33.65.65.97.93.34.29.63.52.89.78.91.89,1.44,1.82,1.76,2.54l-.04.15c-.25-.51-.57-1.07-1.01-1.64-.43-.56-1.01-1.19-1.65-1.8-.65-.61-1.35-1.19-1.99-1.71-.95-.76-1.72-1.43-2.06-1.74-.07-.07-.14-.13-.21-.2,0,0,.89.95,2.12,2.05.61.56,1.28,1.17,1.89,1.79.62.62,1.17,1.25,1.58,1.79.52.68.91,1.31,1.21,1.88l-.02.08c-.23-.46-.51-.93-.9-1.38-.24-.28-.52-.58-.83-.88-.16-.15-.3-.29-.46-.45-.16-.16-.33-.32-.51-.47-.71-.61-1.49-1.15-2.17-1.65-.69-.5-1.27-.99-1.65-1.38-.27-.28-.44-.5-.52-.6-.02-.04-.05-.07-.08-.1,0,0,.15.3.48.75.33.45.86,1.02,1.49,1.6.63.58,1.35,1.19,1.98,1.82.16.16.31.32.45.48.14.16.3.34.44.48.28.3.55.59.77.86.56.64.95,1.26,1.25,1.82l.06.71c-.06-.11-.12-.22-.19-.33-.72-1.16-1.99-2.65-3.13-3.77-.57-.56-1.1-1.04-1.5-1.37-.4-.33-.67-.49-.67-.49h0s-.03-.02-.03-.02c0,0,.02.01.03.02.05.04.09.08.14.12-.1-.09-.17-.14-.17-.14.08.06.15.14.23.2-.02-.02-.05-.04-.06-.06.18.15.35.31.53.47-.15-.14-.3-.28-.46-.41.1.09.22.21.37.36.35.37.82.9,1.32,1.52,1,1.23,2.1,2.79,2.8,3.91.36.56.67,1.07.91,1.54l.03.37c-.31-.7-.78-1.53-1.42-2.41-.86-1.21-2.28-2.8-3.52-4.03-1.23-1.24-2.28-2.14-2.28-2.14-.01-.01-.03-.03-.03-.03,0,0,.02.02.04.05.4.41.78.84,1.18,1.25-.41-.43-.8-.88-1.22-1.3,0,0,.91,1.04,2,2.4,1.09,1.36,2.35,3.04,3.19,4.22.01.01.02.03.03.04-.25-.29-.5-.58-.76-.87l-1.96-2.33c-1.25-1.49-2.46-2.44-2.46-2.43,0,0,0,0,0,0-.02-.01-.04-.03-.04-.03,0,0,.02.02.04.04.24.22.45.46.67.69-.21-.22-.42-.45-.65-.66.24.25,1.15,1.25,2.07,2.62.12.17.24.36.37.54-.11-.11-.23-.24-.34-.35-.69-.65-1.37-1.16-1.89-1.47-.51-.3-.87-.39-.88-.4-.02,0-.04-.02-.04-.02,0,0,.03,0,.04.02.04.01.07.04.11.06-.09-.04-.15-.07-.15-.07.1.04.18.1.28.14,0,0-.02-.01-.03-.01.06.03.11.06.16.08-.05-.02-.09-.05-.14-.07.14.08.33.19.54.36.48.36,1.07.94,1.68,1.64,1.21,1.4,2.46,3.27,3.3,4.57.85,1.3,1.55,2.36,2.02,3.12.16.25.28.46.39.64l.04.51c-.31-.84-.84-1.87-1.64-2.94-.97-1.33-2.6-3.04-4.01-4.36-1.41-1.32-2.57-2.31-2.57-2.31-.01-.01-.03-.03-.03-.03,0,0,1.01,1.14,2.26,2.6,1.25,1.46,2.7,3.28,3.64,4.56.95,1.28,1.69,2.35,2.12,3.15.14.25.24.47.32.65l.03.43s-.04-.07-.06-.11c-.04-.16-.1-.33-.17-.53-.17-.43-.43-.93-.81-1.45-.38-.52-.86-1.06-1.41-1.61-1.05-1.09-2.57-2.77-3.99-3.97-1.39-1.21-2.69-1.85-2.73-1.87-.02-.01-.04-.02-.04-.03,0,0,.02.01.04.02h0c.2.12.38.27.57.4-.17-.12-.33-.24-.5-.35.3.21,1.32.97,2.37,2.09.61.63,1.23,1.37,1.83,2.09-.41-.34-.83-.68-1.22-.99-1.34-1.07-2.41-1.96-2.66-2.18-.03-.03-.06-.05-.09-.08,0,0,1.03,1.17,2.43,2.55,1.39,1.39,3.06,3.07,4.14,4.28.2.22.38.43.57.64-.98-1.14-2.5-2.46-3.97-3.28-1.55-.91-2.94-1.19-2.96-1.19-.02,0-.04-.01-.04-.01,0,0,.02,0,.04.01.03,0,.05.02.08.03-.07-.03-.12-.05-.12-.05.12.04.23.09.34.13-.02,0-.05-.02-.07-.03.16.05.32.13.48.19-.14-.05-.27-.11-.41-.16.49.2,1.43.64,2.42,1.38,1.43,1.02,2.89,2.56,3.82,3.69.1.12.19.24.29.36-.2-.2-.41-.4-.63-.59-.88-.8-1.87-1.53-2.79-2.14-1.84-1.22-3.41-1.97-3.41-1.97,0,0,0,0,0,0-.02-.01-.04-.03-.04-.03,0,0,.04.02.1.06.21.12.41.26.62.39-.24-.15-.47-.3-.72-.45,0,0,1.45.96,3.12,2.35.84.7,1.72,1.5,2.52,2.33.8.83,1.49,1.67,2.02,2.39.57.76,1.01,1.47,1.39,2.12v.02c-.04-.06-.07-.12-.11-.18-.57-.83-1.34-1.78-2.18-2.73-.83-.94-1.73-1.91-2.63-2.69-.9-.79-1.79-1.39-2.47-1.75-.66-.35-1.09-.5-1.11-.51-.02-.01-.06-.03-.05-.03,0,0,.03.02.05.03.11.05.22.12.33.18-.13-.07-.25-.14-.38-.2,0,0,.42.21,1.03.65.62.43,1.42,1.11,2.2,1.97.79.85,1.57,1.88,2.33,2.87.75.99,1.45,1.96,2.01,2.76.02.03.04.06.06.09-.61-.71-1.43-1.5-2.32-2.25-.9-.76-1.87-1.48-2.76-2.13l-3.18-2.27c.31.26.62.51.93.76,0,0-.01-.01-.02-.02-.32-.26-.64-.52-.95-.78,0,0,.02.03.07.07.28.26,1.4,1.32,2.81,2.58.81.73,1.69,1.54,2.52,2.35.43.42.83.83,1.2,1.23-.75-.69-1.55-1.34-2.31-1.89-.88-.64-1.72-1.16-2.34-1.49-.62-.33-1.03-.48-1.02-.48,0,0,0,0,0,0-.02,0-.05-.02-.05-.02,0,0,.03.01.06.03.18.09.35.19.52.29-.19-.11-.39-.22-.59-.32,0,0,.38.2.95.6.57.4,1.32,1.01,2.12,1.73.8.72,1.65,1.56,2.41,2.4.39.42.7.85,1.06,1.27.34.4.64.79.91,1.15.05.06.09.12.13.18-.29-.33-.61-.69-.96-1.05-.35-.38-.77-.8-1.2-1.18-.86-.77-1.82-1.48-2.72-2.07-1.79-1.19-3.38-1.81-3.38-1.81,0,0,0,0,0,0-.02,0-.05-.02-.05-.02,0,0,.03.01.06.03.32.16.62.34.93.52-.29-.17-.58-.34-.88-.49.35.2,1.62.96,3,2.11.81.67,1.68,1.46,2.46,2.26.39.4.74.8,1.08,1.2l.96,1.11c.11.13.2.24.31.36-.34-.39-.69-.78-1.07-1.17-.98-.98-2.09-1.89-3.17-2.6-2.08-1.39-3.95-1.98-4.08-2.03-.04-.02-.08-.03-.08-.03,0,0,.03.01.06.03,0,0-.01,0-.01,0,.06.03.13.06.19.09-.08-.03-.16-.08-.24-.11,0,0,1.85.86,3.78,2.47.97.8,1.96,1.78,2.82,2.79.87,1.01,1.62,2.04,2.21,2.91.87,1.27,1.56,2.4,2.1,3.34l.09.44c-.46-.77-1.03-1.61-1.71-2.49-1.33-1.73-3.49-4.04-5.51-5.68-1.01-.82-1.98-1.48-2.72-1.87-.73-.39-1.21-.54-1.22-.55-.02,0-.06-.02-.06-.02,0,0,.03.02.06.03.18.07.34.17.51.26-.19-.1-.37-.21-.56-.29,0,0,.47.21,1.14.69.68.47,1.54,1.22,2.44,2.13,1.21,1.22,2.46,2.71,3.55,4.08-.84-.81-1.71-1.59-2.56-2.26-1.11-.89-2.17-1.6-2.96-2.05-.79-.46-1.31-.66-1.31-.66,0,0,0,0,0,0-.02-.01-.06-.03-.06-.03,0,0,.04.02.08.04.21.11.4.23.6.35-.23-.13-.45-.27-.68-.39,0,0,.49.27,1.21.82.72.54,1.67,1.36,2.66,2.34,1.79,1.76,3.68,4.05,5.07,5.85-1.32-1.53-2.91-3.14-4.43-4.41-1.11-.94-2.17-1.69-2.98-2.16-.8-.47-1.33-.67-1.33-.68-.02-.01-.06-.03-.06-.03,0,0,.04.02.07.03.16.08.31.18.46.27-.18-.1-.35-.22-.53-.31,0,0,.5.27,1.23.83.73.56,1.68,1.42,2.66,2.45.45.46.9.96,1.35,1.48-.35-.27-.71-.52-1.06-.76-1.36-.92-2.68-1.6-3.66-1.98-.98-.39-1.62-.51-1.62-.51,0,0,0,0,0,0-.03,0-.07-.02-.07-.02,0,0,.05.02.09.03.23.07.44.17.66.26-.25-.1-.49-.2-.75-.28,0,0,.61.21,1.53.7.91.49,2.11,1.29,3.34,2.33,1.23,1.03,2.48,2.28,3.6,3.56,1.09,1.26,2.03,2.62,2.76,3.72,1.23,1.85,2.12,3.47,2.7,4.79l-.1.62c-.43-1.21-1.03-2.63-1.91-4.17-.65-1.14-1.52-2.48-2.6-3.77-1.08-1.28-2.36-2.46-3.64-3.37-1.27-.91-2.55-1.5-3.5-1.8-.95-.3-1.56-.36-1.56-.36,0,0,0,0,0,0-.03,0-.07-.01-.07-.02,0,0,.05.01.09.02.21.05.41.12.61.18-.23-.07-.46-.15-.7-.2,0,0,.6.14,1.49.55.89.4,2.05,1.12,3.18,2.12,1.06.93,2.1,2.08,2.99,3.28-.6-.58-1.21-1.12-1.82-1.61-1.28-1.04-2.54-1.82-3.52-2.25-.96-.43-1.6-.49-1.62-.49-.03,0-.08-.01-.08-.01,0,0,.05,0,.08.02.12.03.24.07.36.11-.1-.03-.19-.06-.29-.08.24.07.74.24,1.38.63.89.53,2.02,1.43,3.16,2.57,1.14,1.13,2.29,2.49,3.3,3.85,1.01,1.37,1.88,2.75,2.52,3.91.77,1.36,1.32,2.61,1.7,3.72l-.06.36c-.26-.92-.65-1.88-1.18-2.84-.68-1.26-1.69-2.66-2.82-4.03l-.86-1.02c-.3-.35-.61-.68-.92-1-.63-.64-1.28-1.23-1.94-1.75-1.3-1.05-2.62-1.81-3.64-2.15-1.02-.35-1.69-.3-1.69-.31-.05,0-.08,0-.07,0,0,0,.03,0,.08,0,.12,0,.24.04.36.06-.1-.01-.2-.03-.3-.04.24.03.78.14,1.47.47.95.44,2.12,1.32,3.26,2.46.57.57,1.14,1.2,1.69,1.87.27.33.54.68.79,1.02l.76,1.07c1,1.42,1.89,2.81,2.53,3.98.65,1.17,1.14,2.26,1.48,3.26.25.75.4,1.42.49,2.05l-.04.24c-.21-1.37-.78-3.2-1.93-5.17-.62-1.06-1.48-2.28-2.49-3.45-1.01-1.17-2.16-2.29-3.29-3.19-1.13-.9-2.25-1.57-3.1-1.94-.85-.38-1.4-.49-1.4-.5,0,0,0,0,0,0-.02,0-.06-.02-.06-.02,0,0,.04.01.07.03.21.07.41.17.61.26-.19-.08-.37-.17-.57-.23.2.08.63.27,1.19.61.78.47,1.78,1.24,2.78,2.23,1,.98,2.01,2.17,2.89,3.37.16.21.31.43.46.64-.62-.62-1.25-1.21-1.87-1.74-1.13-.96-2.21-1.72-3.02-2.22-.8-.49-1.32-.73-1.33-.74-.02-.01-.06-.03-.06-.03,0,0,.04.02.07.04.19.11.37.23.55.35-.21-.13-.41-.27-.62-.39,0,0,.49.31,1.22.9.74.59,1.7,1.46,2.7,2.51.99,1.05,2.05,2.28,2.91,3.51.47.69.87,1.39,1.23,2.07-.28-.46-.58-.91-.92-1.36-.94-1.22-2.04-2.4-3.16-3.33-1.12-.93-2.28-1.57-3.19-1.8-.9-.24-1.47-.13-1.48-.14-.03,0-.07,0-.07,0,0,0,.04,0,.07,0,.1,0,.19.01.29.02-.08,0-.16-.01-.25-.01.21,0,.69.05,1.31.29.84.32,1.88,1.06,2.85,2.05.98.99,1.92,2.23,2.73,3.47.81,1.23,1.41,2.5,1.83,3.58.78,1.99,1.16,3.72,1.36,5.02l-.07.13c-.08-.81-.24-1.69-.51-2.63-.58-2.07-1.9-4.95-3.67-6.84-.87-.95-1.87-1.6-2.67-1.83-.8-.24-1.31-.14-1.3-.15,0,0,0,0,0,0-.02,0-.06,0-.06,0,0,0,.04,0,.07,0,.08,0,.17.01.25.02-.11,0-.21-.02-.32-.02,0,.01.52-.03,1.25.29.73.3,1.6,1.02,2.33,2,1.49,1.96,2.5,4.81,3.06,6.78.41,1.42.7,2.67.88,3.7l-.09.17c-.11-.82-.33-1.73-.7-2.69-.7-1.87-2.22-4.33-3.85-6.02-.81-.85-1.64-1.52-2.3-1.88-.65-.36-1.11-.38-1.14-.38-.03,0-.06,0-.06,0,0,0,.03,0,.05,0,.09.01.17.05.25.07-.04-.01-.08-.02-.12-.03.19.05.5.17.89.45.6.42,1.32,1.15,2.02,2.06,1.41,1.8,2.65,4.28,3.31,6.04.52,1.34.86,2.52,1.07,3.49l-.11.21c-.09-.55-.22-1.12-.43-1.71-.34-.97-.89-2.09-1.53-3.19-.32-.55-.66-1.1-1-1.64-.33-.56-.78-1.08-1.23-1.48-.91-.82-1.84-1.35-2.51-1.72-.48-.26-.81-.43-.97-.53.25.16.51.32.77.49-.32-.2-.57-.35-.72-.45-.02-.01-.03-.03-.05-.04,0,0,0,0,0,0,0,0,0,0-.01,0-.04-.03-.09-.06-.13-.1,0,0,.02.03.03.04,0,0,0,0,0,0,0,0,0,0,0,0,.08.09.43.33.95.7.61.45,1.47,1.09,2.24,1.94.39.43.73.9.99,1.46l.84,1.7c.54,1.13,1.02,2.22,1.34,3.13.37,1.01.59,1.93.72,2.75l-.22.4c-.05-.48-.11-.99-.23-1.52-.1-.47-.25-.98-.46-1.52-.05-.13-.11-.27-.17-.4-.04-.08-.09-.23-.15-.37-.11-.28-.23-.55-.37-.82-.54-1.09-1.25-2.12-1.99-2.96-1.48-1.71-3.06-2.54-3.05-2.54,0,0,0,0,0,0-.02-.01-.04-.03-.04-.03,0,0,.03.02.07.05.14.09.27.2.41.3-.16-.12-.31-.24-.48-.35,0,0,1.44,1.04,2.68,2.83.63.89,1.21,1.93,1.64,2.99.11.26.2.53.29.79l.06.19c.02.06.03.13.08.23.05.12.09.24.14.36.17.49.29.97.39,1.41.22,1,.37,1.91.47,2.7l-.05.1c-.02-.21-.02-.4-.05-.62-.12-.95-.38-2.12-.86-3.25-.47-1.13-1.18-2.21-1.95-3.05-.77-.84-1.57-1.46-2.16-1.87-.59-.41-.98-.62-.98-.62.02.01.03.03.05.04-.06-.04-.1-.06-.09-.07,0,0,.35.26.89.74.53.47,1.24,1.17,1.88,2.06.65.88,1.21,1.94,1.57,3.03.27.8.45,1.6.56,2.33-.08-.25-.17-.51-.27-.76-.23-.57-.5-1.14-.81-1.67-.29-.53-.65-1.06-1.05-1.48-.8-.86-1.7-1.37-2.34-1.71-.65-.33-1.05-.51-1.05-.51,0,0,0,0,0,0-.02,0-.05-.02-.05-.03,0,0,.38.24.97.64.59.41,1.41,1.01,2.06,1.88.33.43.6.92.84,1.46.24.54.46,1.09.64,1.65.36,1.11.54,2.2.6,3.1.04.58.05,1.11.04,1.62l-.18.34c0-.3,0-.6-.01-.93-.04-.89-.19-2.03-.58-3.12-.38-1.09-.98-2.15-1.65-2.98-1.32-1.66-2.79-2.44-2.83-2.48-.02-.02-.05-.03-.05-.03,0,0,.03.02.05.04.09.07.18.14.28.21-.11-.08-.21-.17-.33-.25-.02,0,1.38.99,2.48,2.74.55.87,1.02,1.9,1.3,2.94.29,1.04.38,2.06.42,2.93.01.23.02.44.03.66-.07-.42-.16-.86-.26-1.31-.24-.97-.54-2-1.02-2.84-.24-.42-.52-.79-.83-1.08-.31-.28-.63-.48-.92-.59-.58-.23-.96-.21-.95-.22,0,0,0,0,0,0-.02,0-.04,0-.04,0,0,0,.03,0,.05,0,.02,0,.04.01.06.02-.03,0-.04,0-.06-.01.1.02.2.06.31.08.01,0,.02,0,.03,0,.15.05.32.11.52.22.53.27,1.1.88,1.45,1.72.36.83.56,1.82.72,2.8.15.96.26,1.91.32,2.67.05.54.07,1.04.09,1.5l-.07.13c0-.33.01-.67,0-1.04-.03-.79-.14-1.76-.39-2.74-.23-.99-.73-2-1.42-2.68-.68-.69-1.47-1.06-2.02-1.27-.56-.21-.92-.29-.92-.3,0,0,0,0,0,0-.02,0-.04-.01-.04-.01,0,0,.03,0,.07.02.11.04.22.09.34.13-.13-.05-.27-.11-.4-.16,0,0,.34.13.87.41.52.28,1.23.72,1.79,1.42.92,1.08,1.16,2.71,1.26,4.09-.05-.13-.1-.26-.16-.4-.41-.89-1.05-1.74-1.8-2.28-.75-.56-1.58-.76-2.15-.79-.57-.03-.91.05-.92.04-.02,0-.04,0-.04,0,0,0,.03,0,.05,0,.1-.01.21,0,.31,0-.1,0-.19,0-.29,0,.13,0,.43,0,.84.07.55.09,1.3.38,1.93.95.64.56,1.14,1.38,1.46,2.22.05.12.07.25.11.37-.09-.13-.17-.26-.28-.38-.44-.45-1.02-.74-1.59-.84-.57-.1-1.11-.04-1.56.09-.46.13-.83.31-1.13.49-.6.36-.89.67-.89.66,0,0,0,0,0,0-.02.01-.04.03-.04.03,0,0,.03-.02.05-.04.11-.08.23-.15.35-.23-.13.09-.27.17-.4.26,0,0,.34-.26.96-.54.6-.27,1.56-.55,2.52-.28.47.13.91.41,1.24.8.32.38.55.89.68,1.37.11.48.1,1.01.06,1.5,0,.08-.02.15-.03.23-.05-.16-.11-.31-.18-.46-.29-.59-.8-1.17-1.49-1.39-.67-.23-1.35-.12-1.9.07-1.12.39-1.92,1.06-2.45,1.54-.53.5-.8.86-.8.85-.01.01-.03.04-.03.04,0,0,.02-.02.04-.04.12-.13.25-.24.37-.35-.12.11-.24.22-.35.34.12-.11.4-.37.83-.68.58-.41,1.44-.96,2.48-1.21.51-.12,1.08-.14,1.54.06.46.19.79.6,1,1.09.4.94.08,2.01-.25,2.81-.34.82-.76,1.54-1.14,2.18l-1,1.65s-.01.02-.02.03c-.74.79-1.36,1.42-1.69,1.75-1.06,1.06-3.4,2.23-3.4,2.23l1.7,1.38s.94-.73,2.02-1.71l.19-.17Zm29-30.76s-.02,0-.03,0c-.01,0-.03,0-.04-.01.02,0,.05.01.07.02Zm-.53-.11s-.02,0-.03,0c-.01,0-.03,0-.04,0,.02,0,.05,0,.07,0Zm-.54-.05s-.03,0-.04,0c-.02,0-.03,0-.05,0,.03,0,.06,0,.09,0Zm-.58,0s.02,0,.03,0c-.02,0-.04,0-.06,0,0,0,.02,0,.03,0Zm.42-2.39s0,0,0,0c-.01,0-.03,0-.04,0,.01,0,.03,0,.04,0Zm-.33-4.42s0,0,0,0c0,0,0,0,0,0,0,0,0,0,0,0Zm-.59-2.89s-.02,0-.03,0c-.01,0-.02,0-.04,0,.02,0,.04,0,.06-.01Zm-.52.12s-.01,0-.02,0c0,0-.02,0-.03,0,.02,0,.03,0,.05-.01Zm-.51.17s-.02,0-.02.01c0,0-.02,0-.03,0,.02,0,.03-.01.05-.02Zm-.5.22s.02,0,.03-.01c-.02,0-.04.02-.06.03,0,0,.02-.01.03-.01Zm2.42-3.32s-.03,0-.04.01c-.01,0-.02,0-.04,0,.03,0,.05-.01.08-.02Zm-.55.16s.02,0,.03,0c0,0-.01,0-.02,0-.01,0-.03,0-.04.01,0,0,.02,0,.03-.01Zm-.18.08s0,0,0,0c-.01,0-.03.01-.04.02,0,0,.02-.01.03-.01Zm-2.44-12.83s-.03.02-.04.02c0,0-.02,0-.02.01.02-.01.04-.02.06-.04Zm-.51.31s.02,0,.02-.01c0,0,0,0,0,0,0,0-.02.01-.03.02,0,0,0,0,0,0Zm.3-1.26s-.02.01-.02.02c0,0,0,0-.01.01.01,0,.03-.02.04-.03Zm-.62-4.92s-.03.02-.05.03c0,0-.01,0-.02,0,.02-.01.05-.03.07-.04Zm-.48.29s.01,0,.02,0c0,0,0,0,0,0,0,0-.01,0-.02.01,0,0,0,0,.01,0Zm.36-1.19s.01,0,.02,0c-.04.01-.08.03-.12.04.03-.01.07-.03.1-.04Zm-.93.34s0,0,0,0c-.02,0-.04.02-.06.03.02-.01.05-.02.07-.03Zm-2.46-.25s-.04.05-.07.07c0,0-.02.02-.03.03.03-.03.06-.06.09-.1Zm.64-8.13s0,0,0,0c-.01,0-.02.01-.03.02.01,0,.03-.02.04-.03Zm-.5.38s-.01.01-.02.02c0,0-.02.01-.03.02.02-.01.03-.03.05-.04Zm1.76-6.05s-.06.09-.09.14c0,0-.02.02-.02.03.04-.05.08-.11.12-.17Zm-1.04,1.09s-.1.09-.15.13c0,0-.01.01-.02.02.06-.05.11-.1.17-.15Zm-.69-2.99c-.05.06-.1.12-.15.18-.38.46-.75.91-1.13,1.36-.02.02-.04.05-.06.07.45-.54.9-1.08,1.34-1.62Zm.46-2.11c-.06.12-.12.24-.19.35,0,.01-.01.02-.02.04.08-.13.14-.26.21-.39Zm-.61.99c-.05.07-.09.14-.14.21,0,0,0,.01-.01.01.05-.07.1-.15.15-.22Zm-.1-2.75s0,.01-.01.02c0,0-.01.01-.02.02.01-.01.02-.03.04-.04Zm-.09.1s.01-.01.02-.02c-.08.08-.15.17-.22.26.07-.08.13-.16.2-.24Zm-.47.56s0,0,0-.01c0,0-.01.02-.02.03,0,0,0-.01.01-.02Zm-.58.89c.13-.21.26-.41.4-.61,0-.01.01-.02.02-.03-.15.21-.29.43-.43.65,0,0,0,0,0-.01Zm.04-2.49s0,.01,0,.02c0,0,0,.02-.01.02,0-.01.02-.03.02-.04Zm-.26-1.96c-.34.75-.68,1.51-1.03,2.25,0,.01-.01.03-.02.04.36-.76.7-1.53,1.05-2.29Zm-1.93,4.14c-.08.16-.15.32-.23.48,0,.01-.01.02-.02.03.08-.17.17-.34.25-.51Zm-.77-3.87c.09-.22.18-.43.28-.65,0-.01,0-.02.01-.03-.1.22-.2.45-.3.68,0,0,0,0,0,0Zm.23-2.05s0-.01,0-.02c-.04.09-.08.18-.12.27.04-.08.07-.17.11-.26Zm-1.98-.09c-.07.47-.13.94-.2,1.41,0,.02,0,.03,0,.05.07-.49.14-.97.21-1.46Zm-2.03-2.58c0-.11.01-.21.02-.32,0,.12-.02.23-.02.35,0-.01,0-.02,0-.03Zm.03.88c0-.07,0-.15,0-.22,0,.08,0,.16.01.24,0,0,0-.01,0-.02Zm-.94.53s0,.01.01.02c.04.07.07.14.1.21-.04-.08-.07-.16-.11-.23Zm.33.71s-.01-.04-.02-.06c.01.03.02.06.03.08,0,0,0-.02,0-.03Zm-2.23.75c-.05-.24-.08-.49-.12-.74.04.26.08.51.13.77,0,0,0-.02,0-.03Zm.33,1.42c-.02-.07-.03-.15-.05-.22.02.08.04.16.06.23,0,0,0,0,0-.01Zm-1.81.66s-.02-.03-.03-.04c.02.02.03.04.04.06,0,0,0-.01-.02-.02Zm.13.19s0,0,.01.02c.04.06.08.13.13.19,0,0,0,.01.01.02-.05-.07-.1-.15-.15-.22Zm-.85.28s-.01-.01-.02-.02c.02.01.03.03.05.04-.01,0-.02-.01-.03-.02Zm.06.06s.02.01.03.02c.08.06.15.14.22.2-.08-.08-.16-.15-.25-.22Zm.55.51s0,0,0,0c0,0,0,0,.01.01,0,0,.01.01.02.02,0,0-.01-.02-.02-.02Zm.12.15s.01.01.02.02c.13.15.25.31.38.47-.13-.17-.25-.34-.4-.49Zm-1.08.98s.01,0,.02.01c.07.05.13.11.19.16-.07-.06-.14-.12-.21-.18Zm.55.47s-.02-.03-.04-.04c.02.02.05.05.07.07-.01-.01-.02-.02-.03-.03Zm-.94.48s0,0,0,0c0,0,.02,0,.02,0,0,0,0,0-.01,0Zm.01,0s0,0,.01,0c0,0,.02,0,.03,0,0,0,.01,0,.02,0-.02,0-.04,0-.06-.01Zm.07.01s0,0-.01,0c.01,0,.02,0,.03,0,0,0-.01,0-.02,0Zm.13.05s-.03-.02-.05-.03c0,0,.01,0,.02,0,.02,0,.03.02.05.03,0,0-.01,0-.02,0Zm.03.01s.01,0,.02,0c.03.02.06.04.09.05-.04-.02-.07-.04-.11-.06Zm.25.15s-.01-.01-.02-.02c0,0,0,0,.01,0,0,0,.02.01.02.02,0,0-.01,0-.02-.01Zm.05.04s.01,0,.02.01c.08.06.16.13.24.2-.08-.07-.16-.15-.25-.22Zm.46.39s0,0,0,0c0,0,.01,0,.01.01,0,0,.01.01.02.02,0,0-.02-.02-.03-.03Zm.13.15s.02.02.03.03c.17.17.32.35.47.53-.16-.19-.33-.38-.5-.56Zm4.45,7.8s0,0,0,.01c0,.03,0,.06,0,.1,0-.04,0-.07,0-.11Zm-5.07-7.71s-.04-.05-.06-.07c.03.03.05.06.08.09,0,0-.02-.02-.02-.03Zm1.24,1.49s.02.02.03.03c.22.28.42.57.63.85-.22-.29-.43-.6-.66-.88Zm-.28.89s0,.01.01.02c.12.14.22.28.34.42-.12-.15-.23-.29-.35-.44Zm-.13.82s.01.01.02.02c.2.22.38.45.58.68-.2-.23-.39-.47-.6-.7Zm-2.26-.85c-.1-.15-.19-.31-.29-.46.1.16.2.33.3.48,0,0-.01-.01-.02-.02Zm-1.23.61s.01,0,.02.01c.01,0,.03.02.04.03.02.02.05.04.08.05-.04-.03-.09-.06-.13-.09Zm3.71,3.34s0,0,0,0c-.02-.02-.05-.05-.07-.07.03.03.07.06.1.1,0,0-.02-.01-.02-.02Zm-2.58-1.73c-.15-.13-.29-.27-.43-.41.15.14.3.29.46.43,0,0-.02-.01-.02-.02Zm-.89.32c-.06-.08-.12-.16-.18-.24.07.09.13.18.2.27,0,0-.01-.02-.02-.03Zm.51.57c-.06-.06-.11-.12-.17-.18.06.06.12.13.18.19,0,0,0,0-.01-.01Zm1.65,2.45s-.02-.02-.03-.03c.02.02.03.03.05.05,0,0-.01,0-.02-.02Zm-2.61.64s0,0,0,0c0,0,.02.01.03.02,0,0-.02,0-.02-.02Zm-.16,3.78s-.02-.02-.03-.03c.02.01.03.03.05.04,0,0-.01-.01-.02-.02Zm1.19,2.12c-.2-.18-.39-.36-.58-.54.2.18.4.37.6.55,0,0,0,0-.01-.01Zm-.54,1.47s-.03-.02-.04-.03c.02.01.05.03.07.04,0,0-.02,0-.02-.01Zm3.08,11.25s-.05-.05-.08-.07c.03.03.07.06.1.09,0,0-.02-.01-.03-.02Zm-4.25,7.26s-.01,0-.02,0c.02,0,.05.02.07.03-.02,0-.03-.01-.05-.02Zm.72.32s-.02-.01-.04-.02c.03.01.06.03.08.04-.02,0-.03-.01-.05-.02Zm-1.45,1.63s.03,0,.05.01c0,0,0,0,0,0,.01,0,.03,0,.04.01-.03,0-.06-.02-.1-.03Zm1.27.51s-.03-.02-.05-.03c.03.02.06.03.09.05-.01,0-.03-.01-.04-.02Zm.62.35s.02.01.03.02c0,0,.02.01.03.02-.02-.01-.04-.03-.06-.04Zm-1.48,5.7s-.03,0-.04,0c.03,0,.06.01.09.02-.02,0-.03,0-.05,0Zm.17.04s.02,0,.03,0c.01,0,.02,0,.04,0,0,0,.01,0,.02,0-.03,0-.05-.01-.08-.02Zm.49.12s-.03-.01-.05-.02c.03,0,.06.02.09.03-.01,0-.02,0-.04-.01Zm.67.26s-.05-.03-.08-.04c.04.02.07.03.11.05-.01,0-.02,0-.03-.01Zm.54.28s-.02-.01-.02-.02c.01,0,.02.01.04.02.02.01.03.03.05.04-.02-.01-.04-.03-.07-.04Zm-.03,2.43s-.03,0-.04,0c.03,0,.06.01.09.02-.02,0-.03,0-.05,0Zm.15.03s.02,0,.03,0c.01,0,.02,0,.03,0,0,0,.01,0,.01,0-.02,0-.05-.01-.07-.02Zm.44.12s-.03-.01-.05-.02c.03,0,.05.02.08.03-.01,0-.02,0-.03-.01Zm.58.26s-.05-.03-.08-.05c.04.02.07.04.11.06,0,0-.02,0-.03-.01Zm.46.28s-.02-.02-.04-.03c0,0,.02.01.03.02.02.01.04.03.06.05-.02-.01-.03-.02-.05-.04Zm-2.32,1.38s-.03-.01-.04-.02c.03,0,.05.02.07.03-.01,0-.02,0-.03-.01Zm.11.05s.01,0,.02,0c.02,0,.03.02.05.03,0,0,0,0,0,0-.03-.01-.05-.03-.08-.04Zm.35.18s-.01,0-.02-.01c0,0,.02,0,.03.01,0,0,.02.01.02.02-.01,0-.02-.01-.03-.02Zm.14.1s.02,0,.03.02c0,0,0,0,0,0,.04.03.09.07.14.1-.06-.04-.11-.08-.17-.12Zm.75.54s0,0,0,0c0,0,0,0,0,0,0,0-.01,0-.02-.01Zm-2.18,5.07s.03.02.05.03c.07.05.13.1.2.15-.08-.06-.16-.12-.24-.18Zm3.67,6.34s0,0,0,0c0,.02.02.04.03.06-.01-.02-.02-.05-.03-.07Zm-3.8-2.65s0,0-.02-.01c.02.01.03.03.05.04-.01,0-.02-.02-.03-.03Zm.27,2.85s0,0,0,0c.01,0,.02,0,.03.01,0,0-.02,0-.02-.01Zm.07.05s.01,0,.02,0c.08.04.15.1.23.15-.09-.05-.16-.12-.26-.16Zm.69.46s-.02-.02-.03-.03c0,0,.01,0,.02.01.02.02.03.04.05.05-.01,0-.02-.02-.03-.03Zm.23.26s0,0,0,0c0,0,.02.02.02.03,0-.01-.02-.02-.03-.03Zm.33.38s0,0,0,0c0,0,.01.01.02.02,0,0,0-.01-.01-.02Zm.57,1.11s0,0,0-.01c0,.02.02.05.03.07,0-.02-.02-.04-.02-.06Zm.24.68c-.02-.07-.04-.14-.06-.21.02.07.04.15.07.22,0,0,0,0,0-.02Zm-4.68.4s-.01,0-.02,0c.02,0,.03,0,.05,0-.01,0-.02,0-.03,0Zm.12.03s.02,0,.03,0c.1.01.19.04.29.06-.11-.02-.21-.05-.32-.07Zm.68.15s0,0,0,0c.02,0,.03.01.05.02-.02,0-.03-.01-.05-.02Zm.78.35s0,0-.01,0c.01,0,.02.01.04.02,0,0-.02,0-.03-.01Zm-2.54,2.51s.02,0,.03-.01c.09-.04.18-.07.27-.11-.1.04-.2.08-.3.13Zm.93-.36s-.09.02-.14.03c0,0,.01,0,.02,0,.05-.01.1-.02.15-.03,0,0-.02,0-.03,0Zm.55-.1s-.02,0-.03,0c.02,0,.03,0,.05,0,0,0-.02,0-.02,0Zm.34-.03s-.02,0-.04,0c.02,0,.04,0,.05,0,0,0-.01,0-.02,0Zm1.14.21s-.02,0-.02-.01c.03.01.06.02.08.04-.02,0-.04-.02-.06-.02Zm.38.18s-.06-.04-.1-.06c.04.02.07.05.11.07,0,0-.01,0-.02,0Zm.99.99s0-.01,0-.02c0,0,.01.02.02.02,0,.01,0,.02.02.04,0-.01-.02-.03-.02-.04Zm-5.11,2.07s0,0,.01,0c0,0,0,0,.01,0,0,0-.01,0-.02.01Zm14.06,8.17s0,.01,0,.02c0-.02,0-.04,0-.06,0,.02,0,.03,0,.05Zm2.53-1.67s0-.02-.01-.04c0-.01,0-.02,0-.03,0,.02.01.04.02.07Zm-.06-.18s0,0,0,.01c0-.03-.02-.05-.03-.08,0,.02.02.04.02.07Zm-.13-.38s-.01-.03-.02-.04c0-.01,0-.02-.01-.03.01.02.02.05.03.07Zm-.27-.53s-.04-.05-.05-.07c0-.01-.01-.02-.02-.03.02.04.05.07.07.11Zm-.36-.52s.01.02.02.03c-.01-.01-.02-.02-.03-.04-.01-.02-.03-.03-.04-.05.02.02.04.03.05.06Zm4.67-2.81s0,.01,0,.02c0-.05,0-.11,0-.17,0,.05,0,.1,0,.15Zm0-.25s-.01-.09-.02-.14c0,0,0,0,0,0,0,.05.01.1.02.15Zm-.3-.86s.01.02.02.03c0,0-.02-.01-.02-.02,0-.01-.02-.02-.03-.03,0,.01.02.01.03.02Zm2.61-.34s0,0,.01,0l.04-.02s-.04.01-.06.02Zm.11-.05s0,0,0,0c0,0,0,0,.01,0,0,0,0,0-.01,0,0,0,0,0,0,0,0,0,0,0,0,0Zm0,0h0s0,0,0,0c0,0,0,0,0,0Zm-.88-.43s.02.01.03.02c-.02,0-.04-.02-.06-.03,0,0,0,0,0,0,.01,0,.03,0,.04.01Zm-1.11-.4s0,0,0,0c0,0-.01,0-.02,0,0,0,0,0,.01,0Zm-2.22-1.99c-.07,0-.14,0-.2-.01,0,0,0,0,0,0,.07,0,.14,0,.21.01Zm-1.14-.06c-.06,0-.13,0-.19,0-.03,0-.06,0-.09,0,.1,0,.19,0,.29,0Zm7.44-1.29s0,0,0,0c-.01,0-.02-.01-.04-.02.01,0,.03.01.04.02Zm-.52-.21s-.02,0-.03,0c0,0-.02,0-.03,0,.02,0,.04.01.06.02Zm-4.41-.67s-.1,0-.14,0c0,0-.02,0-.02,0,.06,0,.11,0,.17,0Zm7.04-3.66s-.03-.01-.05-.02c-.01,0-.02-.01-.03-.02.03.01.05.03.08.04Zm-.22-.1s.03.01.05.02c0,0,.01,0,.02.01-.03-.01-.06-.03-.09-.04,0,0,0,0,.01,0Zm-.3-.13s.02,0,.03.01c0,0-.02,0-.02,0-.01,0-.03-.01-.04-.02.01,0,.02,0,.03,0Zm-.28-.07s.06.01.09.02c.01,0,.02,0,.04.01-.09-.03-.19-.05-.28-.07.05.01.11.02.15.03Zm-.8-.19s0,0,0,0c0,0-.01,0-.02,0,0,0,0,0,.01,0Zm-9.04-3.7c-.44.26-.83.53-1.17.81l.03-.09c.34-.23.71-.47,1.14-.72Zm-3.22-51.6s0,.01,0,.02c-.02.07-.03.13-.05.2,0-.01,0-.03,0-.04.01-.05.03-.11.05-.17Zm-.13,1.25v.03s0,0,0,0c0,0,0-.02,0-.03Zm-.23.72h0s.02,0,.02,0c0,0,.02-.1.06-.27.02-.06.04-.12.07-.2,0,0,0,.02,0,.02l-.18.65s0-.09.01-.16c0-.01,0-.02,0-.04Zm-.05.25h.02s-.02.07-.02.07c0-.02,0-.05,0-.07Zm-.62,1.24c.03.06.05.12.07.18-.03-.06-.05-.13-.08-.19,0,0,0,0,0,0Zm-5.07-6.01c-.06-.08-.12-.16-.18-.24,0,0,0,0,0,0,.07.09.13.17.2.26,0,0-.01-.01-.02-.02Zm.05-.11c.12.09.24.19.36.29-.13-.1-.25-.21-.38-.3,0,0,.01.01.02.02Zm3.13,3.54c-.83-1-2.13-2.31-3.12-3.48,0,0,0,0,0,0,.21.17.44.35.67.56,1.02.91,2.1,2.16,2.76,3.09.98,1.33,1.52,2.38,1.75,2.88l-.02.07c-.07-.16-.16-.35-.28-.59-.34-.66-.92-1.56-1.76-2.55Zm2.01,3.19c-.05-.09-.1-.18-.15-.28.05.08.1.17.14.24,0,0,0,.02.01.02,0,0,0,0,0,.01Zm-.22-.3c.09.14.16.25.22.34l-.03.11c-.06-.15-.12-.3-.19-.45Zm-.08,1.11s0,0,0,.01c.02.03.03.07.05.1,0,0,0,0,0,.01h0s-.04-.08-.06-.12Zm-.04,6.2c.08.15.14.29.2.43v.13c-.05-.18-.12-.36-.2-.56Zm-1,3.02c.66.76,1.18,1.43,1.55,1.97l.04.55c-.34-.72-.84-1.6-1.59-2.52Zm2.02,11.43c-.29-.44-.65-.91-1.04-1.38.62.74,1.14,1.4,1.52,1.97l.06.28c-.17-.29-.34-.58-.54-.87Zm2.07,8.53l.02.1c-.09-.15-.17-.3-.27-.46.09.12.17.24.25.35Zm-1.29,13.97c.19.65.3,1.23.38,1.77l-.12.22c-.03-.61-.11-1.28-.26-1.99Z"/>
      <path class="cls-2" d="m126.7,103.85s-.05-.03-.12-.07c.04.02.08.04.12.07Z"/>
    </g>
    <g>
      <path class="cls-2" d="m22.76,37.23c.1-.11.16-.18.16-.18-.06.06-.11.12-.16.18Z"/>
      <path class="cls-2" d="m22.77,38.4c.22-.22.36-.35.36-.35-.12.11-.24.24-.36.35Z"/>
      <path class="cls-2" d="m25.76,71.48c.09-.03.15-.04.15-.04-.05,0-.1.03-.15.04Z"/>
      <path class="cls-2" d="m26.74,73.45s.09-.02.14-.02c0,0-.05,0-.14.02Z"/>
      <path class="cls-2" d="m26.46,75.65s.08-.04.12-.05c0,0-.05.02-.12.05Z"/>
      <path class="cls-2" d="m24.7,85.24c.11-.03.19-.05.18-.05-.06,0-.12.03-.18.05Z"/>
      <path class="cls-2" d="m11.29,28.91s.05.09.14.26c-.05-.08-.09-.17-.14-.26Z"/>
      <path class="cls-2" d="m9.47,31.9s0,.01,0,.02c0,0,0-.01,0-.02h0Z"/>
      <path class="cls-2" d="m4.63,50.82s.11.05.3.14c-.1-.04-.19-.1-.3-.14Z"/>
      <path class="cls-2" d="m3.49,54.79s.15.02.4.07c-.13-.02-.26-.06-.4-.07Z"/>
      <path class="cls-2" d="m2.99,64.63c.06.02.11.06.16.09-.09-.05-.16-.09-.16-.09Z"/>
      <path class="cls-2" d="m-.09,80.06s.11,0,.31.02c-.11,0-.21-.02-.31-.02Z"/>
      <path class="cls-2" d="m28.8,118.07c1.08.98,2.02,1.71,2.02,1.71l1.7-1.38s-2.33-1.17-3.4-2.23c-.32-.32-.95-.95-1.69-1.75,0-.01-.01-.02-.02-.03l-1-1.65c-.38-.64-.79-1.36-1.14-2.18-.33-.8-.65-1.87-.25-2.81.2-.48.53-.9,1-1.09.46-.2,1.02-.18,1.54-.06,1.04.25,1.9.8,2.48,1.21.43.31.71.57.83.68-.11-.12-.23-.22-.35-.34.12.12.25.23.37.35.02.02.04.04.04.04,0,0-.02-.02-.03-.04,0,0-.26-.36-.8-.85-.54-.49-1.33-1.15-2.45-1.54-.55-.18-1.23-.3-1.9-.07-.68.22-1.2.8-1.49,1.39-.08.15-.14.31-.18.46,0-.08-.02-.15-.03-.23-.04-.49-.05-1.02.06-1.5.12-.48.35-.99.68-1.37.32-.39.76-.67,1.24-.8.96-.27,1.92.01,2.52.28.62.28.95.55.96.54-.12-.1-.27-.18-.4-.26.11.08.24.14.35.23.03.02.05.04.05.04,0,0-.02-.02-.04-.03,0,0,0,0,0,0,0,0-.3-.3-.89-.66-.3-.18-.68-.36-1.13-.49-.45-.13-.99-.19-1.56-.09-.57.1-1.15.39-1.59.84-.11.11-.19.25-.28.38.04-.12.06-.25.11-.37.32-.84.82-1.66,1.46-2.22.63-.57,1.38-.86,1.93-.95.41-.07.71-.07.84-.07-.1,0-.19,0-.29,0,.1,0,.21-.01.31,0,.02,0,.05,0,.05,0,0,0-.03,0-.04,0,0,0-.35-.07-.92-.04-.57.03-1.4.23-2.15.79-.75.54-1.39,1.39-1.8,2.28-.06.13-.11.26-.16.4.1-1.38.34-3.01,1.26-4.09.56-.69,1.27-1.14,1.79-1.42.52-.28.87-.41.87-.41-.14.05-.27.1-.4.16.11-.04.22-.09.34-.13.04-.01.07-.02.07-.02,0,0-.02,0-.04.01,0,0,0,0,0,0,0,0-.36.08-.92.3-.56.22-1.34.58-2.02,1.27-.69.68-1.19,1.69-1.42,2.68-.25.98-.36,1.95-.39,2.74-.01.37-.01.71,0,1.04l-.07-.13c.01-.47.04-.96.09-1.5.07-.76.17-1.71.32-2.67.16-.97.35-1.97.72-2.8.35-.83.92-1.45,1.45-1.72.2-.11.37-.17.52-.22.01,0,.02,0,.03,0,.1-.03.2-.06.31-.08-.02,0-.04,0-.06.01.02,0,.04-.01.06-.02.02,0,.05,0,.05,0,0,0-.03,0-.04,0,0,0,0,0,0,0,0,.01-.38,0-.95.22-.29.11-.61.31-.92.59-.3.29-.59.65-.83,1.08-.48.84-.78,1.87-1.02,2.84-.11.45-.19.88-.26,1.31.01-.22.02-.43.03-.66.04-.87.12-1.89.42-2.93.28-1.04.75-2.08,1.3-2.94,1.11-1.75,2.5-2.74,2.48-2.74-.11.08-.22.16-.33.25.09-.07.18-.14.28-.21.03-.02.05-.04.05-.04,0,0-.02.02-.05.03-.04.04-1.52.82-2.83,2.48-.67.84-1.27,1.89-1.65,2.98-.4,1.09-.54,2.23-.58,3.12-.02.33-.01.63-.01.93l-.18-.34c0-.51,0-1.05.04-1.62.06-.9.25-2,.6-3.1.18-.55.39-1.11.64-1.65.24-.54.51-1.03.84-1.46.65-.87,1.47-1.47,2.06-1.88.6-.41.98-.64.97-.64,0,0-.03.02-.05.03,0,0,0,0,0,0,0,0-.41.18-1.05.51-.64.34-1.55.85-2.34,1.71-.4.42-.76.95-1.05,1.48-.3.53-.58,1.1-.81,1.67-.1.25-.19.51-.27.76.12-.73.29-1.53.56-2.33.36-1.08.92-2.15,1.57-3.03.64-.88,1.35-1.58,1.88-2.06.53-.48.89-.74.89-.74,0,0-.03.03-.09.07.02-.01.03-.03.05-.04,0,0-.38.21-.98.62-.59.41-1.39,1.03-2.16,1.87-.77.84-1.48,1.91-1.95,3.05-.48,1.13-.74,2.3-.86,3.25-.03.22-.03.41-.05.62l-.05-.1c.1-.79.25-1.69.47-2.7.1-.44.22-.92.39-1.41.04-.12.09-.24.14-.36.05-.11.06-.17.08-.23l.06-.19c.09-.26.18-.53.29-.79.43-1.06,1.01-2.11,1.64-2.99,1.24-1.79,2.69-2.83,2.68-2.83-.16.11-.32.23-.48.35.14-.1.27-.21.41-.3.04-.03.07-.05.07-.05,0,0-.03.02-.04.03,0,0,0,0,0,0,.01,0-1.57.83-3.05,2.54-.74.84-1.46,1.87-1.99,2.96-.13.27-.26.55-.37.82-.06.13-.11.29-.15.37-.06.14-.12.27-.17.4-.21.54-.35,1.05-.46,1.52-.12.54-.18,1.04-.23,1.52l-.22-.4c.13-.82.34-1.74.72-2.75.32-.91.79-2,1.34-3.13l.84-1.7c.26-.56.6-1.02.99-1.46.77-.86,1.63-1.49,2.24-1.94.52-.37.86-.61.95-.7,0,0,0,0,0,0,0,0,0,0,0,0,.02-.02.04-.04.03-.04-.04.04-.08.07-.13.1,0,0,0,0-.01,0,0,0,0,0,0,0-.02.01-.03.03-.05.04-.15.1-.4.25-.72.45.26-.16.51-.33.77-.49-.16.09-.5.27-.97.53-.67.37-1.6.91-2.51,1.72-.45.4-.9.92-1.23,1.48-.34.54-.68,1.09-1,1.64-.64,1.1-1.19,2.22-1.53,3.19-.21.59-.34,1.16-.43,1.71l-.11-.21c.21-.97.55-2.15,1.07-3.49.66-1.77,1.9-4.24,3.31-6.04.69-.9,1.41-1.64,2.02-2.06.38-.28.7-.39.89-.45-.04,0-.08.02-.12.03.08-.02.17-.06.25-.07.02,0,.05,0,.05,0,0,0-.03,0-.06,0-.03,0-.49.02-1.14.38-.67.36-1.5,1.02-2.3,1.88-1.64,1.69-3.16,4.15-3.85,6.02-.37.96-.59,1.88-.7,2.69l-.09-.17c.17-1.03.46-2.27.88-3.7.56-1.97,1.57-4.82,3.06-6.78.73-.98,1.59-1.69,2.33-2,.73-.31,1.26-.28,1.25-.29-.11,0-.21.01-.32.02.08,0,.16-.02.25-.02.03,0,.07,0,.07,0,0,0-.03,0-.06,0,0,0,0,0,0,0,0,.01-.51-.09-1.3.15-.8.23-1.8.88-2.67,1.83-1.78,1.89-3.09,4.77-3.67,6.84-.27.94-.43,1.82-.51,2.63l-.07-.13c.2-1.3.58-3.04,1.36-5.02.42-1.07,1.02-2.35,1.83-3.58.81-1.24,1.76-2.47,2.73-3.47.97-1,2-1.73,2.85-2.05.62-.25,1.1-.29,1.31-.29-.08,0-.16,0-.25.01.1,0,.19-.02.29-.02.03,0,.07,0,.07,0,0,0-.04,0-.07,0,0,0-.58-.1-1.48.14-.91.23-2.08.87-3.19,1.8-1.12.92-2.22,2.1-3.16,3.33-.34.44-.64.9-.92,1.36.35-.68.76-1.38,1.23-2.07.86-1.23,1.92-2.46,2.91-3.51,1-1.05,1.97-1.93,2.7-2.51.73-.59,1.23-.9,1.22-.9-.21.12-.42.26-.62.39.18-.12.36-.24.55-.35.03-.02.07-.04.07-.04,0,0-.04.02-.06.03,0,0-.53.25-1.33.74-.81.5-1.89,1.26-3.02,2.22-.62.53-1.25,1.12-1.87,1.74.15-.21.3-.43.46-.64.88-1.2,1.89-2.39,2.89-3.37,1-.99,2-1.76,2.78-2.23.56-.34,1-.53,1.19-.61-.19.07-.38.15-.57.23.2-.09.4-.19.61-.26.03-.01.07-.02.07-.03,0,0-.04.01-.06.02,0,0,0,0,0,0,0,0-.55.12-1.4.5-.85.37-1.97,1.04-3.1,1.94-1.13.9-2.29,2.02-3.29,3.19-1.01,1.17-1.87,2.39-2.49,3.45-1.15,1.96-1.72,3.79-1.93,5.17l-.04-.24c.1-.62.24-1.3.49-2.05.34-1,.83-2.09,1.48-3.26.64-1.17,1.53-2.56,2.53-3.98l.76-1.07c.25-.34.52-.69.79-1.02.55-.67,1.12-1.3,1.69-1.87,1.14-1.14,2.31-2.02,3.26-2.46.69-.33,1.23-.44,1.47-.47-.1,0-.2.03-.3.04.12-.02.24-.05.36-.06.05,0,.08,0,.08,0,0,0-.03,0-.07,0,0,0-.67-.05-1.69.31-1.02.34-2.34,1.1-3.64,2.15-.65.52-1.31,1.11-1.94,1.75-.32.32-.62.65-.92,1l-.86,1.02c-1.12,1.36-2.13,2.77-2.82,4.03-.53.97-.92,1.93-1.18,2.84l-.06-.36c.38-1.11.93-2.36,1.7-3.72.64-1.16,1.51-2.54,2.52-3.91,1.01-1.37,2.16-2.72,3.3-3.85,1.13-1.13,2.26-2.04,3.16-2.57.64-.39,1.14-.56,1.38-.63-.1.02-.19.05-.29.08.12-.04.24-.08.36-.11.03,0,.08-.02.08-.02,0,0-.05,0-.08.01-.02,0-.66.06-1.62.49-.97.43-2.23,1.21-3.52,2.25-.61.49-1.22,1.03-1.82,1.61.89-1.2,1.93-2.36,2.99-3.28,1.13-1,2.29-1.71,3.18-2.12.89-.41,1.49-.54,1.49-.55-.24.05-.47.13-.7.2.2-.06.4-.14.61-.18.04,0,.09-.02.09-.02,0,0-.04,0-.07.02,0,0,0,0,0,0,0,0-.61.06-1.56.36-.95.3-2.23.9-3.5,1.8-1.28.9-2.55,2.08-3.64,3.37-1.08,1.29-1.95,2.63-2.6,3.77-.88,1.55-1.48,2.96-1.91,4.17l-.1-.62c.57-1.32,1.47-2.94,2.7-4.79.73-1.11,1.67-2.46,2.76-3.72,1.12-1.27,2.38-2.53,3.6-3.56,1.22-1.04,2.42-1.84,3.34-2.33.91-.5,1.53-.7,1.53-.7-.26.08-.5.19-.75.28.22-.08.44-.18.66-.26.04-.01.09-.03.09-.03,0,0-.04.01-.07.02,0,0,0,0,0,0,0,0-.63.13-1.62.51-.98.38-2.3,1.05-3.66,1.98-.35.24-.71.49-1.06.76.45-.52.9-1.02,1.35-1.48.98-1.03,1.93-1.89,2.66-2.45.73-.56,1.23-.83,1.23-.83-.18.09-.35.2-.53.31.16-.09.3-.19.46-.27.03-.01.07-.03.07-.03,0,0-.04.02-.06.03,0,0-.54.2-1.33.68-.8.47-1.87,1.23-2.98,2.16-1.52,1.27-3.11,2.88-4.43,4.41,1.39-1.8,3.28-4.09,5.07-5.85.99-.99,1.94-1.8,2.66-2.34.72-.54,1.21-.81,1.21-.82-.23.12-.45.26-.68.39.2-.12.4-.24.6-.35.04-.02.08-.04.08-.04,0,0-.04.02-.06.03,0,0,0,0,0,0,0,0-.52.21-1.31.66-.79.45-1.85,1.16-2.96,2.05-.85.67-1.72,1.45-2.56,2.26,1.09-1.37,2.34-2.87,3.55-4.08.89-.91,1.76-1.65,2.44-2.13.67-.48,1.14-.68,1.14-.69-.2.08-.38.19-.56.29.17-.09.33-.19.51-.26.02-.01.06-.03.06-.03,0,0-.03.01-.06.02-.01,0-.5.15-1.22.55-.74.39-1.71,1.05-2.72,1.87-2.02,1.64-4.18,3.95-5.51,5.68-.69.89-1.25,1.73-1.71,2.49l.09-.44c.54-.94,1.23-2.07,2.1-3.34.59-.87,1.34-1.9,2.21-2.91.87-1.01,1.85-1.99,2.82-2.79,1.94-1.62,3.79-2.47,3.78-2.47-.08.03-.16.07-.24.11.06-.03.12-.06.19-.09,0,0,0,0-.01,0,.03-.01.06-.03.06-.03,0,0-.03.01-.08.03-.13.05-2,.64-4.08,2.03-1.08.71-2.2,1.62-3.17,2.6-.38.38-.74.77-1.07,1.17.1-.12.2-.23.31-.36l.96-1.11c.34-.4.69-.8,1.08-1.2.78-.8,1.64-1.59,2.46-2.26,1.38-1.15,2.64-1.91,3-2.11-.3.15-.59.32-.88.49.31-.17.61-.36.93-.52.03-.01.06-.03.06-.03,0,0-.03.01-.05.02,0,0,0,0,0,0,0,0-1.58.61-3.38,1.81-.9.59-1.85,1.3-2.72,2.07-.43.38-.85.79-1.2,1.18-.35.37-.67.72-.96,1.05.05-.06.09-.12.13-.18.27-.35.57-.75.91-1.15.36-.42.67-.86,1.06-1.27.76-.84,1.61-1.68,2.41-2.4.8-.72,1.55-1.33,2.12-1.73.57-.41.95-.6.95-.6-.2.1-.39.21-.59.32.17-.1.34-.2.52-.29.03-.02.06-.03.06-.03,0,0-.03.01-.05.02,0,0,0,0,0,0,0,0-.4.15-1.02.48-.62.33-1.45.85-2.34,1.49-.76.55-1.56,1.21-2.31,1.89.37-.4.78-.81,1.2-1.23.82-.81,1.71-1.62,2.52-2.35,1.41-1.26,2.54-2.31,2.81-2.58.05-.04.07-.06.07-.07-.31.26-.63.52-.95.78,0,0-.01.01-.02.02.31-.25.63-.51.93-.76l-3.18,2.27c-.89.64-1.86,1.37-2.76,2.13-.89.75-1.71,1.54-2.32,2.25.02-.03.04-.06.06-.09.55-.8,1.25-1.77,2.01-2.76.76-1,1.54-2.02,2.33-2.87.78-.86,1.58-1.54,2.2-1.97.62-.43,1.04-.65,1.03-.65-.13.06-.25.14-.38.2.11-.06.22-.12.33-.18.02-.01.05-.03.05-.03,0,0-.03.02-.05.03-.02.01-.45.16-1.11.51-.68.36-1.57.95-2.47,1.75-.9.79-1.8,1.75-2.63,2.69-.84.94-1.61,1.9-2.18,2.73-.04.06-.08.12-.11.18v-.02c.37-.65.81-1.36,1.39-2.12.53-.72,1.23-1.57,2.02-2.39.79-.83,1.68-1.64,2.52-2.33,1.68-1.39,3.13-2.35,3.12-2.35-.24.14-.48.3-.72.45.21-.13.41-.26.62-.39.06-.04.1-.06.1-.06,0,0-.03.02-.04.03,0,0,0,0,0,0,0,0-1.56.75-3.41,1.97-.92.61-1.9,1.34-2.79,2.14-.22.19-.43.39-.63.59.1-.12.19-.23.29-.36.92-1.13,2.38-2.68,3.82-3.69.99-.73,1.93-1.17,2.42-1.38-.14.05-.27.11-.41.16.16-.06.31-.13.48-.19-.02,0-.05.02-.07.03.12-.04.22-.1.34-.13,0,0-.05.02-.12.05.03,0,.05-.02.08-.03.02,0,.04-.01.04-.01,0,0-.02,0-.04.01-.02,0-1.41.29-2.96,1.19-1.47.82-2.99,2.15-3.97,3.28.18-.21.37-.42.57-.64,1.08-1.22,2.75-2.9,4.14-4.28,1.4-1.39,2.44-2.55,2.43-2.55-.03.03-.06.05-.09.08-.25.22-1.32,1.12-2.66,2.18-.39.31-.8.65-1.22.99.6-.72,1.23-1.46,1.83-2.09,1.05-1.13,2.07-1.88,2.37-2.09-.18.11-.34.24-.5.35.19-.13.37-.28.57-.4h0s.04-.02.04-.02c0,0-.02.01-.04.03-.04.02-1.34.67-2.73,1.87-1.43,1.2-2.95,2.88-3.99,3.97-.55.54-1.03,1.09-1.41,1.61-.38.52-.64,1.02-.81,1.45-.07.2-.13.37-.17.53-.02.04-.04.07-.06.11l.03-.43c.08-.18.18-.4.32-.65.43-.8,1.17-1.87,2.12-3.15.94-1.29,2.39-3.1,3.64-4.56,1.25-1.46,2.27-2.6,2.26-2.6,0,0-.02.02-.03.03,0,0-1.16.99-2.57,2.31-1.41,1.32-3.04,3.03-4.01,4.36-.8,1.08-1.33,2.1-1.64,2.94l.04-.51c.1-.18.23-.38.39-.64.47-.76,1.17-1.82,2.02-3.12.84-1.3,2.09-3.17,3.3-4.57.6-.7,1.2-1.28,1.68-1.64.22-.17.4-.28.54-.36-.05.02-.09.05-.14.07.05-.03.11-.06.16-.08,0,0-.02.01-.03.01.09-.04.18-.11.28-.14,0,0-.06.03-.15.07.04-.02.07-.04.11-.06.02,0,.04-.02.04-.02,0,0-.03,0-.04.02-.01,0-.37.1-.88.4-.53.3-1.2.82-1.89,1.47-.11.11-.23.23-.34.35.12-.18.25-.37.37-.54.91-1.37,1.82-2.36,2.07-2.62-.23.21-.43.44-.65.66.22-.23.43-.47.67-.69.02-.02.05-.04.04-.04,0,0-.02.02-.04.03,0,0,0,0,0,0,0,0-1.21.94-2.46,2.43l-1.96,2.33c-.26.3-.51.58-.76.87.01-.01.02-.03.03-.04.84-1.18,2.1-2.87,3.19-4.22,1.09-1.36,2-2.4,2-2.4-.42.42-.82.87-1.22,1.3.39-.42.77-.85,1.18-1.25.03-.03.04-.05.04-.05,0,0-.02.02-.03.03,0,0-1.05.9-2.28,2.14-1.24,1.24-2.66,2.82-3.52,4.03-.64.88-1.1,1.71-1.42,2.41l.03-.37c.25-.46.56-.98.91-1.54.7-1.11,1.8-2.68,2.8-3.91.5-.62.97-1.15,1.32-1.52.15-.15.27-.27.37-.36-.16.13-.31.27-.46.41.17-.16.34-.32.53-.47-.02.02-.04.04-.06.06.08-.06.15-.14.23-.2,0,0-.06.05-.17.14.05-.04.09-.08.14-.12.01,0,.03-.02.03-.02,0,0-.02.01-.03.02h0s-.27.16-.67.49c-.4.32-.94.8-1.5,1.37-1.14,1.12-2.4,2.61-3.13,3.77-.07.11-.13.22-.19.33l.06-.71c.3-.56.69-1.18,1.25-1.82.22-.26.48-.55.77-.86.14-.15.3-.32.44-.48.14-.16.29-.32.45-.48.63-.63,1.35-1.24,1.98-1.82.63-.58,1.16-1.15,1.49-1.6.33-.45.48-.75.48-.75-.02.04-.05.07-.08.1-.08.1-.25.32-.52.6-.38.4-.96.88-1.65,1.38-.68.51-1.47,1.04-2.17,1.65-.18.15-.35.31-.51.47-.16.16-.3.3-.46.45-.31.3-.59.59-.83.88-.39.46-.67.93-.9,1.38l-.02-.08c.3-.56.69-1.2,1.21-1.88.41-.54.96-1.17,1.58-1.79.61-.62,1.28-1.23,1.89-1.79,1.23-1.1,2.13-2.05,2.12-2.05-.07.07-.14.13-.21.2-.34.3-1.11.98-2.06,1.74-.64.52-1.34,1.1-1.99,1.71-.65.6-1.23,1.23-1.65,1.8-.44.57-.76,1.13-1.01,1.64l-.04-.15c.33-.73.85-1.66,1.76-2.54.25-.26.55-.49.89-.78.33-.29.65-.6.97-.93.65-.66,1.28-1.37,1.9-1.97.61-.61,1.2-1.1,1.66-1.41.21-.14.38-.24.51-.31-.02,0-.03.02-.05.03.02-.01.04-.02.06-.03,0,0,0,0,0,0,.07-.04.15-.08.22-.12-.02,0-.04.02-.07.04.03-.01.05-.03.08-.04.01,0,.04-.02.03-.02,0,0-.02.01-.04.02-.01,0-.32.13-.8.41-.48.28-1.11.74-1.76,1.32-.65.57-1.33,1.25-1.99,1.88-.33.31-.67.62-.99.89-.19.15-.38.31-.56.47.11-.14.22-.27.34-.41.82-.98,2.06-2.36,2.99-3.59.12-.15.23-.3.33-.45.12-.09.24-.17.34-.23-.03.02-.05.03-.08.05.03-.02.06-.04.08-.05,0,0,0,0,0,0,.16-.1.31-.21.47-.3,0,0-.02,0-.03.02,0,0,0,0,0,0,0,0-.02,0-.03.01,0,0,0,0,0,0,0,0,0,0,0,0-.07.04-.32.16-.66.37.67-.96,1.05-1.73,1.05-1.73-.09.17-.2.32-.3.48-.23.35-.61.88-1.09,1.47-.31.2-.66.45-1.02.75-1.08.86-2.23,2.09-2.91,3.03-.69.94-1.12,1.81-1.35,2.43-.07.19-.13.35-.17.49l-.05-.2c.03-.1.05-.22.09-.34.22-.7.68-1.65,1.38-2.73.69-1.09,1.84-2.57,2.88-3.71.63-.7,1.21-1.29,1.57-1.64-.24.22-.47.46-.7.69.34-.33.67-.68,1.03-1.01.02-.01.03-.03.03-.03,0,0-.02.01-.03.02,0,0,0,0,0,0,0,0-.95.77-2.05,1.87-1.11,1.09-2.34,2.53-3.04,3.64-.71,1.11-1.11,2.14-1.24,2.88,0,.01,0,.02,0,.04l-.02-.08s0-.09.01-.14c.03-.18.09-.48.25-.89.25-.67.74-1.58,1.42-2.63.68-1.06,1.76-2.52,2.72-3.68.7-.85,1.32-1.54,1.61-1.85-.32.33-.62.67-.93,1,.35-.39.7-.78,1.06-1.15.01-.01.03-.03.03-.03,0,0-.02.02-.03.02,0,0-.88.81-1.89,1.92-1.03,1.11-2.18,2.53-2.87,3.61-.69,1.07-1.12,2.05-1.29,2.77-.1.41-.12.71-.12.9,0,.01,0,.02,0,.04l-.11-.41c0-.16.02-.35.08-.58.18-.75.65-1.78,1.33-2.96.67-1.19,1.78-2.84,2.79-4.13.5-.65.98-1.21,1.34-1.59.03-.04.06-.06.09-.09-.07.06-.13.13-.2.2.07-.07.14-.14.22-.21,0,0-.01.01-.02.02.17-.17.33-.35.52-.51,0,0-.02.01-.04.03,0,0,0,0,.01-.01,0,0,0,0,0,0,.01,0,.03-.02.03-.02,0,0-.02.02-.03.03-.03,0-1.02.84-2.08,2.08-1.09,1.24-2.28,2.85-2.96,4.07-.69,1.21-1.09,2.31-1.18,3.12,0,.02,0,.03,0,.05,0-.02,0-.03,0-.06,0-.07,0-.14,0-.22.02-.18.07-.45.18-.77.21-.66.64-1.58,1.23-2.65.59-1.08,1.52-2.59,2.42-3.74.45-.58.89-1.07,1.26-1.36.18-.14.35-.24.48-.25.02,0,.03,0,.04,0,.01,0,.02,0,.03,0,0,0,.01,0,.02,0,.03,0,.07.01.1.04,0,0-.02-.01-.03-.02,0,0,0,0,0,0,0,0,0,0-.01,0,0,0,0,0-.01,0-.02-.01-.05-.01-.09-.02,0,0-.02,0-.03,0-.02,0-.03,0-.05,0-.13.02-.31.1-.51.24-.39.28-.86.75-1.35,1.3-.97,1.11-1.98,2.6-2.58,3.69-.6,1.09-.96,2.07-1.1,2.77-.06.31-.07.55-.06.74-.01-.05-.03-.11-.04-.2-.01-.1-.03-.22-.06-.36.04-.14.08-.29.14-.47.24-.74.67-1.77,1.27-2.99.6-1.22,1.57-2.93,2.57-4.2.5-.64,1-1.16,1.41-1.49.1-.08.19-.15.28-.21.03-.02.07-.04.1-.07.11-.07.2-.14.31-.2,0,0-.02.01-.05.03,0,0,.01,0,.02-.01,0,0,0,0,0,0,.01,0,.03-.02.03-.02,0,0-.02.01-.04.02-.02.01-.31.14-.72.44-.43.31-.97.81-1.51,1.43-1.09,1.23-2.15,2.92-2.75,4.16-.61,1.24-.96,2.33-1.11,3.1,0,.04-.01.07-.02.12-.01-.08-.03-.16-.05-.24,0-.02.01-.05.02-.07,0,.02,0,.03,0,.03h.05s-.01-.06-.03-.15c0-.04.01-.07.02-.1.21-.82.6-1.98,1.15-3.36.55-1.38,1.44-3.34,2.43-4.81.49-.74,1.01-1.34,1.45-1.71.09-.08.18-.14.26-.2.03-.02.06-.03.08-.05.14-.09.27-.19.42-.26,0,0-.02.01-.05.02,0,0,0,0,.01,0,.01,0,.04-.02.04-.02,0,0-.02.01-.04.02-.01,0-.34.12-.79.47-.46.35-1.02.93-1.56,1.65-.38.5-.74,1.07-1.08,1.65.41-.92.88-1.91,1.38-2.75.41-.71.84-1.29,1.15-1.68-.03.03-.06.06-.08.1.03-.04.06-.07.09-.11,0,0,0,0-.01.01.15-.17.28-.35.44-.52,0,0-.01.01-.03.03,0,0,0,0,0,0,.01-.01.03-.03.03-.03,0,0-.02.02-.03.03,0,0,0,0,0,0,0,0-.89.82-1.73,2.11-.85,1.27-1.68,2.94-2.16,4.14-.38.95-.65,1.77-.84,2.42-.32.9-.54,1.71-.66,2.36,0-.07-.02-.14-.03-.22.04-.2.09-.43.15-.71.21-.9.58-2.16,1.03-3.71.44-1.55,1.1-3.79,1.53-5.67.45-1.88.58-3.4.57-3.4-.02.19-.07.37-.09.56-.11.59-.34,1.64-.7,2.83-.53,1.85-1.29,4.05-1.73,5.61-.45,1.56-.72,2.87-.83,3.8,0,.08-.01.14-.02.21-.02-.11-.05-.23-.07-.35.22-.87.53-2.29.82-4.11.26-1.56.59-3.82,1-5.65.25-1.15.55-2.12.75-2.69-.05.13-.1.26-.14.39.06-.16.11-.31.17-.47,0,.03-.02.04-.03.07.07-.18.12-.36.2-.54,0,0,0,.02-.02.05,0,0,0,0,0-.01,0-.01.02-.04.02-.04,0,0-.01.02-.02.04-.01.02-.65,1.36-1.15,3.18-.52,1.82-.96,4.07-1.21,5.64-.25,1.51-.39,2.76-.5,3.65-.02-.08-.04-.17-.06-.25.03-.22.06-.52.09-.91.07-.83.13-2.02.19-3.47.06-1.45.15-3.54.5-5.22.17-.84.42-1.58.67-2.07.06-.11.11-.2.16-.29.03-.04.06-.08.08-.12.08-.11.15-.24.25-.34,0,0-.01.02-.04.04,0,0,0-.01.01-.01,0-.01.03-.03.03-.03,0,0-.02.02-.03.03,0,.01-.26.24-.53.72-.29.48-.58,1.21-.8,2.06-.45,1.69-.63,3.8-.69,5.25-.04,1.07-.03,1.99-.01,2.74-.02-.33-.06-.7-.1-1.08.02-.54.04-1.1.05-1.73v-1.36c.02-.48.06-.99.12-1.5.12-1.04.3-2.11.43-3.09.13-.98.19-1.87.17-2.51-.02-.64-.1-1.02-.09-1.02.02.14.02.28.03.42,0,.17,0,.38,0,.65-.02.63-.14,1.51-.32,2.47-.18.97-.42,2.03-.58,3.08-.08.52-.14,1.04-.16,1.54v.39c-.19-1.09-.4-2.27-.59-3.32l-.53-3.01s0-.03,0-.05h0s0,0,0,0c0,0,0,0,0,0,0,0,0,0,0,0,0,0,0,0,0,0h0s0,0,0,0c0,.03.13,1.36.34,3.05l.67,5.19c.03.21.05.41.08.61,0,.26,0,.51.01.75,0,0,0-.01,0-.02-.05-.59-.13-1.26-.26-2.03-.4-2.55-1.7-7.18-1.72-7.26v-.04s.83,4.08,1.27,6.71c-.41-1.43-.98-3.13-1.61-4.55-.72-1.67-1.49-2.89-1.57-3.01-.02-.04-.04-.06-.04-.06,0,0,.01.03.03.05,0,0,0-.01,0-.01.12.21.22.43.34.65-.08-.14-.14-.29-.22-.43.24.47.77,1.53,1.25,2.85.43,1.12.81,2.41,1.15,3.6-.13-.3-.26-.6-.4-.89-.23-.45-.39-.92-.59-1.36-.71-1.63-1.46-2.83-1.57-2.99-.03-.04-.04-.07-.04-.07,0,0,.02.02.03.06,0,0-.01-.02-.01-.02.03.05.05.1.08.14-.06-.11-.1-.18-.1-.18.06.1.11.22.17.32-.01-.02-.03-.05-.04-.07.09.16.17.32.26.49-.07-.14-.14-.28-.22-.42.25.49.76,1.51,1.22,2.77.17.44.31.92.52,1.39l.57,1.42c.36.94.69,1.86.95,2.61.03.08.05.16.08.24v.22c-.61-1.45-1.46-3.22-2.22-4.73l-1.55-3.13c.43.96.87,1.91,1.31,2.86,0-.01-.01-.02-.02-.03-.44-.95-.89-1.9-1.31-2.86,0,0,.58,1.43,1.35,3.22.78,1.79,1.71,3.95,2.31,5.48.06.14.1.26.16.4v.54c-.09-.25-.19-.49-.31-.76-1.27-2.94-3.94-8.25-4.02-8.41-.01-.03-.02-.05-.02-.05,0,0,.01.03.02.04,0,0,0,0,0,0,.01.02.02.05.03.07-.02-.04-.03-.07-.05-.11,0,0,2.35,5.62,3.64,8.6.27.62.52,1.17.76,1.68v.26s-.04-.08-.07-.12c-.05-.07-.11-.15-.16-.22-.24-.49-.5-1.01-.79-1.58l-2.74-5.34c-.88-1.73-1.54-3.12-1.56-3.15,0,0,0-.02-.01-.03,0,0,0,0,0,0,0,0,0-.02,0-.02,0,0,0,.02.01.03.06.15.6,1.52,1.35,3.23.71,1.64,1.6,3.56,2.33,5-.1-.12-.19-.24-.29-.37-.35-.44-.7-.88-1.03-1.33-.16-.23-.32-.45-.45-.68l-.42-.69c-.53-.9-.93-1.75-1.29-2.33-.35-.58-.6-.91-.6-.91,0,0,0,0,0,0-.01-.02-.03-.04-.03-.04,0,0,.02.03.04.05.07.1.13.21.2.32-.08-.12-.15-.25-.23-.37,0,0,.23.35.54.95.32.59.67,1.47,1.14,2.41.12.23.25.48.38.71.13.25.27.49.43.73.31.48.65.94.98,1.39.67.9,1.31,1.76,1.81,2.48.12.18.23.34.34.51.06.1.11.18.16.28v.12c-.27-.37-.58-.77-.94-1.19-.94-1.19-2.13-2.53-3.17-3.67-.08-.08-.15-.16-.23-.25-.18-.26-.37-.53-.54-.79-.49-.76-.96-1.42-1.38-1.83-.41-.42-.74-.58-.74-.58,0,0,0,0,0,0-.01,0-.04-.02-.04-.02,0,0,.02.01.04.02,0,0,0,0,0,0-.02-.02-.05-.03-.04-.03.14.08.26.2.39.31.03.03.06.05.09.08.07.07.14.14.22.23.34.38.72.96,1.11,1.63-.44-.5-.79-.9-1-1.15.36.46.74.9,1.11,1.34.01.02.03.05.04.07,0,.01.02.02.02.04-.12-.15-.24-.29-.35-.42-.31-.38-.62-.76-.92-1.14.03.03.06.07.1.12-.05-.06-.11-.13-.16-.19-.03-.04-.06-.07-.09-.11,0,0,.71.98,1.73,2.26.13.22.25.44.4.67.29.4.59.78.9,1.15.62.74,1.23,1.43,1.73,2,.06.07.12.13.18.2.33.44.65.86.91,1.23.24.33.43.63.63.94v.17c-.37-.52-.81-1.09-1.35-1.74-.91-1.09-2.31-2.59-3.53-3.77-1.11-1.09-2.08-1.86-2.24-1.98-.04-.03-.06-.05-.06-.05,0,0,.02.01.06.04-.01,0-.03-.02-.03-.02-.01-.01-.03-.02-.03-.02.08.07.16.14.24.21,0,0-.02-.02-.03-.03.11.1.23.2.34.3-.1-.09-.2-.18-.31-.27.36.33,1.09,1.03,1.9,1.92,1.15,1.23,2.47,2.79,3.38,3.88l.42.5c-.28-.29-.56-.58-.86-.87-.89-.86-1.84-1.7-2.65-2.5-.82-.79-1.5-1.56-1.93-2.15-.32-.43-.51-.76-.59-.91-.02-.05-.05-.09-.08-.14,0,0,.15.43.51,1.09.36.66.95,1.52,1.69,2.41.74.9,1.6,1.84,2.41,2.75.81.91,1.55,1.8,2.1,2.55.24.32.45.63.65.94l-.02.37c-.17-.26-.34-.52-.53-.78-.5-.68-1.17-1.45-1.88-2.23-.35-.39-.71-.78-1.05-1.18-.36-.41-.73-.76-1.06-1.13l-2.41-2.58s-.03-.04-.03-.04c0,0,.9,1.28,2.09,2.86l.93,1.22c.3.43.63.86.95,1.28.64.83,1.26,1.62,1.75,2.28.45.6.84,1.15,1.19,1.65l-.02.33c-.57-.77-1.31-1.6-2.14-2.37-.96-.89-2.02-1.71-2.99-2.42-.97-.71-1.85-1.33-2.44-1.83-.38-.31-.6-.57-.73-.73-.05-.07-.1-.14-.14-.22,0,0,.18.46.72,1.03.53.58,1.33,1.31,2.22,2.12.88.81,1.85,1.72,2.7,2.64.86.92,1.61,1.86,2.16,2.67.21.29.39.58.56.86v.28c-.51-.86-1.18-1.84-1.97-2.77-.83-.98-1.78-1.91-2.69-2.69-.91-.78-1.77-1.41-2.39-1.85l-1-.7-.05-.04.91.84c.56.52,1.33,1.24,2.14,2.1.01.01.02.02.03.04.32.41.81,1.08,1.31,1.91-.37-.42-.75-.83-1.11-1.21-1.38-1.46-2.62-2.46-2.74-2.55-.03-.03-.06-.05-.06-.05,0,0,.02.02.05.04,0,0-.01-.01-.01-.01.26.23.49.49.74.73-.26-.26-.51-.52-.77-.76,0,0,1.16,1.2,2.42,2.86.27.34.54.71.81,1.08-1.59-1.6-2.94-2.63-3.05-2.7-.04-.03-.07-.06-.07-.05,0,0,.03.03.05.05,0,0,0,0,0,0,.32.28.61.58.91.87-.32-.3-.62-.62-.96-.91,0,0,1.51,1.47,3.11,3.57.8,1.04,1.64,2.24,2.36,3.42.73,1.18,1.35,2.36,1.79,3.35,0,.01.01.03.02.04l-.03.66c-.86-1.96-2.19-4.28-3.61-6.04-.83-1.05-1.69-1.91-2.38-2.44-.68-.52-1.17-.71-1.18-.72-.02-.01-.06-.03-.06-.03,0,0,.03.02.06.03.07.04.14.09.21.13-.09-.05-.17-.11-.27-.16,0,0,.47.25,1.08.85.61.59,1.34,1.52,2.04,2.63.59.92,1.15,1.97,1.67,3.03-.74-.94-1.55-1.85-2.34-2.63-1.57-1.59-3-2.61-3.13-2.7-.04-.03-.06-.05-.06-.05,0,0,.03.02.05.04.28.23.54.49.81.74-.29-.26-.56-.53-.86-.77,0,0,1.35,1.24,2.78,3.05.54.66,1.07,1.4,1.6,2.15-.77-.86-1.6-1.69-2.41-2.39-1.91-1.66-3.68-2.58-3.7-2.59-.02-.01-.05-.03-.05-.03,0,0,.03.02.05.03.29.18.56.4.84.6-.26-.19-.52-.39-.79-.56.37.27,1.78,1.33,3.24,2.91.85.91,1.73,1.97,2.51,3.03.78,1.06,1.46,2.13,1.98,3.02.05.08.09.15.13.23-.29-.4-.59-.81-.92-1.2-.22-.27-.45-.54-.68-.8l-.35-.39c-.12-.14-.26-.28-.38-.4-.52-.49-1.05-.93-1.57-1.33-1.04-.79-2.04-1.41-2.79-1.79-.73-.38-1.22-.52-1.24-.52-.02,0-.06-.02-.06-.02,0,0,.03.01.06.02.2.08.39.19.58.28-.11-.06-.22-.11-.34-.16.21.11.5.27.86.52.69.46,1.58,1.19,2.52,2.06.46.44.94.91,1.38,1.42.11.13.21.25.31.38l.31.42.6.84c.78,1.11,1.45,2.22,1.95,3.15.35.65.62,1.25.87,1.84l-.02.14c-.27-.63-.58-1.27-.99-1.95-.56-.93-1.33-1.99-2.24-3.01-.9-1.02-1.94-1.98-2.95-2.76-2.01-1.58-3.9-2.29-3.89-2.29-.02,0-.05-.02-.05-.02,0,0,.03.02.07.04.13.07.26.14.4.21-.16-.08-.31-.17-.47-.25,0,0,1.76.96,3.55,2.69.9.86,1.8,1.88,2.6,2.93.57.74,1.06,1.47,1.5,2.16-.05-.05-.09-.1-.13-.15-.49-.52-1-1.03-1.5-1.53-.48-.49-1.02-1.01-1.57-1.4-1.1-.81-2.25-1.25-3.09-1.43-.84-.19-1.36-.16-1.37-.16-.02,0-.06,0-.06,0,0,0,.04,0,.06,0,.2.02.39.07.58.1-.08-.01-.17-.03-.25-.04.23.05.54.12.92.26.79.28,1.84.83,2.79,1.69.24.21.47.44.69.69.22.24.43.51.66.79.45.54.91,1.09,1.34,1.63.87,1.08,1.61,2.16,2.11,3.09.34.61.59,1.19.83,1.75l-.08.53c-.24-.51-.51-1.04-.85-1.6-1.02-1.7-2.8-3.94-4.5-5.55-.85-.81-1.67-1.47-2.32-1.87-.32-.2-.6-.33-.8-.39-.2-.06-.32-.06-.32-.06,0,0,0,0,0,0-.02,0-.05,0-.05,0,0,0,.03,0,.06,0,0,0,0,0,.01,0-.04,0-.07,0-.07-.01.11,0,.21.05.32.09,0,0,0,0,0,0,.19.08.44.23.72.46.58.46,1.3,1.2,2.04,2.07.56.65,1.11,1.39,1.65,2.13-.51-.45-1.03-.88-1.54-1.27-1.03-.78-2.01-1.39-2.75-1.77-.73-.38-1.21-.53-1.22-.54-.02,0-.05-.02-.05-.02,0,0,.03.02.06.03.2.09.38.2.57.29-.21-.11-.41-.23-.63-.32,0,0,.46.22,1.13.68.68.46,1.57,1.17,2.48,2.04.92.87,1.87,1.89,2.72,2.92.41.49.78.99,1.13,1.47-.15-.16-.3-.32-.47-.47-1.01-.97-2.15-1.86-3.23-2.57-2.11-1.42-3.96-2.17-4.04-2.2-.03-.02-.07-.03-.07-.03,0,0,.03.02.05.03h0c.34.17.67.38,1,.57-.35-.2-.69-.42-1.05-.6,0,0,1.78,1.01,3.73,2.65.98.81,2,1.78,2.89,2.78.89,1,1.65,2.03,2.2,2.91.28.44.52.87.73,1.28l-.05.37c-.22-.46-.47-.92-.79-1.4-.55-.82-1.34-1.73-2.25-2.57-.91-.84-1.91-1.6-2.84-2.26-1.65-1.26-3.1-2.11-3.34-2.22-.06-.03-.09-.05-.1-.04.09.05.17.11.26.17-.04-.03-.05-.04-.08-.06.15.09.3.19.45.29-.12-.08-.24-.16-.36-.23.49.36,1.6,1.27,2.83,2.44.86.76,1.76,1.6,2.57,2.47.81.86,1.51,1.75,2.02,2.52.4.59.73,1.15,1.02,1.69-.55-.87-1.3-1.84-2.15-2.78-.87-.97-1.84-1.91-2.74-2.73-.45-.41-.88-.8-1.29-1.12-.41-.32-.8-.59-1.14-.8-.67-.42-1.16-.52-1.16-.51,0,0,0,0,0,0-.02,0-.06-.01-.06-.01,0,0,.04,0,.06.02,0,0,.01,0,.02,0-.05-.02-.08-.03-.08-.02.07.02.13.05.2.07-.04-.02-.08-.04-.11-.05.08.02.16.07.24.1-.04-.02-.09-.04-.13-.05.19.08.5.25.88.55.62.48,1.37,1.23,2.16,2.15.8.91,1.66,1.92,2.44,2.93.17.22.32.43.48.65-.03-.04-.07-.08-.1-.12-.81-.91-1.74-1.78-2.62-2.49-1.74-1.41-3.32-2.19-3.37-2.22-.02-.01-.05-.03-.05-.03,0,0,.03.02.04.03.28.17.55.37.82.56-.29-.2-.56-.41-.86-.59,0,0,1.49,1,3.06,2.59.79.79,1.6,1.71,2.32,2.65.72.94,1.33,1.88,1.8,2.68.56.92,1,1.77,1.35,2.52l-.04.4s-.02-.05-.03-.08c-.47-1.06-1.23-2.26-2.12-3.38-.89-1.13-1.93-2.19-2.87-3.13l-.69-.68c-.22-.23-.47-.43-.69-.61-.46-.35-.9-.63-1.27-.85-.74-.42-1.23-.58-1.25-.59-.02-.01-.06-.03-.06-.03,0,0,.04.02.06.03.18.08.35.19.52.28-.14-.08-.28-.16-.42-.22.19.1.54.3,1,.65.34.25.73.58,1.13.97.2.2.41.4.59.64l.61.75c.84,1.03,1.74,2.17,2.52,3.32.78,1.14,1.42,2.3,1.87,3.27.37.79.62,1.53.83,2.23l-.04.34c-.21-.77-.53-1.62-1.01-2.51-.45-.85-1.11-1.83-1.87-2.76-.76-.94-1.62-1.84-2.4-2.64-.81-.79-1.58-1.42-2.13-1.89l-.88-.74-.04-.04.78.86c.48.53,1.18,1.26,1.88,2.1.68.87,1.44,1.84,2.11,2.8.67.96,1.24,1.92,1.67,2.73.82,1.53,1.36,2.85,1.7,3.85v.08c-.16-.42-.34-.85-.55-1.29-.95-2-2.85-4.52-4.65-6.36-1.74-1.84-3.19-3.19-3.23-3.23-.02-.02-.05-.05-.05-.05,0,0,.03.03.04.05.54.58,1.04,1.18,1.57,1.77-.54-.61-1.06-1.23-1.61-1.82,0,0,1.28,1.56,2.82,3.59,1.57,2,3.19,4.6,4.08,6.48.59,1.19,1.01,2.25,1.31,3.19l-.06.53c-.34-1.02-.91-2.34-1.81-3.81-1.01-1.66-2.75-3.84-4.37-5.46-1.6-1.63-3.08-2.65-3.1-2.65-.02-.01-.04-.03-.04-.03,0,0,.03.02.04.04.24.19.46.42.7.62-.22-.19-.42-.39-.64-.57.32.29,1.46,1.38,2.65,2.9,1.42,1.76,2.92,4.04,3.91,5.65,1.16,1.86,2.04,3.35,2.58,4.28l-.03.29c-.36-.68-.81-1.41-1.4-2.16-1.22-1.59-3.36-3.53-5.37-4.77-1-.63-1.96-1.09-2.68-1.31-.72-.24-1.2-.17-1.2-.16-.02,0-.05,0-.05,0,0,0,.03,0,.05,0,0,0,.01,0,.02,0-.04,0-.07,0-.07,0,.08,0,.15.01.23.01-.03,0-.07,0-.1-.01.06,0,.12.01.19.02-.03,0-.06,0-.09,0,.2.02.52.09.92.28.68.3,1.55.85,2.45,1.57,1.82,1.41,3.71,3.47,4.87,4.98.87,1.1,1.56,2.09,2.08,2.92l-.04.36c-.25-.39-.52-.79-.82-1.2-1.14-1.53-3.06-3.53-4.97-4.77-.95-.63-1.89-1.04-2.6-1.21-.7-.17-1.15-.12-1.16-.12-.02,0-.05,0-.05,0,0,0,.03,0,.05,0,.07,0,.13.01.2.02-.08,0-.17-.02-.25-.02,0,0,.45,0,1.12.26.67.24,1.52.75,2.37,1.44,1.71,1.38,3.39,3.48,4.49,4.95.81,1.07,1.49,2.01,2.03,2.79l.14.46c-.51-.73-1.16-1.54-2.01-2.39-1.32-1.32-3.48-3-5.53-3.9-1.02-.46-2-.71-2.71-.78-.7-.07-1.13,0-1.14,0-.02,0-.05,0-.05,0,0,0,.03,0,.05,0,.16,0,.31.02.46.03-.07,0-.13,0-.2-.01.2.02.47.05.81.13.68.15,1.59.5,2.52,1.04,1.88,1.07,3.81,2.86,5.09,4.14,1.41,1.39,2.5,2.54,3.21,3.3l.14.45c-.55-.56-1.22-1.14-2.04-1.69-1.55-1.06-4.03-2.19-6.2-2.66-1.08-.24-2.08-.32-2.79-.28-.7.04-1.11.19-1.12.19-.02,0-.05.01-.05.01,0,0,.03,0,.05-.01.05-.01.09,0,.14-.02-.11.02-.19.03-.19.03.12-.03.24-.03.37-.05-.01,0-.02,0-.03,0,.07-.01.14-.02.22-.03-.06,0-.12.01-.18.02.19-.02.44-.03.76-.01.7.04,1.65.23,2.67.57,2.05.68,4.32,1.97,5.8,2.98,1.3.87,2.33,1.67,3.06,2.34l.06.2c-.63-.63-1.44-1.27-2.47-1.79-.88-.46-2.02-.89-3.22-1.22-1.2-.33-2.44-.59-3.6-.76-1.15-.17-2.21-.17-2.95-.03-.74.14-1.14.38-1.14.37-.02,0-.05.02-.05.02,0,0,.03-.01.06-.02.07-.03.15-.05.23-.08-.1.03-.19.06-.28.1,0,0,.43-.19,1.16-.23.73-.05,1.74.07,2.84.35,1.09.28,2.3.67,3.44,1.07,1.13.41,2.19.87,3.01,1.3,1.51.76,2.63,1.6,3.41,2.29l.15.47c-.6-.48-1.34-.91-2.18-1.29-.43-.19-.9-.39-1.41-.59-.49-.19-1.05-.41-1.62-.59-1.13-.36-2.34-.61-3.44-.76-1.09-.14-2.07-.24-2.77-.3-.7-.06-1.13-.07-1.14-.07-.02,0-.05,0-.05,0,0,0,.03,0,.07,0,.43.05.85.12,1.28.18,0,0,0,0,0,0-.45-.06-.91-.13-1.36-.19,0,0,.43.06,1.12.21.69.14,1.65.37,2.71.62,1.05.26,2.19.62,3.26,1.04.54.21,1.03.44,1.53.67l1.37.61c.83.37,1.55.73,2.15,1.1.32.2.61.4.86.6l.17.55c-.6-.48-1.34-.95-2.23-1.33-.84-.37-1.92-.71-3.05-.93-1.13-.23-2.32-.34-3.4-.36-2.14-.05-3.79.28-3.81.28-.02,0-.05,0-.05,0,0,0,.03,0,.06,0,.37-.04.74-.04,1.1-.06-.39.02-.77.03-1.16.07,0,0,1.69-.1,3.78.17,1.04.13,2.18.35,3.25.65,1.07.29,2.07.67,2.86,1.01.53.23,1,.46,1.44.7-.32-.16-.66-.32-1.04-.45-.87-.3-1.98-.47-3.11-.49-1.13-.02-2.29.07-3.32.15-1.06.07-1.98.32-2.62.5-.42.12-.73.2-.9.23-.07.02-.13.02-.2.04,0,0,.41-.02,1.08-.12.66-.1,1.58-.24,2.6-.2,1.04.03,2.19.05,3.27.16,1.08.1,2.09.31,2.87.57,1.51.5,2.65,1.22,3.47,1.76l.15.32c-.76-.57-1.7-1.14-2.89-1.56-.98-.36-2.22-.65-3.52-.78-1.3-.14-2.65-.13-3.86-.01-2.43.22-4.23.92-4.22.92,0,0,0,0,0,0-.02,0-.05.02-.05.02,0,0,.04,0,.08-.02.18-.05.36-.09.54-.14-.21.05-.42.1-.62.16,0,0,1.86-.46,4.24-.41,1.19.01,2.49.13,3.72.36,1.23.22,2.38.55,3.3.88,1.67.58,2.95,1.28,3.88,1.88l.24.54c-.71-.49-1.57-.96-2.58-1.33-.98-.36-2.22-.67-3.53-.83-1.3-.17-2.67-.19-3.89-.08-1.22.11-2.3.36-3.03.63-.73.26-1.13.5-1.14.51-.02.01-.06.03-.06.03,0,0,.03-.01.05-.02.14-.06.28-.1.43-.16-.16.06-.32.11-.48.18,0,0,.44-.2,1.19-.36.75-.17,1.82-.29,3.01-.27,1.19.02,2.49.17,3.73.42,1.23.25,2.39.59,3.31.93,1.52.55,2.73,1.16,3.62,1.74l.14.3c-.85-.57-1.97-1.14-3.35-1.57-1.91-.62-4.79-1.02-7.16-.87-1.18.06-2.24.25-2.95.54-.36.14-.62.3-.79.44-.16.14-.22.24-.22.24h0s-.03.04-.03.04c0,0,.02-.03.04-.04,0,0,.01,0,.02-.01-.03.03-.05.06-.05.06.06-.08.16-.14.24-.21,0,0,.01-.01.02-.02.17-.12.44-.24.79-.33.72-.19,1.75-.26,2.9-.2,2.13.1,4.61.64,6.41,1.18-.49-.09-.98-.15-1.49-.21-1.4-.14-2.85-.16-4.16-.09-1.31.06-2.47.21-3.3.36-.82.15-1.31.3-1.32.3-.02,0-.06.01-.06.01,0,0,.04,0,.08-.02.16-.03.33-.05.49-.08-.19.03-.38.06-.57.1,0,0,.51-.08,1.34-.13.83-.05,1.99-.06,3.27.02,1.28.08,2.69.23,4.03.47.67.12,1.33.25,1.91.4.6.17,1.16.35,1.65.53,1.41.51,2.56,1.09,3.44,1.66l.26.58c-.89-.64-2.04-1.27-3.46-1.74-1.06-.36-2.39-.66-3.77-.86-1.39-.2-2.83-.29-4.14-.29-2.53-.02-4.49.31-4.62.34-.04,0-.08,0-.08.01,0,0,.04,0,.06,0,0,0,0,0,0,0,.42-.04.84-.04,1.26-.06-.44.02-.88.02-1.32.07,0,0,2.05-.09,4.61.21,1.28.14,2.68.37,4.01.66.47.1.93.22,1.38.33-1.26-.11-2.58-.09-3.76.07-1.19.18-2.21.48-2.93.76-.71.27-1.08.57-1.08.58-.02.01-.05.03-.05.03,0,0,.03-.02.04-.03.08-.05.17-.1.26-.14-.06.03-.13.07-.19.11.16-.09.5-.25,1.01-.38.73-.19,1.77-.36,2.93-.41.58-.03,1.18,0,1.8.04.62.05,1.24.12,1.85.22,1.22.19,2.35.49,3.26.79,1.66.54,2.94,1.19,3.87,1.75l.16.35c-.62-.38-1.32-.75-2.16-1.05-.99-.35-2.26-.62-3.59-.67-1.32-.05-2.69.11-3.88.41-2.34.57-3.94,1.58-4.01,1.61-.03.02-.06.03-.06.03,0,0,.03-.01.05-.03,0,0,0,0,0,0,.13-.07.27-.12.41-.18-.15.07-.31.13-.46.21,0,.01,1.76-.8,4.12-1.12,1.17-.16,2.48-.2,3.71-.06,1.24.13,2.39.44,3.31.76,1.26.44,2.31.95,3.18,1.43l.21.23c-.47-.3-.98-.6-1.57-.88-.98-.46-2.27-.89-3.66-.98-.69-.05-1.4-.02-2.08.08-.66.1-1.3.2-1.92.31-1.23.22-2.33.53-3.06.92-.18.09-.34.2-.46.28-.14.08-.26.14-.36.19l-.14.06s-.02,0-.01.03c0,.01.01,0,.02.01h.03s.05.02.05.02l.07.02s.05.02.07.03l-.08-.04-.1-.05s0,0,0,0l.07-.02c.11-.03.24-.07.39-.13.16-.06.3-.15.49-.22.73-.29,1.82-.46,3.05-.55.61-.05,1.26-.07,1.93-.11.64-.04,1.29,0,1.91.08,1.25.18,2.39.62,3.3,1.04,1.8.85,3.24,1.75,4.3,2.3l.87.94s-.05-.03-.07-.04c-.18-.09-.37-.18-.56-.27-.06-.05-.11-.09-.18-.14-.98-.71-2.45-1.67-4.44-2.46-.99-.39-2.25-.79-3.6-1-.68-.1-1.38-.16-2.08-.12-.35.02-.69.06-1.03.12-.34.08-.64.14-.97.26-.32.11-.64.29-.85.58-.22.29-.28.62-.29.9-.02.57.09,1.04.16,1.44.16.78.27,1.26.27,1.27,0,.02,0,.06,0,.06l-.11-1.29c-.02-.4-.07-.88,0-1.38.04-.25.11-.49.27-.67.15-.18.39-.29.66-.36.26-.07.59-.11.9-.15.31-.03.62-.04.94-.03.63.03,1.28.13,1.9.27.92.21,1.8.51,2.58.8-.97-.1-1.98-.06-2.86.15-.97.23-1.77.65-2.28,1.01-.5.34-.77.61-.79.62-.02.01-.04.03-.04.03,0,0,.02-.02.03-.03.08-.06.17-.12.25-.18-.1.07-.2.13-.29.2,0,0,.31-.23.86-.52.55-.29,1.35-.6,2.29-.72.93-.13,1.98-.06,2.95.15.13.03.25.07.37.1-.69.13-1.29.43-1.81.77-1.1.74-1.81,1.73-2.11,2.51-.31.79-.22,1.31-.23,1.3,0,0,0,0,0,0,0,.02,0,.06,0,.06,0,0,0-.04,0-.06,0-.07.02-.15.03-.22,0,.06-.02.12-.02.19.02-.18.08-.61.36-1.14.36-.71,1.14-1.56,2.21-2.13.53-.29,1.14-.5,1.74-.55.29-.02.59.02.92.08.32.05.64.12.95.2,1.26.33,2.41.85,3.32,1.32,1.18.61,2.17,1.21,3,1.76.05.08.1.16.15.23-.53-.34-1.1-.66-1.74-.97-1.06-.49-2.41-.99-3.89-1.26-.74-.13-1.52-.21-2.31-.1-.39.06-.81.17-1.16.42-.36.25-.59.6-.75.94-.3.69-.35,1.36-.37,1.96-.01.6.04,1.12.1,1.56.12.86.27,1.37.27,1.38,0,.03.01.06.01.06,0,0,0-.04-.01-.07-.03-.16-.04-.33-.07-.49.03.19.04.38.08.56,0,0-.08-.53-.1-1.4,0-.43,0-.95.08-1.52.08-.56.2-1.19.5-1.72.54-1.18,2.15-.92,3.45-.61,1.34.35,2.59.88,3.6,1.35,1.7.79,3.07,1.57,4.04,2.27.49.55,1.05,1.09,1.58,1.59,0,0,0,0,0,.01l.18.16ZM-.32,87.13s-.03,0-.04.01c0,0-.02,0-.03,0,.02,0,.05-.01.07-.02Zm.53-.1s-.03,0-.04,0c-.01,0-.02,0-.03,0,.02,0,.05,0,.07,0Zm.56-.04s-.03,0-.05,0c-.01,0-.03,0-.04,0,.03,0,.06,0,.09,0Zm.52,0s-.04,0-.06,0c.01,0,.02,0,.03,0,0,0,.02,0,.03,0Zm-.41-2.4s-.03,0-.04,0c0,0,0,0,0,0,.01,0,.03,0,.04,0Zm.29-4.42s0,0,0,0c0,0,0,0,0,0,0,0,0,0,0,0Zm.65-2.88s-.02,0-.04,0c0,0-.02,0-.03,0,.02,0,.04,0,.06.01Zm.5.12s-.02,0-.03,0c0,0-.01,0-.02,0,.02,0,.03,0,.05.01Zm.51.18s-.02,0-.03,0c0,0-.02,0-.02-.01.02,0,.03.01.05.02Zm.48.21s-.04-.02-.06-.03c0,0,.02,0,.03.01,0,0,.02.01.03.01Zm-2.36-3.32s-.02,0-.04,0c-.02,0-.03,0-.04-.01.03,0,.05.01.08.02Zm.5.15s-.03,0-.04-.01c0,0-.01,0-.02,0,.01,0,.02,0,.03,0,0,0,.02,0,.03.01Zm.18.09s-.03-.01-.04-.02c0,0,0,0,0,0,0,0,.02.01.03.01Zm2.48-12.81s-.02,0-.02-.01c-.01,0-.03-.02-.04-.02.02.01.04.02.06.04Zm.45.28s-.02-.01-.03-.02c0,0,0,0,0,0,0,0,.02,0,.02.01,0,0,0,0,0,0Zm-.27-1.24s0,0-.01-.01c0,0-.02-.01-.02-.02.01,0,.03.02.04.03Zm.65-4.91s-.01,0-.02,0c-.02,0-.03-.02-.05-.03.02.01.05.03.07.04Zm.43.26s-.01,0-.02-.01c0,0,0,0,0,0,0,0,.01,0,.02,0,0,0,0,0,.01,0Zm-.28-1.16s-.08-.03-.12-.04c0,0,.01,0,.02,0,.03,0,.07.03.1.04Zm.91.34s-.04-.02-.06-.03c0,0,0,0,0,0,.02.01.05.02.07.03Zm2.49-.19s-.02-.02-.03-.03c-.02-.02-.04-.05-.07-.07.03.03.06.06.09.1Zm-.69-8.2s-.02-.01-.03-.02c0,0,0,0,0,0,.01,0,.03.02.04.03Zm.5.39s-.02-.01-.03-.02c0,0-.01-.01-.02-.02.02.01.03.03.05.04Zm-1.69-5.92s-.02-.02-.02-.03c-.03-.04-.06-.09-.09-.14.04.06.07.11.12.17Zm1.1,1.08s-.01-.01-.02-.02c-.05-.04-.1-.09-.15-.13.06.05.11.1.17.15Zm1.87-1.53s-.04-.05-.06-.07c-.38-.45-.76-.91-1.13-1.36-.05-.07-.1-.13-.15-.18.44.54.89,1.08,1.34,1.62Zm-1.59-3.33s-.01-.02-.02-.04c-.07-.11-.13-.24-.19-.35.07.13.14.26.21.39Zm.55.82s0-.01-.01-.01c-.05-.07-.09-.14-.14-.21.05.07.1.15.15.22Zm-.02-2.94s-.01-.01-.02-.02c0,0,0-.01-.01-.02.01.01.02.03.04.04Zm.25.31c-.07-.09-.14-.18-.22-.26,0,0,.01.01.02.02.07.08.13.16.2.24Zm.28.34s-.01-.02-.02-.03c0,0,0,0,0,.01,0,0,0,.01.01.02Zm.58.89c-.14-.22-.28-.44-.43-.65,0,.01.01.02.02.03.14.2.27.4.4.61,0,0,0,0,0,.01Zm-.02-2.46s0-.02-.01-.02c0,0,0-.01,0-.02,0,.01.02.03.02.04Zm1.28.3s-.01-.03-.02-.04c-.35-.75-.69-1.5-1.03-2.25.35.77.69,1.53,1.05,2.29Zm1.13,2.36s-.01-.02-.02-.03c-.08-.16-.15-.32-.23-.48.08.17.17.34.25.51Zm.53-4.38c-.1-.23-.19-.45-.3-.68,0,.01,0,.02.01.03.1.21.19.43.28.65,0,0,0,0,0,0Zm-.12-1.8c-.04-.09-.08-.18-.12-.27,0,0,0,0,0,.02.04.08.07.17.11.26Zm2.08,1.11s0-.03,0-.05c-.07-.47-.14-.94-.2-1.41.07.49.14.97.21,1.46Zm1.82-4.01c0-.12-.01-.23-.02-.35,0,.11.02.21.02.32,0,.01,0,.02,0,.03Zm-.03.86c0-.08,0-.16.01-.24,0,.07,0,.15,0,.22,0,0,0,.01,0,.02Zm.83.75c.03-.07.06-.14.1-.21,0,0,0-.01.01-.02-.04.08-.07.16-.11.23Zm-.23.5s.02-.06.03-.08c0,.02-.01.04-.02.06,0,0,0,.02,0,.03Zm2.23.76c.05-.25.09-.51.13-.77-.04.25-.07.49-.12.74,0,0,0,.02,0,.03Zm-.33,1.4c.02-.08.04-.16.06-.23-.02.07-.03.15-.05.22,0,0,0,0,0,.01Zm1.79.67s.03-.04.04-.06c-.01.01-.02.03-.03.04,0,0,0,.01-.02.02Zm-.27.39s0-.01.01-.02c.04-.06.08-.13.13-.19,0,0,0,0,.01-.02-.05.07-.1.15-.15.22Zm.97.08s.03-.03.05-.04c0,0-.01.01-.02.02-.01,0-.02.01-.03.02Zm-.28.26c.07-.07.14-.14.22-.2,0,0,.02-.01.03-.02-.09.07-.17.15-.25.22Zm-.33.31s.01-.01.02-.02c0,0,0,0,.01-.01,0,0,0,0,0,0,0,0-.01.02-.02.02Zm-.49.62c.13-.16.24-.32.38-.47,0,0,.01-.01.02-.02-.14.16-.26.33-.4.49Zm1.26.66c.06-.05.13-.11.19-.16,0,0,.01,0,.02-.01-.07.06-.14.12-.21.18Zm-.37.33s.05-.05.07-.07c-.01.01-.02.03-.04.04-.01.01-.02.02-.03.03Zm.95.44s.02,0,.02,0c0,0,0,0,0,0,0,0,0,0-.01,0Zm-.05.02s.01,0,.02,0c0,0,.02,0,.03,0,0,0,0,0,.01,0-.02,0-.04,0-.06.01Zm-.03,0s.02,0,.03,0c0,0,0,0-.01,0,0,0-.01,0-.02,0Zm-.13.05s.03-.02.05-.03c0,0,.01,0,.02,0-.02,0-.03.02-.05.03,0,0-.01,0-.02,0Zm-.12.07s.06-.04.09-.05c0,0,.01,0,.02,0-.04.02-.07.04-.11.06Zm-.16.1s.02-.01.02-.02c0,0,0,0,.01,0,0,0-.01.01-.02.02,0,0-.01,0-.02.01Zm-.28.24c.08-.07.15-.14.24-.2,0,0,.01,0,.02-.01-.09.07-.17.14-.25.22Zm-.24.21s.01-.01.02-.02c0,0,.01,0,.01-.01,0,0,0,0,0,0,0,0-.02.02-.03.03Zm-.61.68c.15-.18.31-.36.47-.53,0,0,.02-.02.03-.03-.18.18-.34.37-.5.56Zm-3.95,7.34s0-.06,0-.1c0,0,0,0,0-.01,0,.04,0,.07,0,.11Zm5.05-7.79s.05-.06.08-.09c-.02.02-.04.05-.06.07,0,0-.02.02-.02.03Zm-1.87,2.35c.21-.28.41-.58.63-.85,0-.01.02-.02.03-.03-.23.29-.44.59-.66.88Zm.58.45c.11-.14.22-.28.34-.42,0,0,0-.01.01-.02-.12.14-.23.29-.35.44Zm-.11,1.08c.19-.22.38-.46.58-.68,0,0,.01-.01.02-.02-.21.23-.4.47-.6.7Zm2.84-1.53c.11-.16.2-.32.3-.48-.1.15-.19.31-.29.46,0,0-.01.01-.02.02Zm1.11.68s.05-.04.08-.05c.01,0,.03-.02.04-.03,0,0,.01,0,.02-.01-.05.03-.09.06-.13.09Zm-3.6,3.27s.07-.06.1-.1c-.02.02-.05.05-.07.07,0,0,0,0,0,0,0,0-.02.01-.02.02Zm2.58-1.73c.15-.14.3-.28.46-.43-.14.13-.29.27-.43.41,0,0-.02.01-.02.02Zm.9.32c.07-.09.13-.18.2-.27-.06.08-.12.17-.18.24,0,0-.01.02-.02.03Zm-.51.56c.06-.06.12-.13.18-.19-.06.06-.11.12-.17.18,0,0,0,0-.01.01Zm-1.65,2.45s.03-.03.05-.05c-.01.01-.02.02-.03.03,0,0-.01,0-.02.02Zm2.6.64s.02-.01.03-.02c0,0,0,0,0,0,0,0-.02,0-.02.02Zm.16,3.78s.03-.03.05-.04c-.01,0-.02.02-.03.03,0,0-.01.01-.02.02Zm-1.18,2.12c.2-.18.4-.37.6-.55-.2.18-.39.36-.58.54,0,0,0,0-.01.01Zm.53,1.47s.04-.03.07-.04c-.02,0-.03.02-.04.03,0,0-.02,0-.02.01Zm-3.08,11.26s.07-.06.1-.09c-.03.02-.05.05-.08.07,0,0-.02.01-.03.02Zm4.22,7.26s.05-.02.07-.03c0,0-.01,0-.02,0-.02,0-.03.01-.05.02Zm-.71.32s.06-.03.08-.04c-.01,0-.02.01-.04.02-.02,0-.03.01-.05.02Zm1.4,1.63s.03,0,.04-.01c0,0,0,0,0,0,.02,0,.03,0,.05-.01-.03,0-.06.02-.1.03Zm-1.22.5s.06-.03.09-.05c-.02,0-.03.02-.05.03-.01,0-.03.01-.04.02Zm-.65.37s.02-.01.03-.02c.01,0,.02-.01.03-.02-.02.01-.04.03-.06.04Zm1.49,5.67s.06-.01.09-.02c-.01,0-.03,0-.04,0-.02,0-.03,0-.05,0Zm-.2.05s.01,0,.02,0c.01,0,.02,0,.04,0,.01,0,.02,0,.03,0-.03,0-.05.01-.08.02Zm-.45.11s.06-.02.09-.03c-.02,0-.03.01-.05.02-.01,0-.02,0-.04.01Zm-.66.26s.07-.04.11-.05c-.03.01-.05.03-.08.04-.01,0-.02,0-.03.01Zm-.57.3s.03-.03.05-.04c.01,0,.02-.01.04-.02,0,0-.02.01-.02.02-.02.01-.04.03-.07.04Zm.05,2.39s.06-.01.09-.02c-.01,0-.03,0-.04,0-.02,0-.03,0-.05,0Zm-.17.05s.01,0,.01,0c.01,0,.02,0,.03,0,.01,0,.02,0,.03,0-.02,0-.05.01-.07.02Zm-.4.11s.05-.02.08-.03c-.02,0-.03.01-.05.02-.01,0-.02,0-.03.01Zm-.58.26s.07-.04.11-.06c-.03.01-.05.03-.08.05,0,0-.02,0-.03.01Zm-.49.3s.04-.03.06-.05c0,0,.02-.01.03-.02-.01,0-.02.02-.04.03-.02.01-.03.02-.05.04Zm2.34,1.36s.05-.02.07-.03c-.01,0-.03.01-.04.02-.01,0-.02,0-.03.01Zm-.16.08s0,0,0,0c.02,0,.03-.02.05-.03,0,0,.01,0,.02,0-.03.01-.05.03-.08.04Zm-.3.16s.02-.01.02-.02c0,0,.02,0,.03-.01,0,0-.01,0-.02.01-.01,0-.02.01-.03.02Zm-.28.2s.09-.07.14-.1c0,0,0,0,0,0,.01,0,.02,0,.03-.02-.06.04-.11.08-.17.12Zm-.59.43s0,0,0,0c0,0,0,0,0,0,0,0-.01,0-.02.01Zm1.96,5.23c.07-.05.13-.1.2-.15.01-.01.03-.02.05-.03-.08.06-.16.12-.24.18Zm-3.45,6.24s.02-.04.03-.06c0,0,0,0,0,0-.01.02-.02.05-.03.07Zm3.8-2.7s.03-.03.05-.04c0,0,0,0-.02.01-.01,0-.02.02-.03.03Zm-.26,2.83s.02,0,.03-.01c0,0,0,0,0,0,0,0-.02,0-.02.01Zm-.3.2c.08-.05.15-.11.23-.15,0,0,.01,0,.02,0-.09.04-.17.11-.26.16Zm-.47.33s.03-.04.05-.05c0,0,.01,0,.02-.01-.01,0-.02.02-.03.03-.01,0-.02.02-.03.03Zm-.23.26s.02-.02.02-.03c0,0,0,0,0,0,0,.01-.02.02-.03.03Zm-.31.36s.01-.01.02-.02c0,0,0,0,0,0,0,0,0,.01-.01.02Zm-.58,1.16s.02-.05.03-.07c0,0,0,0,0,.01,0,.02-.02.04-.02.06Zm-.23.64c.02-.07.04-.15.07-.22-.02.07-.04.14-.06.21,0,0,0,.01,0,.02Zm4.65.39s.03,0,.05,0c0,0-.01,0-.02,0-.01,0-.02,0-.03,0Zm-.41.09c.1-.02.19-.05.29-.06,0,0,.02,0,.03,0-.11.02-.21.04-.32.07Zm-.42.1s.03-.01.05-.02c0,0,0,0,0,0-.02,0-.03.01-.05.02Zm-.75.34s.02-.01.04-.02c0,0,0,0-.01,0,0,0-.02,0-.03.01Zm2.27,2.37c.09.04.19.07.27.11,0,0,.02,0,.03.01-.1-.05-.2-.08-.3-.13Zm-.65-.24s.1.02.15.03c0,0,.01,0,.02,0-.04-.01-.09-.02-.14-.03,0,0-.02,0-.03,0Zm-.54-.09s.03,0,.05,0c0,0-.02,0-.03,0,0,0-.02,0-.02,0Zm-.34-.02s.04,0,.05,0c-.01,0-.02,0-.04,0,0,0-.01,0-.02,0Zm-1.18.24s.06-.03.08-.04c0,0-.02,0-.02.01-.02,0-.04.02-.06.02Zm-.33.17s.07-.05.11-.07c-.03.02-.06.04-.1.06,0,0-.01,0-.02,0Zm-1,1.02s0-.02.02-.04c0,0,.01-.02.02-.02,0,0,0,.01,0,.02,0,.01-.02.03-.02.04Zm5.11,2.02s0,0,.01,0c0,0,0,0,.01,0,0,0-.01,0-.02-.01Zm-14.03,8.14s0,.04,0,.06c0,0,0-.01,0-.02,0-.01,0-.03,0-.05Zm-2.51-1.69s0,.02,0,.03c0,.01,0,.02-.01.04,0-.02.01-.04.02-.07Zm.06-.18s-.02.05-.03.08c0,0,0,0,0-.01,0-.02.01-.04.02-.07Zm.14-.39s0,.02-.01.03c0,.01-.01.03-.02.04,0-.02.02-.05.03-.07Zm.31-.57s-.01.02-.02.03c-.02.03-.04.05-.05.07.02-.04.05-.07.07-.11Zm.34-.47s-.03.03-.04.05c-.01.01-.02.02-.03.04,0-.01.01-.02.02-.03.02-.02.04-.04.05-.06Zm-4.72-2.91c0,.06,0,.11,0,.17,0,0,0-.01,0-.02,0-.05,0-.1,0-.15Zm.02-.25s0,0,0,0c0,.05-.01.09-.02.14,0-.05.01-.1.02-.15Zm.31-.74s-.02.02-.03.03c0,0-.02.01-.02.02,0,0,.01-.02.02-.03,0-.01.02-.01.03-.02Zm-2.7-.34l.04.02s0,0,.01,0c-.02,0-.04-.01-.06-.02Zm-.05-.03s0,0,0,0c0,0,0,0-.01,0,0,0,0,0,.01,0,0,0,0,0,0,0,0,0,0,0,0,0Zm0,0s0,0,0,0h0s0,0,0,0Zm.92-.45s0,0,0,0c-.02,0-.04.02-.06.03.01,0,.02-.01.03-.02.01,0,.03,0,.04-.01Zm1.08-.39s-.01,0-.02,0c0,0,0,0,0,0,0,0,0,0,.01,0Zm2.42-2s0,0,0,0c-.07,0-.14,0-.2.01.07,0,.14,0,.21-.01Zm1.21-.05s-.06,0-.09,0c-.06,0-.13,0-.19,0,.1,0,.19,0,.29,0Zm-7.69-1.31s-.02.01-.04.02c0,0,0,0,0,0,.01,0,.03-.01.04-.02Zm.54-.21s-.02,0-.03,0c-.01,0-.02,0-.03,0,.02,0,.04-.01.06-.02Zm4.51-.65s-.02,0-.02,0c-.05,0-.1,0-.14,0,.06,0,.11,0,.17,0Zm-7.13-3.7s-.02.01-.03.02c-.02,0-.03.01-.05.02.03-.01.05-.03.08-.04Zm.16-.07s-.06.03-.09.04c0,0,.01,0,.02-.01.02,0,.03-.01.05-.02,0,0,0,0,.01,0Zm.32-.14s-.03.01-.04.02c0,0-.02,0-.02,0,.01,0,.02,0,.03-.01.01,0,.02,0,.03,0Zm.4-.09c-.09.02-.19.04-.28.07.01,0,.02,0,.04-.01.03,0,.06-.01.09-.02.05-.01.1-.02.15-.03Zm.66-.16s-.01,0-.02,0c0,0,0,0,0,0,0,0,0,0,.01,0Zm10.17-2.98l.03.09c-.34-.27-.72-.55-1.17-.81.43.25.8.49,1.14.72Zm2.13-52.16s0,.03,0,.04c-.01-.06-.03-.13-.05-.2,0,0,0-.01,0-.02.02.06.04.12.05.17Zm.09,1.11s0,0,0,0v-.03s0,.02,0,.03Zm.23.73c0,.07,0,.13.01.16l-.18-.65s0-.02,0-.02c.03.08.05.15.07.2.04.17.06.27.06.27h.02s0,0,0,0c0,.02,0,.02,0,.04Zm.04.28l-.02-.07h.02s0,.05,0,.07Zm.63,1.15c-.03.06-.05.12-.08.19.02-.06.05-.12.07-.18,0,0,0,0,0,0Zm5.05-5.98c.07-.08.13-.17.2-.26,0,0,0,0,0,0-.06.08-.12.16-.18.24,0,0-.01.01-.02.02Zm-.01-.15c-.13.1-.26.2-.38.3.12-.1.24-.19.36-.29,0,0,.01-.01.02-.02Zm-4.91,6.1c-.13.24-.21.43-.28.59l-.02-.07c.24-.5.77-1.55,1.75-2.88.67-.93,1.74-2.19,2.76-3.09.23-.21.45-.4.67-.56,0,0,0,0,0,0-.98,1.16-2.29,2.48-3.12,3.48-.84.99-1.42,1.89-1.76,2.55Zm-.24.64s0-.02.01-.02c.04-.07.09-.16.14-.24-.05.09-.11.18-.15.28,0,0,0,0,0-.01Zm.02.16l-.03-.11c.06-.1.13-.2.22-.34-.07.16-.13.31-.19.45Zm.21.78h0s0,0,0-.01c.02-.03.03-.07.05-.1,0,0,0,0,0-.01-.02.04-.04.08-.06.12Zm-.12,6.63v-.13c.07-.14.13-.28.21-.43-.08.2-.15.38-.21.56Zm-.39,4.98l.04-.55c.37-.55.9-1.21,1.55-1.97-.75.92-1.26,1.8-1.59,2.52Zm-.96,9.78l.06-.28c.38-.58.9-1.24,1.52-1.97-.39.48-.74.95-1.04,1.38-.2.3-.37.59-.54.87Zm-1.28,7.3c-.1.16-.18.3-.27.46l.02-.1c.08-.12.16-.23.25-.35Zm.78,16.32l-.12-.22c.08-.54.2-1.12.38-1.77-.15.71-.23,1.38-.26,1.99Z"/>
      <path class="cls-2" d="m3.83,103.85s.05-.03.12-.07c-.04.02-.08.04-.12.07Z"/>
    </g>
    <path class="cls-1" d="m97.46,14.36l-.04.15.15.04,2.45.72.16.05.05-.16.63-2.08,2.76.89h0s-7.53,14.34-7.53,14.34c-.83-.25-1.66-.48-2.51-.7l1.5-16.07h0s2.91.67,2.91.67l-.53,2.15Zm-63.69-5.3l-.72-5.39,2.9-.56.53,2.72.02.16.16-.02,2.17-.42.15-.02v-.15s-.21-2.82-.21-2.82l1.69-.32.37-.07,1.69-.32.87,2.68.05.14.15-.02,2.16-.42.16-.04-.02-.16-.53-2.73,2.9-.56,1.35,5.25-1.14,1.76-.04.06.02.07,5.05,16.82-.7.14c-2.68.31-5.32.72-7.94,1.23-2.61.51-5.18,1.1-7.71,1.79l-1.63-17.45v-.09l-.06-.04-1.71-1.2Zm11.16-.1l.81,4.17,2.2-.42-.81-4.18-2.2.43Zm-4.15,17.45l4.41-.86.36-.07,4.41-.86s-.73-3.15-2.69-6.71c-1.69-3.05-3.04-3.64-3.88-3.65-.1,0-.29.02-.37.07-.78.32-1.81,1.38-2.23,4.84-.48,4.03.01,7.24.01,7.24Zm-3.4-15.99l.81,4.17,2.21-.42-.82-4.18-2.2.43Zm67.18,2.35l-.77-1.95,2.32-4.89,2.74,1.1-1.04,2.57-.06.16.16.06,2.05.82.14.06.06-.14,1.38-2.46,1.59.65.07.02-8.96,22.22c-2.56-.97-5.16-1.84-7.82-2.61l8.13-15.49.04-.06-.02-.07Zm-.91,10.21c-2.61,3.12-3.93,6.07-3.93,6.07l4.16,1.69.22.09,4.29-10.61c-.09-.04-.17-.07-.24-.07-.83-.16-2.27.16-4.51,2.84Zm1.92-9.2l-1.6,3.95,2.09.84,1.59-3.95-2.07-.84Zm-30.36-5.45l-2.95-.11,1.61,16.14c.89.06,1.79.14,2.68.22l4.69-15.55-3.05-.38-.23,2.17-.02.16-.16-.02-2.54-.25-.16-.02v-.16s.13-2.21.13-2.21Zm-16.63-1.67l-1.45-1.51.34-5.41h2.95v2.94h1.15v-1.07h1.49l.24-1.87h3.81l.24,1.87h1.49v1.07h1.17V-.26h2.95l.32,5.41-1.45,1.51-.05.06v.07s1.75,17.46,1.75,17.46h-1.18c-2.17-.14-4.36-.2-6.55-.2h-.04c-2.2,0-4.38.06-6.54.2h-2.33l1.75-17.46v-.07l-.05-.06Zm11.29,16.85s-.12-3.25-1.37-7.11c-1.08-3.33-2.28-4.16-3.12-4.32-.1-.04-.29-.04-.37,0-.83.16-2.05.99-3.12,4.32-1.25,3.86-1.38,7.11-1.38,7.11h9.35Zm-1.17-16.36c-.14.55-.41,1.03-.78,1.43v2.83h2.25v-4.26h-1.46Zm-5.9-4.31v3.41c0,1.27,1.08,2.3,2.4,2.3s2.38-1.03,2.38-2.3v-3.41h-4.78Zm-2.57,8.56h2.25v-2.82c-.37-.4-.65-.89-.79-1.44h-1.45v4.26Zm-6.39,13.29c.89-.1,1.79-.19,2.68-.25v-.05l1.63-16.19-3.06.12.13,2.21v.16s-.15.02-.15.02l-2.54.25-.16.02-.02-.16-.23-2.17-2.98.37,4.71,15.68Zm28.05-16.94l-1.13-1.76,1.35-5.25,2.9.56-.53,2.73-.02.16.16.04,2.16.42.15.02.05-.14.88-2.68,1.68.32.37.07,1.69.34-.2,2.82v.14s.14.04.14.04l2.16.42.17.02.02-.16.53-2.73,2.9.57-.72,5.39-1.71,1.2-.06.04v.07s-1.6,17.12-1.6,17.12c-2.16-.57-4.33-1.07-6.54-1.49-3.23-.62-6.49-1.1-9.82-1.43l5.04-16.72.02-.07-.05-.06Zm8.09,6.44l2.2.43.82-4.18-2.21-.42-.81,4.17Zm-7.55-1.46l2.2.42.82-4.17-2.2-.43-.82,4.18Zm-2.04,11.92l4.41.86.37.07,4.39.86s.51-3.2.02-7.24c-.42-3.46-1.45-4.52-2.23-4.84-.09-.05-.27-.07-.36-.06-.86,0-2.2.58-3.88,3.64-1.97,3.55-2.72,6.71-2.72,6.71Zm-14.62,4.05c-6.84,0-13.54.66-20.01,1.91-6.59,1.28-12.96,3.16-19.04,5.61l.96,2.31c5.93-2.38,12.14-4.23,18.57-5.47,6.32-1.22,12.85-1.86,19.52-1.86s13.21.65,19.52,1.86c6.43,1.24,12.65,3.09,18.58,5.47l.94-2.31c-6.08-2.45-12.45-4.33-19.04-5.61-6.47-1.25-13.16-1.91-20.01-1.91Zm-31.35-.1c.78-.24,1.58-.46,2.38-.67l-1.51-16.42-2.99.69.54,2.15.04.15-.15.04-2.45.72-.16.05-.05-.16-.63-2.08-2.72.88h0s7.7,14.65,7.7,14.65Zm-8.12,2.79l-9.06-22.44.07-.02,1.59-.65,1.38,2.46.07.14.14-.06,2.04-.82.16-.06-.06-.16-1.04-2.57,2.74-1.12,2.33,4.9-.78,1.95-.02.07.04.06.5.96h0s.01.02.01.02l7.65,14.57-.98.4c-2.3.71-4.54,1.5-6.76,2.37Zm-3.51-16.59l1.6,3.95,2.07-.84-1.59-3.95-2.09.84Zm-.74,5.59l4.29,10.61.22-.09,4.16-1.69s-1.33-2.95-3.92-6.07c-2.25-2.68-3.67-3-4.52-2.84-.06,0-.15.04-.24.07Zm82.04,10.9c-1.61-.6-3.24-1.15-4.88-1.69-.01,0-.02,0-.04-.01-1.08-.35-2.16-.67-3.25-.98-.79-.24-1.6-.45-2.41-.66-.1-.04-.21-.06-.32-.09-2.16-.56-4.36-1.05-6.57-1.48-2.31-.45-4.65-.83-7.01-1.13-1.05-.14-2.11-.25-3.18-.35-1.3-.14-2.61-.24-3.92-.31-2.23-.14-4.48-.21-6.74-.21h-.04c-2.26,0-4.51.07-6.73.21-2.02.11-4.03.3-6.03.53-2.72.31-5.41.73-8.07,1.24-2.67.52-5.3,1.13-7.89,1.85-.06.01-.12.02-.17.04-1.24.34-2.47.71-3.69,1.09-2.16.67-4.29,1.4-6.39,2.22-.09.02-.17.06-.26.1-.02,0-.05.01-.07.02-.1.04-.2.07-.3.12-.35.12-.7.26-1.04.4l1.14,2.78c6.16-2.48,12.6-4.39,19.26-5.68,6.55-1.27,13.32-1.94,20.24-1.94h.04c6.94,0,13.71.67,20.27,1.94,6.68,1.29,13.12,3.2,19.29,5.68l1.13-2.78c-.68-.27-1.38-.55-2.06-.81-.11-.04-.21-.07-.31-.12ZM67.27,6.71c-.16-.16-.37-1.02-.66-1.92-.29-.89-1.47-1.58-2.47-1.39-1,.18-.92.63-.74.82.18.18.6.52.6.52,0,0-.37.21-.6.6-.24.39-.29,1.39.84,1.1,1.13-.29,1.58.03,2.16.26.58.24.87,0,.87,0"/>
    <path class="cls-1" d="m33.04,38.05h66.29v-2.49c-22.12-7.81-44.22-7.76-66.29-.18v2.67Z"/>
  </g>
</svg>