<?xml version="1.0" encoding="UTF-8"?>
<svg id="Camada_2" data-name="Camada 2" xmlns="http://www.w3.org/2000/svg" viewBox="0 0 96.94 96.94">
  <defs>
    <style>
      .cls-1 {
        fill: #fff;
        stroke-width: 0px;
      }
    </style>
  </defs>
  <g id="Camada_1-2" data-name="Camada 1">
    <path class="cls-1" d="M59.56,83.95c-5.13-5.09-10.22-10.22-15.36-15.31-.72-.71-1.02-1.44-1.02-2.45.04-6.09.02-12.17.02-18.26v-1.71c-2.85,2.84-5.41,5.4-7.99,7.96-.45.44-.45.97-.45,1.52,0,2.37-.03,4.74.02,7.1.02.98-.33,1.38-1.31,1.36-2.11-.03-4.23-.02-6.34,0-.76,0-1.36-.16-1.33-1.1.07-2.95-.22-5.92.17-8.86.34-2.55,1.41-4.77,3.23-6.6,4.42-4.43,8.85-8.84,13.26-13.28.58-.58,1.18-.88,2.01-.87,2.03.03,4.06.06,6.09,0,1.17-.04,1.51.41,1.51,1.56-.04,9.09,0,18.18-.04,27.27,0,1.1.31,1.89,1.1,2.67,4.19,4.12,8.31,8.31,12.49,12.44,2.61,2.58,3.87,5.68,3.87,9.33,0,1.82,0,3.65,0,5.47,16.26-7.82,27.49-24.45,27.49-43.71C96.94,21.7,75.24,0,48.47,0S0,21.7,0,48.47c0,17.59,9.37,33,23.4,41.49,3.53-3.51,7.05-7.03,10.57-10.55,2.51-2.51,5.02-5.02,7.53-7.52.29-.29.55-.65,1.08-.71.2.15.45.3.66.51,1.63,1.65,3.25,3.32,4.9,4.96.53.53.42.9-.05,1.37-5.36,5.35-10.71,10.7-16.07,16.06,5.14,1.86,10.68,2.87,16.46,2.87,4.14,0,8.16-.52,12-1.5,0-3.09,0-6.18.02-9.26,0-.92-.28-1.58-.93-2.22ZM77.39,57.76c-1.61,1.56-3.19,3.14-4.75,4.75-.62.64-1.06.6-1.67-.02-3.99-4.02-11.16-11.18-15.17-15.17-.48-.48-.72-1-.72-1.68.01-3.38,0-6.76,0-10.14,0-.35-.1-.76.38-1.03.2.17.41.31.58.48,6.07,6.06,15.29,15.29,21.37,21.35.56.55.52.94-.02,1.46ZM49.65,4.99c6.1.01,11.11,5.02,11.09,11.08-.02,6.17-5,11.18-11.12,11.19-6.1,0-11.21-5.1-11.16-11.16.05-6.16,5.04-11.12,11.19-11.11Z"/>
  </g>
</svg>