<svg width="611" height="231" viewBox="0 0 611 231" fill="none" xmlns="http://www.w3.org/2000/svg">
<path d="M198.75 230.395L201.751 209.279H202.095L210.679 226.606L219.177 209.279H219.522L222.551 230.395H220.469L218.402 215.294L210.938 230.395H210.407L202.841 215.179L200.789 230.395H198.75Z" fill="#606060"/>
<path d="M235.355 209.279L245.203 230.395H242.935L239.619 223.448H230.518L227.216 230.395H224.862L234.839 209.279H235.355ZM235.097 213.758L231.465 221.409H238.686L235.097 213.758Z" fill="#606060"/>
<path d="M268.156 213.198L266.491 214.476C265.572 213.279 264.467 212.375 263.175 211.763C261.893 211.141 260.481 210.83 258.94 210.83C257.256 210.83 255.696 211.236 254.261 212.05C252.825 212.854 251.71 213.94 250.916 215.308C250.131 216.667 249.739 218.198 249.739 219.902C249.739 222.476 250.619 224.625 252.38 226.347C254.151 228.07 256.38 228.931 259.07 228.931C262.027 228.931 264.501 227.773 266.491 225.457L268.156 226.72C267.104 228.06 265.788 229.099 264.209 229.835C262.639 230.563 260.883 230.926 258.94 230.926C255.246 230.926 252.332 229.697 250.198 227.237C248.409 225.161 247.514 222.653 247.514 219.715C247.514 216.624 248.595 214.026 250.758 211.921C252.93 209.806 255.648 208.748 258.912 208.748C260.883 208.748 262.663 209.141 264.252 209.925C265.84 210.7 267.142 211.791 268.156 213.198Z" fill="#606060"/>
<path d="M272.42 209.279H284.521V211.361H274.53V217.964H284.435V220.031H274.53V228.314H284.435V230.395H272.42V209.279Z" fill="#606060"/>
<path d="M287.865 209.279H289.976V230.395H287.865V209.279Z" fill="#606060"/>
<path d="M304.89 208.748C308.087 208.748 310.762 209.815 312.915 211.949C315.068 214.083 316.145 216.71 316.145 219.83C316.145 222.921 315.068 225.543 312.915 227.697C310.771 229.85 308.154 230.926 305.063 230.926C301.933 230.926 299.292 229.855 297.139 227.711C294.986 225.567 293.909 222.974 293.909 219.931C293.909 217.902 294.397 216.021 295.373 214.289C296.359 212.557 297.699 211.203 299.392 210.227C301.086 209.241 302.919 208.748 304.89 208.748ZM304.991 210.815C303.431 210.815 301.952 211.222 300.555 212.035C299.158 212.849 298.067 213.945 297.282 215.323C296.498 216.701 296.105 218.237 296.105 219.931C296.105 222.438 296.971 224.558 298.703 226.29C300.445 228.012 302.541 228.874 304.991 228.874C306.627 228.874 308.139 228.477 309.527 227.682C310.924 226.888 312.01 225.802 312.786 224.424C313.57 223.046 313.963 221.514 313.963 219.83C313.963 218.155 313.57 216.643 312.786 215.294C312.01 213.935 310.915 212.849 309.498 212.035C308.082 211.222 306.579 210.815 304.991 210.815ZM306.01 203.193H309.096L304.862 207.614H302.881L306.01 203.193Z" fill="#606060"/>
<path d="M318.743 221.581H326.638V223.333H318.743V221.581Z" fill="#606060"/>
<path d="M338.768 209.279L348.615 230.395H346.347L343.031 223.448H333.93L330.629 230.395H328.274L338.251 209.279H338.768ZM338.509 213.758L334.878 221.409H342.098L338.509 213.758Z" fill="#606060"/>
<path d="M351.903 209.279H354.027V228.357H362.138V230.395H351.903V209.279Z" fill="#606060"/>
<path d="M253.3 0C232.1 0 216.1 16.4 216.1 37.9C216.1 50.8 221.8 61.8 230.9 68.5V24.1H252.8V75.7C253 75.7 253.1 75.7 253.3 75.7C254.3 75.7 255.3 75.6 256.4 75.6V32.1H278.3V66.4C286 59.6 290.7 49.5 290.7 37.8C290.6 16.6 274.6 0 253.3 0Z" fill="#173F73"/>
<path d="M342.8 49C342.4 48.1 342.2 47.1 342.2 46C342.2 45.5 342.3 44.9 342.4 44.4C341.9 45.2 341.2 45.9 340.4 46.5C340.3 48.1 340.3 49.8 340.3 51.4C341 50.4 341.9 49.7 342.8 49Z" fill="#93C01F"/>
<path d="M344 51C343.9 50.8 343.7 50.7 343.6 50.5C343.2 50.9 342.8 51.2 342.4 51.6C342.9 51.4 343.5 51.2 344 51Z" fill="#93C01F"/>
<path d="M377.3 37.9C377.3 16.6 361.3 0 340.1 0C318.9 0 302.9 16.4 302.9 37.9C302.9 58.5 317.3 74.1 336.9 75.6C337.2 74.1 337.1 72.5 337.2 71.1C337.3 69.1 337.5 67.1 337.6 65.1C337.7 62.6 338.1 59.7 337.6 57.2C337.2 55.5 335.9 54.1 334.4 53.5C333.7 53.2 332.3 52.4 331 51.6C329.8 53 328.1 53.9 326.1 53.9C322.6 53.9 319.7 51 319.7 47.5C319.7 45.7 320.4 44.1 321.6 43C321.1 41.8 320.8 40.4 320.8 39.1C320.8 38.4 320.9 37.7 321 37C320 35.6 319.6 33.8 319.8 31.9C320.3 27.5 324.2 24.9 327.5 25.5C327.5 25.5 327.6 22.4 331.6 21.2C332.6 20.9 334.8 20.7 335.9 21.2C335.9 21.2 338.3 16.7 344.6 17.9C353.2 19.5 351.6 27.8 351.6 27.8C351.6 27.8 357.3 26 359.9 31.4C361.8 35.3 359.5 38.9 357.5 39.7C357.2 39.8 356.9 39.9 356.7 40C356.7 40.1 356.8 40.3 356.8 40.4C358.7 41.9 360 44.2 360 46.8C360 51.4 356.1 55.2 351.2 55.2C349 55.2 347 54.4 345.4 53.1C344.9 53.3 344.4 53.4 343.9 53.6C342.3 54.3 341.7 55.2 341.2 56.9C340.8 58.3 340.7 59.8 340.7 61.3C340.7 64 340.9 66.7 341.1 69.5C341.2 71 341.3 72.4 341.4 73.9C341.4 74.5 341.4 75.1 341.5 75.7C361.9 75 377.3 58.9 377.3 37.9Z" fill="#93C01F"/>
<path d="M331.8 49.2C331.8 49.3 331.7 49.4 331.6 49.5C333.6 50.5 335.7 51.3 337.6 52.2C337.7 50.8 337.8 49.4 337.8 48.1C336.9 48.5 335.9 48.8 335 49C334 49.2 332.9 49.3 331.8 49.2Z" fill="#93C01F"/>
<path d="M151.6 58.3V71.6C156.2 73.5 161.1 74.5 166.6 74.5C173.6 74.5 179.9 72.9 185.5 69.7C190.5 66.8 194.5 62.9 197.5 58.1C196.7 58.2 196 58.3 195.1 58.3H151.6Z" fill="#F4BB49"/>
<path d="M135.8 58.3C137.9 61.6 140.4 64.4 143.4 66.8V58.3H135.8Z" fill="#F4BB49"/>
<path d="M194.6 48.6C196 48.6 197.3 48.5 198.4 48.3C200.8 47.8 202.5 45.8 202.9 43.3C203.1 41.5 203.3 39.7 203.3 37.8C203.3 30.9 201.7 24.6 198.6 19.1C195.5 13.5 191.1 9.2 185.5 6C179.9 2.9 173.6 1.3 166.6 1.3C162.8 1.3 159.2 1.8 155.9 2.7C153.4 3.4 151.7 5.7 151.7 8.3V39.9C151.7 44.7 155.6 48.6 160.4 48.6H194.6Z" fill="#F4BB49"/>
<path d="M143.4 8.90001C139.9 11.7 136.9 15 134.7 19.1C131.6 24.7 130 30.9 130 37.8C130 41.6 130.5 45.2 131.4 48.6H140.9C142.2 48.6 143.3 47.5 143.3 46.2V8.90001H143.4Z" fill="#F4BB49"/>
<path d="M4.1 167.2H0V98H50.1C52.5 98 54.9 98.5 57 99.4C59.2 100.3 61.1 101.6 62.7 103.3C64.3 104.9 65.6 106.9 66.6 109C67.5 111.2 68 113.5 68 116C68 118.5 67.5 120.8 66.6 123C65.7 125.2 64.4 127.1 62.7 128.7C61.1 130.3 59.1 131.6 57 132.6C54.8 133.6 52.5 134 50.1 134H4.1V167.2ZM4.1 102.1V130H50.1V130.1C52 130.1 53.8 129.7 55.5 129C57.2 128.3 58.7 127.3 59.9 126C61.2 124.7 62.1 123.3 62.9 121.6C63.6 119.9 64 118.1 64 116.2C64 114.2 63.6 112.4 62.9 110.7C62.2 109 61.2 107.5 59.9 106.3C58.6 105 57.2 104 55.5 103.3C53.8 102.6 52 102.2 50.1 102.2H4.1V102.1Z" fill="#808080"/>
<path d="M76.8 98.1H80.9V167.3H76.8V98.1Z" fill="#808080"/>
<path d="M136.2 116.2H140.3V167.3H136.2L136.1 155.6C133.8 159.2 130.8 162 127.2 164.1C123.5 166.2 119.5 167.3 115 167.3C111.5 167.3 108.2 166.6 105.1 165.3C102 164 99.3 162.2 97.1 159.9C94.8 157.6 93 154.9 91.7 151.8C90.4 148.7 89.7 145.4 89.7 141.9C89.7 138.4 90.4 135.1 91.7 132.1C93 129 94.8 126.4 97.1 124C99.4 121.7 102.1 119.9 105.2 118.6C108.3 117.3 111.6 116.6 115.1 116.6C119.6 116.6 123.6 117.7 127.3 119.8C131 121.9 133.9 124.7 136.2 128.3V116.2ZM136.2 142.4V141.2C136.1 138.4 135.5 135.7 134.4 133.2C133.3 130.7 131.7 128.5 129.8 126.6C127.9 124.7 125.7 123.2 123.1 122.2C120.6 121.1 117.9 120.6 115.1 120.6C112.1 120.6 109.4 121.2 106.8 122.3C104.2 123.4 102 124.9 100 126.9C98.1 128.8 96.5 131.1 95.4 133.7C94.3 136.3 93.7 139 93.7 141.9C93.7 144.9 94.3 147.6 95.4 150.2C96.5 152.8 98 155.1 100 157C102 158.9 104.2 160.5 106.8 161.6C109.4 162.7 112.1 163.3 115.1 163.3C117.9 163.3 120.6 162.8 123.1 161.7C125.6 160.6 127.9 159.1 129.8 157.3C131.7 155.4 133.2 153.2 134.4 150.7C135.5 148 136.1 145.3 136.2 142.4Z" fill="#808080"/>
<path d="M199.9 142.4V167.2H195.8V141.8C195.8 138.9 195.2 136.2 194.1 133.6C193 131 191.4 128.8 189.5 126.8C187.6 124.9 185.3 123.3 182.7 122.2C180.1 121.1 177.4 120.5 174.4 120.5C171.4 120.5 168.6 121.1 166 122.2C163.4 123.4 161.1 124.9 159.2 126.9C157.3 128.9 155.8 131.2 154.7 133.9C153.6 136.5 153.2 139.3 153.2 142.3V167.1H149.1V116H153.2V128.1C155.4 124.5 158.4 121.7 162.1 119.6C165.8 117.5 169.9 116.4 174.5 116.4C178.1 116.4 181.4 117.1 184.5 118.5C187.6 119.9 190.3 121.7 192.6 124.1C194.9 126.4 196.7 129.2 198 132.3C199.3 135.5 199.9 138.9 199.9 142.4Z" fill="#808080"/>
<path d="M233.9 116.5C237.4 116.5 240.7 117.2 243.8 118.5C246.9 119.8 249.6 121.6 251.9 123.9C254.2 126.2 256 128.9 257.3 132C258.6 135.1 259.3 138.3 259.3 141.8C259.3 145.4 258.6 148.7 257.3 151.7C256 154.8 254.2 157.4 251.9 159.8C249.6 162.1 246.9 163.9 243.8 165.2C240.7 166.5 237.4 167.2 233.9 167.2C230.4 167.2 227.1 166.5 224.1 165.2C221.1 163.9 218.4 162.1 216.1 159.8C213.8 157.5 212 154.8 210.7 151.7C209.4 148.6 208.7 145.3 208.7 141.8C208.7 138.3 209.4 135 210.7 132C212 128.9 213.8 126.3 216.1 123.9C218.4 121.6 221.1 119.8 224.1 118.5C227.2 117.2 230.4 116.5 233.9 116.5ZM233.9 120.6C231 120.6 228.3 121.2 225.7 122.3C223.1 123.4 220.9 124.9 219 126.9C217.1 128.8 215.6 131.1 214.5 133.7C213.4 136.3 212.8 139 212.8 141.9C212.8 144.9 213.4 147.6 214.5 150.2C215.6 152.8 217.1 155.1 219 157C220.9 158.9 223.1 160.5 225.7 161.6C228.3 162.7 231 163.3 233.9 163.3C236.9 163.3 239.6 162.7 242.2 161.6C244.8 160.5 247 159 249 157C251 155 252.5 152.8 253.5 150.2C254.6 147.6 255.1 144.8 255.1 141.9C255.1 139 254.6 136.3 253.5 133.7C252.4 131.1 250.9 128.9 249 126.9C247.1 125 244.8 123.4 242.2 122.3C239.7 121.2 236.9 120.6 233.9 120.6Z" fill="#808080"/>
<path d="M270.8 97.7H299.3C306.7 97.7 313.2 99.2 318.9 102.1C324.6 105.1 329 109.2 332.1 114.5C335.2 119.8 336.8 125.8 336.8 132.6C336.8 139.4 335.2 145.4 332.1 150.7C329 156 324.6 160.1 318.9 163.1C313.2 166.1 306.7 167.5 299.3 167.5H270.8V97.7ZM298.9 161.3C305 161.3 310.4 160.1 315 157.7C319.6 155.3 323.2 151.9 325.7 147.6C328.2 143.3 329.5 138.4 329.5 132.8C329.5 127.2 328.2 122.3 325.7 118C323.2 113.7 319.6 110.3 315 107.9C310.4 105.5 305 104.3 298.9 104.3H278.2V161.3H298.9Z" fill="#808080"/>
<path d="M360 126.1H352.9V167.7H360V126.1Z" fill="#808080"/>
<path d="M360 116.4H352.9V122.4H360V116.4Z" fill="#808080"/>
<path d="M395 117.4C398.3 115.6 402.4 114.7 407.2 114.7V121.6L405.5 121.5C400 121.5 395.6 123.2 392.5 126.6C389.4 130 387.8 134.8 387.8 140.9V167.7H380.7V115.1H387.5V125.4C389.2 121.8 391.7 119.2 395 117.4Z" fill="#808080"/>
<path d="M466.3 143.6H422.3C422.7 149.1 424.8 153.5 428.6 156.8C432.4 160.2 437.2 161.8 443 161.8C446.3 161.8 449.3 161.2 452 160.1C454.7 159 457.1 157.2 459.1 155L463.1 159.6C460.8 162.4 457.9 164.5 454.4 166C450.9 167.5 447.1 168.2 442.9 168.2C437.5 168.2 432.7 167.1 428.6 164.8C424.4 162.5 421.2 159.3 418.9 155.3C416.6 151.2 415.4 146.6 415.4 141.5C415.4 136.4 416.5 131.8 418.7 127.7C420.9 123.6 424 120.5 427.9 118.2C431.8 115.9 436.2 114.8 441 114.8C445.9 114.8 450.2 115.9 454.1 118.2C458 120.5 461 123.6 463.2 127.6C465.4 131.6 466.5 136.2 466.5 141.4L466.3 143.6ZM428.2 125.6C424.8 128.8 422.8 133 422.4 138.2H459.7C459.2 133 457.3 128.8 453.9 125.6C450.5 122.4 446.2 120.8 441.1 120.8C435.9 120.8 431.7 122.4 428.2 125.6Z" fill="#808080"/>
<path d="M509.5 167.7C508.3 168.8 506.7 169.7 504.9 170.2C503.1 170.8 501.2 171.1 499.2 171.1C494.7 171.1 491.2 169.9 488.7 167.4C486.2 164.9 485 161.5 485 157V127.7H476.3V122.2H485V111.6H491.5V122.2H506.2V127.7H491.5V156.6C491.5 159.5 492.2 161.7 493.7 163.2C495.1 164.7 497.2 165.5 499.9 165.5C501.2 165.5 502.6 165.3 503.8 164.9C505.1 164.5 506.2 163.9 507.1 163.1L509.5 167.7Z" fill="#808080"/>
<path d="M598.8 117.4C602.1 115.6 606.2 114.7 611 114.7V121.6L609.3 121.5C603.8 121.5 599.4 123.2 596.3 126.6C593.2 130 591.6 134.8 591.6 140.9V167.7H584.5V115.1H591.3V125.4C593 121.8 595.5 119.2 598.8 117.4Z" fill="#808080"/>
<path d="M552.8 164.8C549.9 162 547.1 159.1 544.2 156.3C543.8 155.9 543.6 155.5 543.6 154.9C543.6 151.5 543.6 148.1 543.6 144.7C543.6 144.4 543.6 144.2 543.6 143.7C542 145.3 540.6 146.7 539.1 148.1C538.9 148.3 538.8 148.6 538.8 148.9C538.8 150.2 538.8 151.5 538.8 152.9C538.8 153.4 538.6 153.7 538.1 153.7C536.9 153.7 535.7 153.7 534.6 153.7C534.2 153.7 533.8 153.6 533.9 153.1C533.9 151.5 533.8 149.8 534 148.2C534.2 146.8 534.8 145.5 535.8 144.5C538.3 142 540.7 139.6 543.2 137.1C543.5 136.8 543.9 136.6 544.3 136.6C545.4 136.6 546.6 136.6 547.7 136.6C548.4 136.6 548.5 136.8 548.5 137.5C548.5 142.6 548.5 147.6 548.5 152.7C548.5 153.3 548.7 153.8 549.1 154.2C551.4 156.5 553.7 158.8 556.1 161.1C557.6 162.5 558.3 164.3 558.3 166.3C558.3 167.3 558.3 168.3 558.3 169.3C567.4 164.9 573.6 155.7 573.6 145C573.6 130.1 561.5 118 546.6 118C531.7 118 519.6 130.1 519.6 145C519.6 154.8 524.8 163.4 532.6 168.1C534.6 166.1 536.5 164.2 538.5 162.2C539.9 160.8 541.3 159.4 542.7 158C542.9 157.8 543 157.6 543.3 157.6C543.4 157.7 543.6 157.8 543.7 157.9C544.6 158.8 545.5 159.8 546.4 160.7C546.7 161 546.6 161.2 546.4 161.5C543.4 164.5 540.4 167.5 537.5 170.4C540.4 171.4 543.4 172 546.7 172C549 172 551.2 171.7 553.4 171.2C553.4 169.5 553.4 167.8 553.4 166C553.3 165.6 553.1 165.2 552.8 164.8ZM562.7 150.2C561.8 151.1 560.9 151.9 560.1 152.8C559.8 153.2 559.5 153.1 559.2 152.8C557 150.6 553 146.6 550.8 144.4C550.5 144.1 550.4 143.8 550.4 143.5C550.4 141.6 550.4 139.7 550.4 137.9C550.4 137.7 550.3 137.5 550.6 137.3C550.7 137.4 550.8 137.5 550.9 137.6C554.3 141 559.4 146.1 562.8 149.5C563 149.7 563 150 562.7 150.2ZM547.3 120.9C550.7 120.9 553.5 123.7 553.5 127.1C553.5 130.5 550.7 133.3 547.3 133.3C543.9 133.3 541.1 130.5 541.1 127.1C541.1 123.6 543.8 120.8 547.3 120.9Z" fill="#808080"/>
<path d="M395.5 41.9C395.4 41.9 395.3 41.9 395.1 41.9L395.2 42.2L395.5 41.9Z" fill="white"/>
<path d="M389.4 45C389.9 44.4 390.5 43.8 391.2 43.3C391.6 43.1 391.9 42.9 392.3 42.7L389.2 30.6C388.9 32.7 388.7 34.9 388.7 37.1C388.7 39.9 388.9 42.5 389.4 45Z" fill="#EC7329"/>
<path d="M394.7 43C395.3 43 395.9 43 396.4 43.1L398.3 37.9H396.8L396.5 37.4L396.4 37.1L396.3 36.9L402.8 36.8L403 37.3L401.9 37.9H400.1C400.1 38 400.2 38.1 400.2 38.3L399.1 41.3L420.5 21L391.7 22.3C391.2 23.6 390.7 24.9 390.3 26.2L394.7 43Z" fill="#EC7329"/>
<path d="M425.9 0C411.4 0 399.4 7.6 393.2 19.3L422.3 18L422.2 17.5H422.1L421.9 16.7C421.8 16.5 421.9 16.3 422.1 16.2L421.2 13.1H421C420.7 13.2 420.3 12.9 420.3 12.6L420.2 12.2C420.1 11.9 420.4 11.6 420.7 11.5L420.6 11.3C420.6 11.2 420.6 11 420.8 11L422.1 10.6C422.2 10.6 422.4 10.6 422.4 10.8L422.5 11.2L426.1 10.5H426.2C427.8 10.2 429.3 10.6 430.4 11.7C431.4 12.7 432 14.2 431.8 15.4C431.4 18.3 428.8 19.3 427.5 19.4C427.5 19.4 427.5 19.4 427.4 19.4C427.1 19.4 426.8 19.1 426.8 18.8C426.8 18.4 427 18.1 427.4 18.1C427.5 18.1 430.2 17.8 430.6 15.2C430.7 14.3 430.3 13.3 429.6 12.6C429.1 12.1 428.3 11.7 427.1 11.7C427 11.9 426.8 12.1 426.6 12.1L423.2 12.8L424.1 15.7C424.3 15.7 424.5 15.9 424.6 16.1L424.9 16.9C424.9 17 424.9 17.1 424.8 17.1L426.9 25.1C427.1 25.1 427.2 25.2 427.3 25.4L427.8 27.5C429.7 26.9 431.8 26.6 433.9 26.6C446 26.6 455.7 36.4 455.7 48.4C455.7 60.5 445.9 70.2 433.9 70.2C421.8 70.2 412.1 60.4 412.1 48.4C412.1 39.5 417.4 31.9 425 28.5L424.4 26.1C424.4 25.9 424.4 25.8 424.6 25.6L424.4 24.9L401.6 46.4C403.7 49.8 402.7 54.4 399.3 56.5C397.7 57.5 395.8 57.8 394.1 57.5C400.4 68.6 412.1 75.7 426.2 75.7C447.5 75.7 463.5 59.3 463.5 37.8C463.1 16.6 447.2 0 425.9 0Z" fill="#EC7329"/>
<path d="M416.4 48.3C416.4 57.8 424.1 65.5 433.6 65.5C443.1 65.5 450.8 57.8 450.8 48.3C450.8 38.8 443.1 31.1 433.6 31.1C431.7 31.1 429.9 31.5 428.1 32.1C429.2 36.8 430.6 41.3 432.7 46C432.9 46 433 45.9 433.2 45.9C434.5 45.9 435.6 47 435.5 48.3C435.5 49.6 434.4 50.7 433.1 50.6C431.8 50.5 430.7 49.5 430.8 48.2C430.8 47.4 431.2 46.8 431.8 46.3C430.4 43.7 428.3 39.1 426.3 32.7C420.5 35.5 416.4 41.4 416.4 48.3Z" fill="#EC7329"/>
<path d="M394.1 55.2C396.585 55.2 398.6 53.1853 398.6 50.7C398.6 48.2147 396.585 46.2 394.1 46.2C391.615 46.2 389.6 48.2147 389.6 50.7C389.6 53.1853 391.615 55.2 394.1 55.2Z" fill="#EC7329"/>
</svg>
