<svg width="611" height="232" viewBox="0 0 611 232" fill="none" xmlns="http://www.w3.org/2000/svg">
<path d="M198.75 231.322L201.751 210.206H202.095L210.679 227.532L219.177 210.206H219.522L222.551 231.322H220.469L218.402 216.221L210.938 231.322H210.407L202.841 216.106L200.789 231.322H198.75Z" fill="white"/>
<path d="M235.355 210.206L245.203 231.322H242.935L239.619 224.374H230.518L227.216 231.322H224.862L234.839 210.206H235.355ZM235.097 214.685L231.465 222.336H238.686L235.097 214.685Z" fill="white"/>
<path d="M268.156 214.125L266.491 215.402C265.572 214.206 264.467 213.302 263.175 212.689C261.893 212.067 260.481 211.756 258.94 211.756C257.256 211.756 255.696 212.163 254.261 212.977C252.825 213.78 251.71 214.867 250.916 216.235C250.131 217.594 249.739 219.125 249.739 220.829C249.739 223.403 250.619 225.551 252.38 227.274C254.151 228.997 256.38 229.858 259.07 229.858C262.027 229.858 264.501 228.7 266.491 226.384L268.156 227.647C267.104 228.987 265.788 230.025 264.209 230.762C262.639 231.49 260.883 231.853 258.94 231.853C255.246 231.853 252.332 230.623 250.198 228.164C248.409 226.087 247.514 223.58 247.514 220.642C247.514 217.551 248.595 214.953 250.758 212.847C252.93 210.732 255.648 209.675 258.912 209.675C260.883 209.675 262.663 210.067 264.252 210.852C265.84 211.627 267.142 212.718 268.156 214.125Z" fill="white"/>
<path d="M272.42 210.206H284.521V212.287H274.53V218.891H284.435V220.958H274.53V229.241H284.435V231.322H272.42V210.206Z" fill="white"/>
<path d="M287.865 210.206H289.976V231.322H287.865V210.206Z" fill="white"/>
<path d="M304.89 209.675C308.087 209.675 310.762 210.742 312.915 212.876C315.068 215.01 316.145 217.637 316.145 220.757C316.145 223.848 315.068 226.47 312.915 228.623C310.771 230.777 308.154 231.853 305.063 231.853C301.933 231.853 299.292 230.781 297.139 228.638C294.986 226.494 293.909 223.901 293.909 220.857C293.909 218.829 294.397 216.948 295.373 215.216C296.359 213.484 297.699 212.13 299.392 211.153C301.086 210.168 302.919 209.675 304.89 209.675ZM304.991 211.742C303.431 211.742 301.952 212.149 300.555 212.962C299.158 213.776 298.067 214.871 297.282 216.249C296.498 217.628 296.105 219.163 296.105 220.857C296.105 223.365 296.971 225.484 298.703 227.217C300.445 228.939 302.541 229.8 304.991 229.8C306.627 229.8 308.139 229.403 309.527 228.609C310.924 227.815 312.01 226.729 312.786 225.35C313.57 223.972 313.963 222.441 313.963 220.757C313.963 219.082 313.57 217.57 312.786 216.221C312.01 214.862 310.915 213.776 309.498 212.962C308.082 212.149 306.579 211.742 304.991 211.742ZM306.01 204.12H309.096L304.862 208.541H302.881L306.01 204.12Z" fill="white"/>
<path d="M318.743 222.508H326.638V224.259H318.743V222.508Z" fill="white"/>
<path d="M338.768 210.206L348.615 231.322H346.347L343.031 224.374H333.93L330.629 231.322H328.274L338.251 210.206H338.768ZM338.509 214.685L334.878 222.336H342.098L338.509 214.685Z" fill="white"/>
<path d="M351.903 210.206H354.027V229.284H362.138V231.322H351.903V210.206Z" fill="white"/>
<path d="M253.3 0.926758C232.1 0.926758 216.1 17.3268 216.1 38.8268C216.1 51.7268 221.8 62.7268 230.9 69.4268V25.0268H252.8V76.6268C253 76.6268 253.1 76.6268 253.3 76.6268C254.3 76.6268 255.3 76.5267 256.4 76.5267V33.0268H278.3V67.3268C286 60.5268 290.7 50.4268 290.7 38.7268C290.6 17.5268 274.6 0.926758 253.3 0.926758Z" fill="white"/>
<path d="M342.8 49.9268C342.4 49.0268 342.2 48.0268 342.2 46.9268C342.2 46.4268 342.3 45.8268 342.4 45.3268C341.9 46.1268 341.2 46.8268 340.4 47.4268C340.3 49.0268 340.3 50.7268 340.3 52.3268C341 51.3268 341.9 50.6268 342.8 49.9268Z" fill="white"/>
<path d="M344 51.9268C343.9 51.7268 343.7 51.6268 343.6 51.4268C343.2 51.8268 342.8 52.1267 342.4 52.5267C342.9 52.3267 343.5 52.1268 344 51.9268Z" fill="white"/>
<path d="M377.3 38.8268C377.3 17.5268 361.3 0.926758 340.1 0.926758C318.9 0.926758 302.9 17.3268 302.9 38.8268C302.9 59.4268 317.3 75.0267 336.9 76.5267C337.2 75.0267 337.1 73.4268 337.2 72.0267C337.3 70.0267 337.5 68.0267 337.6 66.0267C337.7 63.5267 338.1 60.6268 337.6 58.1268C337.2 56.4268 335.9 55.0268 334.4 54.4268C333.7 54.1268 332.3 53.3267 331 52.5267C329.8 53.9268 328.1 54.8268 326.1 54.8268C322.6 54.8268 319.7 51.9268 319.7 48.4268C319.7 46.6268 320.4 45.0268 321.6 43.9268C321.1 42.7268 320.8 41.3267 320.8 40.0267C320.8 39.3267 320.9 38.6268 321 37.9268C320 36.5268 319.6 34.7268 319.8 32.8268C320.3 28.4268 324.2 25.8268 327.5 26.4268C327.5 26.4268 327.6 23.3268 331.6 22.1268C332.6 21.8268 334.8 21.6268 335.9 22.1268C335.9 22.1268 338.3 17.6268 344.6 18.8268C353.2 20.4268 351.6 28.7268 351.6 28.7268C351.6 28.7268 357.3 26.9268 359.9 32.3268C361.8 36.2268 359.5 39.8268 357.5 40.6268C357.2 40.7268 356.9 40.8268 356.7 40.9268C356.7 41.0268 356.8 41.2268 356.8 41.3268C358.7 42.8268 360 45.1268 360 47.7268C360 52.3268 356.1 56.1268 351.2 56.1268C349 56.1268 347 55.3267 345.4 54.0267C344.9 54.2267 344.4 54.3267 343.9 54.5267C342.3 55.2267 341.7 56.1268 341.2 57.8268C340.8 59.2268 340.7 60.7268 340.7 62.2268C340.7 64.9268 340.9 67.6268 341.1 70.4268C341.2 71.9268 341.3 73.3268 341.4 74.8268C341.4 75.4268 341.4 76.0268 341.5 76.6268C361.9 75.9268 377.3 59.8268 377.3 38.8268Z" fill="white"/>
<path d="M331.8 50.1268C331.8 50.2268 331.7 50.3268 331.6 50.4268C333.6 51.4268 335.7 52.2268 337.6 53.1268C337.7 51.7268 337.8 50.3267 337.8 49.0267C336.9 49.4268 335.9 49.7268 335 49.9268C334 50.1268 332.9 50.2268 331.8 50.1268Z" fill="white"/>
<path d="M151.6 59.2268V72.5267C156.2 74.4268 161.1 75.4268 166.6 75.4268C173.6 75.4268 179.9 73.8268 185.5 70.6268C190.5 67.7268 194.5 63.8267 197.5 59.0267C196.7 59.1267 196 59.2268 195.1 59.2268H151.6Z" fill="white"/>
<path d="M135.8 59.2268C137.9 62.5268 140.4 65.3268 143.4 67.7268V59.2268H135.8Z" fill="white"/>
<path d="M194.6 49.5267C196 49.5267 197.3 49.4268 198.4 49.2268C200.8 48.7268 202.5 46.7268 202.9 44.2268C203.1 42.4268 203.3 40.6268 203.3 38.7268C203.3 31.8268 201.7 25.5268 198.6 20.0268C195.5 14.4268 191.1 10.1268 185.5 6.92676C179.9 3.82676 173.6 2.22676 166.6 2.22676C162.8 2.22676 159.2 2.72675 155.9 3.62675C153.4 4.32675 151.7 6.62676 151.7 9.22676V40.8268C151.7 45.6268 155.6 49.5267 160.4 49.5267H194.6Z" fill="white"/>
<path d="M143.4 9.82677C139.9 12.6268 136.9 15.9268 134.7 20.0268C131.6 25.6268 130 31.8268 130 38.7268C130 42.5268 130.5 46.1267 131.4 49.5267H140.9C142.2 49.5267 143.3 48.4268 143.3 47.1268V9.82677H143.4Z" fill="white"/>
<path d="M4.1 168.127H0V98.9268H50.1C52.5 98.9268 54.9 99.4268 57 100.327C59.2 101.227 61.1 102.527 62.7 104.227C64.3 105.827 65.6 107.827 66.6 109.927C67.5 112.127 68 114.427 68 116.927C68 119.427 67.5 121.727 66.6 123.927C65.7 126.127 64.4 128.027 62.7 129.627C61.1 131.227 59.1 132.527 57 133.527C54.8 134.527 52.5 134.927 50.1 134.927H4.1V168.127ZM4.1 103.027V130.927H50.1V131.027C52 131.027 53.8 130.627 55.5 129.927C57.2 129.227 58.7 128.227 59.9 126.927C61.2 125.627 62.1 124.227 62.9 122.527C63.6 120.827 64 119.027 64 117.127C64 115.127 63.6 113.327 62.9 111.627C62.2 109.927 61.2 108.427 59.9 107.227C58.6 105.927 57.2 104.927 55.5 104.227C53.8 103.527 52 103.127 50.1 103.127H4.1V103.027Z" fill="white"/>
<path d="M76.8 99.0267H80.9V168.227H76.8V99.0267Z" fill="white"/>
<path d="M136.2 117.127H140.3V168.227H136.2L136.1 156.527C133.8 160.127 130.8 162.927 127.2 165.027C123.5 167.127 119.5 168.227 115 168.227C111.5 168.227 108.2 167.527 105.1 166.227C102 164.927 99.3 163.127 97.1 160.827C94.8 158.527 93 155.827 91.7 152.727C90.4 149.627 89.7 146.327 89.7 142.827C89.7 139.327 90.4 136.027 91.7 133.027C93 129.927 94.8 127.327 97.1 124.927C99.4 122.627 102.1 120.827 105.2 119.527C108.3 118.227 111.6 117.527 115.1 117.527C119.6 117.527 123.6 118.627 127.3 120.727C131 122.827 133.9 125.627 136.2 129.227V117.127ZM136.2 143.327V142.127C136.1 139.327 135.5 136.627 134.4 134.127C133.3 131.627 131.7 129.427 129.8 127.527C127.9 125.627 125.7 124.127 123.1 123.127C120.6 122.027 117.9 121.527 115.1 121.527C112.1 121.527 109.4 122.127 106.8 123.227C104.2 124.327 102 125.827 100 127.827C98.1 129.727 96.5 132.027 95.4 134.627C94.3 137.227 93.7 139.927 93.7 142.827C93.7 145.827 94.3 148.527 95.4 151.127C96.5 153.727 98 156.027 100 157.927C102 159.827 104.2 161.427 106.8 162.527C109.4 163.627 112.1 164.227 115.1 164.227C117.9 164.227 120.6 163.727 123.1 162.627C125.6 161.527 127.9 160.027 129.8 158.227C131.7 156.327 133.2 154.127 134.4 151.627C135.5 148.927 136.1 146.227 136.2 143.327Z" fill="white"/>
<path d="M199.9 143.327V168.127H195.8V142.727C195.8 139.827 195.2 137.127 194.1 134.527C193 131.927 191.4 129.727 189.5 127.727C187.6 125.827 185.3 124.227 182.7 123.127C180.1 122.027 177.4 121.427 174.4 121.427C171.4 121.427 168.6 122.027 166 123.127C163.4 124.327 161.1 125.827 159.2 127.827C157.3 129.827 155.8 132.127 154.7 134.827C153.6 137.427 153.2 140.227 153.2 143.227V168.027H149.1V116.927H153.2V129.027C155.4 125.427 158.4 122.627 162.1 120.527C165.8 118.427 169.9 117.327 174.5 117.327C178.1 117.327 181.4 118.027 184.5 119.427C187.6 120.827 190.3 122.627 192.6 125.027C194.9 127.327 196.7 130.127 198 133.227C199.3 136.427 199.9 139.827 199.9 143.327Z" fill="white"/>
<path d="M233.9 117.427C237.4 117.427 240.7 118.127 243.8 119.427C246.9 120.727 249.6 122.527 251.9 124.827C254.2 127.127 256 129.827 257.3 132.927C258.6 136.027 259.3 139.227 259.3 142.727C259.3 146.327 258.6 149.627 257.3 152.627C256 155.727 254.2 158.327 251.9 160.727C249.6 163.027 246.9 164.827 243.8 166.127C240.7 167.427 237.4 168.127 233.9 168.127C230.4 168.127 227.1 167.427 224.1 166.127C221.1 164.827 218.4 163.027 216.1 160.727C213.8 158.427 212 155.727 210.7 152.627C209.4 149.527 208.7 146.227 208.7 142.727C208.7 139.227 209.4 135.927 210.7 132.927C212 129.827 213.8 127.227 216.1 124.827C218.4 122.527 221.1 120.727 224.1 119.427C227.2 118.127 230.4 117.427 233.9 117.427ZM233.9 121.527C231 121.527 228.3 122.127 225.7 123.227C223.1 124.327 220.9 125.827 219 127.827C217.1 129.727 215.6 132.027 214.5 134.627C213.4 137.227 212.8 139.927 212.8 142.827C212.8 145.827 213.4 148.527 214.5 151.127C215.6 153.727 217.1 156.027 219 157.927C220.9 159.827 223.1 161.427 225.7 162.527C228.3 163.627 231 164.227 233.9 164.227C236.9 164.227 239.6 163.627 242.2 162.527C244.8 161.427 247 159.927 249 157.927C251 155.927 252.5 153.727 253.5 151.127C254.6 148.527 255.1 145.727 255.1 142.827C255.1 139.927 254.6 137.227 253.5 134.627C252.4 132.027 250.9 129.827 249 127.827C247.1 125.927 244.8 124.327 242.2 123.227C239.7 122.127 236.9 121.527 233.9 121.527Z" fill="white"/>
<path d="M270.8 98.6268H299.3C306.7 98.6268 313.2 100.127 318.9 103.027C324.6 106.027 329 110.127 332.1 115.427C335.2 120.727 336.8 126.727 336.8 133.527C336.8 140.327 335.2 146.327 332.1 151.627C329 156.927 324.6 161.027 318.9 164.027C313.2 167.027 306.7 168.427 299.3 168.427H270.8V98.6268ZM298.9 162.227C305 162.227 310.4 161.027 315 158.627C319.6 156.227 323.2 152.827 325.7 148.527C328.2 144.227 329.5 139.327 329.5 133.727C329.5 128.127 328.2 123.227 325.7 118.927C323.2 114.627 319.6 111.227 315 108.827C310.4 106.427 305 105.227 298.9 105.227H278.2V162.227H298.9Z" fill="white"/>
<path d="M360 127.027H352.9V168.627H360V127.027Z" fill="white"/>
<path d="M360 117.327H352.9V123.327H360V117.327Z" fill="white"/>
<path d="M395 118.327C398.3 116.527 402.4 115.627 407.2 115.627V122.527L405.5 122.427C400 122.427 395.6 124.127 392.5 127.527C389.4 130.927 387.8 135.727 387.8 141.827V168.627H380.7V116.027H387.5V126.327C389.2 122.727 391.7 120.127 395 118.327Z" fill="white"/>
<path d="M466.3 144.527H422.3C422.7 150.027 424.8 154.427 428.6 157.727C432.4 161.127 437.2 162.727 443 162.727C446.3 162.727 449.3 162.127 452 161.027C454.7 159.927 457.1 158.127 459.1 155.927L463.1 160.527C460.8 163.327 457.9 165.427 454.4 166.927C450.9 168.427 447.1 169.127 442.9 169.127C437.5 169.127 432.7 168.027 428.6 165.727C424.4 163.427 421.2 160.227 418.9 156.227C416.6 152.127 415.4 147.527 415.4 142.427C415.4 137.327 416.5 132.727 418.7 128.627C420.9 124.527 424 121.427 427.9 119.127C431.8 116.827 436.2 115.727 441 115.727C445.9 115.727 450.2 116.827 454.1 119.127C458 121.427 461 124.527 463.2 128.527C465.4 132.527 466.5 137.127 466.5 142.327L466.3 144.527ZM428.2 126.527C424.8 129.727 422.8 133.927 422.4 139.127H459.7C459.2 133.927 457.3 129.727 453.9 126.527C450.5 123.327 446.2 121.727 441.1 121.727C435.9 121.727 431.7 123.327 428.2 126.527Z" fill="white"/>
<path d="M509.5 168.627C508.3 169.727 506.7 170.627 504.9 171.127C503.1 171.727 501.2 172.027 499.2 172.027C494.7 172.027 491.2 170.827 488.7 168.327C486.2 165.827 485 162.427 485 157.927V128.627H476.3V123.127H485V112.527H491.5V123.127H506.2V128.627H491.5V157.527C491.5 160.427 492.2 162.627 493.7 164.127C495.1 165.627 497.2 166.427 499.9 166.427C501.2 166.427 502.6 166.227 503.8 165.827C505.1 165.427 506.2 164.827 507.1 164.027L509.5 168.627Z" fill="white"/>
<path d="M598.8 118.327C602.1 116.527 606.2 115.627 611 115.627V122.527L609.3 122.427C603.8 122.427 599.4 124.127 596.3 127.527C593.2 130.927 591.6 135.727 591.6 141.827V168.627H584.5V116.027H591.3V126.327C593 122.727 595.5 120.127 598.8 118.327Z" fill="white"/>
<path d="M552.8 165.727C549.9 162.927 547.1 160.027 544.2 157.227C543.8 156.827 543.6 156.427 543.6 155.827C543.6 152.427 543.6 149.027 543.6 145.627C543.6 145.327 543.6 145.127 543.6 144.627C542 146.227 540.6 147.627 539.1 149.027C538.9 149.227 538.8 149.527 538.8 149.827C538.8 151.127 538.8 152.427 538.8 153.827C538.8 154.327 538.6 154.627 538.1 154.627C536.9 154.627 535.7 154.627 534.6 154.627C534.2 154.627 533.8 154.527 533.9 154.027C533.9 152.427 533.8 150.727 534 149.127C534.2 147.727 534.8 146.427 535.8 145.427C538.3 142.927 540.7 140.527 543.2 138.027C543.5 137.727 543.9 137.527 544.3 137.527C545.4 137.527 546.6 137.527 547.7 137.527C548.4 137.527 548.5 137.727 548.5 138.427C548.5 143.527 548.5 148.527 548.5 153.627C548.5 154.227 548.7 154.727 549.1 155.127C551.4 157.427 553.7 159.727 556.1 162.027C557.6 163.427 558.3 165.227 558.3 167.227C558.3 168.227 558.3 169.227 558.3 170.227C567.4 165.827 573.6 156.627 573.6 145.927C573.6 131.027 561.5 118.927 546.6 118.927C531.7 118.927 519.6 131.027 519.6 145.927C519.6 155.727 524.8 164.327 532.6 169.027C534.6 167.027 536.5 165.127 538.5 163.127C539.9 161.727 541.3 160.327 542.7 158.927C542.9 158.727 543 158.527 543.3 158.527C543.4 158.627 543.6 158.727 543.7 158.827C544.6 159.727 545.5 160.727 546.4 161.627C546.7 161.927 546.6 162.127 546.4 162.427C543.4 165.427 540.4 168.427 537.5 171.327C540.4 172.327 543.4 172.927 546.7 172.927C549 172.927 551.2 172.627 553.4 172.127C553.4 170.427 553.4 168.727 553.4 166.927C553.3 166.527 553.1 166.127 552.8 165.727ZM562.7 151.127C561.8 152.027 560.9 152.827 560.1 153.727C559.8 154.127 559.5 154.027 559.2 153.727C557 151.527 553 147.527 550.8 145.327C550.5 145.027 550.4 144.727 550.4 144.427C550.4 142.527 550.4 140.627 550.4 138.827C550.4 138.627 550.3 138.427 550.6 138.227C550.7 138.327 550.8 138.427 550.9 138.527C554.3 141.927 559.4 147.027 562.8 150.427C563 150.627 563 150.927 562.7 151.127ZM547.3 121.827C550.7 121.827 553.5 124.627 553.5 128.027C553.5 131.427 550.7 134.227 547.3 134.227C543.9 134.227 541.1 131.427 541.1 128.027C541.1 124.527 543.8 121.727 547.3 121.827Z" fill="white"/>
<path d="M395.5 42.8268C395.4 42.8268 395.3 42.8268 395.1 42.8268L395.2 43.1268L395.5 42.8268Z" fill="white"/>
<path d="M389.4 45.9268C389.9 45.3268 390.5 44.7268 391.2 44.2268C391.6 44.0268 391.9 43.8268 392.3 43.6268L389.2 31.5268C388.9 33.6268 388.7 35.8267 388.7 38.0267C388.7 40.8267 388.9 43.4268 389.4 45.9268Z" fill="white"/>
<path d="M394.7 43.9268C395.3 43.9268 395.9 43.9268 396.4 44.0267L398.3 38.8268H396.8L396.5 38.3268L396.4 38.0267L396.3 37.8268L402.8 37.7268L403 38.2268L401.9 38.8268H400.1C400.1 38.9268 400.2 39.0268 400.2 39.2268L399.1 42.2268L420.5 21.9268L391.7 23.2268C391.2 24.5268 390.7 25.8268 390.3 27.1268L394.7 43.9268Z" fill="white"/>
<path d="M425.9 0.926758C411.4 0.926758 399.4 8.52676 393.2 20.2268L422.3 18.9268L422.2 18.4268H422.1L421.9 17.6268C421.8 17.4268 421.9 17.2268 422.1 17.1268L421.2 14.0268H421C420.7 14.1268 420.3 13.8268 420.3 13.5268L420.2 13.1268C420.1 12.8268 420.4 12.5268 420.7 12.4268L420.6 12.2268C420.6 12.1268 420.6 11.9268 420.8 11.9268L422.1 11.5268C422.2 11.5268 422.4 11.5268 422.4 11.7268L422.5 12.1268L426.1 11.4268H426.2C427.8 11.1268 429.3 11.5268 430.4 12.6268C431.4 13.6268 432 15.1268 431.8 16.3268C431.4 19.2268 428.8 20.2268 427.5 20.3268C427.5 20.3268 427.5 20.3268 427.4 20.3268C427.1 20.3268 426.8 20.0268 426.8 19.7268C426.8 19.3268 427 19.0268 427.4 19.0268C427.5 19.0268 430.2 18.7268 430.6 16.1268C430.7 15.2268 430.3 14.2268 429.6 13.5268C429.1 13.0268 428.3 12.6268 427.1 12.6268C427 12.8268 426.8 13.0268 426.6 13.0268L423.2 13.7268L424.1 16.6268C424.3 16.6268 424.5 16.8268 424.6 17.0268L424.9 17.8268C424.9 17.9268 424.9 18.0268 424.8 18.0268L426.9 26.0268C427.1 26.0268 427.2 26.1268 427.3 26.3268L427.8 28.4268C429.7 27.8268 431.8 27.5268 433.9 27.5268C446 27.5268 455.7 37.3268 455.7 49.3268C455.7 61.4268 445.9 71.1268 433.9 71.1268C421.8 71.1268 412.1 61.3268 412.1 49.3268C412.1 40.4268 417.4 32.8268 425 29.4268L424.4 27.0268C424.4 26.8268 424.4 26.7268 424.6 26.5268L424.4 25.8268L401.6 47.3268C403.7 50.7268 402.7 55.3268 399.3 57.4268C397.7 58.4268 395.8 58.7268 394.1 58.4268C400.4 69.5268 412.1 76.6268 426.2 76.6268C447.5 76.6268 463.5 60.2268 463.5 38.7268C463.1 17.5268 447.2 0.926758 425.9 0.926758Z" fill="white"/>
<path d="M416.4 49.2268C416.4 58.7268 424.1 66.4268 433.6 66.4268C443.1 66.4268 450.8 58.7268 450.8 49.2268C450.8 39.7268 443.1 32.0268 433.6 32.0268C431.7 32.0268 429.9 32.4268 428.1 33.0268C429.2 37.7268 430.6 42.2268 432.7 46.9268C432.9 46.9268 433 46.8268 433.2 46.8268C434.5 46.8268 435.6 47.9268 435.5 49.2268C435.5 50.5268 434.4 51.6267 433.1 51.5267C431.8 51.4268 430.7 50.4268 430.8 49.1268C430.8 48.3268 431.2 47.7268 431.8 47.2268C430.4 44.6268 428.3 40.0268 426.3 33.6268C420.5 36.4268 416.4 42.3268 416.4 49.2268Z" fill="white"/>
<path d="M394.1 56.1268C396.585 56.1268 398.6 54.112 398.6 51.6268C398.6 49.1415 396.585 47.1268 394.1 47.1268C391.615 47.1268 389.6 49.1415 389.6 51.6268C389.6 54.112 391.615 56.1268 394.1 56.1268Z" fill="white"/>
</svg>
