<svg width="531" height="392" viewBox="0 0 531 392" fill="none" xmlns="http://www.w3.org/2000/svg">
<path d="M98.9 331.175C81.9 331.175 69 344.275 69 361.575C69 371.975 73.6 380.675 80.8 386.075V350.475H98.3V391.875C98.4 391.875 98.6 391.875 98.7 391.875C99.5 391.875 100.3 391.775 101.2 391.775V356.875H118.8V384.375C125 378.875 128.7 370.775 128.7 361.475C128.8 344.475 116 331.175 98.9 331.175Z" fill="#173F73"/>
<path d="M170.7 370.375C170.4 369.675 170.2 368.775 170.2 367.975C170.2 367.575 170.3 367.075 170.3 366.675C169.9 367.375 169.3 367.875 168.7 368.375C168.7 369.675 168.6 370.975 168.6 372.275C169.2 371.575 169.9 370.975 170.7 370.375Z" fill="#93C01F"/>
<path d="M171.6 371.975C171.5 371.875 171.4 371.675 171.3 371.575C171 371.875 170.7 372.175 170.3 372.475C170.8 372.275 171.2 372.175 171.6 371.975Z" fill="#93C01F"/>
<path d="M198.3 361.575C198.3 344.475 185.5 331.175 168.4 331.175C151.4 331.175 138.5 344.275 138.5 361.575C138.5 378.075 150.1 390.575 165.8 391.775C166 390.575 165.9 389.275 166 388.175C166.1 386.575 166.2 384.975 166.3 383.375C166.4 381.375 166.7 379.075 166.3 377.075C166 375.675 164.9 374.575 163.8 374.175C163.2 373.975 162.1 373.275 161 372.675C160.1 373.775 158.7 374.575 157.1 374.575C154.3 374.575 152 372.275 152 369.475C152 368.075 152.6 366.775 153.5 365.875C153.1 364.875 152.9 363.775 152.9 362.675C152.9 362.175 152.9 361.575 153 360.975C152.2 359.875 151.8 358.375 152 356.875C152.4 353.275 155.5 351.275 158.2 351.775C158.2 351.775 158.3 349.275 161.5 348.275C162.3 348.075 164 347.875 164.9 348.275C164.9 348.275 166.9 344.675 171.9 345.575C178.8 346.875 177.5 353.575 177.5 353.575C177.5 353.575 182.1 352.075 184.2 356.475C185.7 359.675 183.9 362.475 182.3 363.175C182.1 363.275 181.8 363.375 181.6 363.375C181.6 363.475 181.6 363.575 181.7 363.675C183.2 364.875 184.2 366.775 184.2 368.775C184.2 372.475 181.1 375.475 177.2 375.475C175.4 375.475 173.8 374.775 172.6 373.775C172.2 373.875 171.8 374.075 171.4 374.175C170.1 374.775 169.6 375.475 169.3 376.775C169 377.975 168.9 379.075 168.9 380.275C168.9 382.475 169.1 384.675 169.2 386.775C169.3 387.975 169.4 389.075 169.4 390.275C169.4 390.675 169.4 391.275 169.5 391.675C186 391.275 198.3 378.375 198.3 361.575Z" fill="#93C01F"/>
<path d="M161.9 370.675C161.9 370.775 161.8 370.875 161.8 370.875C163.4 371.675 165.1 372.275 166.6 372.975C166.7 371.875 166.8 370.775 166.8 369.675C166.1 369.975 165.3 370.275 164.5 370.475C163.6 370.575 162.7 370.675 161.9 370.675Z" fill="#93C01F"/>
<path d="M208.4 369.575C208.6 369.775 208.9 369.775 209.1 369.675V369.575H208.4Z" fill="#EC7329"/>
<path d="M208.7 368.475C208.6 368.175 208.5 367.775 208.5 367.475C208.4 367.775 208.3 368.075 208.2 368.375L208.7 368.475Z" fill="#EC7329"/>
<path d="M208.7 370.875C208.6 371.075 208.6 371.375 208.8 371.575C209.2 372.175 209.7 372.675 210.3 372.975L210.4 372.775C210 371.975 209.7 371.175 209.4 370.275L209.2 370.375C209 370.475 208.8 370.675 208.7 370.875Z" fill="#EC7329"/>
<path d="M211.4 370.075C211.3 369.975 211.3 369.875 211.3 369.775C211.2 369.775 211.1 369.775 211 369.775L209.4 370.275C209.7 371.075 210 371.975 210.4 372.775L211.4 370.075Z" fill="#EC7329"/>
<path d="M209.2 369.675C209.1 369.575 209.1 369.675 209.2 369.675V369.675Z" fill="#EC7329"/>
<path d="M211.3 368.675L211.4 368.575C211.5 368.375 211.4 368.175 211.3 367.975L210.4 366.475C210.3 366.275 210 366.075 209.8 366.075C209.5 366.075 209.3 366.175 209.1 366.375C208.8 366.675 208.6 367.075 208.5 367.475C208.6 367.775 208.6 368.175 208.7 368.475L211.3 368.675Z" fill="#EC7329"/>
<path d="M216.6 370.175C216.7 370.175 216.7 370.175 216.6 370.175C216.8 370.075 217 369.775 217 369.575C217.1 368.675 216.9 367.875 216.4 367.075L214.1 369.275V369.375L215.9 370.175C216.1 370.275 216.4 370.275 216.6 370.175Z" fill="#EC7329"/>
<path d="M212.7 371.275V372.775C212.7 372.975 212.8 373.275 213 373.375C213.2 373.575 213.4 373.575 213.7 373.575C214.2 373.475 214.6 373.275 215 372.975C215.4 372.775 215.7 372.475 216 372.075C216.2 371.875 216.2 371.675 216.2 371.375C216.1 371.175 216 370.975 215.8 370.775L214 369.975C213.8 370.375 213.4 370.575 213 370.675L212.7 371.275Z" fill="#EC7329"/>
<path d="M212.9 364.775C212.8 364.775 212.7 364.775 212.6 364.775L212.7 364.975L212.9 364.775Z" fill="#EC7329"/>
<path d="M208 367.275C208.4 366.775 208.9 366.275 209.4 365.975C209.7 365.775 210 365.675 210.3 365.575L207.8 355.875C207.5 357.575 207.4 359.275 207.4 361.075C207.4 363.175 207.6 365.275 208 367.275Z" fill="#EC7329"/>
<path d="M212.3 365.575C212.8 365.575 213.2 365.575 213.7 365.675L215.2 361.475H214L213.8 361.075L213.7 360.775L213.6 360.575H218.8L219 360.975L218.2 361.475H216.8C216.8 361.575 216.9 361.675 216.8 361.775L215.9 364.175L233.1 347.875L210 348.875C209.6 349.875 209.2 350.975 208.8 352.075L212.3 365.575Z" fill="#EC7329"/>
<path d="M237.3 331.175C225.7 331.175 216 337.275 211.1 346.675L234.4 345.675L234.3 345.275H234.2C234.2 345.275 234 344.675 234.1 344.575C234.1 344.375 234.1 344.275 234.2 344.175L233.5 341.675H233.4C233.1 341.775 232.9 341.575 232.8 341.275L232.7 340.875C232.7 340.575 232.8 340.375 233.1 340.275L233 340.075C233 339.975 233 339.875 233.1 339.775L234.1 339.475C234.2 339.475 234.3 339.475 234.4 339.575L234.5 339.875L237.4 339.275C237.4 339.275 237.4 339.275 237.5 339.275C238.8 339.075 240 339.375 240.9 340.275C241.7 341.075 242.1 342.275 242 343.275C241.6 345.575 239.6 346.375 238.5 346.475C238.5 346.475 238.5 346.475 238.4 346.475C238.1 346.475 237.9 346.275 237.9 345.975C237.9 345.675 238.1 345.475 238.4 345.375C238.5 345.375 240.6 345.075 240.9 343.075C241 342.375 240.7 341.575 240.1 340.975C239.7 340.575 239 340.175 238.1 340.275C238 340.475 237.9 340.575 237.7 340.575L235 341.075L235.7 343.375C235.9 343.375 236 343.475 236.1 343.675L236.3 344.275C236.3 344.375 236.3 344.375 236.2 344.375L237.9 350.775C238 350.775 238.2 350.875 238.2 350.975L238.6 352.675C240.1 352.275 241.8 351.975 243.5 351.975C253.2 351.975 261 359.775 261 369.475C261 379.175 253.2 386.975 243.5 386.975C233.8 386.975 226 379.175 226 369.475C226 362.375 230.3 356.275 236.4 353.475L235.9 351.575C235.9 351.475 235.9 351.275 236 351.175L235.8 350.575L217.5 367.875C219.2 370.675 218.4 374.275 215.6 375.975C214.3 376.775 212.8 376.975 211.4 376.775C216.5 385.675 225.9 391.375 237.1 391.375C254.2 391.375 267 378.275 267 360.975C267.1 344.475 254.3 331.175 237.3 331.175Z" fill="#EC7329"/>
<path d="M229.7 369.875C229.7 377.475 235.9 383.675 243.5 383.675C251.1 383.675 257.3 377.475 257.3 369.875C257.3 362.275 251.1 356.075 243.5 356.075C242 356.075 240.5 356.375 239.1 356.875C240 360.575 241.1 364.275 242.8 368.075C242.9 368.075 243 367.975 243.2 367.975C244.3 367.975 245.1 368.875 245.1 369.875C245.1 370.975 244.2 371.775 243.2 371.775C242.1 371.775 241.3 370.875 241.3 369.875C241.3 369.275 241.6 368.675 242.1 368.375C241 366.275 239.3 362.575 237.7 357.475C232.9 359.675 229.7 364.375 229.7 369.875Z" fill="#EC7329"/>
<path d="M9.2 183.975H2.8V76.0749H80.9C84.7 76.0749 88.3 76.7749 91.7 78.2749C95.1 79.6749 98.1 81.6749 100.6 84.2749C103.2 86.8749 105.2 89.7749 106.6 93.1749C108 96.5749 108.8 100.175 108.8 104.075C108.8 107.975 108.1 111.675 106.6 114.975C105.2 118.375 103.2 121.275 100.6 123.875C98 126.375 95 128.375 91.7 129.875C88.3 131.375 84.7 132.075 80.9 132.075H9.10001V183.975H9.2ZM9.2 82.4749V125.875H80.8V126.075C83.8 126.075 86.6 125.475 89.3 124.375C92 123.275 94.3 121.675 96.2 119.775C98.2 117.775 99.7 115.475 100.8 112.875C101.9 110.175 102.5 107.375 102.5 104.375C102.5 101.275 101.9 98.4749 100.8 95.7749C99.7 93.1749 98.1 90.8749 96.2 88.8749C94.2 86.8749 91.9 85.2749 89.3 84.1749C86.6 83.0749 83.8 82.4749 80.8 82.4749H9.2Z" fill="#606060"/>
<path d="M122.5 76.0749H128.8V183.975H122.5V76.0749Z" fill="#606060"/>
<path d="M215.1 104.275H221.4V183.975H215.1L215 165.775C211.4 171.275 206.8 175.775 201.1 179.075C195.4 182.375 189.1 183.975 182.1 183.975C176.7 183.975 171.5 182.975 166.7 180.875C161.9 178.775 157.7 175.975 154.2 172.375C150.7 168.775 147.9 164.575 145.8 159.775C143.8 154.975 142.7 149.875 142.7 144.275C142.7 138.875 143.7 133.675 145.8 128.975C147.9 124.275 150.7 119.975 154.2 116.375C157.7 112.775 161.9 109.975 166.8 107.875C171.6 105.775 176.8 104.775 182.2 104.775C189.2 104.775 195.5 106.375 201.2 109.675C206.9 112.975 211.5 117.375 215.1 122.975V104.275ZM215.1 145.275V143.475C215 139.075 214 134.875 212.3 131.075C210.5 127.175 208.1 123.775 205.2 120.875C202.2 117.975 198.8 115.675 194.8 113.975C190.9 112.275 186.7 111.475 182.3 111.475C177.7 111.475 173.4 112.375 169.4 114.075C165.4 115.775 161.9 118.175 158.9 121.175C155.9 124.175 153.5 127.675 151.8 131.675C150.1 135.675 149.2 139.975 149.2 144.475C149.2 149.075 150.1 153.375 151.8 157.475C153.5 161.575 155.9 165.075 158.9 168.075C161.9 171.075 165.4 173.475 169.4 175.175C173.4 176.875 177.7 177.775 182.3 177.775C186.7 177.775 190.9 176.975 194.8 175.275C198.7 173.575 202.2 171.275 205.2 168.375C208.2 165.475 210.6 161.975 212.3 158.075C214 153.975 215 149.775 215.1 145.275Z" fill="#606060"/>
<path d="M314.4 145.275V183.975H308.1V144.375C308.1 139.875 307.2 135.575 305.5 131.575C303.8 127.575 301.4 124.075 298.3 120.975C295.3 117.975 291.8 115.575 287.7 113.775C283.7 112.075 279.4 111.175 274.8 111.175C270.1 111.175 265.7 112.075 261.6 113.875C257.5 115.675 254 118.175 251 121.275C248 124.375 245.6 128.075 244 132.175C242.4 136.275 241.6 140.675 241.7 145.275V183.975H235.4V104.275H241.7V123.075C245.2 117.575 249.8 113.075 255.6 109.775C261.4 106.475 267.8 104.875 274.9 104.875C280.5 104.875 285.7 105.975 290.5 108.075C295.3 110.275 299.6 113.175 303.2 116.775C306.8 120.475 309.6 124.675 311.6 129.575C313.6 134.575 314.5 139.775 314.4 145.275Z" fill="#606060"/>
<path d="M367.5 104.975C372.9 104.975 378.1 105.975 382.9 108.075C387.7 110.175 391.9 112.975 395.5 116.575C399 120.175 401.8 124.375 403.9 129.175C406 133.975 407 139.075 407 144.475C407 149.975 406 155.175 403.9 159.975C401.8 164.775 399 168.975 395.5 172.575C392 176.175 387.8 178.975 382.9 181.075C378.1 183.175 372.9 184.175 367.5 184.175C362.1 184.175 357 183.175 352.2 181.075C347.5 178.975 343.3 176.175 339.7 172.575C336.1 168.975 333.3 164.775 331.2 159.975C329.1 155.175 328.1 150.075 328.1 144.475C328.1 139.075 329.1 133.875 331.2 129.175C333.3 124.475 336.1 120.175 339.7 116.575C343.3 112.975 347.5 110.175 352.2 108.075C357 105.975 362.1 104.975 367.5 104.975ZM367.5 111.275C363 111.275 358.7 112.175 354.7 113.875C350.7 115.575 347.2 117.975 344.2 120.975C341.2 123.975 338.9 127.475 337.1 131.475C335.4 135.475 334.5 139.775 334.5 144.275C334.5 148.875 335.4 153.175 337.1 157.275C338.8 161.375 341.2 164.875 344.2 167.875C347.2 170.875 350.7 173.275 354.7 174.975C358.7 176.675 363 177.575 367.5 177.575C372.1 177.575 376.4 176.675 380.4 174.975C384.4 173.275 387.9 170.875 391 167.875C394 164.875 396.4 161.275 398.1 157.275C399.8 153.175 400.6 148.875 400.6 144.275C400.6 139.775 399.8 135.475 398.1 131.475C396.4 127.475 394 123.975 391 120.975C388 117.975 384.5 115.575 380.4 113.875C376.4 112.075 372.1 111.275 367.5 111.275Z" fill="#606060"/>
<path d="M17.3 377.875V388.575C21 390.075 24.9 390.875 29.3 390.875C34.9 390.875 40 389.575 44.4 387.075C48.4 384.775 51.6 381.675 54.1 377.775C53.5 377.775 52.9 377.875 52.2 377.875H17.3Z" fill="#F4BB49"/>
<path d="M4.60001 377.875C6.30001 380.475 8.3 382.775 10.7 384.675V377.875H4.60001Z" fill="#F4BB49"/>
<path d="M51.8 370.075C52.9 370.075 53.9 369.975 54.9 369.775C56.8 369.375 58.2 367.775 58.5 365.775C58.7 364.375 58.8 362.875 58.8 361.375C58.8 355.775 57.5 350.775 55 346.375C52.5 341.875 49 338.375 44.5 335.875C40 333.375 35 332.075 29.4 332.075C26.4 332.075 23.5 332.475 20.8 333.175C18.8 333.775 17.4 335.575 17.4 337.675V362.975C17.4 366.875 20.5 369.975 24.4 369.975H51.8V370.075Z" fill="#F4BB49"/>
<path d="M10.7 338.275C7.9 340.475 5.5 343.175 3.7 346.475C1.2 350.975 0 355.975 0 361.475C0 364.475 0.399997 367.375 1.2 370.075H8.8C9.9 370.075 10.7 369.175 10.7 368.175V338.275Z" fill="#F4BB49"/>
<path d="M1.90035 34.3139L5.68484 7.67763H6.11943L16.9478 29.5335L27.6675 7.67763H28.1021L31.9228 34.3139H29.2972L26.6897 15.2647L17.2737 34.3139H16.6037L7.06102 15.1199L4.47163 34.3139H1.90035Z" fill="#606060"/>
<path d="M48.0748 7.67763L60.4966 34.3139H57.6356L53.4527 25.5498H41.9725L37.8078 34.3139H34.8381L47.4229 7.67763H48.0748ZM47.7488 13.3272L43.1676 22.9786H52.2757L47.7488 13.3272Z" fill="#606060"/>
<path d="M89.4507 12.621L87.3502 14.2326C86.1913 12.7236 84.797 11.5828 83.1673 10.8102C81.5497 10.0256 79.7691 9.63325 77.8256 9.63325C75.701 9.63325 73.7333 10.1463 71.9225 11.1724C70.1117 12.1864 68.7054 13.5566 67.7034 15.2828C66.7136 16.997 66.2186 18.9285 66.2186 21.0773C66.2186 24.3246 67.3292 27.0347 69.5504 29.2076C71.7837 31.3805 74.5964 32.467 77.9886 32.467C81.7187 32.467 84.8393 31.0063 87.3502 28.0849L89.4507 29.6784C88.1228 31.3684 86.4629 32.6782 84.4711 33.6077C82.4913 34.5252 80.2762 34.9839 77.8256 34.9839C73.1659 34.9839 69.4901 33.4327 66.7981 30.3303C64.5406 27.7107 63.4119 24.5479 63.4119 20.8419C63.4119 16.9427 64.776 13.6652 67.5042 11.0094C70.2445 8.34158 73.6729 7.00765 77.7894 7.00765C80.2762 7.00765 82.5215 7.50259 84.5254 8.49247C86.5293 9.47028 88.1711 10.8465 89.4507 12.621Z" fill="#606060"/>
<path d="M94.8286 7.67763H110.093V10.3032H97.4905V18.6327H109.985V21.2402H97.4905V31.6883H109.985V34.3139H94.8286V7.67763Z" fill="#606060"/>
<path d="M114.312 7.67763H116.974V34.3139H114.312V7.67763Z" fill="#606060"/>
<path d="M135.788 7.00765C139.82 7.00765 143.194 8.35365 145.91 11.0456C148.626 13.7376 149.984 17.0513 149.984 20.9867C149.984 24.8859 148.626 28.1936 145.91 30.9097C143.206 33.6258 139.905 34.9839 136.005 34.9839C132.058 34.9839 128.726 33.6319 126.01 30.9278C123.294 28.2237 121.936 24.9523 121.936 21.1135C121.936 18.5543 122.551 16.1822 123.783 13.9972C125.026 11.8122 126.716 10.104 128.853 8.87273C130.99 7.62934 133.301 7.00765 135.788 7.00765ZM135.915 9.61514C133.947 9.61514 132.082 10.1282 130.32 11.1543C128.557 12.1804 127.181 13.5626 126.191 15.3009C125.201 17.0393 124.706 18.9768 124.706 21.1135C124.706 24.2763 125.799 26.9502 127.984 29.1352C130.181 31.3081 132.824 32.3945 135.915 32.3945C137.979 32.3945 139.886 31.8936 141.637 30.8916C143.399 29.8896 144.769 28.5195 145.747 26.7812C146.737 25.0428 147.232 23.1114 147.232 20.9867C147.232 18.8742 146.737 16.9668 145.747 15.2647C144.769 13.5505 143.387 12.1804 141.601 11.1543C139.814 10.1282 137.919 9.61514 135.915 9.61514ZM137.2 0H141.094L135.752 5.57715H133.253L137.2 0Z" fill="#606060"/>
<path d="M153.262 23.1959H163.221V25.405H153.262V23.1959Z" fill="#606060"/>
<path d="M178.522 7.67763L190.944 34.3139H188.083L183.9 25.5498H172.42L168.255 34.3139H165.285L177.87 7.67763H178.522ZM178.196 13.3272L173.615 22.9786H182.723L178.196 13.3272Z" fill="#606060"/>
<path d="M195.091 7.67763H197.77V31.7427H208.001V34.3139H195.091V7.67763Z" fill="#606060"/>
<path d="M3.40001 197.075H47.5C59 197.075 69.1 199.375 77.9 203.975C86.7 208.575 93.5 214.975 98.3 223.175C103.2 231.375 105.6 240.775 105.6 251.275C105.6 261.775 103.2 271.175 98.3 279.375C93.4 287.575 86.6 293.975 77.9 298.575C69.2 303.175 59 305.475 47.5 305.475H3.40001V197.075ZM46.9 295.575C56.4 295.575 64.7 293.675 71.8 289.875C78.9 286.075 84.5 280.875 88.4 274.275C92.3 267.575 94.3 259.975 94.3 251.275C94.3 242.575 92.3 234.975 88.4 228.275C84.5 221.575 78.9 216.375 71.8 212.675C64.7 208.875 56.4 206.975 46.9 206.975H14.8V295.575H46.9Z" fill="#808080"/>
<path d="M141.6 241.075H130.6V305.475H141.6V241.075Z" fill="#808080"/>
<path d="M141.6 226.075H130.6V235.475H141.6V226.075Z" fill="#808080"/>
<path d="M195.9 227.575C201 224.775 207.3 223.375 214.9 223.375V234.075L212.3 233.875C203.7 233.875 197 236.475 192.2 241.775C187.3 247.075 184.9 254.475 184.9 263.975V305.475H173.9V223.975H184.4V239.975C187 234.475 190.8 230.375 195.9 227.575Z" fill="#808080"/>
<path d="M306.5 268.175H238.3C238.9 276.675 242.2 283.475 248.1 288.675C254 293.875 261.4 296.475 270.4 296.475C275.5 296.475 280.1 295.575 284.3 293.775C288.5 291.975 292.2 289.275 295.3 285.775L301.5 292.875C297.9 297.175 293.4 300.475 287.9 302.775C282.4 305.075 276.5 306.175 270 306.175C261.6 306.175 254.2 304.375 247.8 300.875C241.3 297.275 236.3 292.375 232.7 286.075C229.1 279.775 227.3 272.675 227.3 264.675C227.3 256.675 229 249.575 232.5 243.275C236 236.975 240.7 232.075 246.8 228.575C252.8 225.075 259.6 223.275 267.2 223.275C274.7 223.275 281.5 225.075 287.5 228.575C293.5 232.075 298.2 236.975 301.6 243.175C305 249.475 306.7 256.575 306.7 264.675L306.5 268.175ZM247.4 240.375C242.1 245.375 239.1 251.875 238.3 259.975H296.1C295.4 251.875 292.4 245.375 287 240.375C281.7 235.375 275 232.875 267.1 232.875C259.3 232.875 252.7 235.375 247.4 240.375Z" fill="#808080"/>
<path d="M373.4 305.575C371.5 307.275 369.1 308.575 366.3 309.475C363.5 310.375 360.6 310.875 357.5 310.875C350.5 310.875 345 308.975 341.2 305.175C337.4 301.375 335.5 295.975 335.5 289.075V243.675H322.1V235.075H335.5V218.675H345.6V235.075H368.5V243.675H345.6V288.575C345.6 293.075 346.7 296.475 349 298.775C351.2 301.075 354.5 302.275 358.6 302.275C360.7 302.275 362.7 301.975 364.7 301.275C366.7 300.575 368.3 299.675 369.8 298.375L373.4 305.575Z" fill="#808080"/>
<path d="M511.7 227.575C516.8 224.775 523.1 223.375 530.7 223.375V234.075L528.1 233.875C519.5 233.875 512.8 236.475 508 241.775C503.1 247.075 500.7 254.475 500.7 263.975V305.475H489.7V223.975H500.2V239.975C502.8 234.475 506.6 230.375 511.7 227.575Z" fill="#808080"/>
<path d="M440.5 301.175C436.1 296.775 431.7 292.375 427.2 287.975C426.6 287.375 426.3 286.775 426.3 285.875C426.3 280.575 426.3 275.375 426.3 270.075C426.3 269.675 426.3 269.275 426.3 268.575C423.8 270.975 421.6 273.275 419.4 275.475C419 275.875 419 276.275 419 276.775C419 278.775 419 280.875 419 282.875C419 283.675 418.7 284.075 417.9 284.075C416.1 284.075 414.3 284.075 412.4 284.075C411.7 284.075 411.2 283.975 411.2 283.175C411.3 280.575 411 278.075 411.3 275.475C411.6 273.275 412.5 271.375 414.1 269.775C417.9 265.975 421.7 262.175 425.5 258.275C426 257.775 426.5 257.475 427.2 257.575C429 257.575 430.7 257.575 432.5 257.575C433.5 257.575 433.8 257.975 433.8 258.875C433.8 266.675 433.8 274.575 433.8 282.375C433.8 283.375 434.1 283.975 434.7 284.675C438.3 288.275 441.9 291.875 445.5 295.375C447.8 297.575 448.8 300.275 448.8 303.475C448.8 305.075 448.8 306.575 448.8 308.175C462.8 301.375 472.5 287.075 472.5 270.475C472.5 247.375 453.8 228.675 430.7 228.675C407.6 228.675 388.9 247.375 388.9 270.475C388.9 285.675 397 298.975 409.1 306.275C412.1 303.275 415.2 300.175 418.2 297.175C420.4 294.975 422.5 292.875 424.7 290.675C425 290.375 425.2 290.075 425.6 290.075C425.8 290.175 426 290.375 426.2 290.475C427.6 291.875 429 293.375 430.4 294.775C430.9 295.275 430.8 295.575 430.4 295.975C425.8 300.575 421.2 305.175 416.5 309.875C420.9 311.475 425.7 312.375 430.7 312.375C434.3 312.375 437.7 311.975 441.1 311.075C441.1 308.375 441.1 305.775 441.1 303.075C441.3 302.275 441 301.675 440.5 301.175ZM455.8 278.575C454.4 279.875 453 281.275 451.7 282.675C451.2 283.175 450.8 283.175 450.3 282.675C446.9 279.175 440.7 273.075 437.2 269.575C436.8 269.175 436.6 268.675 436.6 268.075C436.6 265.175 436.6 262.275 436.6 259.275C436.6 258.975 436.5 258.575 436.9 258.375C437.1 258.475 437.3 258.675 437.4 258.775C442.6 263.975 450.6 271.975 455.8 277.175C456.3 277.775 456.3 278.075 455.8 278.575ZM431.9 232.975C437.2 232.975 441.5 237.275 441.5 242.575C441.5 247.875 437.2 252.175 431.9 252.275C426.6 252.275 422.2 247.875 422.3 242.675C422.3 237.275 426.6 232.975 431.9 232.975Z" fill="#808080"/>
</svg>
