<svg width="531" height="393" viewBox="0 0 531 393" fill="none" xmlns="http://www.w3.org/2000/svg">
<path d="M98.9 332.05C81.9 332.05 69 345.15 69 362.45C69 372.85 73.6 381.55 80.8 386.95V351.35H98.3V392.75C98.4 392.75 98.6 392.75 98.7 392.75C99.5 392.75 100.3 392.65 101.2 392.65V357.75H118.8V385.25C125 379.75 128.7 371.65 128.7 362.35C128.8 345.35 116 332.05 98.9 332.05Z" fill="white"/>
<path d="M170.7 371.25C170.4 370.55 170.2 369.65 170.2 368.85C170.2 368.45 170.3 367.95 170.3 367.55C169.9 368.25 169.3 368.75 168.7 369.25C168.7 370.55 168.6 371.85 168.6 373.15C169.2 372.45 169.9 371.85 170.7 371.25Z" fill="white"/>
<path d="M171.6 372.85C171.5 372.75 171.4 372.55 171.3 372.45C171 372.75 170.7 373.05 170.3 373.35C170.8 373.15 171.2 373.05 171.6 372.85Z" fill="white"/>
<path d="M198.3 362.45C198.3 345.35 185.5 332.05 168.4 332.05C151.4 332.05 138.5 345.15 138.5 362.45C138.5 378.95 150.1 391.45 165.8 392.65C166 391.45 165.9 390.15 166 389.05C166.1 387.45 166.2 385.85 166.3 384.25C166.4 382.25 166.7 379.95 166.3 377.95C166 376.55 164.9 375.45 163.8 375.05C163.2 374.85 162.1 374.15 161 373.55C160.1 374.65 158.7 375.45 157.1 375.45C154.3 375.45 152 373.15 152 370.35C152 368.95 152.6 367.65 153.5 366.75C153.1 365.75 152.9 364.65 152.9 363.55C152.9 363.05 152.9 362.45 153 361.85C152.2 360.75 151.8 359.25 152 357.75C152.4 354.15 155.5 352.15 158.2 352.65C158.2 352.65 158.3 350.15 161.5 349.15C162.3 348.95 164 348.75 164.9 349.15C164.9 349.15 166.9 345.55 171.9 346.45C178.8 347.75 177.5 354.45 177.5 354.45C177.5 354.45 182.1 352.95 184.2 357.35C185.7 360.55 183.9 363.35 182.3 364.05C182.1 364.15 181.8 364.25 181.6 364.25C181.6 364.35 181.6 364.45 181.7 364.55C183.2 365.75 184.2 367.65 184.2 369.65C184.2 373.35 181.1 376.35 177.2 376.35C175.4 376.35 173.8 375.65 172.6 374.65C172.2 374.75 171.8 374.95 171.4 375.05C170.1 375.65 169.6 376.35 169.3 377.65C169 378.85 168.9 379.95 168.9 381.15C168.9 383.35 169.1 385.55 169.2 387.65C169.3 388.85 169.4 389.95 169.4 391.15C169.4 391.55 169.4 392.15 169.5 392.55C186 392.15 198.3 379.25 198.3 362.45Z" fill="white"/>
<path d="M161.9 371.55C161.9 371.65 161.8 371.75 161.8 371.75C163.4 372.55 165.1 373.15 166.6 373.85C166.7 372.75 166.8 371.65 166.8 370.55C166.1 370.85 165.3 371.15 164.5 371.35C163.6 371.45 162.7 371.55 161.9 371.55Z" fill="white"/>
<path d="M208.4 370.45C208.6 370.65 208.9 370.65 209.1 370.55V370.45H208.4Z" fill="white"/>
<path d="M208.7 369.35C208.6 369.05 208.5 368.65 208.5 368.35C208.4 368.65 208.3 368.95 208.2 369.25L208.7 369.35Z" fill="white"/>
<path d="M208.7 371.75C208.6 371.95 208.6 372.25 208.8 372.45C209.2 373.05 209.7 373.55 210.3 373.85L210.4 373.65C210 372.85 209.7 372.05 209.4 371.15L209.2 371.25C209 371.35 208.8 371.55 208.7 371.75Z" fill="white"/>
<path d="M211.4 370.95C211.3 370.85 211.3 370.75 211.3 370.65C211.2 370.65 211.1 370.65 211 370.65L209.4 371.15C209.7 371.95 210 372.85 210.4 373.65L211.4 370.95Z" fill="white"/>
<path d="M209.2 370.55C209.1 370.45 209.1 370.55 209.2 370.55V370.55Z" fill="white"/>
<path d="M211.3 369.55L211.4 369.45C211.5 369.25 211.4 369.05 211.3 368.85L210.4 367.35C210.3 367.15 210 366.95 209.8 366.95C209.5 366.95 209.3 367.05 209.1 367.25C208.8 367.55 208.6 367.95 208.5 368.35C208.6 368.65 208.6 369.05 208.7 369.35L211.3 369.55Z" fill="white"/>
<path d="M216.6 371.05C216.7 371.05 216.7 371.05 216.6 371.05C216.8 370.95 217 370.65 217 370.45C217.1 369.55 216.9 368.75 216.4 367.95L214.1 370.15V370.25L215.9 371.05C216.1 371.15 216.4 371.15 216.6 371.05Z" fill="white"/>
<path d="M212.7 372.15V373.65C212.7 373.85 212.8 374.15 213 374.25C213.2 374.45 213.4 374.45 213.7 374.45C214.2 374.35 214.6 374.15 215 373.85C215.4 373.65 215.7 373.35 216 372.95C216.2 372.75 216.2 372.55 216.2 372.25C216.1 372.05 216 371.85 215.8 371.65L214 370.85C213.8 371.25 213.4 371.45 213 371.55L212.7 372.15Z" fill="white"/>
<path d="M212.9 365.65C212.8 365.65 212.7 365.65 212.6 365.65L212.7 365.85L212.9 365.65Z" fill="white"/>
<path d="M208 368.15C208.4 367.65 208.9 367.15 209.4 366.85C209.7 366.65 210 366.55 210.3 366.45L207.8 356.75C207.5 358.45 207.4 360.15 207.4 361.95C207.4 364.05 207.6 366.15 208 368.15Z" fill="white"/>
<path d="M212.3 366.45C212.8 366.45 213.2 366.45 213.7 366.55L215.2 362.35H214L213.8 361.95L213.7 361.65L213.6 361.45H218.8L219 361.85L218.2 362.35H216.8C216.8 362.45 216.9 362.55 216.8 362.65L215.9 365.05L233.1 348.75L210 349.75C209.6 350.75 209.2 351.85 208.8 352.95L212.3 366.45Z" fill="white"/>
<path d="M237.3 332.05C225.7 332.05 216 338.15 211.1 347.55L234.4 346.55L234.3 346.15H234.2C234.2 346.15 234 345.55 234.1 345.45C234.1 345.25 234.1 345.15 234.2 345.05L233.5 342.55H233.4C233.1 342.65 232.9 342.45 232.8 342.15L232.7 341.75C232.7 341.45 232.8 341.25 233.1 341.15L233 340.95C233 340.85 233 340.75 233.1 340.65L234.1 340.35C234.2 340.35 234.3 340.35 234.4 340.45L234.5 340.75L237.4 340.15C237.4 340.15 237.4 340.15 237.5 340.15C238.8 339.95 240 340.25 240.9 341.15C241.7 341.95 242.1 343.15 242 344.15C241.6 346.45 239.6 347.25 238.5 347.35C238.5 347.35 238.5 347.35 238.4 347.35C238.1 347.35 237.9 347.15 237.9 346.85C237.9 346.55 238.1 346.35 238.4 346.25C238.5 346.25 240.6 345.95 240.9 343.95C241 343.25 240.7 342.45 240.1 341.85C239.7 341.45 239 341.05 238.1 341.15C238 341.35 237.9 341.45 237.7 341.45L235 341.95L235.7 344.25C235.9 344.25 236 344.35 236.1 344.55L236.3 345.15C236.3 345.25 236.3 345.25 236.2 345.25L237.9 351.65C238 351.65 238.2 351.75 238.2 351.85L238.6 353.55C240.1 353.15 241.8 352.85 243.5 352.85C253.2 352.85 261 360.65 261 370.35C261 380.05 253.2 387.85 243.5 387.85C233.8 387.85 226 380.05 226 370.35C226 363.25 230.3 357.15 236.4 354.35L235.9 352.45C235.9 352.35 235.9 352.15 236 352.05L235.8 351.45L217.5 368.75C219.2 371.55 218.4 375.15 215.6 376.85C214.3 377.65 212.8 377.85 211.4 377.65C216.5 386.55 225.9 392.25 237.1 392.25C254.2 392.25 267 379.15 267 361.85C267.1 345.35 254.3 332.05 237.3 332.05Z" fill="white"/>
<path d="M229.7 370.75C229.7 378.35 235.9 384.55 243.5 384.55C251.1 384.55 257.3 378.35 257.3 370.75C257.3 363.15 251.1 356.95 243.5 356.95C242 356.95 240.5 357.25 239.1 357.75C240 361.45 241.1 365.15 242.8 368.95C242.9 368.95 243 368.85 243.2 368.85C244.3 368.85 245.1 369.75 245.1 370.75C245.1 371.85 244.2 372.65 243.2 372.65C242.1 372.65 241.3 371.75 241.3 370.75C241.3 370.15 241.6 369.55 242.1 369.25C241 367.15 239.3 363.45 237.7 358.35C232.9 360.55 229.7 365.25 229.7 370.75Z" fill="white"/>
<path d="M9.2 184.85H2.8V76.9499H80.9C84.7 76.9499 88.3 77.6499 91.7 79.1499C95.1 80.5499 98.1 82.5499 100.6 85.1499C103.2 87.7499 105.2 90.6499 106.6 94.0499C108 97.4499 108.8 101.05 108.8 104.95C108.8 108.85 108.1 112.55 106.6 115.85C105.2 119.25 103.2 122.15 100.6 124.75C98 127.25 95 129.25 91.7 130.75C88.3 132.25 84.7 132.95 80.9 132.95H9.10001V184.85H9.2ZM9.2 83.3499V126.75H80.8V126.95C83.8 126.95 86.6 126.35 89.3 125.25C92 124.15 94.3 122.55 96.2 120.65C98.2 118.65 99.7 116.35 100.8 113.75C101.9 111.05 102.5 108.25 102.5 105.25C102.5 102.15 101.9 99.3499 100.8 96.6499C99.7 94.0499 98.1 91.7499 96.2 89.7499C94.2 87.7499 91.9 86.1499 89.3 85.0499C86.6 83.9499 83.8 83.3499 80.8 83.3499H9.2Z" fill="white"/>
<path d="M122.5 76.9499H128.8V184.85H122.5V76.9499Z" fill="white"/>
<path d="M215.1 105.15H221.4V184.85H215.1L215 166.65C211.4 172.15 206.8 176.65 201.1 179.95C195.4 183.25 189.1 184.85 182.1 184.85C176.7 184.85 171.5 183.85 166.7 181.75C161.9 179.65 157.7 176.85 154.2 173.25C150.7 169.65 147.9 165.45 145.8 160.65C143.8 155.85 142.7 150.75 142.7 145.15C142.7 139.75 143.7 134.55 145.8 129.85C147.9 125.15 150.7 120.85 154.2 117.25C157.7 113.65 161.9 110.85 166.8 108.75C171.6 106.65 176.8 105.65 182.2 105.65C189.2 105.65 195.5 107.25 201.2 110.55C206.9 113.85 211.5 118.25 215.1 123.85V105.15ZM215.1 146.15V144.35C215 139.95 214 135.75 212.3 131.95C210.5 128.05 208.1 124.65 205.2 121.75C202.2 118.85 198.8 116.55 194.8 114.85C190.9 113.15 186.7 112.35 182.3 112.35C177.7 112.35 173.4 113.25 169.4 114.95C165.4 116.65 161.9 119.05 158.9 122.05C155.9 125.05 153.5 128.55 151.8 132.55C150.1 136.55 149.2 140.85 149.2 145.35C149.2 149.95 150.1 154.25 151.8 158.35C153.5 162.45 155.9 165.95 158.9 168.95C161.9 171.95 165.4 174.35 169.4 176.05C173.4 177.75 177.7 178.65 182.3 178.65C186.7 178.65 190.9 177.85 194.8 176.15C198.7 174.45 202.2 172.15 205.2 169.25C208.2 166.35 210.6 162.85 212.3 158.95C214 154.85 215 150.65 215.1 146.15Z" fill="white"/>
<path d="M314.4 146.15V184.85H308.1V145.25C308.1 140.75 307.2 136.45 305.5 132.45C303.8 128.45 301.4 124.95 298.3 121.85C295.3 118.85 291.8 116.45 287.7 114.65C283.7 112.95 279.4 112.05 274.8 112.05C270.1 112.05 265.7 112.95 261.6 114.75C257.5 116.55 254 119.05 251 122.15C248 125.25 245.6 128.95 244 133.05C242.4 137.15 241.6 141.55 241.7 146.15V184.85H235.4V105.15H241.7V123.95C245.2 118.45 249.8 113.95 255.6 110.65C261.4 107.35 267.8 105.75 274.9 105.75C280.5 105.75 285.7 106.85 290.5 108.95C295.3 111.15 299.6 114.05 303.2 117.65C306.8 121.35 309.6 125.55 311.6 130.45C313.6 135.45 314.5 140.65 314.4 146.15Z" fill="white"/>
<path d="M367.5 105.85C372.9 105.85 378.1 106.85 382.9 108.95C387.7 111.05 391.9 113.85 395.5 117.45C399 121.05 401.8 125.25 403.9 130.05C406 134.85 407 139.95 407 145.35C407 150.85 406 156.05 403.9 160.85C401.8 165.65 399 169.85 395.5 173.45C392 177.05 387.8 179.85 382.9 181.95C378.1 184.05 372.9 185.05 367.5 185.05C362.1 185.05 357 184.05 352.2 181.95C347.5 179.85 343.3 177.05 339.7 173.45C336.1 169.85 333.3 165.65 331.2 160.85C329.1 156.05 328.1 150.95 328.1 145.35C328.1 139.95 329.1 134.75 331.2 130.05C333.3 125.35 336.1 121.05 339.7 117.45C343.3 113.85 347.5 111.05 352.2 108.95C357 106.85 362.1 105.85 367.5 105.85ZM367.5 112.15C363 112.15 358.7 113.05 354.7 114.75C350.7 116.45 347.2 118.85 344.2 121.85C341.2 124.85 338.9 128.35 337.1 132.35C335.4 136.35 334.5 140.65 334.5 145.15C334.5 149.75 335.4 154.05 337.1 158.15C338.8 162.25 341.2 165.75 344.2 168.75C347.2 171.75 350.7 174.15 354.7 175.85C358.7 177.55 363 178.45 367.5 178.45C372.1 178.45 376.4 177.55 380.4 175.85C384.4 174.15 387.9 171.75 391 168.75C394 165.75 396.4 162.15 398.1 158.15C399.8 154.05 400.6 149.75 400.6 145.15C400.6 140.65 399.8 136.35 398.1 132.35C396.4 128.35 394 124.85 391 121.85C388 118.85 384.5 116.45 380.4 114.75C376.4 112.95 372.1 112.15 367.5 112.15Z" fill="white"/>
<path d="M17.3 378.75V389.45C21 390.95 24.9 391.75 29.3 391.75C34.9 391.75 40 390.45 44.4 387.95C48.4 385.65 51.6 382.55 54.1 378.65C53.5 378.65 52.9 378.75 52.2 378.75H17.3Z" fill="white"/>
<path d="M4.60001 378.75C6.30001 381.35 8.3 383.65 10.7 385.55V378.75H4.60001Z" fill="white"/>
<path d="M51.8 370.95C52.9 370.95 53.9 370.85 54.9 370.65C56.8 370.25 58.2 368.65 58.5 366.65C58.7 365.25 58.8 363.75 58.8 362.25C58.8 356.65 57.5 351.65 55 347.25C52.5 342.75 49 339.25 44.5 336.75C40 334.25 35 332.95 29.4 332.95C26.4 332.95 23.5 333.35 20.8 334.05C18.8 334.65 17.4 336.45 17.4 338.55V363.85C17.4 367.75 20.5 370.85 24.4 370.85H51.8V370.95Z" fill="white"/>
<path d="M10.7 339.15C7.9 341.35 5.5 344.05 3.7 347.35C1.2 351.85 0 356.85 0 362.35C0 365.35 0.399997 368.25 1.2 370.95H8.8C9.9 370.95 10.7 370.05 10.7 369.05V339.15Z" fill="white"/>
<path d="M1.90035 35.1889L5.68484 8.55263H6.11943L16.9478 30.4085L27.6675 8.55263H28.1021L31.9228 35.1889H29.2972L26.6897 16.1397L17.2737 35.1889H16.6037L7.06102 15.9949L4.47163 35.1889H1.90035Z" fill="white"/>
<path d="M48.0748 8.55263L60.4966 35.1889H57.6356L53.4527 26.4248H41.9725L37.8078 35.1889H34.8381L47.4229 8.55263H48.0748ZM47.7488 14.2022L43.1676 23.8536H52.2757L47.7488 14.2022Z" fill="white"/>
<path d="M89.4507 13.496L87.3502 15.1076C86.1913 13.5986 84.797 12.4578 83.1673 11.6852C81.5497 10.9006 79.7691 10.5083 77.8256 10.5083C75.701 10.5083 73.7333 11.0213 71.9225 12.0474C70.1117 13.0614 68.7054 14.4316 67.7034 16.1578C66.7136 17.872 66.2186 19.8035 66.2186 21.9523C66.2186 25.1996 67.3292 27.9097 69.5504 30.0826C71.7837 32.2555 74.5964 33.342 77.9886 33.342C81.7187 33.342 84.8393 31.8813 87.3502 28.9599L89.4507 30.5534C88.1228 32.2434 86.4629 33.5532 84.4711 34.4827C82.4913 35.4002 80.2762 35.8589 77.8256 35.8589C73.1659 35.8589 69.4901 34.3077 66.7981 31.2053C64.5406 28.5857 63.4119 25.4229 63.4119 21.7169C63.4119 17.8177 64.776 14.5402 67.5042 11.8844C70.2445 9.21658 73.6729 7.88265 77.7894 7.88265C80.2762 7.88265 82.5215 8.37759 84.5254 9.36747C86.5293 10.3453 88.1711 11.7215 89.4507 13.496Z" fill="white"/>
<path d="M94.8286 8.55263H110.093V11.1782H97.4905V19.5077H109.985V22.1152H97.4905V32.5633H109.985V35.1889H94.8286V8.55263Z" fill="white"/>
<path d="M114.312 8.55263H116.974V35.1889H114.312V8.55263Z" fill="white"/>
<path d="M135.788 7.88265C139.82 7.88265 143.194 9.22865 145.91 11.9206C148.626 14.6126 149.984 17.9263 149.984 21.8617C149.984 25.7609 148.626 29.0686 145.91 31.7847C143.206 34.5008 139.905 35.8589 136.005 35.8589C132.058 35.8589 128.726 34.5069 126.01 31.8028C123.294 29.0987 121.936 25.8273 121.936 21.9885C121.936 19.4293 122.551 17.0572 123.783 14.8722C125.026 12.6872 126.716 10.979 128.853 9.74773C130.99 8.50434 133.301 7.88265 135.788 7.88265ZM135.915 10.4901C133.947 10.4901 132.082 11.0032 130.32 12.0293C128.557 13.0554 127.181 14.4376 126.191 16.1759C125.201 17.9143 124.706 19.8518 124.706 21.9885C124.706 25.1513 125.799 27.8252 127.984 30.0102C130.181 32.1831 132.824 33.2695 135.915 33.2695C137.979 33.2695 139.886 32.7686 141.637 31.7666C143.399 30.7646 144.769 29.3945 145.747 27.6562C146.737 25.9178 147.232 23.9864 147.232 21.8617C147.232 19.7492 146.737 17.8418 145.747 16.1397C144.769 14.4255 143.387 13.0554 141.601 12.0293C139.814 11.0032 137.919 10.4901 135.915 10.4901ZM137.2 0.875H141.094L135.752 6.45215H133.253L137.2 0.875Z" fill="white"/>
<path d="M153.262 24.0709H163.221V26.28H153.262V24.0709Z" fill="white"/>
<path d="M178.522 8.55263L190.944 35.1889H188.083L183.9 26.4248H172.42L168.255 35.1889H165.285L177.87 8.55263H178.522ZM178.196 14.2022L173.615 23.8536H182.723L178.196 14.2022Z" fill="white"/>
<path d="M195.091 8.55263H197.77V32.6177H208.001V35.1889H195.091V8.55263Z" fill="white"/>
<path d="M3.40001 197.95H47.5C59 197.95 69.1 200.25 77.9 204.85C86.7 209.45 93.5 215.85 98.3 224.05C103.2 232.25 105.6 241.65 105.6 252.15C105.6 262.65 103.2 272.05 98.3 280.25C93.4 288.45 86.6 294.85 77.9 299.45C69.2 304.05 59 306.35 47.5 306.35H3.40001V197.95ZM46.9 296.45C56.4 296.45 64.7 294.55 71.8 290.75C78.9 286.95 84.5 281.75 88.4 275.15C92.3 268.45 94.3 260.85 94.3 252.15C94.3 243.45 92.3 235.85 88.4 229.15C84.5 222.45 78.9 217.25 71.8 213.55C64.7 209.75 56.4 207.85 46.9 207.85H14.8V296.45H46.9Z" fill="white"/>
<path d="M141.6 241.95H130.6V306.35H141.6V241.95Z" fill="white"/>
<path d="M141.6 226.95H130.6V236.35H141.6V226.95Z" fill="white"/>
<path d="M195.9 228.45C201 225.65 207.3 224.25 214.9 224.25V234.95L212.3 234.75C203.7 234.75 197 237.35 192.2 242.65C187.3 247.95 184.9 255.35 184.9 264.85V306.35H173.9V224.85H184.4V240.85C187 235.35 190.8 231.25 195.9 228.45Z" fill="white"/>
<path d="M306.5 269.05H238.3C238.9 277.55 242.2 284.35 248.1 289.55C254 294.75 261.4 297.35 270.4 297.35C275.5 297.35 280.1 296.45 284.3 294.65C288.5 292.85 292.2 290.15 295.3 286.65L301.5 293.75C297.9 298.05 293.4 301.35 287.9 303.65C282.4 305.95 276.5 307.05 270 307.05C261.6 307.05 254.2 305.25 247.8 301.75C241.3 298.15 236.3 293.25 232.7 286.95C229.1 280.65 227.3 273.55 227.3 265.55C227.3 257.55 229 250.45 232.5 244.15C236 237.85 240.7 232.95 246.8 229.45C252.8 225.95 259.6 224.15 267.2 224.15C274.7 224.15 281.5 225.95 287.5 229.45C293.5 232.95 298.2 237.85 301.6 244.05C305 250.35 306.7 257.45 306.7 265.55L306.5 269.05ZM247.4 241.25C242.1 246.25 239.1 252.75 238.3 260.85H296.1C295.4 252.75 292.4 246.25 287 241.25C281.7 236.25 275 233.75 267.1 233.75C259.3 233.75 252.7 236.25 247.4 241.25Z" fill="white"/>
<path d="M373.4 306.45C371.5 308.15 369.1 309.45 366.3 310.35C363.5 311.25 360.6 311.75 357.5 311.75C350.5 311.75 345 309.85 341.2 306.05C337.4 302.25 335.5 296.85 335.5 289.95V244.55H322.1V235.95H335.5V219.55H345.6V235.95H368.5V244.55H345.6V289.45C345.6 293.95 346.7 297.35 349 299.65C351.2 301.95 354.5 303.15 358.6 303.15C360.7 303.15 362.7 302.85 364.7 302.15C366.7 301.45 368.3 300.55 369.8 299.25L373.4 306.45Z" fill="white"/>
<path d="M511.7 228.45C516.8 225.65 523.1 224.25 530.7 224.25V234.95L528.1 234.75C519.5 234.75 512.8 237.35 508 242.65C503.1 247.95 500.7 255.35 500.7 264.85V306.35H489.7V224.85H500.2V240.85C502.8 235.35 506.6 231.25 511.7 228.45Z" fill="white"/>
<path d="M440.5 302.05C436.1 297.65 431.7 293.25 427.2 288.85C426.6 288.25 426.3 287.65 426.3 286.75C426.3 281.45 426.3 276.25 426.3 270.95C426.3 270.55 426.3 270.15 426.3 269.45C423.8 271.85 421.6 274.15 419.4 276.35C419 276.75 419 277.15 419 277.65C419 279.65 419 281.75 419 283.75C419 284.55 418.7 284.95 417.9 284.95C416.1 284.95 414.3 284.95 412.4 284.95C411.7 284.95 411.2 284.85 411.2 284.05C411.3 281.45 411 278.95 411.3 276.35C411.6 274.15 412.5 272.25 414.1 270.65C417.9 266.85 421.7 263.05 425.5 259.15C426 258.65 426.5 258.35 427.2 258.45C429 258.45 430.7 258.45 432.5 258.45C433.5 258.45 433.8 258.85 433.8 259.75C433.8 267.55 433.8 275.45 433.8 283.25C433.8 284.25 434.1 284.85 434.7 285.55C438.3 289.15 441.9 292.75 445.5 296.25C447.8 298.45 448.8 301.15 448.8 304.35C448.8 305.95 448.8 307.45 448.8 309.05C462.8 302.25 472.5 287.95 472.5 271.35C472.5 248.25 453.8 229.55 430.7 229.55C407.6 229.55 388.9 248.25 388.9 271.35C388.9 286.55 397 299.85 409.1 307.15C412.1 304.15 415.2 301.05 418.2 298.05C420.4 295.85 422.5 293.75 424.7 291.55C425 291.25 425.2 290.95 425.6 290.95C425.8 291.05 426 291.25 426.2 291.35C427.6 292.75 429 294.25 430.4 295.65C430.9 296.15 430.8 296.45 430.4 296.85C425.8 301.45 421.2 306.05 416.5 310.75C420.9 312.35 425.7 313.25 430.7 313.25C434.3 313.25 437.7 312.85 441.1 311.95C441.1 309.25 441.1 306.65 441.1 303.95C441.3 303.15 441 302.55 440.5 302.05ZM455.8 279.45C454.4 280.75 453 282.15 451.7 283.55C451.2 284.05 450.8 284.05 450.3 283.55C446.9 280.05 440.7 273.95 437.2 270.45C436.8 270.05 436.6 269.55 436.6 268.95C436.6 266.05 436.6 263.15 436.6 260.15C436.6 259.85 436.5 259.45 436.9 259.25C437.1 259.35 437.3 259.55 437.4 259.65C442.6 264.85 450.6 272.85 455.8 278.05C456.3 278.65 456.3 278.95 455.8 279.45ZM431.9 233.85C437.2 233.85 441.5 238.15 441.5 243.45C441.5 248.75 437.2 253.05 431.9 253.15C426.6 253.15 422.2 248.75 422.3 243.55C422.3 238.15 426.6 233.85 431.9 233.85Z" fill="white"/>
</svg>
