<?xml version="1.0" encoding="UTF-8"?>
<svg id="Camada_2" data-name="Camada 2" xmlns="http://www.w3.org/2000/svg" viewBox="0 0 98.48 98.49">
  <defs>
    <style>
      .cls-1 {
        fill: #f2f2f2;
        stroke-width: 0px;
      }
    </style>
  </defs>
  <g id="Camada_1-2" data-name="Camada 1">
    <g>
      <path class="cls-1" d="M46.68,54.39c-1.02-.55-2.05-1.06-2.81-1.98-.14-.16-.32-.29-.53-.27-1.18.13-1.64-.64-1.98-1.56-.19-.51-.36-1.05-.83-1.35-1.13-.73-2.32-1.32-3.7-1.42-.98-.08-1.89.09-2.59.86-.39.43-.72.32-.97-.15-.25-.47-.49-.96-.74-1.43-.14-.28-.28-.6-.63-.63-1.03-.11-2.18-.2-2.94.54-1,.98-2.12.86-3.28.82-.37-.01-.63-.19-.56-.57.11-.71-.29-1.15-.75-1.58-.35-.32-.63-.67-.71-1.16-.04-.29.24-.72-.28-.83-.45-.09-.9-.13-1.3.23-1.24,1.09-1.33,1.06-2-.47-.04-.08-.06-.15-.09-.22-.57-1.26-.4-1.72.89-2.29.28-.13.58-.22.88-.28,1.96-.4,3.77.05,5.48.99.54.3.9.25,1.37-.13,1.43-1.17,2.34-2.62,2.72-4.43.2-.95.32-1.94.79-2.81.92-1.72,1.96-3.34,4.18-3.57.6-.06,1.17.11,1.76.1,1-.02,1.28-.3,1.25-1.3-.01-.21-.05-.41-.07-.61-.08-.75.15-.95.88-.72.95.3,1.9.62,2.84.95.31.1.59.18.86-.09.6-.6,1.2-1.19,1.8-1.79.17-.17.26-.35-.06-.44-.67-.2-.93-.76-1.21-1.32-.4-.82-.79-1.67-1.41-2.37-.5-.55-1.02-.71-1.68-.23-.93.66-2.01.9-3.13.91-.82.02-1.64-.01-2.46-.01-1.85,0-2.29.3-3.02,2.01-.29.69-.52.75-1.03.19-.42-.44-.8-.8-1.5-.71-.46.05-.76-.3-.79-.78-.03-.38.02-.77-.02-1.15-.08-.77.28-1.21.98-1.43.86-.28,1.71-.56,2.56-.84.57-.19,1.12-.1,1.46.38.52.76,1.13.73,1.87.44,1.68-.67,3.38-1.22,5.23-1.11.38.02.53-.12.34-.5-.42-.85-.76-1.74-1.34-2.51-.73-.97-2.84-1.47-3.93-.93-.13.07-.26.17-.36.28-.81.94-1.92,1.44-2.98,2-.64.34-1.19.23-1.68-.26-.2-.2-.41-.39-.59-.6-.36-.44-.7-.47-1.19-.15-1.89,1.23-3.7,2.58-5.35,4.13-6.14,5.76-9.94,12.77-11.32,21.09-.09.56.07.87.49,1.16.35.24.74.4,1.14.42,1.5.06,2.67.78,3.75,1.75.83.75,1.8,1.21,2.95,1.04.66-.1,1.16.1,1.57.59.56.66,1.27.92,2.12.84.26-.02.51-.03.77-.03.66-.01.98.38.88,1.03-.06.43-.28.76-.61,1.04-.59.49-.95,1.13-1.19,1.85-.24.7-.41,1.43-.68,2.12-.35.89-.2,1.7.26,2.5.52.89,1.15,1.69,1.79,2.5.96,1.22,2.18,1.81,3.74,1.76.83-.03.98.13.91,1.01-.09,1.22.19,2.34.75,3.41.43.81.86,1.63,1.3,2.44.55,1.04.86,2.13.76,3.33-.03.43-.08.88.13,1.29,1.13,2.17,1.89,4.48,2.68,6.79.28.79.87,1.27,1.68,1.41.66.11,1.33.13,2.08-.01-.22-.51-.59-.81-.87-1.16-1.38-1.75-1.78-3.6-.71-5.66.14-.26.24-.56.32-.86.14-.51.45-.81.97-.99,1.68-.6,2.19-1.39,2.13-3.2-.01-.31-.04-.61-.05-.92-.06-1.15.09-1.39,1.15-1.77,1.39-.51,1.7-.96,1.66-2.39-.03-1.27-.02-1.29,1.19-1.82,2.24-.98,3.48-4.3,2.45-6.52-.4-.85-1.02-1.46-1.84-1.89Z"/>
      <path class="cls-1" d="M66.44,33.5c1.08.07,2.2.31,3.16-.51.54-.46,1.04-.98,1.71-1.29,1.07-.5,2.14-1.01,2.93-1.94.21-.25.49-.35.68.01.52,1.01,1.23,1.94,1.28,3.17.06,1.47,1.16,2.1,2.44,1.47.3-.14.6-.28.9-.44.54-.28.53-.61.1-1.01-.53-.49-1.05-.98-1.54-1.5-.55-.59-.5-.83.14-1.48.47-.48.88-.53,1.35,0,.55.6,1.13,1.19,1.69,1.78-1.25-2.68-2.92-5.04-4.88-7.2-.32-.35-.55-.45-.92-.04-.4.46-.94.67-1.57.68-.56.01-1.12.09-1.69.12-.85.05-1.35.5-1.59,1.31-.2.68-.07,1.37-.13,2.06-.02.2.02.46-.19.55-.26.12-.34-.16-.46-.3-.85-.95-2-.91-3.13-.94-.32,0-.52.28-.71.53-1.06,1.37-1.24,2.77-.2,4.24.19.27.27.71.63.73Z"/>
      <path class="cls-1" d="M49.24,0C22.04,0,0,22.05,0,49.24s22.04,49.25,49.24,49.25,49.24-22.05,49.24-49.25S76.43,0,49.24,0ZM79.12,74.68c-5.48,6.85-12.68,11.01-21.23,12.85-2.96.64-5.97.96-9.01.97-9.93-.14-18.59-3.56-25.95-10.22-6.33-5.73-10.52-12.77-12.22-21.15-2.25-11.07-.08-21.35,6.39-30.58,6.08-8.67,14.42-14.08,24.85-15.98,12.5-2.28,23.69.88,33.35,9.04,7.12,6.01,11.14,13.87,12.43,23.04,1.68,11.86-1.1,22.64-8.61,32.03Z"/>
      <path class="cls-1" d="M84.25,39.17c-.63-.28-1.24-.6-1.86-.91-.39-.19-.79-.24-1.19-.04-1.16.59-2.41,1.05-3.26,2.12-.19.23-.44.4-.74.25-1.05-.52-2.23-.87-3.04-1.77-.58-.65-1.23-.94-2.1-.86-.51.04-1.03.03-1.54,0-1.03-.07-1.96.15-2.86.69-.97.58-2.05.82-3.17.76-1.46-.07-2.37.7-2.45,2.18-.04.77-.04,1.54.01,2.31.04.69-.18,1.24-.7,1.7-.34.31-.69.63-.7,1.15-.03,1.9,0,3.78.47,5.65,1.02,3.98,5.32,4.49,7.63,3.19,2.23-1.25,4.37-.99,6.52.13.67.35.98.84.92,1.61-.08,1.09.06,2.14.62,3.12.76,1.35.72,1.59-.39,2.71-.23.23-.48.46-.73.68-.91.82-.88.92-.4,2.03.88,2.06,2.58,3.81,2.3,6.3.29-.03.35-.23.45-.36,1.31-1.65,2.47-3.4,3.46-5.26,2.34-4.37,3.77-9.02,4.2-13.97.36-4.25.09-8.45-.98-12.59-.08-.3-.08-.65-.47-.82Z"/>
    </g>
  </g>
</svg>