<svg width="60" height="60" viewBox="0 0 60 60" fill="none" xmlns="http://www.w3.org/2000/svg">
<g clip-path="url(#clip0_4564_252)">
<path d="M30 60C46.5685 60 60 46.5685 60 30C60 13.4315 46.5685 0 30 0C13.4315 0 0 13.4315 0 30C0 46.5685 13.4315 60 30 60Z" fill="white"/>
<path d="M48.2831 43.545C48.2831 44.2121 48.0619 44.8203 47.7034 45.259C47.3449 45.6978 46.8509 45.9689 46.3051 45.9689H12.9038C11.8104 45.9689 10.9258 44.8827 10.9258 43.545C10.9258 42.8761 11.1469 42.2697 11.5054 41.831C11.864 41.3922 12.358 41.1211 12.9038 41.1211H46.3051C47.3984 41.1211 48.2831 42.2055 48.2831 43.545Z" fill="#92C01F"/>
<path d="M20.1177 41.9245H14.5547V22.5209C14.5547 20.987 15.8032 19.7402 17.3353 19.7402C18.0791 19.7402 18.7764 20.0292 19.3026 20.5553C19.827 21.0797 20.1177 21.7789 20.1177 22.5226V41.9263V41.9245ZM16.1599 40.3193H18.5125V22.5209C18.5125 22.2069 18.3894 21.9109 18.1682 21.6897C17.9471 21.4685 17.651 21.3455 17.3371 21.3455C16.6879 21.3455 16.1617 21.8734 16.1617 22.5209V40.3193H16.1599Z" fill="#92C01F"/>
<path d="M45.4439 41.9245H39.8809V22.5209C39.8809 20.987 41.1294 19.7402 42.6615 19.7402C43.4052 19.7402 44.1026 20.0292 44.6288 20.5553C45.1532 21.0797 45.4439 21.7789 45.4439 22.5226V41.9263V41.9245ZM41.4879 40.3193H43.8404V22.5209C43.8404 22.2069 43.7174 21.9109 43.4962 21.6897C43.275 21.4685 42.979 21.3455 42.665 21.3455C42.0158 21.3455 41.4897 21.8734 41.4897 22.5209V40.3193H41.4879Z" fill="#92C01F"/>
<path d="M44.2885 54.191H41.0388C40.0578 54.191 39.2891 53.5525 39.2891 52.7374V45.166H46.0382V52.7374C46.0382 53.5525 45.2694 54.191 44.2885 54.191ZM40.8943 52.5661C40.93 52.5768 40.9799 52.5858 41.0388 52.5858H44.2885C44.3491 52.5858 44.3973 52.5768 44.4329 52.5661V46.773H40.8943V52.5679V52.5661Z" fill="#92C01F"/>
<path d="M18.9603 54.191H15.7106C14.7297 54.191 13.9609 53.5525 13.9609 52.7374V45.166H20.71V52.7374C20.71 53.5525 19.9413 54.191 18.9603 54.191ZM15.5662 52.5661C15.6018 52.5768 15.65 52.5858 15.7106 52.5858H18.9603C19.021 52.5858 19.0691 52.5768 19.1048 52.5661V46.773H15.5662V52.5679V52.5661Z" fill="#92C01F"/>
<path d="M40.6854 24.8965H19.3145V35.582H40.6854V24.8965Z" fill="#92C01F"/>
<path d="M22.5585 14.0999C22.1144 14.0999 21.7559 13.7414 21.7559 13.2973C21.7559 11.4548 22.9473 9.80857 24.7915 9.10227C25.2053 8.94353 25.6691 9.15042 25.8278 9.56422C25.9865 9.97801 25.7796 10.4417 25.3658 10.6005C24.1477 11.0678 23.3611 12.1255 23.3611 13.2973C23.3611 13.7414 23.0026 14.0999 22.5585 14.0999Z" fill="#92C01F"/>
<path d="M22.5591 14.0999C22.115 14.0999 21.7565 13.7414 21.7565 13.2973C21.7565 12.1255 20.9699 11.0678 19.7517 10.6005C19.3379 10.4417 19.131 9.97801 19.2898 9.56422C19.4485 9.15042 19.9122 8.94353 20.326 9.10227C22.1703 9.80857 23.3617 11.4566 23.3617 13.2973C23.3617 13.7414 23.0032 14.0999 22.5591 14.0999Z" fill="#92C01F"/>
<path d="M30.8417 8.12137C30.3976 8.12137 30.0391 7.76287 30.0391 7.31876C30.0391 5.47631 31.2305 3.83005 33.0747 3.12375C33.4885 2.96501 33.9523 3.17191 34.111 3.5857C34.2697 3.99949 34.0628 4.46323 33.6491 4.62197C32.4309 5.08927 31.6443 6.14694 31.6443 7.31876C31.6443 7.76287 31.2858 8.12137 30.8417 8.12137Z" fill="#92C01F"/>
<path d="M30.8423 8.12137C30.3982 8.12137 30.0397 7.76287 30.0397 7.31876C30.0397 6.14694 29.2531 5.08927 28.0349 4.62197C27.6211 4.46323 27.4142 3.99949 27.573 3.5857C27.7317 3.17191 28.1954 2.96501 28.6092 3.12375C30.4535 3.83005 31.6449 5.47809 31.6449 7.31876C31.6449 7.76287 31.2864 8.12137 30.8423 8.12137Z" fill="#92C01F"/>
<path d="M37.1229 13.928C36.6788 13.928 36.3203 13.5695 36.3203 13.1254C36.3203 11.2829 37.5118 9.63669 39.356 8.93039C39.7698 8.77165 40.2335 8.97855 40.3923 9.39234C40.551 9.80613 40.3441 10.2699 39.9303 10.4286C38.7121 10.8959 37.9255 11.9536 37.9255 13.1254C37.9255 13.5695 37.567 13.928 37.1229 13.928Z" fill="#92C01F"/>
<path d="M37.1235 13.928C36.6794 13.928 36.3209 13.5695 36.3209 13.1254C36.3209 11.9536 35.5344 10.8959 34.3162 10.4286C33.9024 10.2699 33.6955 9.80613 33.8542 9.39234C34.013 8.97855 34.4767 8.77165 34.8905 8.93039C36.7347 9.63669 37.9262 11.2847 37.9262 13.1254C37.9262 13.5695 37.5677 13.928 37.1235 13.928Z" fill="#92C01F"/>
<path d="M53.5095 28.3594H51.9043V53.3903H53.5095V28.3594Z" fill="#92C01F"/>
<path d="M57.7847 34.0804C57.7847 38.8676 55.5106 38.3575 52.7068 38.3575C49.903 38.3575 47.6289 38.8676 47.6289 34.0804C47.6289 29.2933 49.903 20.543 52.7068 20.543C55.5106 20.543 57.7847 29.2933 57.7847 34.0804Z" fill="#92C01F"/>
<path d="M8.09547 28.3594H6.49023V53.3903H8.09547V28.3594Z" fill="#92C01F"/>
<path d="M2.21484 34.0804C2.21484 38.8676 4.48892 38.3575 7.29273 38.3575C10.0965 38.3575 12.3706 38.8676 12.3706 34.0804C12.3706 29.2933 10.0965 20.543 7.29273 20.543C4.48892 20.543 2.21484 29.2933 2.21484 34.0804Z" fill="#92C01F"/>
<path d="M42.6643 29.4355H18.0918V31.0408H42.6643V29.4355Z" fill="white"/>
</g>
<defs>
<clipPath id="clip0_4564_252">
<rect width="60" height="60" fill="white"/>
</clipPath>
</defs>
</svg>
