<?xml version="1.0" encoding="UTF-8"?>
<svg id="Camada_2" data-name="Camada 2" xmlns="http://www.w3.org/2000/svg" viewBox="0 0 100.2 100.2">
  <defs>
    <style>
      .cls-1 {
        fill: #fff;
        stroke-width: 0px;
      }
    </style>
  </defs>
  <g id="Camada_1-2" data-name="Camada 1">
    <g>
      <path class="cls-1" d="M27.1,88.32c.66,0,.91-.22.89-.9-.04-1.2-.03-2.4,0-3.59.01-.53-.14-.79-.72-.79-4.05.02-8.1.02-12.15,0-.59,0-.73.26-.72.79.01.48.01.96.01,1.44,1.05,1.06,2.14,2.07,3.27,3.03,1.17,0,2.34.01,3.51.01,1.97,0,3.94-.02,5.91.01Z"/>
      <path class="cls-1" d="M27.09,50.18c-1.93.03-3.87.01-5.8.01s-4.04.02-6.06-.01c-.64-.01-.9.21-.83.84.03.2.03.4,0,.6-.13.87.26,1.12,1.11,1.11,3.61-.04,7.22-.02,10.84-.02,1.66,0,1.63,0,1.65-1.67,0-.7-.26-.87-.91-.86Z"/>
      <path class="cls-1" d="M15.39,41.77c1.94-.04,3.87,0,5.81-.02,1.96,0,3.92-.01,5.88.01.65,0,.98-.19.9-.88-.02-.19-.02-.4,0-.59.12-.81-.19-1.09-1.03-1.08-3.67.05-7.34.02-11.01.03-1.7,0-1.49-.21-1.55,1.56-.02.77.28.98,1,.97Z"/>
      <path class="cls-1" d="M15.28,58.19c1.97-.03,3.94-.01,5.91-.01s3.88-.02,5.82.02c.74,0,1.07-.23.97-.99-.02-.19-.02-.4,0-.59.11-.76-.22-.98-.96-.97-3.68.03-7.36.01-11.04.02-1.75,0-1.54-.24-1.58,1.62-.02.67.21.91.88.9Z"/>
      <path class="cls-1" d="M15.32,36.29c1.97-.03,3.93-.01,5.89-.01s3.82-.04,5.72.01c.83.02,1.17-.26,1.05-1.07-.02-.17-.02-.35,0-.52.11-.75-.22-.97-.96-.96-3.67.03-7.34.01-11.01.02-1.78,0-1.57-.23-1.62,1.58-.02.71.23.96.93.95Z"/>
      <path class="cls-1" d="M26.96,44.7c-3.64.03-7.28,0-10.92,0-1.81.01-1.6-.26-1.64,1.64-.02.68.24.9.89.89,1.94-.02,3.87-.01,5.81-.01h5.37c1.52,0,1.48,0,1.53-1.54.03-.82-.28-1-1.04-.99Z"/>
      <path class="cls-1" d="M27.01,61.13c-1.94.04-3.88,0-5.82,0s-3.99.02-5.99,0c-.58,0-.86.18-.8.79.03.22.03.46,0,.68-.11.83.24,1.08,1.06,1.08,3.65-.04,7.3-.02,10.95-.02,1.59,0,1.55,0,1.59-1.57.02-.77-.25-.98-.99-.96Z"/>
      <path class="cls-1" d="M27.01,66.6c-1.94.05-3.88.02-5.82.02s-3.99.01-5.99-.01c-.58-.01-.86.18-.8.79.03.22.03.45,0,.68-.11.82.24,1.08,1.06,1.07,3.65-.03,7.3-.01,10.95-.01,1.59,0,1.55,0,1.59-1.57.02-.77-.25-.98-.99-.97Z"/>
      <path class="cls-1" d="M27.01,72.08c-1.91.05-3.82.02-5.73.02-2.03,0-4.05.01-6.08-.01-.58-.01-.86.18-.8.78.03.23.03.46,0,.69-.11.82.24,1.08,1.06,1.07,3.65-.04,7.3-.01,10.95-.01,1.59,0,1.55-.01,1.59-1.58.02-.76-.25-.98-.99-.96Z"/>
      <path class="cls-1" d="M29.24,80.14c1.17.13,1.59.6,1.6,1.79,0,1.83,0,3.65,0,5.48,0,.27-.1.66.2.77.68.26,1.43.22,2.11.04.53-.14.3-.73.3-1.12.01-9.62.01-19.23.01-28.84v-28.66q0-1.32-1.36-1.32H10.19q-1.26,0-1.26,1.25v49.12c.82,1.19,1.69,2.34,2.62,3.45v-.35c0-.95.43-1.42,1.36-1.57.42-.07.85-.08,1.27-.08,4.57-.01,9.13-.01,13.69-.01.46,0,.92,0,1.37.05ZM13.58,77.57c-1.59,0-2.03-.44-2.03-2.02v-42.7c0-1.5.45-2.02,1.98-2.03,5.1-.03,10.21-.03,15.31,0,1.57,0,2,.52,2,2.1v42.53c0,1.71-.41,2.12-2.11,2.12-5.05,0-10.1,0-15.15,0Z"/>
      <path class="cls-1" d="M37.43,88.32c7.44-.02,14.89-.02,22.34,0,.88,0,1.1-.3,1.09-1.14-.03-5.53-.02-11.07-.02-16.6s-.01-11.07.02-16.61c0-.8-.2-1.07-1.04-1.07-7.51.03-15.01.03-22.51,0-.8,0-1.01.25-1.01,1.02.02,11.1.03,22.2,0,33.3,0,.88.29,1.1,1.13,1.09Z"/>
      <path class="cls-1" d="M62.5,49.97c.33,0,.8.13.95-.21.28-.63.22-1.36.07-2.01-.13-.54-.74-.29-1.13-.29-8.29,0-16.58,0-24.87,0-.2,0-.4,0-.6,0-.43-.02-.62.19-.6.62,0,.25,0,.51,0,.77q0,1.13,1.14,1.13h25.04Z"/>
      <path class="cls-1" d="M50.1,100.2c6.51,0,12.73-1.24,18.44-3.51H31.66c5.71,2.27,11.93,3.51,18.44,3.51Z"/>
      <path class="cls-1" d="M25.56,93.78c8.13.01,16.26.01,24.39.01h24.68c1.38-.77,2.72-1.61,4.02-2.52H21.55c1.29.9,2.63,1.74,4.01,2.51Z"/>
      <path class="cls-1" d="M87.4,71.07c-.32-.12-.41-.29-.42-.59-.03-.82-.24-1.59-.62-2.32-1.13-2.22-3.54-3.59-6.27-3.18-2.62.4-4.8,2.77-4.93,5.42q-.03.51-.49.68c-2.83,1.02-4.45,3.83-3.9,6.73.78,4.09,5.48,6.12,9.01,3.89.34-.22.52-.45.46-.85-.03-.15-.02-.31,0-.46.03-.25-.07-.39-.3-.51-1.04-.53-2.07-1.09-3.11-1.62-.23-.12-.25-.23-.13-.44.18-.3.34-.62.49-.94.1-.21.21-.25.42-.13.78.42,1.56.82,2.34,1.23q.28.15.28-.17v-3.07c0-1.04.01-2.08,0-3.13,0-.22.07-.3.3-.29.35,0,.71,0,1.06,0,.26-.02.32.09.32.33-.01.87,0,1.74-.01,2.61,0,.22.05.24.24.14.78-.43,1.57-.82,2.35-1.25.25-.14.36-.09.47.15.14.3.3.58.45.87.17.33.17.32-.16.5-1.05.55-2.09,1.1-3.13,1.64-.13.07-.22.14-.22.31.01,1.52.01,3.04,0,4.57,0,.13.05.21.15.29,1.29.92,2.73,1.28,4.29,1.08,1.18-.16,2.2-.62,3.06-1.39.55-.68,1.07-1.38,1.58-2.1.45-.97.59-2.03.43-3.16-.35-2.4-1.73-4.02-4.01-4.84Z"/>
      <path class="cls-1" d="M72.61,31.36c-.09,0-.34-.02-.5-.23-.17-.21-.14-.46-.12-.54.04-.29.04-.6.01-.9-.13-1.02-.73-1.9-1.65-2.43-.92-.53-1.98-.6-2.93-.2-.09.04-.35.15-.61.03-.26-.11-.36-.36-.4-.47-.73-1.94-2.62-3.09-4.71-2.86-2.27.26-3.97,2.2-3.95,4.52.01.65-.4.8-.72.85-1.54.28-2.58,1.14-3.19,2.61-.07.16-.11.33-.16.52-.02.1-.04.2-.07.3v1.28c.04.09.06.17.08.26.42,1.79,2.05,3.14,3.8,3.14,5.14.01,10.23.01,15.13,0,.79,0,1.57-.38,2.12-1.05.56-.67.81-1.52.66-2.33-.26-1.45-1.31-2.39-2.79-2.5Z"/>
      <path class="cls-1" d="M50.1,0C22.43,0,0,22.43,0,50.1c0,8.66,2.2,16.81,6.07,23.91,0-15.6,0-31.2-.01-46.8,0-.39.07-.73.21-1.05h29.84c.15.35.22.72.21,1.14-.01,5.36,0,10.73-.02,16.09-.01.86.24,1.12,1.11,1.12,8.7-.03,17.4-.02,26.1-.02.34,0,.69,0,1.03.02,1.46.09,1.9.55,1.9,2.03s.01,3.08,0,4.62c-.01,1.22-.51,1.78-1.7,1.74-.83-.02-1.06.25-1.05,1.07.02,11.07.01,22.14.01,33.21,0,1.12.01,1.13,1.16,1.13h4.12v.02h11.25v-4.64q0-.3-.27-.17c-4.31,2.13-9.52-.24-10.73-4.9-.92-3.53.75-7.16,4.02-8.77.21-.1.3-.23.34-.44.63-3.12,2.93-5.44,6.02-6.06,3.32-.68,6.81,1.05,8.29,4.11.31.64.54,1.3.66,2,.03.18.11.28.28.37,2.38,1.19,3.84,3.1,4.23,5.72,0,.09.02.18.03.27,4.51-7.52,7.1-16.31,7.1-25.72C100.2,22.43,77.77,0,50.1,0ZM74.38,16.98c.41-.5.87-.95,1.36-1.37.33-.28.81-.21,1.1.09.3.29.36.75.09,1.08-.42.5-.89.96-1.38,1.38-.13.11-.31.16-.49.15-.34-.01-.59-.16-.74-.46-.16-.3-.16-.62.06-.87ZM69.25,14.57c0-.28-.01-.57,0-.85.01-.48.37-.81.86-.81.46,0,.82.35.83.81.01.58.01,1.15,0,1.73-.01.46-.38.8-.85.8s-.83-.35-.84-.8c-.01-.29,0-.59,0-.88ZM69.09,17.12c.33-.07.66-.09.94-.08,2.79,0,5.05,1.95,5.41,4.65.27,2.04-.45,3.7-2.03,5-.26.21-.38.19-.61-.06-1.08-1.23-2.45-1.86-4.09-1.91-.2,0-.41.03-.61.04-.18.02-.31-.04-.42-.2-.68-1.01-1.58-1.79-2.69-2.3-.22-.1-.31-.25-.27-.49.36-2.4,2.01-4.16,4.37-4.65ZM63.36,15.69c.31-.31.79-.35,1.12-.05.45.41.88.85,1.3,1.29.14.14.2.34.19.54-.01.35-.18.61-.49.76-.32.15-.64.12-.89-.11-.45-.41-.89-.84-1.3-1.29-.31-.34-.25-.84.07-1.14ZM75.48,36.81c-.74.89-1.78,1.39-2.86,1.4h-15.13c-2.19,0-4.22-1.68-4.74-3.89l-.06-.24-.05-.18v-1.47l.02-.07c.03-.1.06-.21.08-.32.06-.22.11-.44.2-.67.73-1.75,2.02-2.82,3.85-3.17.02-2.78,2.07-5.09,4.8-5.4,1.23-.13,2.43.13,3.47.76.99.59,1.74,1.47,2.18,2.53,1.18-.43,2.47-.31,3.59.33,1.18.68,1.96,1.83,2.12,3.15.04.29.05.58.03.86,1.77.25,3.05,1.47,3.37,3.26.2,1.09-.12,2.22-.87,3.12ZM76.83,29.17c-.31.3-.8.34-1.13.04-.45-.41-.87-.85-1.29-1.29-.14-.13-.2-.32-.19-.52,0-.35.16-.61.47-.77.32-.16.66-.13.92.11.45.41.88.84,1.29,1.29.3.34.25.83-.07,1.14ZM79.61,22.69c-.18.41-.5.6-.96.59-.5-.02-1-.01-1.5-.01s-.86-.35-.87-.83c0-.5.35-.85.87-.86.48,0,.97.02,1.45,0,.48-.03.82.15,1.01.59v.52Z"/>
    </g>
  </g>
</svg>