<?xml version="1.0" encoding="UTF-8"?>
<svg id="Camada_2" data-name="Camada 2" xmlns="http://www.w3.org/2000/svg" width="28.96413" height="32.33707" viewBox="0 0 28.96413 32.33707">
  <g id="Camada_1-2" data-name="Camada 1">
    <path d="m12.50318,32.33707c-.76599-.17837-1.53406-.33582-2.25916-.66802-1.49403-.68448-2.71614-1.70922-3.76963-2.94713-.80017-.94024-1.46236-1.97121-2.00508-3.08515-1.33985-2.75005-2.70641-5.48707-4.05524-8.23276-1.13541-2.31125.16225-4.89654,2.69636-5.35906.96995-.17703,1.85287.08518,2.658.63715.51499.35306.9519.79043,1.37226,1.27834.09918-.12085.05898-.24899.05908-.36276.00266-3.23868.00143-6.47736.00266-9.71604.00034-.89416.19696-1.72653.7534-2.45426.90837-1.18797,2.45435-1.70327,3.88688-1.28224,1.44439.42451,2.46617,1.67248,2.57552,3.17314.09944,1.36471.01989,2.73233.04132,4.09847.00673.42884.00235.42891.41704.32093,1.63655-.42614,3.52971.52784,4.19244,2.13671.11954.29021.21968.3689.54439.27659,1.82286-.5182,3.80245.57632,4.34662,2.39239.08098.27025.18053.30523.44076.23463,2.23398-.60604,4.48471,1.06383,4.51414,3.38309.03148,2.48115.10175,4.96769-.01846,7.44345-.16857,3.47163-1.87718,6.05592-4.92394,7.7391-.99717.55089-2.08817.81583-3.20374.99341h-8.26562Zm-2.82447-20.89487c0,2.59733-.00374,5.19468.00547,7.79197.00098.27579-.08392.41861-.35131.50126-.46147.14264-.91254.31896-1.3677.4819-.39856.14268-.4052.14524-.5279-.24915-.36979-1.18859-.82942-2.33836-1.47483-3.40651-.40918-.67721-.86191-1.31928-1.50215-1.80836-.91369-.69798-1.89502-.02633-2.00818.77331-.04712.33298.07624.61933.21614.90301,1.37641,2.79084,2.75538,5.58041,4.13072,8.37178.40214.81618.91232,1.55906,1.49447,2.25535.65163.77939,1.38352,1.46482,2.25576,1.99773.86264.52704,1.7943.85231,2.8008.85382,2.35446.00353,4.7128.11525,7.06269-.05066,2.15568-.1522,3.79919-1.24945,4.98903-3.03021.77801-1.1644,1.07531-2.47685,1.0841-3.85974.00989-1.55623.00505-3.11259-.00195-4.66886-.00317-.70397-.01514-1.40835-.04501-2.11161-.0271-.63792-.50077-1.0694-1.13457-1.06774-.6958.00182-1.15413.5006-1.16517,1.29055-.01014.72543-.00975,1.45121.00087,2.17662.00356.24345-.07825.33826-.32679.33267-.54653-.01228-1.09353-.00307-1.64033-.00353q-.47634-.00041-.47704-.49298c-.00035-1.54578-.00158-3.09156.00088-4.63734.00048-.30237-.05358-.58566-.23674-.83319-.28578-.3862-.78698-.56037-1.231-.43025-.49566.14525-.82755.54419-.83258,1.06396-.01241,1.28277-.0127,2.56576-.00307,3.84855.00215.2868-.09829.39611-.38329.38941-.52548-.01236-1.05147-.00262-1.57724-.00329q-.5224-.00067-.5231-.52504c-.00057-1.99795.00161-3.9959-.00266-5.99383-.00113-.53075-.28024-.92138-.77067-1.11634-.4767-.18951-.95419-.07622-1.32004.31376-.25101.26756-.34635.58617-.34525.95099.00539,1.79814.00238,3.5963.00219,5.39445q-.00006.55796-.57258.55811c-.4732.00008-.9464.00029-1.41959-.00007q-.49685-.00038-.49751-.50649c-.00018-4.31136-.00006-8.62272-.00033-12.93408,0-.14719.00469-.29498-.0064-.44146-.05505-.72746-.77632-1.22058-1.47224-1.01006-.52266.1581-.82394.58904-.82448,1.20271-.00228,2.5763-.00096,5.1526-.0014,7.7289Z" style="fill: #fff; stroke-width: 0px;"/>
  </g>
</svg>