<svg width="219" height="113" viewBox="0 0 219 113" fill="none" xmlns="http://www.w3.org/2000/svg">
<g clip-path="url(#clip0_42_594)">
<path d="M12.5567 4.09569C12.8256 4.09569 12.9387 4.2318 12.849 4.50013L8.19897 18.6674C8.13271 18.8696 7.99629 18.959 7.7936 18.959H5.76287C5.56019 18.959 5.42376 18.8696 5.3575 18.6674L0.707469 4.50013C0.684083 4.45346 0.684082 4.41069 0.684082 4.34069C0.684082 4.18124 0.797118 4.0918 0.999801 4.0918H3.03054C3.23322 4.0918 3.36964 4.18124 3.4359 4.38346L5.31073 10.0146C5.51341 10.6212 5.85252 11.8151 6.32804 13.5962L6.80357 15.3968L7.2791 13.5962C7.75463 11.8151 8.09373 10.6212 8.29642 10.0146L10.1479 4.38346C10.2141 4.18124 10.3505 4.0918 10.5532 4.0918H12.5645L12.5567 4.09569Z" fill="#F4BB49"/>
<path d="M24.3631 18.5585C24.3865 18.6052 24.3865 18.648 24.3865 18.718C24.3865 18.8774 24.2735 18.9668 24.0708 18.9668H21.9699C21.7672 18.9668 21.6308 18.8774 21.5646 18.6752L20.6174 15.7702H15.4918L14.5447 18.6752C14.4784 18.8774 14.342 18.9668 14.1393 18.9668H12.0384C11.7695 18.9668 11.6564 18.8307 11.7461 18.5624L16.5559 4.39518C16.6222 4.19296 16.7586 4.10352 16.9613 4.10352H19.1518C19.3545 4.10352 19.4909 4.19296 19.5572 4.39518L24.367 18.5624L24.3631 18.5585ZM19.8262 13.3746L19.3974 12.0018C19.1947 11.3952 18.9024 10.4035 18.5165 8.98407L18.041 7.31574C17.9279 7.74352 17.8149 8.10518 17.7253 8.44352C17.2302 10.2674 16.8911 11.4613 16.7079 12.0018L16.2792 13.3746H19.8223H19.8262Z" fill="#F4BB49"/>
<path d="M42.2696 18.6479C42.2696 18.8501 42.1565 18.9629 41.9538 18.9629H39.9426C39.7399 18.9629 39.6035 18.8501 39.5801 18.6246L38.6524 12.904L38.0873 8.91792C37.7014 10.314 37.3194 11.644 36.914 12.9274L35.0158 18.6713C34.9496 18.8735 34.8365 18.9629 34.6338 18.9629H33.0552C32.8526 18.9629 32.7161 18.8735 32.6499 18.6713L30.7984 12.9935C30.3697 11.5974 29.9643 10.2246 29.5784 8.89459L29.4654 9.68404L28.9899 12.9935L28.109 18.6246C28.0622 18.8501 27.9297 18.9629 27.7231 18.9629H25.7352C25.4858 18.9629 25.3727 18.8268 25.4195 18.5818L27.6763 4.43404C27.6997 4.23181 27.8361 4.0957 28.0388 4.0957H30.1163C30.319 4.0957 30.432 4.18515 30.4983 4.38737L32.6421 10.874C32.9812 11.9085 33.3632 13.2851 33.8387 14.9729C34.1778 13.6896 34.5598 12.3168 35.0353 10.874L37.1557 4.38737C37.222 4.18515 37.335 4.0957 37.5416 4.0957H39.6191C39.8218 4.0957 39.9582 4.20848 40.0011 4.43404L42.2579 18.5818V18.6479H42.2696Z" fill="#F4BB49"/>
<path d="M43.6919 11.531C43.6919 6.03604 45.4966 3.82715 49.901 3.82715C54.3055 3.82715 56.0634 6.03604 56.0634 11.531C56.0634 17.026 54.2353 19.2349 49.901 19.2349C45.5667 19.2349 43.6919 17.026 43.6919 11.531ZM53.1751 11.531C53.1751 7.45548 52.3839 6.28104 49.901 6.28104C47.4182 6.28104 46.6035 7.45159 46.6035 11.531C46.6035 15.6105 47.4143 16.781 49.901 16.781C52.3878 16.781 53.1751 15.6105 53.1751 11.531Z" fill="#F4BB49"/>
<path d="M66.4704 6.16826C66.4704 6.41715 66.334 6.52993 66.0651 6.48326C65.0049 6.32381 64.1006 6.21104 63.13 6.21104C60.8966 6.21104 60.3315 6.63881 60.3315 7.99215C60.3315 9.13937 60.7368 9.63715 62.7715 10.2671L63.8784 10.6055C66.7238 11.5077 67.6047 12.5655 67.6047 14.8871C67.6047 17.9516 66.069 19.2349 62.1868 19.2349C60.8538 19.2349 59.5012 19.0755 58.1019 18.7605C57.8992 18.7138 57.7862 18.5816 57.7862 18.3327V16.711C57.7862 16.4194 57.9226 16.3066 58.1916 16.3727C59.9768 16.711 60.9239 16.8238 62.0738 16.8238C64.1513 16.8238 64.849 16.3299 64.849 14.8871C64.849 13.7399 64.4436 13.3783 62.2063 12.7016L61.302 12.4099C58.5931 11.601 57.5991 10.3138 57.5991 7.99604C57.5991 5.13382 59.1348 3.82715 62.8143 3.82715C63.8745 3.82715 65.0049 3.93993 66.1547 4.18882C66.3574 4.23548 66.4704 4.3677 66.4704 4.56993V6.16826Z" fill="#F4BB49"/>
<path d="M9.89865 87.8345C9.89865 88.0328 9.78951 88.1222 9.57514 88.0872C8.72932 87.9628 8.00824 87.8734 7.23648 87.8734C5.4552 87.8734 5.00306 88.2156 5.00306 89.2928C5.00306 90.2106 5.32657 90.6034 6.94804 91.1089L7.82894 91.3773C10.0974 92.0967 10.799 92.9406 10.799 94.7917C10.799 97.2339 9.57514 98.2606 6.47642 98.2606C5.41622 98.2606 4.33264 98.1361 3.21788 97.8834C3.05418 97.8484 2.96453 97.7395 2.96453 97.5411V96.2461C2.96453 96.0128 3.07367 95.9234 3.28804 95.9778C4.71073 96.2461 5.4669 96.3356 6.38287 96.3356C8.03942 96.3356 8.5968 95.9389 8.5968 94.7917C8.5968 93.8739 8.27328 93.59 6.49201 93.0495L5.77092 92.8161C3.61156 92.1706 2.82031 91.1439 2.82031 89.2967C2.82031 87.0139 4.04421 85.9756 6.97923 85.9756C7.82504 85.9756 8.72543 86.065 9.6453 86.2634C9.809 86.2984 9.89865 86.4073 9.89865 86.5706V87.8461V87.8345Z" fill="#F4BB49"/>
<path d="M12.062 92.1122C12.062 87.7294 13.5003 85.9678 17.0122 85.9678C20.5241 85.9678 21.9273 87.7294 21.9273 92.1122C21.9273 96.495 20.4695 98.2567 17.0122 98.2567C13.5549 98.2567 12.062 96.495 12.062 92.1122ZM19.6237 92.1122C19.6237 88.8611 18.9922 87.9278 17.0122 87.9278C15.0321 87.9278 14.3851 88.8611 14.3851 92.1122C14.3851 95.3633 15.0321 96.2967 17.0122 96.2967C18.9922 96.2967 19.6237 95.3633 19.6237 92.1122Z" fill="#F4BB49"/>
<path d="M32.5991 94.7138C32.5991 97.0122 31.4297 98.035 28.6039 98.035H24.3358C24.137 98.035 24.0474 97.9455 24.0474 97.7472V86.4655C24.0474 86.2672 24.137 86.1777 24.3358 86.1777H28.2414C30.7632 86.1777 32.0222 87.185 32.0222 89.3588C32.0222 90.6694 31.5545 91.4588 30.4748 91.875C32.0066 92.2327 32.5991 93.1155 32.5991 94.7138ZM26.2457 87.9977V91.0505H28.027C29.3756 91.0505 29.8083 90.6383 29.8083 89.5066C29.8083 88.375 29.3561 87.9977 28.0426 87.9977H26.2418H26.2457ZM28.4596 96.2227C29.8823 96.2227 30.3306 95.8261 30.3306 94.5505C30.3306 93.275 29.8628 92.8822 28.2959 92.8822H26.2418V96.2227H28.4557H28.4596Z" fill="#F4BB49"/>
<path d="M42.6985 97.6967C42.718 97.7705 42.7336 97.8211 42.7336 97.8405C42.7336 97.965 42.6439 98.0389 42.4646 98.0389H40.773C40.6093 98.0389 40.504 97.9689 40.4495 97.825L38.7228 93.8389H36.7232V97.755C36.7232 97.9533 36.6336 98.0428 36.4348 98.0428H34.7977C34.5989 98.0428 34.5093 97.9533 34.5093 97.755V86.4733C34.5093 86.275 34.5989 86.1855 34.7977 86.1855H38.6136C41.4395 86.1855 42.6088 87.2628 42.6088 90.0122C42.6088 91.9528 42.0515 93.03 40.773 93.5161L42.6985 97.7006V97.6967ZM36.7232 91.9683H38.3992C39.9311 91.9683 40.3442 91.5717 40.3442 90.0122C40.3442 88.4528 39.9311 88.1067 38.3992 88.1067H36.7232V91.9683Z" fill="#F4BB49"/>
<path d="M51.8972 96.0789C52.096 96.0789 52.1856 96.1683 52.1856 96.3666V97.7511C52.1856 97.9494 52.096 98.0389 51.8972 98.0389H45.1112C44.9124 98.0389 44.8228 97.9494 44.8228 97.7511V86.4694C44.8228 86.2711 44.9124 86.1816 45.1112 86.1816H51.7179C51.9167 86.1816 52.0063 86.2711 52.0063 86.4694V87.8539C52.0063 88.0522 51.9167 88.1416 51.7179 88.1416H47.0367V91.14H51.1956C51.3944 91.14 51.484 91.2294 51.484 91.4278V92.7733C51.484 92.9716 51.3944 93.0611 51.1956 93.0611H47.0367V96.0789H51.8972Z" fill="#F4BB49"/>
<path d="M66.2292 97.7161C66.2487 97.7511 66.2487 97.7861 66.2487 97.8405C66.2487 97.965 66.1591 98.0389 65.9954 98.0389H64.3193C64.1556 98.0389 64.0504 97.9689 63.9958 97.8055L63.2396 95.4878H59.1509L58.3947 97.8055C58.3401 97.9689 58.231 98.0389 58.0712 98.0389H56.3952C56.1808 98.0389 56.0872 97.93 56.1613 97.7161L59.9967 86.4189C60.0513 86.2555 60.1604 86.1855 60.3202 86.1855H62.0664C62.2301 86.1855 62.3354 86.2555 62.3899 86.4189L66.2253 97.7161H66.2292ZM62.6082 93.5822L62.2652 92.4856C62.1015 91.9994 61.8676 91.21 61.5636 90.0783L61.1855 88.7483C61.0959 89.0906 61.0062 89.3783 60.9322 89.6467C60.5346 91.1011 60.2656 92.0539 60.1214 92.4856L59.7784 93.5822H62.6043H62.6082Z" fill="#F4BB49"/>
<path d="M218.569 0.435547H71.4717V33.74H218.569V0.435547Z" fill="#F4BB49"/>
<path d="M81.0054 25.2276C81.0054 24.7492 81.2275 24.5664 81.629 24.6053C82.9893 24.7142 83.9794 24.7881 84.642 24.7881C87.729 24.7881 88.4618 24.0181 88.4618 20.9031V6.12922C88.4618 5.542 88.719 5.32422 89.4167 5.32422H93.8251C94.2305 5.32422 94.4137 5.507 94.4137 5.91144V21.0509C94.4137 27.907 92.2465 29.9603 85.8152 29.9603C84.4549 29.9603 83.0244 29.8514 81.516 29.6687C81.1847 29.6337 81.0015 29.377 81.0015 28.9726V25.2314L81.0054 25.2276Z" fill="#173F73"/>
<path d="M98.4556 20.8681V5.91144C98.4556 5.507 98.6388 5.32422 99.0441 5.32422H103.819C104.224 5.32422 104.407 5.507 104.407 5.91144V20.5376C104.407 23.6176 105.327 24.7531 107.935 24.7531C110.543 24.7531 111.423 23.6176 111.423 20.5376V5.91144C111.423 5.507 111.607 5.32422 112.012 5.32422H116.787C117.192 5.32422 117.375 5.507 117.375 5.91144V20.8681C117.375 27.2848 114.659 29.9603 107.935 29.9603C101.211 29.9603 98.4556 27.2848 98.4556 20.8681Z" fill="#173F73"/>
<path d="M141.479 5.32422C141.884 5.32422 142.068 5.507 142.068 5.91144V28.9337C142.068 29.3381 141.884 29.5209 141.479 29.5209H136.739C136.447 29.5209 136.225 29.3731 136.042 29.1164L132.553 23.3998C131.817 22.1903 130.717 20.3198 129.248 17.7181C128.402 16.217 127.778 15.0776 127.338 14.3464C127.521 17.6092 127.63 20.6892 127.63 23.5476V28.9376C127.63 29.342 127.447 29.5248 127.042 29.5248H122.376C121.971 29.5248 121.788 29.342 121.788 28.9376V5.91533C121.788 5.51088 121.971 5.32811 122.376 5.32811H127.225C127.517 5.32811 127.739 5.47589 127.923 5.73255L131.302 11.3053C132.405 13.137 133.543 15.1553 134.755 17.3176L136.447 20.2498C136.264 17.4264 136.19 14.4203 136.19 11.2314V5.91533C136.19 5.51088 136.373 5.32811 136.778 5.32811H141.483L141.479 5.32422Z" fill="#173F73"/>
<path d="M161.903 5.32422C162.309 5.32422 162.492 5.507 162.492 5.91144V10.0181C162.492 10.4226 162.309 10.6053 161.903 10.6053H156.758V28.9337C156.758 29.3381 156.575 29.5209 156.17 29.5209H151.395C150.99 29.5209 150.806 29.3381 150.806 28.9337V10.6053H145.661C145.256 10.6053 145.073 10.4226 145.073 10.0181V5.91144C145.073 5.507 145.256 5.32422 145.661 5.32422H161.899H161.903Z" fill="#173F73"/>
<path d="M163.373 17.4225C163.373 8.4781 166.277 4.88477 173.807 4.88477C181.338 4.88477 184.207 8.4781 184.207 17.4225C184.207 26.367 181.303 29.9603 173.807 29.9603C166.312 29.9603 163.373 26.367 163.373 17.4225Z" fill="#173F73"/>
<path d="M201.396 9.79641C201.396 10.2009 201.173 10.3447 200.733 10.3097C199.08 10.127 197.502 9.94419 195.845 9.94419C192.501 9.94419 191.912 10.3836 191.912 12.0325C191.912 13.3509 192.318 13.9381 195.989 15.0386L197.533 15.517C201.832 16.8353 203.302 18.8886 203.302 22.7386C203.302 27.7981 200.951 29.9603 194.044 29.9603C191.729 29.9603 189.379 29.7036 187.028 29.1903C186.697 29.1164 186.514 28.8597 186.514 28.4553V24.7142C186.514 24.2359 186.736 24.0181 187.177 24.127C190.264 24.6053 192.025 24.8231 193.9 24.8231C196.691 24.8231 197.502 24.2747 197.502 22.6609C197.354 21.0859 197.061 20.9031 192.871 19.5459L191.916 19.2542C187.913 18.0447 186.187 15.6609 186.187 11.8109C186.187 7.00808 188.759 4.88086 195.077 4.88086C196.987 4.88086 198.936 5.06364 200.881 5.46808C201.212 5.54197 201.396 5.75975 201.396 6.12919V9.79641Z" fill="#173F73"/>
<path d="M12.2529 40.915C22.5352 40.915 27.2242 45.9667 27.2242 58.4578C27.2242 70.9489 22.5352 76.0006 12.2529 76.0006H1.22226C0.637597 76.0006 0.368652 75.7361 0.368652 75.1489V41.7628C0.368652 41.1795 0.6337 40.9111 1.22226 40.9111H12.2529V40.915ZM12.5725 68.4484C16.7821 68.4484 18.275 66.43 18.275 58.4539C18.275 50.4778 16.7821 48.4595 12.5725 48.4595H9.0022V68.4484H12.5725Z" fill="#F4BB49"/>
<path d="M33.7257 76.0006C33.141 76.0006 32.8721 75.7361 32.8721 75.1489V41.7628C32.8721 41.1795 33.1371 40.9111 33.7257 40.9111H40.7572C41.3419 40.9111 41.6109 41.1756 41.6109 41.7628V75.1489C41.6109 75.7322 41.3458 76.0006 40.7572 76.0006H33.7257Z" fill="#F4BB49"/>
<path d="M68.5677 47.3979C68.5677 47.9812 68.2481 48.1951 67.6089 48.1407C65.2117 47.8762 62.9198 47.6079 60.5227 47.6079C55.6739 47.6079 54.8203 48.2457 54.8203 50.6373C54.8203 52.5507 55.405 53.4023 60.7332 54.9968L62.9705 55.689C69.203 57.6023 71.3351 60.5812 71.3351 66.1618C71.3351 73.4962 67.9246 76.6345 57.9073 76.6345C54.5513 76.6345 51.1408 76.2612 47.7303 75.5184C47.2508 75.4134 46.9858 75.0401 46.9858 74.4568V69.0357C46.9858 68.3434 47.3054 68.0246 47.9446 68.184C52.4193 68.8762 54.9762 69.1951 57.6968 69.1951C61.7466 69.1951 62.9198 68.3979 62.9198 66.0568C62.7055 63.7701 62.2806 63.5057 56.2079 61.5379L54.8242 61.114C49.0165 59.3601 46.5142 55.9029 46.5142 50.3223C46.5142 43.3573 50.2443 40.2734 59.408 40.2734C62.1793 40.2734 65.0013 40.5379 67.8271 41.1251C68.3066 41.2301 68.5716 41.549 68.5716 42.0818V47.3979H68.5677Z" fill="#F4BB49"/>
<path d="M90.4144 40.2734C92.5465 40.2734 94.624 40.4329 96.6469 40.7518C97.2862 40.8062 97.446 41.1757 97.446 41.8679V47.1296C97.446 47.8218 97.1264 48.1912 96.5417 48.1407C94.3589 47.9268 92.5972 47.8218 91.3733 47.8218C85.0316 47.8218 83.3789 49.949 83.3789 58.454C83.4842 67.1729 84.8172 68.8723 91.3187 69.0862C92.5972 69.0862 94.355 68.9812 96.5417 68.7673H96.6469C97.1264 68.7673 97.446 69.1407 97.446 69.7784V75.0401C97.446 75.7323 97.2862 76.1018 96.6469 76.1562C94.624 76.4751 92.5426 76.6345 90.4144 76.6345C78.8536 76.6345 74.4297 71.5323 74.4297 58.454C74.4297 45.3757 78.9043 40.2734 90.4144 40.2734Z" fill="#F4BB49"/>
<path d="M102.03 63.455V41.7667C102.03 41.1834 102.295 40.915 102.883 40.915H109.81C110.394 40.915 110.663 41.1795 110.663 41.7667V62.9767C110.663 67.4411 111.996 69.09 115.777 69.09C119.558 69.09 120.84 67.4411 120.84 62.9767V41.7667C120.84 41.1834 121.105 40.915 121.694 40.915H128.62C129.205 40.915 129.474 41.1795 129.474 41.7667V63.455C129.474 72.7573 125.529 76.6384 115.781 76.6384C106.033 76.6384 102.034 72.7573 102.034 63.455H102.03Z" fill="#F4BB49"/>
<path d="M157.815 40.915C158.399 40.915 158.668 41.1795 158.668 41.7667V47.7206C158.668 48.3039 158.403 48.5723 157.815 48.5723H150.354V75.1528C150.354 75.7361 150.089 76.0045 149.501 76.0045H142.574C141.99 76.0045 141.721 75.74 141.721 75.1528V48.5723H134.26C133.676 48.5723 133.407 48.3078 133.407 47.7206V41.7667C133.407 41.1834 133.672 40.915 134.26 40.915H157.811H157.815Z" fill="#F4BB49"/>
<path d="M163.887 76.0006C163.303 76.0006 163.034 75.7361 163.034 75.1489V41.7628C163.034 41.1795 163.299 40.9111 163.887 40.9111H170.919C171.504 40.9111 171.772 41.1756 171.772 41.7628V75.1489C171.772 75.7322 171.507 76.0006 170.919 76.0006H163.887Z" fill="#F4BB49"/>
<path d="M204.541 74.9894C204.596 75.2033 204.646 75.3628 204.646 75.4133C204.646 75.7867 204.381 75.9967 203.847 75.9967H196.707C196.227 75.9967 195.908 75.7828 195.748 75.3589L191.324 64.4078H187.219V75.145C187.219 75.7283 186.954 75.9967 186.366 75.9967H179.44C178.855 75.9967 178.586 75.7322 178.586 75.145V41.7589C178.586 41.1756 178.851 40.9072 179.44 40.9072H191.959C200.538 40.9072 203.949 43.9911 203.949 52.6556C203.949 58.345 202.456 61.6389 199.1 63.1828L204.533 74.9856L204.541 74.9894ZM187.223 57.1783H190.794C194.15 57.1783 195.218 56.2217 195.218 52.6594C195.218 49.0972 194.204 48.3544 190.794 48.3544H187.223V57.1783Z" fill="#F4BB49"/>
<path d="M83.0633 84.1201C84.7783 84.1201 86.4505 84.2485 88.0797 84.5051C88.5942 84.5479 88.7229 84.8473 88.7229 85.4035V89.6385C88.7229 90.1946 88.4656 90.494 87.994 90.4512C86.2361 90.2801 84.8212 90.1946 83.8351 90.1946C78.7329 90.1946 77.4038 91.9057 77.4038 98.7462C77.4895 105.762 78.5614 107.127 83.7922 107.298C84.8212 107.298 86.2361 107.212 87.994 107.041H88.0797C88.4656 107.041 88.7229 107.341 88.7229 107.854V112.089C88.7229 112.645 88.5942 112.945 88.0797 112.987C86.4505 113.244 84.7783 113.372 83.0633 113.372C73.7632 113.372 70.2046 109.266 70.2046 98.7462C70.2046 88.2268 73.8061 84.1201 83.0633 84.1201Z" fill="#F4BB49"/>
<path d="M93.6923 112.859C93.2207 112.859 93.0063 112.645 93.0063 112.175V85.3182C93.0063 84.8477 93.2207 84.6338 93.6923 84.6338H99.3519C99.8235 84.6338 100.038 84.8477 100.038 85.3182V112.175C100.038 112.645 99.8235 112.859 99.3519 112.859H93.6923Z" fill="#F4BB49"/>
<path d="M115.084 84.6338C123.355 84.6338 127.128 88.6977 127.128 98.7466C127.128 108.795 123.355 112.859 115.084 112.859H106.212C105.741 112.859 105.526 112.645 105.526 112.175V85.3182C105.526 84.8477 105.741 84.6338 106.212 84.6338H115.084ZM115.341 106.785C118.728 106.785 119.929 105.159 119.929 98.7466C119.929 92.3338 118.728 90.7082 115.341 90.7082H112.468V106.789H115.341V106.785Z" fill="#F4BB49"/>
<path d="M153.663 112.089C153.706 112.175 153.706 112.26 153.706 112.389C153.706 112.688 153.492 112.859 153.106 112.859H147.318C146.932 112.859 146.675 112.688 146.546 112.303L145.131 107.726H136.474L135.059 112.303C134.931 112.688 134.673 112.859 134.288 112.859H128.499C127.985 112.859 127.77 112.603 127.942 112.089L137.113 85.1899C137.242 84.8049 137.499 84.6338 137.885 84.6338H143.716C144.102 84.6338 144.359 84.8049 144.488 85.1899L153.659 112.089H153.663ZM141.701 95.966L140.801 92.5438L139.9 95.966L138.314 101.741H143.287L141.701 95.966Z" fill="#F4BB49"/>
<path d="M166.265 84.6338C174.536 84.6338 178.309 88.6977 178.309 98.7466C178.309 108.795 174.536 112.859 166.265 112.859H157.394C156.922 112.859 156.708 112.645 156.708 112.175V85.3182C156.708 84.8477 156.922 84.6338 157.394 84.6338H166.265ZM166.522 106.785C169.909 106.785 171.11 105.159 171.11 98.7466C171.11 92.3338 169.909 90.7082 166.522 90.7082H163.649V106.789H166.522V106.785Z" fill="#F4BB49"/>
<path d="M200.386 106.785C200.858 106.785 201.072 106.999 201.072 107.469V112.175C201.072 112.645 200.858 112.859 200.386 112.859H183.54C183.068 112.859 182.854 112.645 182.854 112.175V85.3182C182.854 84.8477 183.068 84.6338 183.54 84.6338H199.957C200.429 84.6338 200.643 84.8477 200.643 85.3182V90.0238C200.643 90.4943 200.429 90.7082 199.957 90.7082H189.8V95.756H199.1C199.572 95.756 199.786 95.9699 199.786 96.4405V101.06C199.786 101.531 199.572 101.745 199.1 101.745H189.8V106.793H200.386V106.785Z" fill="#F4BB49"/>
<path d="M207.375 104.389C206.989 104.389 206.732 104.175 206.689 103.705L206.474 100.453C206.303 97.6729 207.289 96.2184 209.476 94.379L210.076 93.8656C211.577 92.6251 212.005 91.9834 212.005 91.0851C212.005 90.0156 211.319 89.5879 208.961 89.5879C207.932 89.5879 206.517 89.7162 204.716 89.9729H204.631C204.288 89.9729 203.945 89.8018 203.902 89.3312V85.2673C203.945 84.8823 204.159 84.6256 204.545 84.5401C205.017 84.4545 205.831 84.369 206.989 84.2406C208.147 84.1551 209.218 84.1123 210.119 84.1123C215.778 84.1123 218.008 86.3367 218.008 90.4862C218.008 93.3523 217.107 94.6356 215.435 96.0473L215.135 96.304C213.377 97.844 212.563 98.7851 212.52 100.625L212.348 103.705C212.305 104.175 212.048 104.389 211.662 104.389H207.375ZM206.432 107.469C206.432 106.998 206.646 106.785 207.118 106.785H211.834C212.305 106.785 212.52 106.998 212.52 107.469V112.175C212.52 112.645 212.305 112.859 211.834 112.859H207.118C206.646 112.859 206.432 112.645 206.432 112.175V107.469Z" fill="#F4BB49"/>
<path d="M172.758 15.3421C172.26 15.8398 171.807 16.291 171.351 16.7382C171.273 16.816 171.273 16.9093 171.273 17.0065C171.273 17.4226 171.266 17.8387 171.273 18.251C171.273 18.4221 171.215 18.4921 171.043 18.4921C170.673 18.4843 170.299 18.4921 169.929 18.4921C169.796 18.4921 169.691 18.4648 169.695 18.2976C169.707 17.7804 169.656 17.2593 169.726 16.7421C169.784 16.2948 169.972 15.906 170.295 15.5832C171.071 14.8054 171.85 14.0315 172.626 13.2537C172.727 13.1526 172.833 13.0982 172.981 13.1021C173.339 13.106 173.694 13.1098 174.053 13.1021C174.259 13.0943 174.318 13.176 174.318 13.3743C174.31 14.9687 174.318 16.5632 174.31 18.1576C174.31 18.3521 174.364 18.4882 174.505 18.6243C175.241 19.3476 175.966 20.0826 176.699 20.806C177.159 21.2571 177.377 21.8015 177.377 22.4432C177.377 23.3026 177.37 24.166 177.381 25.0254C177.381 25.251 177.311 25.3248 177.085 25.3132C176.738 25.2976 176.387 25.3015 176.037 25.3132C175.849 25.3171 175.795 25.2471 175.795 25.0643C175.803 24.1582 175.795 23.256 175.799 22.3498C175.799 22.1865 175.748 22.0737 175.635 21.961C174.731 21.0665 173.838 20.1682 172.934 19.2737C172.809 19.1493 172.755 19.021 172.755 18.846C172.762 17.7765 172.755 16.711 172.755 15.6415C172.755 15.5637 172.755 15.4821 172.755 15.3421H172.758Z" fill="#F4BB49"/>
<path d="M173.542 7.03906C174.805 7.03906 175.846 8.07739 175.842 9.32961C175.842 10.6052 174.805 11.6435 173.535 11.6435C172.268 11.6435 171.211 10.5896 171.219 9.3335C171.227 8.05794 172.264 7.03128 173.538 7.03517L173.542 7.03906Z" fill="#F4BB49"/>
<path d="M172.279 20.1836C172.314 20.2108 172.357 20.238 172.396 20.273C172.685 20.5608 172.965 20.8564 173.258 21.1441C173.351 21.2375 173.332 21.2997 173.25 21.3853C171.971 22.6569 170.697 23.9286 169.418 25.2041C169.325 25.2975 169.255 25.2975 169.161 25.2041C168.892 24.928 168.623 24.6519 168.343 24.3875C168.21 24.263 168.206 24.1814 168.343 24.0491C169.157 23.248 169.964 22.4391 170.771 21.6303C171.211 21.1908 171.652 20.7514 172.096 20.3119C172.147 20.2614 172.194 20.1953 172.287 20.1875L172.279 20.1836Z" fill="#F4BB49"/>
<path d="M175.471 14.2959C175.507 14.327 175.542 14.3503 175.573 14.3815C176.641 15.447 177.705 16.5087 178.773 17.5703C178.87 17.6676 178.863 17.7337 178.773 17.827C178.492 18.0992 178.212 18.3792 177.939 18.6592C177.83 18.772 177.752 18.7642 177.646 18.6592C176.945 17.9553 176.239 17.2515 175.534 16.5515C175.448 16.4659 175.405 16.3765 175.409 16.2559C175.409 15.6648 175.409 15.0698 175.409 14.4748C175.409 14.4126 175.39 14.3426 175.475 14.2959H175.471Z" fill="#F4BB49"/>
<path d="M197.385 31.8848L206.373 40.8564L214.406 32.8414L197.385 31.8848Z" fill="#F4BB49"/>
</g>
<defs>
<clipPath id="clip0_42_594">
<rect width="219" height="113" fill="white"/>
</clipPath>
</defs>
</svg>
