<svg width="60" height="58" viewBox="0 0 60 58" fill="none" xmlns="http://www.w3.org/2000/svg">
<path d="M14.3299 21.9596C15.3015 21.9596 16.2512 21.6714 17.0588 21.1315C17.8665 20.5915 18.4958 19.8241 18.8671 18.9263C19.2385 18.0285 19.3351 17.0408 19.1448 16.0881C18.9546 15.1354 18.486 14.2605 17.7983 13.5742C17.1106 12.8879 16.2348 12.4211 15.2817 12.2328C14.3286 12.0445 13.341 12.1431 12.444 12.5163C11.547 12.8894 10.7809 13.5203 10.2426 14.3291C9.70424 15.1378 9.41795 16.0881 9.41993 17.0596C9.42258 18.3601 9.94105 19.6064 10.8616 20.5251C11.7821 21.4437 13.0294 21.9597 14.3299 21.9596ZM14.3299 14.1496C14.9055 14.1496 15.4681 14.3203 15.9466 14.6401C16.4252 14.9598 16.7982 15.4143 17.0184 15.946C17.2387 16.4778 17.2963 17.0629 17.184 17.6274C17.0717 18.1918 16.7946 18.7104 16.3876 19.1173C15.9806 19.5243 15.4621 19.8015 14.8976 19.9137C14.3332 20.026 13.7481 19.9684 13.2163 19.7481C12.6846 19.5279 12.2301 19.1549 11.9104 18.6764C11.5906 18.1978 11.4199 17.6352 11.4199 17.0596C11.4199 16.6775 11.4952 16.2991 11.6414 15.946C11.7877 15.593 12.002 15.2722 12.2723 15.002C12.5425 14.7318 12.8633 14.5174 13.2163 14.3712C13.5694 14.2249 13.9478 14.1496 14.3299 14.1496Z" fill="#EC7329"/>
<path d="M26.04 49.55C26.5837 48.7218 26.8691 47.7507 26.86 46.76C26.8602 45.4264 26.3359 44.1463 25.4005 43.1959C24.465 42.2455 23.1934 41.701 21.86 41.68C20.9684 41.6869 20.0949 41.932 19.33 42.39V39.32H54.68C54.9452 39.32 55.1996 39.2146 55.3871 39.0271C55.5746 38.8396 55.68 38.5852 55.68 38.32V1C55.68 0.734784 55.5746 0.48043 55.3871 0.292893C55.1996 0.105357 54.9452 0 54.68 0H4.35C4.08478 0 3.83043 0.105357 3.64289 0.292893C3.45536 0.48043 3.35 0.734784 3.35 1V38.32C3.35 38.5852 3.45536 38.8396 3.64289 39.0271C3.83043 39.2146 4.08478 39.32 4.35 39.32H9.42V42.32C8.61602 41.7881 7.67399 41.5031 6.71 41.5C5.79195 41.496 4.89011 41.7419 4.1011 42.2112C3.31209 42.6806 2.66563 43.3557 2.23099 44.1644C1.79636 44.973 1.58991 45.8847 1.63377 46.8017C1.67764 47.7187 1.97016 48.6065 2.48 49.37C1.72069 49.8742 1.09723 50.5576 0.6647 51.3598C0.232169 52.1621 0.0038798 53.0586 0 53.97V57.8H2V53.95C2.00162 53.2984 2.18255 52.6598 2.52298 52.1042C2.8634 51.5486 3.35019 51.0974 3.93 50.8L4.05 50.87L4.35 51.03C4.47415 51.1019 4.60471 51.1622 4.74 51.21C4.88589 51.277 5.03625 51.3338 5.19 51.38H5.36C5.79908 51.5065 6.2531 51.5738 6.71 51.58C7.16362 51.5738 7.61434 51.5066 8.05 51.38H8.22C8.37701 51.3338 8.5307 51.277 8.68 51.21C8.81125 51.1602 8.93832 51.1 9.06 51.03L9.36 50.87C9.36 50.87 9.45 50.87 9.48 50.8C10.0598 51.0974 10.5466 51.5486 10.887 52.1042C11.2274 52.6598 11.4084 53.2984 11.41 53.95V57.8H13.41V53.95C13.4079 53.0382 13.1803 52.1411 12.7477 51.3386C12.315 50.536 11.6906 49.8529 10.93 49.35C11.4531 48.5667 11.7443 47.6516 11.77 46.71H16.77C16.7698 47.7038 17.0657 48.6751 17.62 49.5C16.8601 50.0035 16.2361 50.6868 15.8035 51.4892C15.3709 52.2916 15.143 53.1884 15.14 54.1V58H17.14V54.15C17.1396 53.4992 17.3185 52.8609 17.6572 52.3051C17.996 51.7494 18.4813 51.2978 19.06 51C19.06 51 19.15 51 19.18 51.07L19.48 51.23C19.6061 51.2982 19.7363 51.3583 19.87 51.41C20.0166 51.4754 20.1668 51.5321 20.32 51.58L20.5 51.63C21.3734 51.8966 22.3066 51.8966 23.18 51.63L23.36 51.58C23.5132 51.5321 23.6634 51.4754 23.81 51.41C23.9413 51.3602 24.0683 51.3 24.19 51.23L24.5 51.07L24.62 51C25.1987 51.2978 25.684 51.7494 26.0228 52.3051C26.3615 52.8609 26.5404 53.4992 26.54 54.15V58H28.54V54.15C28.5348 53.2366 28.3038 52.3386 27.8677 51.536C27.4315 50.7335 26.8036 50.0512 26.04 49.55ZM21.86 43.68C22.4893 43.6806 23.1033 43.8738 23.6194 44.2339C24.1355 44.5939 24.529 45.1034 24.7469 45.6937C24.9647 46.2841 24.9965 46.9271 24.8379 47.536C24.6794 48.145 24.3381 48.6908 23.86 49.1C23.2981 49.5668 22.5905 49.8223 21.86 49.8223C21.1295 49.8223 20.4219 49.5668 19.86 49.1C19.3819 48.6908 19.0406 48.145 18.8821 47.536C18.7235 46.9271 18.7553 46.2841 18.9731 45.6937C19.191 45.1034 19.5845 44.5939 20.1006 44.2339C20.6167 43.8738 21.2307 43.6806 21.86 43.68ZM5.35 37.32V2H53.68V37.32H19.34V34.55C19.5336 34.5942 19.7314 34.6177 19.93 34.62C20.5966 34.6174 21.235 34.3507 21.7054 33.8784C22.1759 33.4061 22.44 32.7666 22.44 32.1V26.1C22.4413 25.6286 22.3498 25.1615 22.1706 24.7254C21.9914 24.2893 21.728 23.8928 21.3956 23.5586C21.0632 23.2243 20.6681 22.9587 20.2331 22.7771C19.798 22.5955 19.3314 22.5013 18.86 22.5H18.41C18.3337 22.4896 18.2563 22.4896 18.18 22.5H10.38C9.79262 22.4987 9.21077 22.6134 8.66785 22.8376C8.12493 23.0617 7.63163 23.391 7.21629 23.8063C6.80095 24.2216 6.47174 24.7149 6.24757 25.2578C6.0234 25.8008 5.90868 26.3826 5.91 26.97V32.18C5.91265 32.905 6.20249 33.5993 6.71605 34.111C7.22962 34.6227 7.92504 34.91 8.65 34.91C8.89658 34.9076 9.14187 34.874 9.38 34.81V37.25L5.35 37.32ZM6.71 43.5C7.29977 43.5018 7.87654 43.6735 8.37132 43.9945C8.8661 44.3155 9.25794 44.7722 9.5 45.31C9.67739 45.6994 9.76945 46.1221 9.77 46.55C9.76843 46.9957 9.67016 47.4357 9.48198 47.8397C9.29379 48.2437 9.02017 48.602 8.68 48.89C8.26558 49.2248 7.773 49.4491 7.24833 49.5418C6.72367 49.6345 6.18407 49.5926 5.68 49.42C5.33802 49.3018 5.0222 49.1184 4.75 48.88C4.40691 48.5968 4.13112 48.2407 3.9426 47.8378C3.75408 47.4348 3.65755 46.9949 3.66 46.55C3.66782 45.7435 3.99167 44.9723 4.56197 44.402C5.13227 43.8317 5.90351 43.5078 6.71 43.5ZM15.42 44.73V37.65C15.42 37.3848 15.3146 37.1304 15.1271 36.9429C14.9396 36.7554 14.6852 36.65 14.42 36.65C14.1548 36.65 13.9004 36.7554 13.7129 36.9429C13.5254 37.1304 13.42 37.3848 13.42 37.65V44.7H11.42V32.25V27.57C11.42 27.3048 11.3146 27.0504 11.1271 26.8629C10.9396 26.6754 10.6852 26.57 10.42 26.57C10.1548 26.57 9.90043 26.6754 9.71289 26.8629C9.52536 27.0504 9.42 27.3048 9.42 27.57V32.24C9.42 32.4336 9.34309 32.6193 9.20619 32.7562C9.06929 32.8931 8.88361 32.97 8.69 32.97C8.49624 32.9675 8.31097 32.8901 8.17302 32.754C8.03507 32.6179 7.95515 32.4337 7.95 32.24V27.04C7.94868 26.7153 8.01166 26.3935 8.13532 26.0932C8.25898 25.7929 8.44087 25.5201 8.6705 25.2905C8.90012 25.0609 9.17294 24.879 9.47321 24.7553C9.77348 24.6317 10.0953 24.5687 10.42 24.57H18.42C18.4996 24.581 18.5804 24.581 18.66 24.57H18.86C19.0682 24.5673 19.2749 24.6063 19.4678 24.6848C19.6607 24.7632 19.836 24.8795 19.9832 25.0268C20.1305 25.174 20.2468 25.3493 20.3252 25.5422C20.4037 25.7351 20.4427 25.9418 20.44 26.15V32.15C20.4621 32.2274 20.4659 32.3089 20.4512 32.388C20.4365 32.4671 20.4036 32.5417 20.3551 32.606C20.3067 32.6702 20.2439 32.7224 20.1719 32.7583C20.0999 32.7941 20.0205 32.8128 19.94 32.8128C19.8595 32.8128 19.7801 32.7941 19.7081 32.7583C19.6361 32.7224 19.5733 32.6702 19.5249 32.606C19.4764 32.5417 19.4435 32.4671 19.4288 32.388C19.4141 32.3089 19.4179 32.2274 19.44 32.15V27.57C19.44 27.3048 19.3346 27.0504 19.1471 26.8629C18.9596 26.6754 18.7052 26.57 18.44 26.57C18.1748 26.57 17.9204 26.6754 17.7329 26.8629C17.5454 27.0504 17.44 27.3048 17.44 27.57L17.32 38.33L17.25 44.58L17.18 44.72L15.42 44.73Z" fill="#EC7329"/>
<path d="M42.17 49.3498C42.6028 48.6896 42.8755 47.9375 42.9663 47.1534C43.0571 46.3692 42.9636 45.5747 42.6932 44.8331C42.4227 44.0915 41.9829 43.4233 41.4086 42.8817C40.8344 42.34 40.1415 41.94 39.3854 41.7134C38.6292 41.4868 37.8306 41.4399 37.0531 41.5764C36.2756 41.7129 35.5408 42.0291 34.907 42.4998C34.2733 42.9704 33.7582 43.5826 33.4029 44.2874C33.0475 44.9923 32.8616 45.7704 32.86 46.5598C32.8597 47.5536 33.1557 48.5249 33.71 49.3498C32.9494 49.8527 32.325 50.5358 31.8923 51.3384C31.4596 52.1409 31.2321 53.038 31.23 53.9498V57.7998H33.23V53.9498C33.2327 53.2984 33.4141 52.6603 33.7544 52.1049C34.0947 51.5494 34.5809 51.098 35.16 50.7998L35.29 50.8698C35.3833 50.929 35.4801 50.9825 35.58 51.0298L35.97 51.2098C36.1166 51.2751 36.2668 51.3319 36.42 51.3798H36.61C37.48 51.6462 38.4099 51.6462 39.28 51.3798H39.46C39.6132 51.3319 39.7634 51.2751 39.91 51.2098C40.0445 51.16 40.1749 51.0998 40.3 51.0298L40.6 50.8698L40.72 50.7998C41.2986 51.0976 41.784 51.5492 42.1227 52.1049C42.4615 52.6606 42.6404 53.299 42.64 53.9498V57.7998H44.64V53.9498C44.6381 53.0391 44.4117 52.1429 43.9809 51.3406C43.55 50.5382 42.9281 49.8544 42.17 49.3498ZM37.94 43.4998C38.5719 43.4947 39.1899 43.6847 39.7098 44.044C40.2297 44.4032 40.6261 44.9141 40.8448 45.5069C41.0636 46.0997 41.0941 46.7456 40.9321 47.3564C40.7702 47.9672 40.4237 48.5132 39.94 48.9198C39.5256 49.2546 39.033 49.4789 38.5083 49.5716C37.9836 49.6643 37.444 49.6224 36.94 49.4498C36.7715 49.3886 36.6077 49.3151 36.45 49.2298C36.2923 49.1381 36.1419 49.0344 36 48.9198C35.6438 48.6383 35.3561 48.2797 35.1586 47.8709C34.9612 47.4621 34.859 47.0138 34.86 46.5598C34.8653 45.7464 35.1921 44.9681 35.7691 44.3948C36.3462 43.8215 37.1266 43.4998 37.94 43.4998Z" fill="#EC7329"/>
<path d="M57.3199 49.35C57.8742 48.5252 58.1701 47.5539 58.1699 46.56C58.1735 45.7663 57.991 44.9828 57.6372 44.2723C57.2833 43.5618 56.7678 42.9441 56.1322 42.4687C55.4965 41.9934 54.7583 41.6736 53.9767 41.535C53.1951 41.3965 52.392 41.443 51.6316 41.6708C50.8713 41.8987 50.1749 42.3016 49.5984 42.8471C49.0218 43.3927 48.5811 44.0657 48.3117 44.8123C48.0422 45.559 47.9514 46.3583 48.0466 47.1463C48.1418 47.9344 48.4203 48.6891 48.8599 49.35C48.1006 49.8542 47.4771 50.5376 47.0446 51.3399C46.6121 52.1422 46.3838 53.0386 46.3799 53.95V57.8H48.3799V53.95C48.3815 53.2984 48.5624 52.6598 48.9029 52.1042C49.2433 51.5486 49.7301 51.0974 50.3099 50.8L50.4299 50.87L50.7299 51.03C50.8516 51.1001 50.9786 51.1602 51.1099 51.21C51.2598 51.2755 51.4134 51.3322 51.5699 51.38H51.7399C52.179 51.5065 52.633 51.5738 53.0899 51.58C53.5435 51.5739 53.9942 51.5066 54.4299 51.38H54.5999C54.7569 51.3339 54.9106 51.2771 55.0599 51.21C55.1911 51.1602 55.3182 51.1001 55.4399 51.03C55.543 50.9827 55.6432 50.9293 55.7399 50.87C55.7399 50.87 55.8299 50.87 55.8599 50.8C56.4397 51.0974 56.9265 51.5486 57.2669 52.1042C57.6073 52.6598 57.7883 53.2984 57.7899 53.95V57.8H59.7899V53.95C59.7889 53.0392 59.5629 52.1427 59.132 51.3402C58.701 50.5377 58.0786 49.8541 57.3199 49.35ZM53.0999 43.5C53.7292 43.5006 54.3432 43.6939 54.8593 44.0539C55.3754 44.4139 55.7689 44.9234 55.9867 45.5138C56.2046 46.1042 56.2364 46.7471 56.0778 47.3561C55.9193 47.9651 55.578 48.5109 55.0999 48.92C54.6846 49.2532 54.192 49.4764 53.6677 49.5691C53.1434 49.6617 52.6042 49.6208 52.0999 49.45C51.7579 49.3318 51.4421 49.1484 51.1699 48.91C50.8268 48.6268 50.551 48.2708 50.3625 47.8678C50.174 47.4648 50.0774 47.0249 50.0799 46.58C50.0797 45.7735 50.396 44.999 50.9607 44.4231C51.5254 43.8472 52.2935 43.5158 53.0999 43.5Z" fill="#EC7329"/>
<path d="M20.86 18.8001C21.0423 18.9609 21.2769 19.0498 21.52 19.0501H21.59L33.65 18.2601C33.7823 18.2525 33.9117 18.2187 34.0309 18.1606C34.15 18.1025 34.2563 18.0214 34.3438 17.9218C34.4313 17.8222 34.4981 17.7063 34.5403 17.5807C34.5826 17.4551 34.5995 17.3223 34.59 17.1901L33.86 6.12015C33.842 5.85654 33.7204 5.61076 33.5218 5.43651C33.3232 5.26225 33.0637 5.17368 32.8 5.19015L30.51 5.34015L30.44 4.34015C30.422 4.07654 30.3004 3.83076 30.1018 3.65651C29.9032 3.48225 29.6437 3.39368 29.38 3.41015L23.86 3.76015C23.5964 3.77813 23.3506 3.89971 23.1763 4.09832C23.0021 4.29694 22.9135 4.55644 22.93 4.82015L23 5.82015L20.71 5.97015C20.5786 5.9778 20.45 6.01131 20.3315 6.06877C20.2131 6.12622 20.1072 6.20649 20.0199 6.30497C19.9325 6.40345 19.8655 6.5182 19.8226 6.64265C19.7797 6.76709 19.7619 6.89877 19.77 7.03015L20.51 18.0901C20.5169 18.2261 20.5515 18.3592 20.6117 18.4813C20.6719 18.6033 20.7564 18.7119 20.86 18.8001ZM28.48 5.50015L28.62 7.50015L25.13 7.73015L25.06 6.73015L24.99 5.73015L28.48 5.50015ZM23.13 7.87015L23.2 8.87015C23.2194 9.13274 23.3415 9.37708 23.54 9.55015C23.6302 9.63776 23.7399 9.70285 23.86 9.74015H23.97C24.043 9.74885 24.1169 9.74885 24.19 9.74015H24.26L29.75 9.38015C29.8796 9.36947 30.0056 9.33202 30.12 9.27015C30.3588 9.15524 30.5422 8.95022 30.63 8.70015C30.6556 8.57141 30.6556 8.43889 30.63 8.31015L30.56 7.31015L31.86 7.25015L32.46 16.3201L22.4 16.9801L21.86 7.92015L23.13 7.87015Z" fill="#EC7329"/>
<path d="M36.3602 19.7302L48.1302 22.5002C48.2066 22.5097 48.2839 22.5097 48.3602 22.5002C48.59 22.5064 48.8149 22.4331 48.9971 22.2929C49.1792 22.1527 49.3075 21.9539 49.3602 21.7302L51.8602 10.9602C51.8899 10.8322 51.894 10.6995 51.8723 10.5699C51.8507 10.4403 51.8037 10.3162 51.734 10.2047C51.6643 10.0933 51.5734 9.99667 51.4664 9.92039C51.3593 9.84412 51.2383 9.78969 51.1102 9.76021L48.8602 9.24021L49.0902 8.24021C49.1199 8.11217 49.124 7.97954 49.1023 7.84991C49.0807 7.72028 49.0337 7.59619 48.964 7.48474C48.8943 7.37329 48.8034 7.27667 48.6964 7.20039C48.5893 7.12412 48.4683 7.06968 48.3402 7.04021L43.0202 5.79021C42.7642 5.73002 42.4947 5.77313 42.2702 5.91021C42.0652 6.0493 41.9191 6.25955 41.8602 6.50021L41.6302 7.50021L39.3502 7.00021C39.093 6.94007 38.8225 6.98413 38.5977 7.12277C38.3728 7.26142 38.212 7.48339 38.1502 7.74021L35.6202 18.5002C35.586 18.6296 35.578 18.7646 35.5969 18.8971C35.6157 19.0297 35.661 19.1571 35.73 19.2718C35.7991 19.3865 35.8904 19.4862 35.9986 19.5649C36.1069 19.6437 36.2299 19.6999 36.3602 19.7302ZM46.9402 8.73021L46.4802 10.7302L43.0802 9.93021L43.3102 8.93021L43.5402 7.93021L46.9402 8.73021ZM39.8602 9.17021L41.1202 9.47021L40.8602 10.5002C40.8235 10.6867 40.8406 10.8799 40.9097 11.057C40.9788 11.2341 41.0969 11.3878 41.2502 11.5002C41.3603 11.5735 41.4821 11.6276 41.6102 11.6602L46.9602 12.9202H47.1902H47.3002H47.3902C47.503 12.8989 47.6113 12.8583 47.7102 12.8002C47.7593 12.7631 47.8061 12.7231 47.8502 12.6802C47.9018 12.6387 47.9487 12.5917 47.9902 12.5402C48.0705 12.4328 48.1283 12.3104 48.1602 12.1802L48.3902 11.1802L49.6502 11.4802L47.5802 20.3202L37.7502 18.0202L39.8602 9.17021Z" fill="#EC7329"/>
<path d="M29.47 20.7695C29.2047 20.7695 28.9504 20.8749 28.7629 21.0624C28.5753 21.25 28.47 21.5043 28.47 21.7695V22.7695L26.17 22.7195C25.9047 22.7195 25.6504 22.8249 25.4629 23.0124C25.2753 23.2 25.17 23.4543 25.17 23.7195L24.96 34.8095C24.96 35.0747 25.0653 35.3291 25.2529 35.5166C25.4404 35.7042 25.6947 35.8095 25.96 35.8095L38.04 36.0495C38.3052 36.0495 38.5595 35.9442 38.7471 35.7566C38.9346 35.5691 39.04 35.3147 39.04 35.0495L39.26 23.9695C39.2655 23.8382 39.2435 23.7071 39.1953 23.5848C39.147 23.4625 39.0737 23.3517 38.98 23.2595C38.892 23.1611 38.784 23.0826 38.6633 23.0292C38.5426 22.9757 38.412 22.9486 38.28 22.9495L35.98 22.8995V21.8995C35.9855 21.7682 35.9635 21.6371 35.9153 21.5148C35.867 21.3925 35.7937 21.2817 35.7 21.1895C35.6094 21.0944 35.5009 21.0181 35.3808 20.9649C35.2607 20.9117 35.1313 20.8827 35 20.8795L29.51 20.7695H29.47ZM37.2 24.9395L37.02 34.0195L26.94 33.8195L27.11 24.7395H28.41V25.7395C28.4066 25.8721 28.4296 26.0041 28.4776 26.1277C28.5257 26.2513 28.5979 26.3641 28.69 26.4595C28.8746 26.6479 29.1262 26.7558 29.39 26.7595L34.88 26.8695C34.9365 26.8744 34.9934 26.8744 35.05 26.8695H35.26C35.3369 26.8288 35.4105 26.782 35.48 26.7295L35.58 26.6595C35.6735 26.5683 35.7482 26.4595 35.8 26.3395C35.8512 26.2193 35.8784 26.0902 35.88 25.9595V24.9595L37.2 24.9395ZM33.94 22.8595V23.8595V24.8595L30.45 24.7895V23.7895V22.7895L33.94 22.8595Z" fill="#EC7329"/>
<path d="M51.7099 25.5596H41.6299V27.5596H51.7099V25.5596Z" fill="#EC7329"/>
<path d="M48.6799 28.5898H41.6299V30.5898H48.6799V28.5898Z" fill="#EC7329"/>
<path d="M51.7099 31.6104H41.6299V33.6104H51.7099V31.6104Z" fill="#EC7329"/>
</svg>
